M48
; DRILL file {KiCad (5.1.8)-1} date 12/15/20 23:42:20
; FORMAT={-:-/ absolute / inch / decimal}
; #@! TF.CreationDate,2020-12-15T23:42:20+02:00
; #@! TF.GenerationSoftware,Kicad,Pcbnew,(5.1.8)-1
; #@! TF.FileFunction,Plated,1,2,PTH
FMAT,2
INCH
T1C0.0118
T2C0.0197
T3C0.0315
T4C0.0354
T5C0.0394
%
G90
G05
T1
X6.7Y-3.35
X6.7Y-3.4
X6.7Y-3.45
X6.7Y-3.5
X6.7Y-3.55
X6.7Y-3.6
X6.7Y-3.65
X6.7Y-3.7
X6.7Y-3.75
X6.7Y-3.8
X6.7Y-3.85
X6.7Y-3.9
X6.7Y-4.2
X6.7Y-4.35
X6.7Y-4.4
X6.7Y-4.45
X6.7Y-4.5
X6.7Y-4.55
X6.7Y-4.6
X6.7Y-4.65
X6.7Y-4.7
X6.7Y-4.75
X6.7Y-4.8
X6.7Y-4.85
X6.7Y-4.9
X6.7Y-4.95
X6.705Y-4.05
X6.75Y-3.35
X6.75Y-3.4
X6.75Y-3.45
X6.75Y-3.5
X6.75Y-3.55
X6.75Y-3.6
X6.75Y-3.65
X6.75Y-3.7
X6.75Y-3.75
X6.75Y-3.8
X6.75Y-3.85
X6.75Y-3.9
X6.75Y-4.05
X6.75Y-4.2
X6.75Y-4.35
X6.75Y-4.4
X6.75Y-4.45
X6.75Y-4.5
X6.75Y-4.55
X6.75Y-4.6
X6.75Y-4.65
X6.75Y-4.7
X6.75Y-4.75
X6.75Y-4.8
X6.75Y-4.85
X6.75Y-4.9
X6.75Y-4.95
X6.8Y-3.35
X6.8Y-3.4
X6.8Y-3.45
X6.8Y-3.5
X6.8Y-3.55
X6.8Y-3.6
X6.8Y-3.65
X6.8Y-3.7
X6.8Y-3.75
X6.8Y-3.8
X6.8Y-3.85
X6.8Y-3.9
X6.8Y-4.05
X6.8Y-4.2
X6.8Y-4.35
X6.8Y-4.4
X6.8Y-4.45
X6.8Y-4.5
X6.8Y-4.55
X6.8Y-4.6
X6.8Y-4.65
X6.8Y-4.7
X6.8Y-4.75
X6.8Y-4.8
X6.8Y-4.85
X6.8Y-4.9
X6.8Y-4.95
X6.85Y-3.2
X6.85Y-3.25
X6.85Y-3.3
X6.85Y-3.35
X6.85Y-3.4
X6.85Y-3.45
X6.85Y-3.5
X6.85Y-3.55
X6.85Y-3.6
X6.85Y-3.65
X6.85Y-3.7
X6.85Y-3.75
X6.85Y-3.8
X6.85Y-3.85
X6.85Y-3.9
X6.85Y-4.05
X6.85Y-4.2
X6.85Y-4.35
X6.85Y-4.4
X6.85Y-4.45
X6.85Y-4.5
X6.85Y-4.55
X6.85Y-4.8
X6.85Y-4.85
X6.85Y-5.1
X6.9Y-3.2
X6.9Y-3.3
X6.9Y-3.35
X6.9Y-3.4
X6.9Y-3.45
X6.9Y-3.5
X6.9Y-3.55
X6.9Y-3.6
X6.9Y-3.65
X6.9Y-3.7
X6.9Y-3.75
X6.9Y-3.8
X6.9Y-3.85
X6.9Y-3.9
X6.9Y-3.95
X6.9Y-4.0
X6.9Y-4.05
X6.9Y-4.2
X6.9Y-4.25
X6.9Y-4.3
X6.9Y-4.35
X6.9Y-4.4
X6.9Y-4.45
X6.9Y-4.5
X6.9Y-4.55
X6.9Y-5.1
X6.95Y-3.2
X6.95Y-3.25
X6.95Y-3.35
X6.95Y-3.4
X6.95Y-3.45
X6.95Y-3.5
X6.95Y-3.55
X6.95Y-3.6
X6.95Y-3.65
X6.95Y-3.7
X6.95Y-3.75
X6.95Y-3.8
X6.95Y-3.85
X6.95Y-3.9
X6.95Y-3.95
X6.95Y-4.0
X6.95Y-4.05
X6.95Y-4.2
X6.95Y-4.25
X6.95Y-4.3
X6.95Y-4.35
X6.95Y-4.4
X6.95Y-4.45
X6.95Y-4.5
X6.95Y-4.55
X6.95Y-4.8
X6.95Y-4.85
X6.95Y-4.9
X6.95Y-4.95
X6.95Y-5.0
X6.95Y-5.05
X6.95Y-5.1
X7.0Y-3.2
X7.0Y-3.25
X7.0Y-3.3
X7.0Y-3.4
X7.0Y-3.45
X7.0Y-3.5
X7.0Y-3.55
X7.0Y-3.6
X7.0Y-3.65
X7.0Y-3.7
X7.0Y-3.75
X7.0Y-3.8
X7.0Y-3.85
X7.0Y-3.9
X7.0Y-3.95
X7.0Y-4.0
X7.0Y-4.2
X7.0Y-4.25
X7.0Y-4.3
X7.0Y-4.35
X7.0Y-4.4
X7.0Y-4.45
X7.0Y-4.5
X7.0Y-4.55
X7.0Y-4.8
X7.0Y-4.85
X7.0Y-4.9
X7.0Y-4.95
X7.0Y-5.0
X7.0Y-5.05
X7.0Y-5.1
X7.05Y-3.2
X7.05Y-3.25
X7.05Y-3.3
X7.05Y-3.35
X7.05Y-4.8
X7.05Y-4.85
X7.05Y-5.1
X7.1Y-3.2
X7.1Y-3.25
X7.1Y-3.3
X7.1Y-3.35
X7.1Y-3.4
X7.1Y-3.45
X7.1Y-3.5
X7.1Y-3.55
X7.1Y-3.6
X7.1Y-3.75
X7.1Y-3.8
X7.1Y-3.85
X7.1Y-3.9
X7.1Y-4.0
X7.1Y-4.265
X7.1Y-4.315
X7.1Y-4.365
X7.1Y-4.415
X7.1Y-5.1
X7.1445Y-4.218
X7.146Y-4.1
X7.146Y-4.1469
X7.15Y-3.2
X7.15Y-3.25
X7.15Y-3.3
X7.15Y-3.35
X7.15Y-3.4
X7.15Y-3.45
X7.15Y-3.5
X7.15Y-3.55
X7.15Y-3.6
X7.15Y-3.65
X7.15Y-3.7
X7.15Y-3.75
X7.15Y-3.8
X7.15Y-3.85
X7.15Y-3.9
X7.15Y-3.95
X7.15Y-4.265
X7.15Y-4.315
X7.15Y-4.365
X7.15Y-4.415
X7.15Y-4.465
X7.15Y-4.515
X7.15Y-4.565
X7.15Y-4.615
X7.15Y-4.665
X7.15Y-4.715
X7.15Y-4.765
X7.15Y-4.815
X7.15Y-4.865
X7.15Y-4.915
X7.15Y-4.965
X7.15Y-5.015
X7.15Y-5.065
X7.2Y-3.4
X7.2Y-3.45
X7.2Y-3.5
X7.2Y-3.55
X7.2Y-3.6
X7.2Y-3.65
X7.2Y-3.7
X7.2Y-3.75
X7.2Y-3.8
X7.2Y-3.85
X7.2Y-4.415
X7.2Y-4.465
X7.2Y-4.515
X7.2Y-4.565
X7.2Y-4.615
X7.2Y-4.665
X7.2Y-4.715
X7.2Y-4.765
X7.2Y-4.815
X7.2Y-4.865
X7.2291Y-4.0795
X7.2291Y-4.0976
X7.2291Y-4.1157
X7.2291Y-4.1339
X7.2291Y-4.152
X7.2291Y-4.1701
X7.2291Y-4.1882
X7.2472Y-4.0795
X7.2472Y-4.0976
X7.2472Y-4.1157
X7.2472Y-4.1339
X7.2472Y-4.152
X7.2472Y-4.1701
X7.2472Y-4.1882
X7.25Y-3.4
X7.25Y-3.45
X7.25Y-3.5
X7.25Y-3.55
X7.25Y-3.6
X7.25Y-3.65
X7.25Y-3.7
X7.25Y-4.565
X7.25Y-4.615
X7.25Y-4.665
X7.25Y-4.715
X7.25Y-4.765
X7.25Y-4.815
X7.25Y-4.865
X7.2539Y-3.7776
X7.2539Y-3.9961
X7.2539Y-4.2638
X7.2539Y-4.4898
X7.2654Y-4.0795
X7.2654Y-4.0976
X7.2654Y-4.1157
X7.2654Y-4.1339
X7.2654Y-4.152
X7.2654Y-4.1701
X7.2654Y-4.1882
X7.2835Y-4.0795
X7.2835Y-4.0976
X7.2835Y-4.1157
X7.2835Y-4.1339
X7.2835Y-4.152
X7.2835Y-4.1701
X7.2835Y-4.1882
X7.3Y-3.4
X7.3Y-3.45
X7.3Y-3.5
X7.3Y-3.55
X7.3Y-3.6
X7.3Y-3.65
X7.3Y-3.7
X7.3Y-3.75
X7.3Y-4.515
X7.3Y-4.565
X7.3Y-4.615
X7.3Y-4.665
X7.3Y-4.715
X7.3Y-4.765
X7.3Y-4.815
X7.3Y-4.865
X7.3016Y-4.0795
X7.3016Y-4.0976
X7.3016Y-4.1157
X7.3016Y-4.1339
X7.3016Y-4.152
X7.3016Y-4.1701
X7.3016Y-4.1882
X7.3197Y-4.0795
X7.3197Y-4.0976
X7.3197Y-4.1157
X7.3197Y-4.1339
X7.3197Y-4.152
X7.3197Y-4.1701
X7.3197Y-4.1882
X7.325Y-3.8
X7.325Y-3.85
X7.325Y-4.415
X7.325Y-4.465
X7.335Y-4.9
X7.335Y-4.95
X7.335Y-5.0
X7.335Y-5.05
X7.335Y-5.1
X7.3378Y-4.0795
X7.3378Y-4.0976
X7.3378Y-4.1157
X7.3378Y-4.1339
X7.3378Y-4.152
X7.3378Y-4.1701
X7.3378Y-4.1882
X7.34Y-3.18
X7.34Y-3.23
X7.34Y-3.28
X7.34Y-3.33
X7.34Y-3.38
X7.3484Y-3.874
X7.3484Y-4.391
X7.35Y-3.4
X7.35Y-3.45
X7.35Y-3.5
X7.35Y-3.55
X7.35Y-3.6
X7.35Y-3.65
X7.35Y-3.7
X7.35Y-3.75
X7.35Y-4.515
X7.35Y-4.565
X7.35Y-4.615
X7.35Y-4.665
X7.35Y-4.715
X7.35Y-4.765
X7.35Y-4.815
X7.35Y-4.865
X7.3559Y-3.9354
X7.3559Y-4.3296
X7.3587Y-3.9043
X7.3587Y-4.3607
X7.4Y-3.55
X7.4Y-3.6
X7.4Y-3.65
X7.4Y-3.7
X7.4Y-4.565
X7.4Y-4.615
X7.4Y-4.665
X7.4Y-4.715
X7.4015Y-4.016
X7.4015Y-4.2515
X7.433Y-3.985
X7.4355Y-4.28
X7.448Y-3.895
X7.448Y-4.371
X7.45Y-3.4
X7.45Y-3.55
X7.45Y-3.6
X7.45Y-3.65
X7.45Y-4.615
X7.45Y-4.665
X7.45Y-4.715
X7.45Y-4.865
X7.465Y-3.18
X7.465Y-3.23
X7.465Y-3.28
X7.465Y-3.33
X7.465Y-3.38
X7.465Y-4.9
X7.465Y-4.95
X7.465Y-5.0
X7.465Y-5.05
X7.465Y-5.1
X7.5Y-3.4
X7.5Y-3.45
X7.5Y-3.6
X7.5Y-3.65
X7.5Y-4.465
X7.5Y-4.502
X7.5Y-4.615
X7.5Y-4.665
X7.5Y-4.815
X7.5Y-4.865
X7.51Y-4.095
X7.51Y-4.2322
X7.55Y-3.4
X7.55Y-3.45
X7.55Y-3.6
X7.55Y-3.65
X7.55Y-4.095
X7.55Y-4.615
X7.55Y-4.665
X7.55Y-4.815
X7.55Y-4.865
X7.565Y-3.78
X7.565Y-3.965
X7.565Y-4.305
X7.565Y-4.488
X7.5724Y-4.1831
X7.6Y-3.4
X7.6Y-3.45
X7.6Y-3.5
X7.6Y-3.75
X7.6Y-3.95
X7.6Y-4.1929
X7.6Y-4.315
X7.6Y-4.465
X7.6Y-4.515
X7.6Y-4.765
X7.6Y-4.815
X7.6Y-4.865
X7.6134Y-3.9957
X7.635Y-3.93
X7.635Y-4.335
X7.65Y-3.4
X7.65Y-3.45
X7.65Y-3.5
X7.65Y-3.7
X7.65Y-3.75
X7.65Y-4.0945
X7.65Y-4.1929
X7.65Y-4.305
X7.65Y-4.465
X7.65Y-4.515
X7.65Y-4.565
X7.65Y-4.765
X7.65Y-4.815
X7.65Y-4.865
X7.67Y-3.91
X7.67Y-4.355
X7.7Y-3.4
X7.7Y-3.45
X7.7Y-3.5
X7.7Y-3.55
X7.7Y-3.6
X7.7Y-3.65
X7.7Y-3.7
X7.7Y-3.75
X7.7Y-3.93
X7.7Y-4.03
X7.7Y-4.0945
X7.7Y-4.1929
X7.7Y-4.305
X7.7Y-4.515
X7.7Y-4.565
X7.7Y-4.615
X7.7Y-4.665
X7.7Y-4.715
X7.7Y-4.765
X7.7Y-4.815
X7.7Y-4.865
X7.705Y-3.885
X7.705Y-4.38
X7.735Y-3.85
X7.735Y-4.415
X7.75Y-3.4
X7.75Y-3.45
X7.75Y-3.5
X7.75Y-3.55
X7.75Y-3.6
X7.75Y-3.65
X7.75Y-3.88
X7.75Y-3.93
X7.75Y-4.03
X7.75Y-4.0945
X7.75Y-4.1929
X7.75Y-4.305
X7.75Y-4.355
X7.75Y-4.615
X7.75Y-4.665
X7.75Y-4.715
X7.75Y-4.765
X7.75Y-4.815
X7.75Y-4.865
X7.77Y-3.815
X7.77Y-4.45
X7.8Y-3.4
X7.8Y-3.45
X7.8Y-3.5
X7.8Y-3.55
X7.8Y-3.78
X7.8Y-3.83
X7.8Y-3.88
X7.8Y-3.93
X7.8Y-4.03
X7.8Y-4.0945
X7.8Y-4.1929
X7.8Y-4.305
X7.8Y-4.355
X7.8Y-4.405
X7.8Y-4.485
X7.8Y-4.715
X7.8Y-4.765
X7.8Y-4.815
X7.8Y-4.865
X7.81Y-3.18
X7.81Y-3.23
X7.81Y-3.28
X7.81Y-3.33
X7.81Y-3.38
X7.81Y-4.9
X7.81Y-4.95
X7.81Y-5.0
X7.81Y-5.05
X7.81Y-5.1
X7.825Y-3.745
X7.825Y-4.52
X7.845Y-3.71
X7.845Y-4.555
X7.85Y-3.78
X7.85Y-3.83
X7.85Y-3.88
X7.85Y-3.93
X7.85Y-4.355
X7.85Y-4.405
X7.85Y-4.455
X7.85Y-4.505
X7.865Y-3.67
X7.865Y-4.595
X7.88Y-3.63
X7.88Y-4.635
X7.895Y-3.59
X7.895Y-4.675
X7.9Y-3.68
X7.9Y-3.73
X7.9Y-3.78
X7.9Y-3.83
X7.9Y-3.88
X7.9Y-3.93
X7.9Y-4.03
X7.9Y-4.0945
X7.9Y-4.1929
X7.9Y-4.405
X7.9Y-4.455
X7.9Y-4.505
X7.9Y-4.555
X7.9Y-4.605
X7.905Y-3.55
X7.905Y-4.715
X7.915Y-3.51
X7.915Y-4.755
X7.92Y-3.42
X7.92Y-3.465
X7.92Y-4.8
X7.92Y-4.845
X7.94Y-3.18
X7.94Y-3.23
X7.94Y-3.28
X7.94Y-3.33
X7.94Y-3.38
X7.94Y-4.9
X7.94Y-4.95
X7.94Y-5.0
X7.94Y-5.05
X7.94Y-5.1
X7.95Y-3.43
X7.95Y-3.48
X7.95Y-3.53
X7.95Y-3.58
X7.95Y-3.63
X7.95Y-3.68
X7.95Y-3.73
X7.95Y-3.78
X7.95Y-3.83
X7.95Y-3.88
X7.95Y-3.93
X7.95Y-4.03
X7.95Y-4.0945
X7.95Y-4.1929
X7.95Y-4.405
X7.95Y-4.455
X7.95Y-4.505
X7.95Y-4.555
X7.95Y-4.605
X7.95Y-4.655
X7.95Y-4.705
X7.95Y-4.755
X7.95Y-4.805
X7.95Y-4.855
X7.9724Y-4.2768
X8.0Y-3.43
X8.0Y-3.48
X8.0Y-3.53
X8.0Y-3.58
X8.0Y-3.63
X8.0Y-3.68
X8.0Y-3.73
X8.0Y-3.78
X8.0Y-3.83
X8.0Y-4.03
X8.0Y-4.0945
X8.0Y-4.1929
X8.0Y-4.455
X8.0Y-4.505
X8.0Y-4.555
X8.0Y-4.605
X8.0Y-4.655
X8.0Y-4.705
X8.0Y-4.755
X8.0Y-4.805
X8.0Y-4.855
X8.05Y-4.03
X8.05Y-4.0945
X8.05Y-4.1929
X8.05Y-4.505
X8.05Y-4.555
X8.05Y-4.605
X8.05Y-4.655
X8.05Y-4.705
X8.05Y-4.755
X8.05Y-4.805
X8.05Y-4.855
X8.0504Y-4.2433
X8.1Y-3.995
X8.1Y-4.03
X8.1Y-4.0945
X8.1Y-4.1929
X8.1Y-4.505
X8.1Y-4.755
X8.1Y-4.805
X8.1Y-4.855
X8.1Y-4.905
X8.1Y-4.955
X8.1Y-5.005
X8.1Y-5.055
X8.1Y-5.1
X8.1004Y-4.2433
X8.11Y-3.78
X8.11Y-3.83
X8.11Y-3.88
X8.11Y-3.93
X8.15Y-3.2
X8.15Y-4.03
X8.15Y-4.0945
X8.15Y-4.1929
X8.15Y-4.755
X8.15Y-4.805
X8.15Y-4.855
X8.15Y-4.905
X8.15Y-4.955
X8.15Y-5.005
X8.15Y-5.055
X8.15Y-5.1
X8.1504Y-4.2433
X8.153Y-3.9475
X8.1531Y-3.7346
X8.2Y-3.2
X8.2Y-4.0945
X8.2Y-4.1929
X8.2Y-4.755
X8.2Y-4.805
X8.2Y-4.855
X8.2Y-4.905
X8.2Y-4.955
X8.2Y-5.005
X8.2Y-5.055
X8.2Y-5.1
X8.2004Y-4.2433
X8.2244Y-3.9145
X8.245Y-3.2
X8.2453Y-4.3358
X8.25Y-3.26
X8.25Y-3.96
X8.25Y-4.03
X8.25Y-4.0945
X8.25Y-4.1929
X8.25Y-5.055
X8.25Y-5.1
X8.2504Y-4.2433
X8.3Y-3.2
X8.3Y-3.26
X8.3Y-3.55
X8.3Y-3.75
X8.3Y-5.055
X8.3Y-5.1
X8.302Y-3.415
X8.3232Y-4.1929
X8.3232Y-4.2433
X8.325Y-4.03
X8.325Y-4.095
X8.3335Y-3.425
X8.3413Y-4.4429
X8.35Y-3.2
X8.35Y-3.26
X8.35Y-4.505
X8.35Y-5.055
X8.35Y-5.1
X8.365Y-3.435
X8.3732Y-4.1929
X8.3732Y-4.2433
X8.375Y-4.03
X8.375Y-4.095
X8.3854Y-3.6717
X8.4Y-3.2
X8.4Y-3.26
X8.4Y-4.305
X8.4Y-4.355
X8.4Y-4.405
X8.4Y-4.455
X8.4Y-4.505
X8.4Y-4.555
X8.4Y-4.605
X8.4Y-5.005
X8.4Y-5.055
X8.4Y-5.1
X8.4232Y-4.1929
X8.4232Y-4.2433
X8.425Y-4.03
X8.425Y-4.095
X8.4457Y-3.3551
X8.45Y-3.2
X8.45Y-3.26
X8.45Y-4.355
X8.45Y-4.405
X8.45Y-4.455
X8.45Y-4.505
X8.45Y-4.555
X8.45Y-4.605
X8.45Y-5.005
X8.45Y-5.055
X8.45Y-5.1
X8.46Y-3.55
X8.46Y-3.75
X8.4732Y-4.1929
X8.4732Y-4.2433
X8.475Y-4.03
X8.475Y-4.095
X8.5Y-3.2
X8.5Y-3.26
X8.5Y-4.405
X8.5Y-4.455
X8.5Y-4.505
X8.5Y-4.555
X8.5Y-4.605
X8.5Y-5.005
X8.5Y-5.055
X8.5Y-5.1
X8.5232Y-4.1929
X8.5232Y-4.2433
X8.525Y-4.03
X8.525Y-4.095
X8.55Y-3.2
X8.55Y-3.26
X8.55Y-4.455
X8.55Y-4.505
X8.55Y-4.555
X8.55Y-4.605
X8.55Y-4.655
X8.55Y-4.755
X8.55Y-4.805
X8.55Y-4.855
X8.55Y-4.905
X8.55Y-4.955
X8.55Y-5.005
X8.55Y-5.055
X8.55Y-5.1
X8.5732Y-4.1929
X8.5732Y-4.2433
X8.575Y-4.03
X8.575Y-4.095
X8.6Y-3.2
X8.6Y-3.26
X8.6Y-4.755
X8.6Y-4.805
X8.6Y-4.855
X8.6Y-4.905
X8.6Y-4.955
X8.6Y-5.005
X8.6Y-5.055
X8.6Y-5.1
X8.6005Y-3.8025
X8.6051Y-3.9185
X8.629Y-3.8025
X8.65Y-3.2
X8.65Y-3.26
X8.65Y-3.3
X8.65Y-3.35
X8.65Y-4.085
X8.65Y-4.205
X8.65Y-4.405
X8.65Y-4.455
X8.65Y-4.555
X8.65Y-4.605
X8.65Y-4.655
X8.65Y-4.705
X8.65Y-4.755
X8.65Y-4.805
X8.65Y-4.855
X8.65Y-4.905
X8.65Y-4.955
X8.65Y-5.005
X8.65Y-5.055
X8.65Y-5.1
X8.658Y-3.8025
X8.7Y-3.2
X8.7Y-3.26
X8.7Y-3.3
X8.7Y-3.35
X8.7Y-4.085
X8.7Y-4.205
X8.7Y-4.405
X8.7Y-4.455
X8.7Y-4.505
X8.7Y-4.605
X8.7Y-4.655
X8.7Y-4.705
X8.7Y-4.755
X8.7Y-4.805
X8.7Y-4.855
X8.7Y-4.905
X8.7Y-4.955
X8.7Y-5.005
X8.7Y-5.055
X8.7Y-5.1
X8.75Y-4.085
X8.75Y-4.205
X8.75Y-4.405
X8.75Y-4.455
X8.75Y-4.505
X8.75Y-4.555
X8.75Y-4.655
X8.75Y-4.705
X8.75Y-4.755
X8.75Y-4.805
X8.75Y-4.855
X8.75Y-4.905
X8.75Y-4.955
X8.8Y-4.085
X8.8Y-4.205
X8.8Y-4.405
X8.8Y-4.455
X8.8Y-4.505
X8.8Y-4.555
X8.8Y-4.605
X8.85Y-4.085
X8.85Y-4.205
X8.85Y-4.405
X8.85Y-4.455
X8.85Y-4.505
X8.85Y-4.555
X8.85Y-4.605
X8.85Y-4.655
X8.85Y-4.705
X8.85Y-4.755
X8.85Y-4.805
X8.85Y-4.855
X8.85Y-4.905
X8.85Y-4.955
T2
X8.6705Y-3.4232
X8.6705Y-3.4626
X8.6705Y-3.502
X8.6705Y-3.5413
X8.6705Y-3.5807
X8.6705Y-3.6201
X8.6705Y-3.6594
X8.6705Y-3.6988
X8.365Y-3.9189
X8.4043Y-3.9189
X8.0071Y-3.9157
X8.0476Y-3.4882
X7.0866Y-3.6925
X7.0866Y-4.515
X8.1114Y-3.635
X8.1114Y-3.6744
X8.4972Y-3.3413
X8.5366Y-3.3413
X8.576Y-3.3413
T3
X8.3114Y-4.5819
X8.3114Y-4.9756
X8.1835Y-3.3303
X8.3803Y-3.3303
X8.8134Y-3.5524
X8.8134Y-3.8476
T4
X6.8898Y-4.7244
X6.9882Y-4.626
X7.0866Y-4.7244
T5
X8.81Y-5.045
X6.745Y-3.225
X8.455Y-4.7
X8.455Y-4.8
X8.455Y-4.9
X6.745Y-5.045
X8.81Y-3.37
X8.81Y-3.2272
T0
M30
