G04 #@! TF.GenerationSoftware,KiCad,Pcbnew,(5.1.8)-1*
G04 #@! TF.CreationDate,2020-12-15T23:42:14+02:00*
G04 #@! TF.ProjectId,qam - demodulator,71616d20-2d20-4646-956d-6f64756c6174,rev?*
G04 #@! TF.SameCoordinates,Original*
G04 #@! TF.FileFunction,Paste,Top*
G04 #@! TF.FilePolarity,Positive*
%FSLAX46Y46*%
G04 Gerber Fmt 4.6, Leading zero omitted, Abs format (unit mm)*
G04 Created by KiCad (PCBNEW (5.1.8)-1) date 2020-12-15 23:42:14*
%MOMM*%
%LPD*%
G01*
G04 APERTURE LIST*
%ADD10R,5.080000X1.500000*%
%ADD11R,0.650000X0.350000*%
%ADD12R,0.820000X0.630000*%
%ADD13R,0.800000X0.300000*%
%ADD14R,0.300000X0.800000*%
%ADD15R,1.300000X1.300000*%
%ADD16R,1.500000X5.080000*%
%ADD17R,0.900000X0.800000*%
G04 APERTURE END LIST*
G36*
G01*
X212889500Y-93746000D02*
X213090500Y-93746000D01*
G75*
G02*
X213170000Y-93825500I0J-79500D01*
G01*
X213170000Y-93984500D01*
G75*
G02*
X213090500Y-94064000I-79500J0D01*
G01*
X212889500Y-94064000D01*
G75*
G02*
X212810000Y-93984500I0J79500D01*
G01*
X212810000Y-93825500D01*
G75*
G02*
X212889500Y-93746000I79500J0D01*
G01*
G37*
G36*
G01*
X212889500Y-94436000D02*
X213090500Y-94436000D01*
G75*
G02*
X213170000Y-94515500I0J-79500D01*
G01*
X213170000Y-94674500D01*
G75*
G02*
X213090500Y-94754000I-79500J0D01*
G01*
X212889500Y-94754000D01*
G75*
G02*
X212810000Y-94674500I0J79500D01*
G01*
X212810000Y-94515500D01*
G75*
G02*
X212889500Y-94436000I79500J0D01*
G01*
G37*
D10*
X223000000Y-109500000D03*
X223000000Y-101000000D03*
X223000000Y-105250000D03*
G36*
G01*
X175450001Y-125730000D02*
X174549999Y-125730000D01*
G75*
G02*
X174300000Y-125480001I0J249999D01*
G01*
X174300000Y-124829999D01*
G75*
G02*
X174549999Y-124580000I249999J0D01*
G01*
X175450001Y-124580000D01*
G75*
G02*
X175700000Y-124829999I0J-249999D01*
G01*
X175700000Y-125480001D01*
G75*
G02*
X175450001Y-125730000I-249999J0D01*
G01*
G37*
G36*
G01*
X175450001Y-127780000D02*
X174549999Y-127780000D01*
G75*
G02*
X174300000Y-127530001I0J249999D01*
G01*
X174300000Y-126879999D01*
G75*
G02*
X174549999Y-126630000I249999J0D01*
G01*
X175450001Y-126630000D01*
G75*
G02*
X175700000Y-126879999I0J-249999D01*
G01*
X175700000Y-127530001D01*
G75*
G02*
X175450001Y-127780000I-249999J0D01*
G01*
G37*
G36*
G01*
X179549999Y-126630000D02*
X180450001Y-126630000D01*
G75*
G02*
X180700000Y-126879999I0J-249999D01*
G01*
X180700000Y-127530001D01*
G75*
G02*
X180450001Y-127780000I-249999J0D01*
G01*
X179549999Y-127780000D01*
G75*
G02*
X179300000Y-127530001I0J249999D01*
G01*
X179300000Y-126879999D01*
G75*
G02*
X179549999Y-126630000I249999J0D01*
G01*
G37*
G36*
G01*
X179549999Y-124580000D02*
X180450001Y-124580000D01*
G75*
G02*
X180700000Y-124829999I0J-249999D01*
G01*
X180700000Y-125480001D01*
G75*
G02*
X180450001Y-125730000I-249999J0D01*
G01*
X179549999Y-125730000D01*
G75*
G02*
X179300000Y-125480001I0J249999D01*
G01*
X179300000Y-124829999D01*
G75*
G02*
X179549999Y-124580000I249999J0D01*
G01*
G37*
D11*
X178450000Y-103450000D03*
X178450000Y-104100000D03*
X178450000Y-104750000D03*
X180550000Y-104750000D03*
X180550000Y-104100000D03*
X180550000Y-103450000D03*
D12*
X179500000Y-103700000D03*
X179500000Y-104500000D03*
D13*
X182600000Y-103250000D03*
X182600000Y-103750000D03*
X182600000Y-104250000D03*
X182600000Y-104750000D03*
X182600000Y-105250000D03*
X182600000Y-105750000D03*
X182600000Y-106250000D03*
X182600000Y-106750000D03*
D14*
X183250000Y-107400000D03*
X183750000Y-107400000D03*
X184250000Y-107400000D03*
X184750000Y-107400000D03*
X185250000Y-107400000D03*
X185750000Y-107400000D03*
X186250000Y-107400000D03*
X186750000Y-107400000D03*
D13*
X187400000Y-106750000D03*
X187400000Y-106250000D03*
X187400000Y-105750000D03*
X187400000Y-105250000D03*
X187400000Y-104750000D03*
X187400000Y-104250000D03*
X187400000Y-103750000D03*
X187400000Y-103250000D03*
D14*
X186750000Y-102600000D03*
X186250000Y-102600000D03*
X185750000Y-102600000D03*
X185250000Y-102600000D03*
X184750000Y-102600000D03*
X184250000Y-102600000D03*
X183750000Y-102600000D03*
X183250000Y-102600000D03*
D15*
X185800000Y-105800000D03*
X184200000Y-104200000D03*
X185800000Y-104200000D03*
X184200000Y-105800000D03*
D16*
X192250000Y-82800000D03*
X183750000Y-82800000D03*
X188000000Y-82800000D03*
X188000000Y-127200000D03*
X192250000Y-127200000D03*
X183750000Y-127200000D03*
X204250000Y-82800000D03*
X195750000Y-82800000D03*
X200000000Y-82800000D03*
X200000000Y-127200000D03*
X204250000Y-127200000D03*
X195750000Y-127200000D03*
G36*
G01*
X184800500Y-97014000D02*
X184599500Y-97014000D01*
G75*
G02*
X184520000Y-96934500I0J79500D01*
G01*
X184520000Y-96775500D01*
G75*
G02*
X184599500Y-96696000I79500J0D01*
G01*
X184800500Y-96696000D01*
G75*
G02*
X184880000Y-96775500I0J-79500D01*
G01*
X184880000Y-96934500D01*
G75*
G02*
X184800500Y-97014000I-79500J0D01*
G01*
G37*
G36*
G01*
X184800500Y-97704000D02*
X184599500Y-97704000D01*
G75*
G02*
X184520000Y-97624500I0J79500D01*
G01*
X184520000Y-97465500D01*
G75*
G02*
X184599500Y-97386000I79500J0D01*
G01*
X184800500Y-97386000D01*
G75*
G02*
X184880000Y-97465500I0J-79500D01*
G01*
X184880000Y-97624500D01*
G75*
G02*
X184800500Y-97704000I-79500J0D01*
G01*
G37*
G36*
G01*
X183900500Y-97704000D02*
X183699500Y-97704000D01*
G75*
G02*
X183620000Y-97624500I0J79500D01*
G01*
X183620000Y-97465500D01*
G75*
G02*
X183699500Y-97386000I79500J0D01*
G01*
X183900500Y-97386000D01*
G75*
G02*
X183980000Y-97465500I0J-79500D01*
G01*
X183980000Y-97624500D01*
G75*
G02*
X183900500Y-97704000I-79500J0D01*
G01*
G37*
G36*
G01*
X183900500Y-97014000D02*
X183699500Y-97014000D01*
G75*
G02*
X183620000Y-96934500I0J79500D01*
G01*
X183620000Y-96775500D01*
G75*
G02*
X183699500Y-96696000I79500J0D01*
G01*
X183900500Y-96696000D01*
G75*
G02*
X183980000Y-96775500I0J-79500D01*
G01*
X183980000Y-96934500D01*
G75*
G02*
X183900500Y-97014000I-79500J0D01*
G01*
G37*
G36*
G01*
X183699500Y-112986000D02*
X183900500Y-112986000D01*
G75*
G02*
X183980000Y-113065500I0J-79500D01*
G01*
X183980000Y-113224500D01*
G75*
G02*
X183900500Y-113304000I-79500J0D01*
G01*
X183699500Y-113304000D01*
G75*
G02*
X183620000Y-113224500I0J79500D01*
G01*
X183620000Y-113065500D01*
G75*
G02*
X183699500Y-112986000I79500J0D01*
G01*
G37*
G36*
G01*
X183699500Y-112296000D02*
X183900500Y-112296000D01*
G75*
G02*
X183980000Y-112375500I0J-79500D01*
G01*
X183980000Y-112534500D01*
G75*
G02*
X183900500Y-112614000I-79500J0D01*
G01*
X183699500Y-112614000D01*
G75*
G02*
X183620000Y-112534500I0J79500D01*
G01*
X183620000Y-112375500D01*
G75*
G02*
X183699500Y-112296000I79500J0D01*
G01*
G37*
G36*
G01*
X184599500Y-112296000D02*
X184800500Y-112296000D01*
G75*
G02*
X184880000Y-112375500I0J-79500D01*
G01*
X184880000Y-112534500D01*
G75*
G02*
X184800500Y-112614000I-79500J0D01*
G01*
X184599500Y-112614000D01*
G75*
G02*
X184520000Y-112534500I0J79500D01*
G01*
X184520000Y-112375500D01*
G75*
G02*
X184599500Y-112296000I79500J0D01*
G01*
G37*
G36*
G01*
X184599500Y-112986000D02*
X184800500Y-112986000D01*
G75*
G02*
X184880000Y-113065500I0J-79500D01*
G01*
X184880000Y-113224500D01*
G75*
G02*
X184800500Y-113304000I-79500J0D01*
G01*
X184599500Y-113304000D01*
G75*
G02*
X184520000Y-113224500I0J79500D01*
G01*
X184520000Y-113065500D01*
G75*
G02*
X184599500Y-112986000I79500J0D01*
G01*
G37*
G36*
G01*
X184800500Y-100314000D02*
X184599500Y-100314000D01*
G75*
G02*
X184520000Y-100234500I0J79500D01*
G01*
X184520000Y-100075500D01*
G75*
G02*
X184599500Y-99996000I79500J0D01*
G01*
X184800500Y-99996000D01*
G75*
G02*
X184880000Y-100075500I0J-79500D01*
G01*
X184880000Y-100234500D01*
G75*
G02*
X184800500Y-100314000I-79500J0D01*
G01*
G37*
G36*
G01*
X184800500Y-101004000D02*
X184599500Y-101004000D01*
G75*
G02*
X184520000Y-100924500I0J79500D01*
G01*
X184520000Y-100765500D01*
G75*
G02*
X184599500Y-100686000I79500J0D01*
G01*
X184800500Y-100686000D01*
G75*
G02*
X184880000Y-100765500I0J-79500D01*
G01*
X184880000Y-100924500D01*
G75*
G02*
X184800500Y-101004000I-79500J0D01*
G01*
G37*
G36*
G01*
X183900500Y-101004000D02*
X183699500Y-101004000D01*
G75*
G02*
X183620000Y-100924500I0J79500D01*
G01*
X183620000Y-100765500D01*
G75*
G02*
X183699500Y-100686000I79500J0D01*
G01*
X183900500Y-100686000D01*
G75*
G02*
X183980000Y-100765500I0J-79500D01*
G01*
X183980000Y-100924500D01*
G75*
G02*
X183900500Y-101004000I-79500J0D01*
G01*
G37*
G36*
G01*
X183900500Y-100314000D02*
X183699500Y-100314000D01*
G75*
G02*
X183620000Y-100234500I0J79500D01*
G01*
X183620000Y-100075500D01*
G75*
G02*
X183699500Y-99996000I79500J0D01*
G01*
X183900500Y-99996000D01*
G75*
G02*
X183980000Y-100075500I0J-79500D01*
G01*
X183980000Y-100234500D01*
G75*
G02*
X183900500Y-100314000I-79500J0D01*
G01*
G37*
G36*
G01*
X183699500Y-109686000D02*
X183900500Y-109686000D01*
G75*
G02*
X183980000Y-109765500I0J-79500D01*
G01*
X183980000Y-109924500D01*
G75*
G02*
X183900500Y-110004000I-79500J0D01*
G01*
X183699500Y-110004000D01*
G75*
G02*
X183620000Y-109924500I0J79500D01*
G01*
X183620000Y-109765500D01*
G75*
G02*
X183699500Y-109686000I79500J0D01*
G01*
G37*
G36*
G01*
X183699500Y-108996000D02*
X183900500Y-108996000D01*
G75*
G02*
X183980000Y-109075500I0J-79500D01*
G01*
X183980000Y-109234500D01*
G75*
G02*
X183900500Y-109314000I-79500J0D01*
G01*
X183699500Y-109314000D01*
G75*
G02*
X183620000Y-109234500I0J79500D01*
G01*
X183620000Y-109075500D01*
G75*
G02*
X183699500Y-108996000I79500J0D01*
G01*
G37*
G36*
G01*
X184599500Y-108996000D02*
X184800500Y-108996000D01*
G75*
G02*
X184880000Y-109075500I0J-79500D01*
G01*
X184880000Y-109234500D01*
G75*
G02*
X184800500Y-109314000I-79500J0D01*
G01*
X184599500Y-109314000D01*
G75*
G02*
X184520000Y-109234500I0J79500D01*
G01*
X184520000Y-109075500D01*
G75*
G02*
X184599500Y-108996000I79500J0D01*
G01*
G37*
G36*
G01*
X184599500Y-109686000D02*
X184800500Y-109686000D01*
G75*
G02*
X184880000Y-109765500I0J-79500D01*
G01*
X184880000Y-109924500D01*
G75*
G02*
X184800500Y-110004000I-79500J0D01*
G01*
X184599500Y-110004000D01*
G75*
G02*
X184520000Y-109924500I0J79500D01*
G01*
X184520000Y-109765500D01*
G75*
G02*
X184599500Y-109686000I79500J0D01*
G01*
G37*
G36*
G01*
X190130500Y-105434000D02*
X189929500Y-105434000D01*
G75*
G02*
X189850000Y-105354500I0J79500D01*
G01*
X189850000Y-105195500D01*
G75*
G02*
X189929500Y-105116000I79500J0D01*
G01*
X190130500Y-105116000D01*
G75*
G02*
X190210000Y-105195500I0J-79500D01*
G01*
X190210000Y-105354500D01*
G75*
G02*
X190130500Y-105434000I-79500J0D01*
G01*
G37*
G36*
G01*
X190130500Y-104744000D02*
X189929500Y-104744000D01*
G75*
G02*
X189850000Y-104664500I0J79500D01*
G01*
X189850000Y-104505500D01*
G75*
G02*
X189929500Y-104426000I79500J0D01*
G01*
X190130500Y-104426000D01*
G75*
G02*
X190210000Y-104505500I0J-79500D01*
G01*
X190210000Y-104664500D01*
G75*
G02*
X190130500Y-104744000I-79500J0D01*
G01*
G37*
G36*
G01*
X189929500Y-106756000D02*
X190130500Y-106756000D01*
G75*
G02*
X190210000Y-106835500I0J-79500D01*
G01*
X190210000Y-106994500D01*
G75*
G02*
X190130500Y-107074000I-79500J0D01*
G01*
X189929500Y-107074000D01*
G75*
G02*
X189850000Y-106994500I0J79500D01*
G01*
X189850000Y-106835500D01*
G75*
G02*
X189929500Y-106756000I79500J0D01*
G01*
G37*
G36*
G01*
X189929500Y-106066000D02*
X190130500Y-106066000D01*
G75*
G02*
X190210000Y-106145500I0J-79500D01*
G01*
X190210000Y-106304500D01*
G75*
G02*
X190130500Y-106384000I-79500J0D01*
G01*
X189929500Y-106384000D01*
G75*
G02*
X189850000Y-106304500I0J79500D01*
G01*
X189850000Y-106145500D01*
G75*
G02*
X189929500Y-106066000I79500J0D01*
G01*
G37*
G36*
G01*
X191804000Y-106149500D02*
X191804000Y-106350500D01*
G75*
G02*
X191724500Y-106430000I-79500J0D01*
G01*
X191565500Y-106430000D01*
G75*
G02*
X191486000Y-106350500I0J79500D01*
G01*
X191486000Y-106149500D01*
G75*
G02*
X191565500Y-106070000I79500J0D01*
G01*
X191724500Y-106070000D01*
G75*
G02*
X191804000Y-106149500I0J-79500D01*
G01*
G37*
G36*
G01*
X191114000Y-106149500D02*
X191114000Y-106350500D01*
G75*
G02*
X191034500Y-106430000I-79500J0D01*
G01*
X190875500Y-106430000D01*
G75*
G02*
X190796000Y-106350500I0J79500D01*
G01*
X190796000Y-106149500D01*
G75*
G02*
X190875500Y-106070000I79500J0D01*
G01*
X191034500Y-106070000D01*
G75*
G02*
X191114000Y-106149500I0J-79500D01*
G01*
G37*
G36*
G01*
X192660500Y-105434000D02*
X192459500Y-105434000D01*
G75*
G02*
X192380000Y-105354500I0J79500D01*
G01*
X192380000Y-105195500D01*
G75*
G02*
X192459500Y-105116000I79500J0D01*
G01*
X192660500Y-105116000D01*
G75*
G02*
X192740000Y-105195500I0J-79500D01*
G01*
X192740000Y-105354500D01*
G75*
G02*
X192660500Y-105434000I-79500J0D01*
G01*
G37*
G36*
G01*
X192660500Y-104744000D02*
X192459500Y-104744000D01*
G75*
G02*
X192380000Y-104664500I0J79500D01*
G01*
X192380000Y-104505500D01*
G75*
G02*
X192459500Y-104426000I79500J0D01*
G01*
X192660500Y-104426000D01*
G75*
G02*
X192740000Y-104505500I0J-79500D01*
G01*
X192740000Y-104664500D01*
G75*
G02*
X192660500Y-104744000I-79500J0D01*
G01*
G37*
G36*
G01*
X184064000Y-98299500D02*
X184064000Y-98500500D01*
G75*
G02*
X183984500Y-98580000I-79500J0D01*
G01*
X183825500Y-98580000D01*
G75*
G02*
X183746000Y-98500500I0J79500D01*
G01*
X183746000Y-98299500D01*
G75*
G02*
X183825500Y-98220000I79500J0D01*
G01*
X183984500Y-98220000D01*
G75*
G02*
X184064000Y-98299500I0J-79500D01*
G01*
G37*
G36*
G01*
X184754000Y-98299500D02*
X184754000Y-98500500D01*
G75*
G02*
X184674500Y-98580000I-79500J0D01*
G01*
X184515500Y-98580000D01*
G75*
G02*
X184436000Y-98500500I0J79500D01*
G01*
X184436000Y-98299500D01*
G75*
G02*
X184515500Y-98220000I79500J0D01*
G01*
X184674500Y-98220000D01*
G75*
G02*
X184754000Y-98299500I0J-79500D01*
G01*
G37*
G36*
G01*
X184436000Y-111700500D02*
X184436000Y-111499500D01*
G75*
G02*
X184515500Y-111420000I79500J0D01*
G01*
X184674500Y-111420000D01*
G75*
G02*
X184754000Y-111499500I0J-79500D01*
G01*
X184754000Y-111700500D01*
G75*
G02*
X184674500Y-111780000I-79500J0D01*
G01*
X184515500Y-111780000D01*
G75*
G02*
X184436000Y-111700500I0J79500D01*
G01*
G37*
G36*
G01*
X183746000Y-111700500D02*
X183746000Y-111499500D01*
G75*
G02*
X183825500Y-111420000I79500J0D01*
G01*
X183984500Y-111420000D01*
G75*
G02*
X184064000Y-111499500I0J-79500D01*
G01*
X184064000Y-111700500D01*
G75*
G02*
X183984500Y-111780000I-79500J0D01*
G01*
X183825500Y-111780000D01*
G75*
G02*
X183746000Y-111700500I0J79500D01*
G01*
G37*
G36*
G01*
X184754000Y-99199500D02*
X184754000Y-99400500D01*
G75*
G02*
X184674500Y-99480000I-79500J0D01*
G01*
X184515500Y-99480000D01*
G75*
G02*
X184436000Y-99400500I0J79500D01*
G01*
X184436000Y-99199500D01*
G75*
G02*
X184515500Y-99120000I79500J0D01*
G01*
X184674500Y-99120000D01*
G75*
G02*
X184754000Y-99199500I0J-79500D01*
G01*
G37*
G36*
G01*
X184064000Y-99199500D02*
X184064000Y-99400500D01*
G75*
G02*
X183984500Y-99480000I-79500J0D01*
G01*
X183825500Y-99480000D01*
G75*
G02*
X183746000Y-99400500I0J79500D01*
G01*
X183746000Y-99199500D01*
G75*
G02*
X183825500Y-99120000I79500J0D01*
G01*
X183984500Y-99120000D01*
G75*
G02*
X184064000Y-99199500I0J-79500D01*
G01*
G37*
G36*
G01*
X183746000Y-110800500D02*
X183746000Y-110599500D01*
G75*
G02*
X183825500Y-110520000I79500J0D01*
G01*
X183984500Y-110520000D01*
G75*
G02*
X184064000Y-110599500I0J-79500D01*
G01*
X184064000Y-110800500D01*
G75*
G02*
X183984500Y-110880000I-79500J0D01*
G01*
X183825500Y-110880000D01*
G75*
G02*
X183746000Y-110800500I0J79500D01*
G01*
G37*
G36*
G01*
X184436000Y-110800500D02*
X184436000Y-110599500D01*
G75*
G02*
X184515500Y-110520000I79500J0D01*
G01*
X184674500Y-110520000D01*
G75*
G02*
X184754000Y-110599500I0J-79500D01*
G01*
X184754000Y-110800500D01*
G75*
G02*
X184674500Y-110880000I-79500J0D01*
G01*
X184515500Y-110880000D01*
G75*
G02*
X184436000Y-110800500I0J79500D01*
G01*
G37*
G36*
G01*
X189702942Y-112217814D02*
X189560814Y-112359942D01*
G75*
G02*
X189448384Y-112359942I-56215J56215D01*
G01*
X189335954Y-112247512D01*
G75*
G02*
X189335954Y-112135082I56215J56215D01*
G01*
X189478082Y-111992954D01*
G75*
G02*
X189590512Y-111992954I56215J-56215D01*
G01*
X189702942Y-112105384D01*
G75*
G02*
X189702942Y-112217814I-56215J-56215D01*
G01*
G37*
G36*
G01*
X190190846Y-112705718D02*
X190048718Y-112847846D01*
G75*
G02*
X189936288Y-112847846I-56215J56215D01*
G01*
X189823858Y-112735416D01*
G75*
G02*
X189823858Y-112622986I56215J56215D01*
G01*
X189965986Y-112480858D01*
G75*
G02*
X190078416Y-112480858I56215J-56215D01*
G01*
X190190846Y-112593288D01*
G75*
G02*
X190190846Y-112705718I-56215J-56215D01*
G01*
G37*
G36*
G01*
X191303142Y-113005214D02*
X191161014Y-113147342D01*
G75*
G02*
X191048584Y-113147342I-56215J56215D01*
G01*
X190936154Y-113034912D01*
G75*
G02*
X190936154Y-112922482I56215J56215D01*
G01*
X191078282Y-112780354D01*
G75*
G02*
X191190712Y-112780354I56215J-56215D01*
G01*
X191303142Y-112892784D01*
G75*
G02*
X191303142Y-113005214I-56215J-56215D01*
G01*
G37*
G36*
G01*
X191791046Y-113493118D02*
X191648918Y-113635246D01*
G75*
G02*
X191536488Y-113635246I-56215J56215D01*
G01*
X191424058Y-113522816D01*
G75*
G02*
X191424058Y-113410386I56215J56215D01*
G01*
X191566186Y-113268258D01*
G75*
G02*
X191678616Y-113268258I56215J-56215D01*
G01*
X191791046Y-113380688D01*
G75*
G02*
X191791046Y-113493118I-56215J-56215D01*
G01*
G37*
G36*
G01*
X190978246Y-111918318D02*
X190836118Y-112060446D01*
G75*
G02*
X190723688Y-112060446I-56215J56215D01*
G01*
X190611258Y-111948016D01*
G75*
G02*
X190611258Y-111835586I56215J56215D01*
G01*
X190753386Y-111693458D01*
G75*
G02*
X190865816Y-111693458I56215J-56215D01*
G01*
X190978246Y-111805888D01*
G75*
G02*
X190978246Y-111918318I-56215J-56215D01*
G01*
G37*
G36*
G01*
X190490342Y-111430414D02*
X190348214Y-111572542D01*
G75*
G02*
X190235784Y-111572542I-56215J56215D01*
G01*
X190123354Y-111460112D01*
G75*
G02*
X190123354Y-111347682I56215J56215D01*
G01*
X190265482Y-111205554D01*
G75*
G02*
X190377912Y-111205554I56215J-56215D01*
G01*
X190490342Y-111317984D01*
G75*
G02*
X190490342Y-111430414I-56215J-56215D01*
G01*
G37*
G36*
G01*
X191114000Y-105149500D02*
X191114000Y-105350500D01*
G75*
G02*
X191034500Y-105430000I-79500J0D01*
G01*
X190875500Y-105430000D01*
G75*
G02*
X190796000Y-105350500I0J79500D01*
G01*
X190796000Y-105149500D01*
G75*
G02*
X190875500Y-105070000I79500J0D01*
G01*
X191034500Y-105070000D01*
G75*
G02*
X191114000Y-105149500I0J-79500D01*
G01*
G37*
G36*
G01*
X191804000Y-105149500D02*
X191804000Y-105350500D01*
G75*
G02*
X191724500Y-105430000I-79500J0D01*
G01*
X191565500Y-105430000D01*
G75*
G02*
X191486000Y-105350500I0J79500D01*
G01*
X191486000Y-105149500D01*
G75*
G02*
X191565500Y-105070000I79500J0D01*
G01*
X191724500Y-105070000D01*
G75*
G02*
X191804000Y-105149500I0J-79500D01*
G01*
G37*
G36*
G01*
X189535414Y-97621858D02*
X189677542Y-97763986D01*
G75*
G02*
X189677542Y-97876416I-56215J-56215D01*
G01*
X189565112Y-97988846D01*
G75*
G02*
X189452682Y-97988846I-56215J56215D01*
G01*
X189310554Y-97846718D01*
G75*
G02*
X189310554Y-97734288I56215J56215D01*
G01*
X189422984Y-97621858D01*
G75*
G02*
X189535414Y-97621858I56215J-56215D01*
G01*
G37*
G36*
G01*
X190023318Y-97133954D02*
X190165446Y-97276082D01*
G75*
G02*
X190165446Y-97388512I-56215J-56215D01*
G01*
X190053016Y-97500942D01*
G75*
G02*
X189940586Y-97500942I-56215J56215D01*
G01*
X189798458Y-97358814D01*
G75*
G02*
X189798458Y-97246384I56215J56215D01*
G01*
X189910888Y-97133954D01*
G75*
G02*
X190023318Y-97133954I56215J-56215D01*
G01*
G37*
G36*
G01*
X191186414Y-96834458D02*
X191328542Y-96976586D01*
G75*
G02*
X191328542Y-97089016I-56215J-56215D01*
G01*
X191216112Y-97201446D01*
G75*
G02*
X191103682Y-97201446I-56215J56215D01*
G01*
X190961554Y-97059318D01*
G75*
G02*
X190961554Y-96946888I56215J56215D01*
G01*
X191073984Y-96834458D01*
G75*
G02*
X191186414Y-96834458I56215J-56215D01*
G01*
G37*
G36*
G01*
X191674318Y-96346554D02*
X191816446Y-96488682D01*
G75*
G02*
X191816446Y-96601112I-56215J-56215D01*
G01*
X191704016Y-96713542D01*
G75*
G02*
X191591586Y-96713542I-56215J56215D01*
G01*
X191449458Y-96571414D01*
G75*
G02*
X191449458Y-96458984I56215J56215D01*
G01*
X191561888Y-96346554D01*
G75*
G02*
X191674318Y-96346554I56215J-56215D01*
G01*
G37*
G36*
G01*
X190861518Y-97972154D02*
X191003646Y-98114282D01*
G75*
G02*
X191003646Y-98226712I-56215J-56215D01*
G01*
X190891216Y-98339142D01*
G75*
G02*
X190778786Y-98339142I-56215J56215D01*
G01*
X190636658Y-98197014D01*
G75*
G02*
X190636658Y-98084584I56215J56215D01*
G01*
X190749088Y-97972154D01*
G75*
G02*
X190861518Y-97972154I56215J-56215D01*
G01*
G37*
G36*
G01*
X190373614Y-98460058D02*
X190515742Y-98602186D01*
G75*
G02*
X190515742Y-98714616I-56215J-56215D01*
G01*
X190403312Y-98827046D01*
G75*
G02*
X190290882Y-98827046I-56215J56215D01*
G01*
X190148754Y-98684918D01*
G75*
G02*
X190148754Y-98572488I56215J56215D01*
G01*
X190261184Y-98460058D01*
G75*
G02*
X190373614Y-98460058I56215J-56215D01*
G01*
G37*
G36*
G01*
X176514000Y-104649500D02*
X176514000Y-104850500D01*
G75*
G02*
X176434500Y-104930000I-79500J0D01*
G01*
X176275500Y-104930000D01*
G75*
G02*
X176196000Y-104850500I0J79500D01*
G01*
X176196000Y-104649500D01*
G75*
G02*
X176275500Y-104570000I79500J0D01*
G01*
X176434500Y-104570000D01*
G75*
G02*
X176514000Y-104649500I0J-79500D01*
G01*
G37*
G36*
G01*
X175824000Y-104649500D02*
X175824000Y-104850500D01*
G75*
G02*
X175744500Y-104930000I-79500J0D01*
G01*
X175585500Y-104930000D01*
G75*
G02*
X175506000Y-104850500I0J79500D01*
G01*
X175506000Y-104649500D01*
G75*
G02*
X175585500Y-104570000I79500J0D01*
G01*
X175744500Y-104570000D01*
G75*
G02*
X175824000Y-104649500I0J-79500D01*
G01*
G37*
G36*
G01*
X177179500Y-105256000D02*
X177380500Y-105256000D01*
G75*
G02*
X177460000Y-105335500I0J-79500D01*
G01*
X177460000Y-105494500D01*
G75*
G02*
X177380500Y-105574000I-79500J0D01*
G01*
X177179500Y-105574000D01*
G75*
G02*
X177100000Y-105494500I0J79500D01*
G01*
X177100000Y-105335500D01*
G75*
G02*
X177179500Y-105256000I79500J0D01*
G01*
G37*
G36*
G01*
X177179500Y-104566000D02*
X177380500Y-104566000D01*
G75*
G02*
X177460000Y-104645500I0J-79500D01*
G01*
X177460000Y-104804500D01*
G75*
G02*
X177380500Y-104884000I-79500J0D01*
G01*
X177179500Y-104884000D01*
G75*
G02*
X177100000Y-104804500I0J79500D01*
G01*
X177100000Y-104645500D01*
G75*
G02*
X177179500Y-104566000I79500J0D01*
G01*
G37*
D10*
X172210000Y-100500000D03*
X172210000Y-109000000D03*
X172210000Y-104750000D03*
G36*
G01*
X205599999Y-115780000D02*
X207800001Y-115780000D01*
G75*
G02*
X208050000Y-116029999I0J-249999D01*
G01*
X208050000Y-116680001D01*
G75*
G02*
X207800001Y-116930000I-249999J0D01*
G01*
X205599999Y-116930000D01*
G75*
G02*
X205350000Y-116680001I0J249999D01*
G01*
X205350000Y-116029999D01*
G75*
G02*
X205599999Y-115780000I249999J0D01*
G01*
G37*
G36*
G01*
X205599999Y-118730000D02*
X207800001Y-118730000D01*
G75*
G02*
X208050000Y-118979999I0J-249999D01*
G01*
X208050000Y-119630001D01*
G75*
G02*
X207800001Y-119880000I-249999J0D01*
G01*
X205599999Y-119880000D01*
G75*
G02*
X205350000Y-119630001I0J249999D01*
G01*
X205350000Y-118979999D01*
G75*
G02*
X205599999Y-118730000I249999J0D01*
G01*
G37*
D17*
X210390000Y-113600000D03*
X210390000Y-111700000D03*
X208390000Y-112650000D03*
G36*
G01*
X204366000Y-112750500D02*
X204366000Y-112549500D01*
G75*
G02*
X204445500Y-112470000I79500J0D01*
G01*
X204604500Y-112470000D01*
G75*
G02*
X204684000Y-112549500I0J-79500D01*
G01*
X204684000Y-112750500D01*
G75*
G02*
X204604500Y-112830000I-79500J0D01*
G01*
X204445500Y-112830000D01*
G75*
G02*
X204366000Y-112750500I0J79500D01*
G01*
G37*
G36*
G01*
X205056000Y-112750500D02*
X205056000Y-112549500D01*
G75*
G02*
X205135500Y-112470000I79500J0D01*
G01*
X205294500Y-112470000D01*
G75*
G02*
X205374000Y-112549500I0J-79500D01*
G01*
X205374000Y-112750500D01*
G75*
G02*
X205294500Y-112830000I-79500J0D01*
G01*
X205135500Y-112830000D01*
G75*
G02*
X205056000Y-112750500I0J79500D01*
G01*
G37*
G36*
G01*
X185840814Y-101620186D02*
X185969372Y-101466978D01*
G75*
G02*
X186180697Y-101448489I114907J-96418D01*
G01*
X186180697Y-101448489D01*
G75*
G02*
X186199186Y-101659814I-96418J-114907D01*
G01*
X186070628Y-101813022D01*
G75*
G02*
X185859303Y-101831511I-114907J96418D01*
G01*
X185859303Y-101831511D01*
G75*
G02*
X185840814Y-101620186I96418J114907D01*
G01*
G37*
M02*
