G04 #@! TF.GenerationSoftware,KiCad,Pcbnew,(5.1.8)-1*
G04 #@! TF.CreationDate,2020-12-15T23:42:14+02:00*
G04 #@! TF.ProjectId,qam - demodulator,71616d20-2d20-4646-956d-6f64756c6174,rev?*
G04 #@! TF.SameCoordinates,Original*
G04 #@! TF.FileFunction,Legend,Bot*
G04 #@! TF.FilePolarity,Positive*
%FSLAX46Y46*%
G04 Gerber Fmt 4.6, Leading zero omitted, Abs format (unit mm)*
G04 Created by KiCad (PCBNEW (5.1.8)-1) date 2020-12-15 23:42:14*
%MOMM*%
%LPD*%
G01*
G04 APERTURE LIST*
%ADD10C,0.150000*%
%ADD11C,0.100000*%
G04 APERTURE END LIST*
D10*
X216495000Y-89460000D02*
X217920000Y-89460000D01*
X209245000Y-89235000D02*
X209570000Y-89235000D01*
X209245000Y-96485000D02*
X209570000Y-96485000D01*
X216495000Y-96485000D02*
X216170000Y-96485000D01*
X216495000Y-89235000D02*
X216170000Y-89235000D01*
X216495000Y-96485000D02*
X216495000Y-96160000D01*
X209245000Y-96485000D02*
X209245000Y-96160000D01*
X209245000Y-89235000D02*
X209245000Y-89560000D01*
X216495000Y-89235000D02*
X216495000Y-89460000D01*
D11*
X213280952Y-90836190D02*
X213280952Y-91240952D01*
X213257142Y-91288571D01*
X213233333Y-91312380D01*
X213185714Y-91336190D01*
X213090476Y-91336190D01*
X213042857Y-91312380D01*
X213019047Y-91288571D01*
X212995238Y-91240952D01*
X212995238Y-90836190D01*
X212685714Y-91050476D02*
X212733333Y-91026666D01*
X212757142Y-91002857D01*
X212780952Y-90955238D01*
X212780952Y-90931428D01*
X212757142Y-90883809D01*
X212733333Y-90860000D01*
X212685714Y-90836190D01*
X212590476Y-90836190D01*
X212542857Y-90860000D01*
X212519047Y-90883809D01*
X212495238Y-90931428D01*
X212495238Y-90955238D01*
X212519047Y-91002857D01*
X212542857Y-91026666D01*
X212590476Y-91050476D01*
X212685714Y-91050476D01*
X212733333Y-91074285D01*
X212757142Y-91098095D01*
X212780952Y-91145714D01*
X212780952Y-91240952D01*
X212757142Y-91288571D01*
X212733333Y-91312380D01*
X212685714Y-91336190D01*
X212590476Y-91336190D01*
X212542857Y-91312380D01*
X212519047Y-91288571D01*
X212495238Y-91240952D01*
X212495238Y-91145714D01*
X212519047Y-91098095D01*
X212542857Y-91074285D01*
X212590476Y-91050476D01*
X209783333Y-85558571D02*
X209807142Y-85582380D01*
X209878571Y-85606190D01*
X209926190Y-85606190D01*
X209997619Y-85582380D01*
X210045238Y-85534761D01*
X210069047Y-85487142D01*
X210092857Y-85391904D01*
X210092857Y-85320476D01*
X210069047Y-85225238D01*
X210045238Y-85177619D01*
X209997619Y-85130000D01*
X209926190Y-85106190D01*
X209878571Y-85106190D01*
X209807142Y-85130000D01*
X209783333Y-85153809D01*
X209307142Y-85606190D02*
X209592857Y-85606190D01*
X209450000Y-85606190D02*
X209450000Y-85106190D01*
X209497619Y-85177619D01*
X209545238Y-85225238D01*
X209592857Y-85249047D01*
X222163333Y-89638571D02*
X222187142Y-89662380D01*
X222258571Y-89686190D01*
X222306190Y-89686190D01*
X222377619Y-89662380D01*
X222425238Y-89614761D01*
X222449047Y-89567142D01*
X222472857Y-89471904D01*
X222472857Y-89400476D01*
X222449047Y-89305238D01*
X222425238Y-89257619D01*
X222377619Y-89210000D01*
X222306190Y-89186190D01*
X222258571Y-89186190D01*
X222187142Y-89210000D01*
X222163333Y-89233809D01*
X221710952Y-89186190D02*
X221949047Y-89186190D01*
X221972857Y-89424285D01*
X221949047Y-89400476D01*
X221901428Y-89376666D01*
X221782380Y-89376666D01*
X221734761Y-89400476D01*
X221710952Y-89424285D01*
X221687142Y-89471904D01*
X221687142Y-89590952D01*
X221710952Y-89638571D01*
X221734761Y-89662380D01*
X221782380Y-89686190D01*
X221901428Y-89686190D01*
X221949047Y-89662380D01*
X221972857Y-89638571D01*
X222153333Y-97158571D02*
X222177142Y-97182380D01*
X222248571Y-97206190D01*
X222296190Y-97206190D01*
X222367619Y-97182380D01*
X222415238Y-97134761D01*
X222439047Y-97087142D01*
X222462857Y-96991904D01*
X222462857Y-96920476D01*
X222439047Y-96825238D01*
X222415238Y-96777619D01*
X222367619Y-96730000D01*
X222296190Y-96706190D01*
X222248571Y-96706190D01*
X222177142Y-96730000D01*
X222153333Y-96753809D01*
X221724761Y-96872857D02*
X221724761Y-97206190D01*
X221843809Y-96682380D02*
X221962857Y-97039523D01*
X221653333Y-97039523D01*
M02*
