G04 #@! TF.GenerationSoftware,KiCad,Pcbnew,(5.1.8)-1*
G04 #@! TF.CreationDate,2020-12-15T23:42:14+02:00*
G04 #@! TF.ProjectId,qam - demodulator,71616d20-2d20-4646-956d-6f64756c6174,rev?*
G04 #@! TF.SameCoordinates,Original*
G04 #@! TF.FileFunction,Copper,L2,Bot*
G04 #@! TF.FilePolarity,Positive*
%FSLAX46Y46*%
G04 Gerber Fmt 4.6, Leading zero omitted, Abs format (unit mm)*
G04 Created by KiCad (PCBNEW (5.1.8)-1) date 2020-12-15 23:42:14*
%MOMM*%
%LPD*%
G01*
G04 APERTURE LIST*
G04 #@! TA.AperFunction,ComponentPad*
%ADD10R,0.850000X0.850000*%
G04 #@! TD*
G04 #@! TA.AperFunction,ComponentPad*
%ADD11R,1.700000X1.700000*%
G04 #@! TD*
G04 #@! TA.AperFunction,ComponentPad*
%ADD12R,1.600000X1.600000*%
G04 #@! TD*
G04 #@! TA.AperFunction,ComponentPad*
%ADD13C,1.600000*%
G04 #@! TD*
G04 #@! TA.AperFunction,ComponentPad*
%ADD14O,1.600000X1.600000*%
G04 #@! TD*
G04 #@! TA.AperFunction,SMDPad,CuDef*
%ADD15R,5.080000X1.500000*%
G04 #@! TD*
G04 #@! TA.AperFunction,ComponentPad*
%ADD16C,1.620000*%
G04 #@! TD*
G04 #@! TA.AperFunction,SMDPad,CuDef*
%ADD17R,1.600000X0.550000*%
G04 #@! TD*
G04 #@! TA.AperFunction,SMDPad,CuDef*
%ADD18R,0.550000X1.600000*%
G04 #@! TD*
G04 #@! TA.AperFunction,SMDPad,CuDef*
%ADD19R,1.500000X5.080000*%
G04 #@! TD*
G04 #@! TA.AperFunction,ComponentPad*
%ADD20O,0.850000X0.850000*%
G04 #@! TD*
G04 #@! TA.AperFunction,ComponentPad*
%ADD21O,1.700000X1.700000*%
G04 #@! TD*
G04 #@! TA.AperFunction,ViaPad*
%ADD22C,0.450000*%
G04 #@! TD*
G04 #@! TA.AperFunction,ViaPad*
%ADD23C,0.500000*%
G04 #@! TD*
G04 #@! TA.AperFunction,Conductor*
%ADD24C,0.300000*%
G04 #@! TD*
G04 #@! TA.AperFunction,Conductor*
%ADD25C,0.100000*%
G04 #@! TD*
G04 APERTURE END LIST*
D10*
X180000000Y-114681000D03*
X204410000Y-88600000D03*
D11*
X171323000Y-128143000D03*
X171323000Y-81915000D03*
X223774000Y-128143000D03*
D12*
X207860000Y-84590000D03*
D13*
X212860000Y-84590000D03*
X211110000Y-116380000D03*
D14*
X211110000Y-126380000D03*
D15*
X223000000Y-109500000D03*
X223000000Y-101000000D03*
D11*
X223774000Y-81970000D03*
X223774000Y-85598000D03*
D16*
X180000000Y-120000000D03*
X177500000Y-117500000D03*
X175000000Y-120000000D03*
D17*
X217120000Y-90060000D03*
X217120000Y-90860000D03*
X217120000Y-91660000D03*
X217120000Y-92460000D03*
X217120000Y-93260000D03*
X217120000Y-94060000D03*
X217120000Y-94860000D03*
X217120000Y-95660000D03*
D18*
X215670000Y-97110000D03*
X214870000Y-97110000D03*
X214070000Y-97110000D03*
X213270000Y-97110000D03*
X212470000Y-97110000D03*
X211670000Y-97110000D03*
X210870000Y-97110000D03*
X210070000Y-97110000D03*
D17*
X208620000Y-95660000D03*
X208620000Y-94860000D03*
X208620000Y-94060000D03*
X208620000Y-93260000D03*
X208620000Y-92460000D03*
X208620000Y-91660000D03*
X208620000Y-90860000D03*
X208620000Y-90060000D03*
D18*
X210070000Y-88610000D03*
X210870000Y-88610000D03*
X211670000Y-88610000D03*
X212470000Y-88610000D03*
X213270000Y-88610000D03*
X214070000Y-88610000D03*
X214870000Y-88610000D03*
X215670000Y-88610000D03*
D13*
X223860000Y-90230000D03*
D14*
X223860000Y-97730000D03*
D19*
X192250000Y-82800000D03*
X183750000Y-82800000D03*
X192250000Y-127200000D03*
X183750000Y-127200000D03*
X204250000Y-82800000D03*
X195750000Y-82800000D03*
X204250000Y-127200000D03*
X195750000Y-127200000D03*
D10*
X215830000Y-84870000D03*
D20*
X216830000Y-84870000D03*
X217830000Y-84870000D03*
D10*
X213470000Y-99540000D03*
D20*
X212470000Y-99540000D03*
D10*
X206030000Y-92330000D03*
D20*
X206030000Y-93330000D03*
G04 #@! TA.AperFunction,SMDPad,CuDef*
G36*
G01*
X209130000Y-84680000D02*
X209130000Y-84480000D01*
G75*
G02*
X209230000Y-84380000I100000J0D01*
G01*
X209490000Y-84380000D01*
G75*
G02*
X209590000Y-84480000I0J-100000D01*
G01*
X209590000Y-84680000D01*
G75*
G02*
X209490000Y-84780000I-100000J0D01*
G01*
X209230000Y-84780000D01*
G75*
G02*
X209130000Y-84680000I0J100000D01*
G01*
G37*
G04 #@! TD.AperFunction*
G04 #@! TA.AperFunction,SMDPad,CuDef*
G36*
G01*
X209770000Y-84680000D02*
X209770000Y-84480000D01*
G75*
G02*
X209870000Y-84380000I100000J0D01*
G01*
X210130000Y-84380000D01*
G75*
G02*
X210230000Y-84480000I0J-100000D01*
G01*
X210230000Y-84680000D01*
G75*
G02*
X210130000Y-84780000I-100000J0D01*
G01*
X209870000Y-84780000D01*
G75*
G02*
X209770000Y-84680000I0J100000D01*
G01*
G37*
G04 #@! TD.AperFunction*
G04 #@! TA.AperFunction,SMDPad,CuDef*
G36*
G01*
X221990000Y-90130000D02*
X221990000Y-90330000D01*
G75*
G02*
X221890000Y-90430000I-100000J0D01*
G01*
X221630000Y-90430000D01*
G75*
G02*
X221530000Y-90330000I0J100000D01*
G01*
X221530000Y-90130000D01*
G75*
G02*
X221630000Y-90030000I100000J0D01*
G01*
X221890000Y-90030000D01*
G75*
G02*
X221990000Y-90130000I0J-100000D01*
G01*
G37*
G04 #@! TD.AperFunction*
G04 #@! TA.AperFunction,SMDPad,CuDef*
G36*
G01*
X222630000Y-90130000D02*
X222630000Y-90330000D01*
G75*
G02*
X222530000Y-90430000I-100000J0D01*
G01*
X222270000Y-90430000D01*
G75*
G02*
X222170000Y-90330000I0J100000D01*
G01*
X222170000Y-90130000D01*
G75*
G02*
X222270000Y-90030000I100000J0D01*
G01*
X222530000Y-90030000D01*
G75*
G02*
X222630000Y-90130000I0J-100000D01*
G01*
G37*
G04 #@! TD.AperFunction*
D15*
X172210000Y-100500000D03*
X172210000Y-109000000D03*
D11*
X214757000Y-119380000D03*
D21*
X214757000Y-121920000D03*
X214757000Y-124460000D03*
G04 #@! TA.AperFunction,SMDPad,CuDef*
G36*
G01*
X222620000Y-97630000D02*
X222620000Y-97830000D01*
G75*
G02*
X222520000Y-97930000I-100000J0D01*
G01*
X222260000Y-97930000D01*
G75*
G02*
X222160000Y-97830000I0J100000D01*
G01*
X222160000Y-97630000D01*
G75*
G02*
X222260000Y-97530000I100000J0D01*
G01*
X222520000Y-97530000D01*
G75*
G02*
X222620000Y-97630000I0J-100000D01*
G01*
G37*
G04 #@! TD.AperFunction*
G04 #@! TA.AperFunction,SMDPad,CuDef*
G36*
G01*
X221980000Y-97630000D02*
X221980000Y-97830000D01*
G75*
G02*
X221880000Y-97930000I-100000J0D01*
G01*
X221620000Y-97930000D01*
G75*
G02*
X221520000Y-97830000I0J100000D01*
G01*
X221520000Y-97630000D01*
G75*
G02*
X221620000Y-97530000I100000J0D01*
G01*
X221880000Y-97530000D01*
G75*
G02*
X221980000Y-97630000I0J-100000D01*
G01*
G37*
G04 #@! TD.AperFunction*
D10*
X220230000Y-86950000D03*
D20*
X220230000Y-87950000D03*
X220230000Y-88950000D03*
X220230000Y-89950000D03*
X220230000Y-90950000D03*
X220230000Y-91950000D03*
X220230000Y-92950000D03*
X220230000Y-93950000D03*
D10*
X180000000Y-93789500D03*
X203380000Y-99460000D03*
D22*
X188861700Y-108712000D03*
X187998100Y-107988100D03*
X187998100Y-102006400D03*
X188798200Y-101219000D03*
X186650000Y-111531000D03*
X186840000Y-109971000D03*
X186910000Y-110761000D03*
X186055000Y-112141000D03*
X192151000Y-96012000D03*
X186055000Y-97790000D03*
X186840000Y-99960000D03*
X186650000Y-98400000D03*
X186910000Y-99170000D03*
X193040000Y-95250000D03*
X193040000Y-100330000D03*
X192151000Y-100711000D03*
X193929000Y-99822000D03*
X194818000Y-99314000D03*
X195707000Y-98679000D03*
X196469000Y-97790000D03*
X197358000Y-96901000D03*
X198120000Y-96012000D03*
X198755000Y-95123000D03*
X199263000Y-94234000D03*
X199771000Y-93218000D03*
X200152000Y-92202000D03*
X200533000Y-91186000D03*
X200787000Y-90170000D03*
X201041000Y-89154000D03*
X201168000Y-86868000D03*
X201168000Y-123063000D03*
X199263000Y-115697000D03*
X200533000Y-118745000D03*
X201041000Y-120777000D03*
X198120000Y-113919000D03*
X198755000Y-114808000D03*
X196469000Y-112141000D03*
X194818000Y-110617000D03*
X195707000Y-111252000D03*
X200787000Y-119761000D03*
X200152000Y-117729000D03*
X201168000Y-121920000D03*
X193929000Y-110109000D03*
X199771000Y-116713000D03*
X193040000Y-109601000D03*
X197358000Y-113030000D03*
X192151000Y-109347000D03*
X207010000Y-102362000D03*
X205740000Y-102362000D03*
X204470000Y-102362000D03*
X203200000Y-102362000D03*
X201930000Y-102362000D03*
X200660000Y-102362000D03*
X198120000Y-102362000D03*
X196850000Y-102362000D03*
X195580000Y-102362000D03*
X209550000Y-102362000D03*
X209550000Y-100584000D03*
X211455000Y-102362000D03*
X212725000Y-102362000D03*
X213995000Y-102362000D03*
X215265000Y-102362000D03*
X216535000Y-102362000D03*
X217805000Y-102362000D03*
X217805000Y-104013000D03*
X216535000Y-104013000D03*
X215265000Y-104013000D03*
X213995000Y-104013000D03*
X212725000Y-104013000D03*
X211455000Y-104013000D03*
X198120000Y-86360000D03*
X196850000Y-86360000D03*
X195580000Y-86360000D03*
X194310000Y-86360000D03*
X193040000Y-86360000D03*
X191770000Y-86360000D03*
X190500000Y-86360000D03*
X189230000Y-86360000D03*
X190500000Y-87630000D03*
X191770000Y-87630000D03*
X193040000Y-87630000D03*
X194310000Y-87630000D03*
X195580000Y-87630000D03*
X196850000Y-87630000D03*
X198120000Y-87630000D03*
X198120000Y-88900000D03*
X196850000Y-88900000D03*
X195580000Y-88900000D03*
X194310000Y-88900000D03*
X193040000Y-88900000D03*
X195580000Y-90170000D03*
X196850000Y-90170000D03*
X198120000Y-90170000D03*
X196850000Y-91440000D03*
X195580000Y-91440000D03*
X195580000Y-92710000D03*
X196850000Y-92710000D03*
X195580000Y-93980000D03*
X194310000Y-93980000D03*
X195580000Y-95250000D03*
X194310000Y-95250000D03*
X195580000Y-117221000D03*
X195580000Y-115951000D03*
X196850000Y-118491000D03*
X196850000Y-121031000D03*
X195580000Y-118491000D03*
X198120000Y-123571000D03*
X193040000Y-122301000D03*
X191770000Y-122301000D03*
X194310000Y-122301000D03*
X198120000Y-121031000D03*
X196850000Y-119761000D03*
X196850000Y-117221000D03*
X190500000Y-122301000D03*
X195580000Y-122301000D03*
X195580000Y-123571000D03*
X194310000Y-123571000D03*
X190500000Y-123571000D03*
X198120000Y-122301000D03*
X196850000Y-123571000D03*
X195580000Y-121031000D03*
X193040000Y-121031000D03*
X196850000Y-122301000D03*
X194310000Y-121031000D03*
X198120000Y-119761000D03*
X195580000Y-119761000D03*
X193040000Y-123571000D03*
X191770000Y-123571000D03*
X194310000Y-115951000D03*
X189230000Y-123571000D03*
X194310000Y-114681000D03*
X193040000Y-114681000D03*
X190500000Y-113411000D03*
X193040000Y-113411000D03*
X195580000Y-114681000D03*
X194310000Y-113411000D03*
X192151000Y-113995200D03*
X186690000Y-86360000D03*
X185420000Y-86360000D03*
X184150000Y-86360000D03*
X186690000Y-87630000D03*
X185420000Y-87630000D03*
X184150000Y-87630000D03*
X186690000Y-88900000D03*
X185420000Y-88900000D03*
X184150000Y-88900000D03*
X186690000Y-90170000D03*
X187960000Y-90170000D03*
X189230000Y-90170000D03*
X185420000Y-90170000D03*
X184150000Y-90170000D03*
X184150000Y-91440000D03*
X185420000Y-91440000D03*
X186690000Y-91440000D03*
X187960000Y-91440000D03*
X189230000Y-91440000D03*
X190500000Y-91440000D03*
X191770000Y-91440000D03*
X191770000Y-92710000D03*
X190500000Y-92710000D03*
X189230000Y-92710000D03*
X187960000Y-92710000D03*
X186690000Y-92710000D03*
X185420000Y-92710000D03*
X184150000Y-92710000D03*
X184150000Y-93980000D03*
X185420000Y-93980000D03*
X186690000Y-93980000D03*
X187960000Y-93980000D03*
X186690000Y-95250000D03*
X185420000Y-95250000D03*
X186055000Y-96520000D03*
X182880000Y-86360000D03*
X182880000Y-87630000D03*
X182880000Y-88900000D03*
X182880000Y-90170000D03*
X182880000Y-91440000D03*
X182880000Y-92710000D03*
X182880000Y-93980000D03*
X182880000Y-95250000D03*
X182880000Y-96520000D03*
X182880000Y-97790000D03*
X181610000Y-97790000D03*
X181610000Y-96520000D03*
X181610000Y-95250000D03*
X181610000Y-93980000D03*
X181610000Y-92710000D03*
X181610000Y-91440000D03*
X181610000Y-90170000D03*
X181610000Y-88900000D03*
X181610000Y-87630000D03*
X181610000Y-86360000D03*
X181610000Y-85090000D03*
X181610000Y-99060000D03*
X181610000Y-100330000D03*
X180340000Y-95250000D03*
X180340000Y-96520000D03*
X180340000Y-97790000D03*
X180340000Y-99060000D03*
X180340000Y-101600000D03*
X186690000Y-123571000D03*
X185420000Y-117221000D03*
X190500000Y-117221000D03*
X185420000Y-123571000D03*
X187960000Y-117221000D03*
X182880000Y-121031000D03*
X182880000Y-123571000D03*
X187960000Y-115951000D03*
X181610000Y-124841000D03*
X181610000Y-109601000D03*
X186055000Y-113411000D03*
X181610000Y-123571000D03*
X185420000Y-114681000D03*
X182880000Y-114681000D03*
X182880000Y-112141000D03*
X181610000Y-113411000D03*
X181610000Y-122301000D03*
X182880000Y-122301000D03*
X181610000Y-121031000D03*
X181610000Y-110871000D03*
X182880000Y-113411000D03*
X182880000Y-118491000D03*
X182880000Y-117221000D03*
X181610000Y-114681000D03*
X186690000Y-114681000D03*
X181610000Y-115951000D03*
X181610000Y-112141000D03*
X182880000Y-119761000D03*
X181610000Y-119761000D03*
X182880000Y-115951000D03*
X186690000Y-115951000D03*
X181610000Y-117221000D03*
X181610000Y-118491000D03*
X189230000Y-119761000D03*
X187960000Y-119761000D03*
X185420000Y-118491000D03*
X186690000Y-122301000D03*
X185420000Y-115951000D03*
X190500000Y-118491000D03*
X186690000Y-121031000D03*
X184150000Y-121031000D03*
X191770000Y-118491000D03*
X184150000Y-115951000D03*
X187960000Y-118491000D03*
X186690000Y-119761000D03*
X186690000Y-118491000D03*
X185420000Y-121031000D03*
X184150000Y-122301000D03*
X185420000Y-119761000D03*
X185420000Y-122301000D03*
X191770000Y-117221000D03*
X184150000Y-123571000D03*
X184150000Y-119761000D03*
X189230000Y-118491000D03*
X184150000Y-118491000D03*
X189230000Y-117221000D03*
X184150000Y-117221000D03*
X186690000Y-117221000D03*
X180340000Y-91440000D03*
X180340000Y-90170000D03*
X180340000Y-88900000D03*
X180340000Y-87630000D03*
X180340000Y-86360000D03*
X180340000Y-85090000D03*
X180340000Y-83820000D03*
X181610000Y-83820000D03*
X181610000Y-82550000D03*
X180340000Y-82550000D03*
X181610000Y-81280000D03*
X180340000Y-81280000D03*
X179070000Y-81280000D03*
X179070000Y-82550000D03*
X179070000Y-83820000D03*
X179070000Y-85090000D03*
X177800000Y-81280000D03*
X176530000Y-81280000D03*
X175260000Y-81280000D03*
X173990000Y-81280000D03*
X176530000Y-82550000D03*
X177800000Y-82550000D03*
X177800000Y-83820000D03*
X173990000Y-82550000D03*
X173990000Y-83820000D03*
X175260000Y-83820000D03*
X176530000Y-85090000D03*
X175260000Y-85090000D03*
X173990000Y-85090000D03*
X172720000Y-85090000D03*
X171450000Y-85090000D03*
X170180000Y-85090000D03*
X170180000Y-86360000D03*
X171450000Y-86360000D03*
X172720000Y-86360000D03*
X173990000Y-86360000D03*
X175260000Y-86360000D03*
X176530000Y-86360000D03*
X177800000Y-86360000D03*
X177800000Y-87630000D03*
X176530000Y-87630000D03*
X175260000Y-87630000D03*
X173990000Y-87630000D03*
X172720000Y-87630000D03*
X171450000Y-87630000D03*
X170180000Y-87630000D03*
X170180000Y-88900000D03*
X171450000Y-88900000D03*
X172720000Y-88900000D03*
X173990000Y-88900000D03*
X175260000Y-88900000D03*
X176530000Y-88900000D03*
X177800000Y-88900000D03*
X177800000Y-90170000D03*
X176530000Y-90170000D03*
X175260000Y-90170000D03*
X173990000Y-90170000D03*
X172720000Y-90170000D03*
X171450000Y-90170000D03*
X170180000Y-90170000D03*
X170180000Y-91440000D03*
X171450000Y-91440000D03*
X172720000Y-91440000D03*
X173990000Y-91440000D03*
X175260000Y-91440000D03*
X176530000Y-91440000D03*
X177800000Y-91440000D03*
X177800000Y-92710000D03*
X176530000Y-92710000D03*
X175260000Y-92710000D03*
X173990000Y-92710000D03*
X172720000Y-92710000D03*
X171450000Y-92710000D03*
X170180000Y-92710000D03*
X170180000Y-93980000D03*
X171450000Y-93980000D03*
X172720000Y-93980000D03*
X173990000Y-93980000D03*
X175260000Y-93980000D03*
X176530000Y-93980000D03*
X177800000Y-93980000D03*
X177800000Y-95250000D03*
X176530000Y-95250000D03*
X175260000Y-95250000D03*
X173990000Y-95250000D03*
X172720000Y-95250000D03*
X171450000Y-95250000D03*
X170180000Y-95250000D03*
X170180000Y-96520000D03*
X171450000Y-96520000D03*
X172720000Y-96520000D03*
X173990000Y-96520000D03*
X175260000Y-96520000D03*
X176530000Y-96520000D03*
X177800000Y-96520000D03*
X177800000Y-97790000D03*
X176530000Y-97790000D03*
X175260000Y-97790000D03*
X173990000Y-97790000D03*
X172720000Y-97790000D03*
X171450000Y-97790000D03*
X170180000Y-97790000D03*
X170180000Y-99060000D03*
X171450000Y-99060000D03*
X172720000Y-99060000D03*
X173990000Y-99060000D03*
X175260000Y-99060000D03*
X176530000Y-99060000D03*
X177800000Y-99060000D03*
X177800000Y-100330000D03*
X176530000Y-100330000D03*
X176530000Y-101600000D03*
X177800000Y-101600000D03*
X176530000Y-102870000D03*
X170307000Y-102870000D03*
X171450000Y-102870000D03*
X172720000Y-102870000D03*
X173990000Y-102870000D03*
X175260000Y-102870000D03*
X170180000Y-106680000D03*
X171450000Y-106680000D03*
X172720000Y-106680000D03*
X173990000Y-106680000D03*
X176530000Y-106680000D03*
X180340000Y-109601000D03*
X180340000Y-110871000D03*
X180340000Y-112141000D03*
X180340000Y-108331000D03*
X181610000Y-108331000D03*
X181470000Y-107137200D03*
X177800000Y-106680000D03*
X177800000Y-107950000D03*
X176530000Y-107950000D03*
X176530000Y-109220000D03*
X177800000Y-109220000D03*
X175260000Y-106680000D03*
X175260000Y-101600000D03*
X175260000Y-100330000D03*
X175260000Y-107950000D03*
X175260000Y-109220000D03*
X175260000Y-110490000D03*
X176530000Y-110490000D03*
X177800000Y-110490000D03*
X173990000Y-110490000D03*
X172720000Y-110490000D03*
X171450000Y-110490000D03*
X170180000Y-110490000D03*
X170180000Y-111760000D03*
X171450000Y-111760000D03*
X172720000Y-111760000D03*
X173990000Y-111760000D03*
X175260000Y-111760000D03*
X176530000Y-111760000D03*
X177800000Y-111760000D03*
X177800000Y-113030000D03*
X176530000Y-113030000D03*
X175260000Y-113030000D03*
X173990000Y-113030000D03*
X172720000Y-113030000D03*
X171450000Y-113030000D03*
X170180000Y-113030000D03*
X170180000Y-114300000D03*
X171450000Y-114300000D03*
X172720000Y-114300000D03*
X173990000Y-114300000D03*
X175260000Y-114300000D03*
X176530000Y-114300000D03*
X177800000Y-114300000D03*
X177800000Y-115570000D03*
X176530000Y-115570000D03*
X173990000Y-115570000D03*
X175260000Y-115570000D03*
X172720000Y-115570000D03*
X171450000Y-115570000D03*
X170180000Y-115570000D03*
X170180000Y-116840000D03*
X171450000Y-116840000D03*
X172720000Y-116840000D03*
X172720000Y-118110000D03*
X171450000Y-118110000D03*
X170180000Y-118110000D03*
X170180000Y-119380000D03*
X171450000Y-119380000D03*
X172720000Y-119380000D03*
X170180000Y-120650000D03*
X171450000Y-120650000D03*
X172720000Y-120650000D03*
X170180000Y-121920000D03*
X171450000Y-121920000D03*
X172720000Y-121920000D03*
X173990000Y-121920000D03*
X173990000Y-123190000D03*
X172720000Y-123190000D03*
X171450000Y-123190000D03*
X170180000Y-123190000D03*
X170180000Y-124460000D03*
X171450000Y-124460000D03*
X172720000Y-124460000D03*
X172720000Y-125730000D03*
X170180000Y-125730000D03*
X171450000Y-125730000D03*
X176530000Y-121920000D03*
X177800000Y-121920000D03*
X179070000Y-121920000D03*
X179070000Y-123190000D03*
X177800000Y-123190000D03*
X176530000Y-123190000D03*
X176530000Y-124460000D03*
X177800000Y-124460000D03*
X177800000Y-125730000D03*
X176530000Y-125730000D03*
X176530000Y-127000000D03*
X177800000Y-127000000D03*
X176530000Y-128270000D03*
X177800000Y-128270000D03*
X173990000Y-129540000D03*
X175260000Y-129540000D03*
X176530000Y-129540000D03*
X177800000Y-129540000D03*
X179070000Y-129540000D03*
X180340000Y-129540000D03*
X181610000Y-126111000D03*
X181610000Y-127381000D03*
X181610000Y-128651000D03*
X186309000Y-124460000D03*
X186309000Y-125730000D03*
X186309000Y-127000000D03*
X186309000Y-128270000D03*
X186309000Y-129540000D03*
X189611000Y-124460000D03*
X189611000Y-125730000D03*
X189611000Y-127000000D03*
X189611000Y-128270000D03*
X189611000Y-129540000D03*
X198374000Y-124460000D03*
X198374000Y-125730000D03*
X198374000Y-127000000D03*
X198374000Y-128270000D03*
X198374000Y-129540000D03*
X201676000Y-129540000D03*
X201676000Y-128270000D03*
X201676000Y-127000000D03*
X201676000Y-125730000D03*
X201676000Y-124460000D03*
X219710000Y-103759000D03*
X219710000Y-106807000D03*
X220980000Y-103759000D03*
X222250000Y-103759000D03*
X223520000Y-103759000D03*
X224790000Y-103759000D03*
X220980000Y-106807000D03*
X222250000Y-106807000D03*
X223520000Y-106807000D03*
X224790000Y-106807000D03*
X196850000Y-99822000D03*
X195580000Y-99822000D03*
X198120000Y-99822000D03*
X199390000Y-99822000D03*
X200660000Y-99822000D03*
X201930000Y-99822000D03*
X196850000Y-98552000D03*
X198120000Y-98552000D03*
X199390000Y-98552000D03*
X200660000Y-98552000D03*
X201930000Y-98552000D03*
X203200000Y-97282000D03*
X201930000Y-97282000D03*
X200660000Y-97282000D03*
X199390000Y-97282000D03*
X198120000Y-97282000D03*
X199390000Y-96012000D03*
X200660000Y-96012000D03*
X201930000Y-96012000D03*
X203200000Y-96012000D03*
X200660000Y-94742000D03*
X201930000Y-94742000D03*
X203200000Y-94742000D03*
X200660000Y-93472000D03*
X201930000Y-93472000D03*
X203200000Y-93472000D03*
X203200000Y-92202000D03*
X201930000Y-92202000D03*
X201930000Y-90932000D03*
X203200000Y-90932000D03*
X201930000Y-89662000D03*
X203200000Y-89662000D03*
X203200000Y-88392000D03*
X201930000Y-88392000D03*
X203200000Y-87122000D03*
X201930000Y-87122000D03*
X201676000Y-85852000D03*
X201676000Y-84582000D03*
X201676000Y-83312000D03*
X201676000Y-82042000D03*
X201676000Y-80772000D03*
X198374000Y-80772000D03*
X198374000Y-82042000D03*
X198374000Y-83312000D03*
X198374000Y-84582000D03*
X198374000Y-85852000D03*
X189611000Y-80772000D03*
X189611000Y-82042000D03*
X189611000Y-83312000D03*
X189611000Y-84582000D03*
X189611000Y-85852000D03*
X186436000Y-80772000D03*
X186436000Y-82042000D03*
X186436000Y-83312000D03*
X186436000Y-84582000D03*
X186436000Y-85852000D03*
X194310000Y-109347000D03*
X195580000Y-109347000D03*
X196850000Y-109347000D03*
X198120000Y-109347000D03*
X196850000Y-110617000D03*
X198120000Y-110617000D03*
X199390000Y-110617000D03*
X198120000Y-111887000D03*
X199390000Y-111887000D03*
X200660000Y-111887000D03*
X201930000Y-111887000D03*
X199390000Y-113157000D03*
X200660000Y-113157000D03*
X201930000Y-113157000D03*
X203200000Y-113157000D03*
X200660000Y-114427000D03*
X201930000Y-114427000D03*
X203200000Y-114427000D03*
X204470000Y-114427000D03*
X205740000Y-114427000D03*
X200660000Y-115697000D03*
X199390000Y-114427000D03*
X201930000Y-115697000D03*
X203200000Y-115697000D03*
X204470000Y-115697000D03*
X204470000Y-116967000D03*
X203200000Y-116967000D03*
X201930000Y-116967000D03*
X200660000Y-116967000D03*
X201930000Y-118237000D03*
X203200000Y-118237000D03*
X204470000Y-118237000D03*
X204470000Y-119507000D03*
X203200000Y-119507000D03*
X201930000Y-119507000D03*
X201930000Y-120777000D03*
X203200000Y-120777000D03*
X204470000Y-120777000D03*
X205740000Y-120777000D03*
X207010000Y-120777000D03*
X208280000Y-120777000D03*
X203200000Y-122047000D03*
X204470000Y-122047000D03*
X205740000Y-122047000D03*
X207010000Y-122047000D03*
X208280000Y-122047000D03*
X203200000Y-123317000D03*
X204470000Y-123317000D03*
X205740000Y-123317000D03*
X207010000Y-123317000D03*
X208280000Y-123317000D03*
X205740000Y-124587000D03*
X207010000Y-124587000D03*
X208280000Y-124587000D03*
X201930000Y-122047000D03*
X201930000Y-123317000D03*
X205740000Y-125857000D03*
X207010000Y-125857000D03*
X208280000Y-125857000D03*
X205740000Y-127127000D03*
X207010000Y-127127000D03*
X208280000Y-127127000D03*
X205740000Y-128397000D03*
X207010000Y-128397000D03*
X208280000Y-128397000D03*
X209550000Y-128397000D03*
X205740000Y-129540000D03*
X207010000Y-129540000D03*
X208280000Y-129540000D03*
X209550000Y-129540000D03*
X210820000Y-128397000D03*
X212090000Y-128397000D03*
X213360000Y-128397000D03*
X214630000Y-128397000D03*
X215900000Y-128397000D03*
X217170000Y-128397000D03*
X218440000Y-128397000D03*
X219710000Y-128397000D03*
X210820000Y-129540000D03*
X212090000Y-129540000D03*
X213360000Y-129540000D03*
X214630000Y-129540000D03*
X215900000Y-129540000D03*
X217170000Y-129540000D03*
X218440000Y-129540000D03*
X219710000Y-129540000D03*
X220980000Y-129540000D03*
X220980000Y-128397000D03*
X213360000Y-127127000D03*
X214630000Y-127127000D03*
X215900000Y-127127000D03*
X217170000Y-127127000D03*
X218440000Y-127127000D03*
X219710000Y-127127000D03*
X220980000Y-127127000D03*
X218440000Y-125857000D03*
X219710000Y-125857000D03*
X220980000Y-125857000D03*
X217170000Y-125857000D03*
X222250000Y-125857000D03*
X224790000Y-125857000D03*
X224790000Y-124587000D03*
X222250000Y-124587000D03*
X220980000Y-124587000D03*
X219710000Y-124587000D03*
X218440000Y-124587000D03*
X217170000Y-124587000D03*
X217170000Y-123317000D03*
X218440000Y-123317000D03*
X219710000Y-123317000D03*
X220980000Y-123317000D03*
X222250000Y-123317000D03*
X224790000Y-123317000D03*
X224790000Y-122047000D03*
X222250000Y-122047000D03*
X220980000Y-122047000D03*
X219710000Y-122047000D03*
X218440000Y-122047000D03*
X217170000Y-122047000D03*
X217170000Y-120777000D03*
X218440000Y-120777000D03*
X219710000Y-120777000D03*
X220980000Y-120777000D03*
X222250000Y-120777000D03*
X224790000Y-120777000D03*
X224790000Y-119507000D03*
X222250000Y-119507000D03*
X220980000Y-119507000D03*
X219710000Y-119507000D03*
X219710000Y-118237000D03*
X220980000Y-118237000D03*
X224790000Y-118237000D03*
X217170000Y-118237000D03*
X217170000Y-116967000D03*
X215900000Y-116967000D03*
X214630000Y-116967000D03*
X213360000Y-116967000D03*
X219710000Y-116967000D03*
X213360000Y-115697000D03*
X214630000Y-115697000D03*
X215900000Y-115697000D03*
X217170000Y-115697000D03*
X217170000Y-114427000D03*
X215900000Y-114427000D03*
X214630000Y-114427000D03*
X213360000Y-114427000D03*
X212090000Y-114427000D03*
X213360000Y-113157000D03*
X214630000Y-113157000D03*
X215900000Y-113157000D03*
X217170000Y-113157000D03*
X213360000Y-111887000D03*
X214630000Y-111887000D03*
X215900000Y-111887000D03*
X219710000Y-115697000D03*
X220980000Y-116967000D03*
X222250000Y-118237000D03*
X223520000Y-116967000D03*
X224790000Y-116967000D03*
X222250000Y-115697000D03*
X223520000Y-115697000D03*
X224790000Y-115697000D03*
X224790000Y-114427000D03*
X223520000Y-114427000D03*
X222250000Y-114427000D03*
X220980000Y-114427000D03*
X219710000Y-113157000D03*
X220980000Y-113157000D03*
X222250000Y-113157000D03*
X223520000Y-113157000D03*
X224790000Y-113157000D03*
X224790000Y-111887000D03*
X223520000Y-111887000D03*
X222250000Y-111887000D03*
X220980000Y-111887000D03*
X219710000Y-111887000D03*
X213360000Y-110617000D03*
X214630000Y-110617000D03*
X213360000Y-109347000D03*
X217760000Y-107780000D03*
X213950000Y-107780000D03*
X215220000Y-107780000D03*
X216490000Y-107780000D03*
X212680000Y-107780000D03*
X211410000Y-107780000D03*
X209560000Y-107780000D03*
X205750000Y-107780000D03*
X207020000Y-107780000D03*
X208290000Y-107780000D03*
X204480000Y-107780000D03*
X205994000Y-96012000D03*
X205994000Y-97282000D03*
X205994000Y-98552000D03*
X205994000Y-99822000D03*
X210820000Y-95250000D03*
X214884000Y-95250000D03*
X214884000Y-90170000D03*
X210820000Y-90170000D03*
X207010000Y-81280000D03*
X208280000Y-81280000D03*
X209423000Y-81280000D03*
X210820000Y-81280000D03*
X212090000Y-81280000D03*
X213360000Y-81280000D03*
X214630000Y-81280000D03*
X215900000Y-81280000D03*
X217170000Y-81280000D03*
X218440000Y-81280000D03*
X219710000Y-81280000D03*
X220980000Y-81280000D03*
X220980000Y-85090000D03*
X219710000Y-85090000D03*
X219710000Y-83820000D03*
X220980000Y-83820000D03*
X220980000Y-82804000D03*
X219710000Y-82804000D03*
X218440000Y-82804000D03*
X217170000Y-82804000D03*
X215900000Y-82804000D03*
X214630000Y-82804000D03*
X213360000Y-82804000D03*
X212090000Y-82804000D03*
X210820000Y-82804000D03*
X209550000Y-82804000D03*
X201168000Y-88011000D03*
X200660000Y-104000000D03*
X201930000Y-104000000D03*
X203200000Y-104000000D03*
X204470000Y-104000000D03*
X205740000Y-104000000D03*
X207010000Y-104000000D03*
X208280000Y-104000000D03*
X209550000Y-104000000D03*
X217760000Y-106500000D03*
X216490000Y-106500000D03*
X215220000Y-106500000D03*
X213950000Y-106500000D03*
X212680000Y-106500000D03*
X211410000Y-106500000D03*
X209550000Y-106500000D03*
X208280000Y-106500000D03*
X207010000Y-106500000D03*
X205740000Y-106500000D03*
X204470000Y-106500000D03*
X203200000Y-106500000D03*
X201930000Y-106500000D03*
X200660000Y-106500000D03*
X198120000Y-106500000D03*
X196850000Y-106500000D03*
X195580000Y-106500000D03*
X194310000Y-106500000D03*
X193040000Y-106500000D03*
X194310000Y-104000000D03*
X195580000Y-104000000D03*
X196850000Y-104000000D03*
X198120000Y-104000000D03*
D23*
X192340000Y-106250000D03*
D22*
X190754000Y-107497000D03*
X190754000Y-104013000D03*
X191770000Y-104013000D03*
X184250000Y-95950000D03*
X184250000Y-101500000D03*
X184250000Y-114040000D03*
X190500000Y-114350800D03*
X184250000Y-108300000D03*
X183620000Y-106380000D03*
X184080000Y-106380000D03*
X185920000Y-106380000D03*
X185460000Y-106380000D03*
X184540000Y-106380000D03*
X185000000Y-106380000D03*
X186380000Y-106380000D03*
X186380000Y-105460000D03*
X185920000Y-105460000D03*
X185460000Y-105460000D03*
X185000000Y-105460000D03*
X184540000Y-105460000D03*
X184080000Y-105460000D03*
X183620000Y-105460000D03*
X186380000Y-105920000D03*
X183620000Y-105920000D03*
X184080000Y-105920000D03*
X185920000Y-105920000D03*
X185460000Y-105920000D03*
X184540000Y-105920000D03*
X185000000Y-105920000D03*
X186380000Y-104540000D03*
X185920000Y-104540000D03*
X185460000Y-104540000D03*
X185000000Y-104540000D03*
X184540000Y-104540000D03*
X184080000Y-104540000D03*
X183620000Y-104540000D03*
X186380000Y-105000000D03*
X183620000Y-105000000D03*
X184080000Y-105000000D03*
X185920000Y-105000000D03*
X185460000Y-105000000D03*
X184540000Y-105000000D03*
X185000000Y-105000000D03*
X186380000Y-104080000D03*
X185920000Y-104080000D03*
X185460000Y-104080000D03*
X185000000Y-104080000D03*
X184540000Y-104080000D03*
X184080000Y-104080000D03*
X183620000Y-104080000D03*
X186380000Y-103620000D03*
X185920000Y-103620000D03*
X185460000Y-103620000D03*
X185000000Y-103620000D03*
X184540000Y-103620000D03*
X184080000Y-103620000D03*
X183620000Y-103620000D03*
X181508400Y-104140000D03*
X181508400Y-105330000D03*
X189179200Y-98933000D03*
X189179200Y-111023400D03*
X207090000Y-94860000D03*
X212990000Y-93260000D03*
X193380000Y-101490000D03*
X209430000Y-110130000D03*
X214520000Y-85220000D03*
X218570000Y-99530000D03*
X202500000Y-108630000D03*
X208900000Y-99428300D03*
X205740000Y-101473000D03*
X207086200Y-100266500D03*
X218452700Y-96583500D03*
X219176600Y-96583500D03*
X210870000Y-86741000D03*
X211670000Y-86995000D03*
X212471000Y-87249000D03*
X211870000Y-112850000D03*
X219913200Y-96583500D03*
D24*
X214740000Y-92610000D02*
X214290000Y-92610000D01*
X215690000Y-91660000D02*
X214740000Y-92610000D01*
X217120000Y-91660000D02*
X215690000Y-91660000D01*
X213690000Y-92460000D02*
X208620000Y-92460000D01*
X213840000Y-92610000D02*
X213690000Y-92460000D01*
X214290000Y-92610000D02*
X213840000Y-92610000D01*
X217120000Y-92460000D02*
X216130000Y-92460000D01*
X216130000Y-92460000D02*
X215330000Y-93260000D01*
X216130000Y-94060000D02*
X215330000Y-93260000D01*
X217120000Y-94060000D02*
X216130000Y-94060000D01*
X208620000Y-94860000D02*
X209720000Y-94860000D01*
X210820000Y-93760000D02*
X210820000Y-93260000D01*
X210820000Y-93260000D02*
X208620000Y-93260000D01*
X209720000Y-94860000D02*
X210820000Y-93760000D01*
X215330000Y-93260000D02*
X212990000Y-93260000D01*
X207090000Y-94860000D02*
X208620000Y-94860000D01*
X207870000Y-84580000D02*
X207860000Y-84590000D01*
X209360000Y-84580000D02*
X207870000Y-84580000D01*
X212990000Y-93260000D02*
X210820000Y-93260000D01*
X222390000Y-97730000D02*
X223860000Y-97730000D01*
X221790000Y-95660000D02*
X223860000Y-97730000D01*
X217120000Y-95660000D02*
X221790000Y-95660000D01*
X222400000Y-90230000D02*
X223860000Y-90230000D01*
X221760000Y-94860000D02*
X223860000Y-92760000D01*
X223860000Y-92760000D02*
X223860000Y-90230000D01*
X217120000Y-94860000D02*
X221760000Y-94860000D01*
X199010000Y-108910000D02*
X200230000Y-110130000D01*
X199010000Y-103730000D02*
X199010000Y-108910000D01*
X200230000Y-110130000D02*
X209430000Y-110130000D01*
X198520000Y-103240000D02*
X199010000Y-103730000D01*
X195130000Y-103240000D02*
X198520000Y-103240000D01*
X193380000Y-101490000D02*
X195130000Y-103240000D01*
X213270000Y-86540000D02*
X214520000Y-85220000D01*
X213270000Y-88610000D02*
X213270000Y-86540000D01*
X214520000Y-85220000D02*
X214520000Y-85220000D01*
X218694000Y-99654000D02*
X218570000Y-99530000D01*
X218694000Y-118491000D02*
X218694000Y-99654000D01*
X217805000Y-119380000D02*
X218694000Y-118491000D01*
X214757000Y-119380000D02*
X217805000Y-119380000D01*
X210000000Y-108630000D02*
X202500000Y-108630000D01*
X210460000Y-108170000D02*
X210000000Y-108630000D01*
X210460000Y-99540000D02*
X210460000Y-108170000D01*
X211670000Y-98330000D02*
X210460000Y-99540000D01*
X211670000Y-97110000D02*
X211670000Y-98330000D01*
X210070700Y-98247200D02*
X208900000Y-99428300D01*
X210070000Y-97110000D02*
X210070700Y-98247200D01*
X210870000Y-98340000D02*
X210870000Y-97110000D01*
X207724300Y-101485700D02*
X210870000Y-98340000D01*
X205752700Y-101485700D02*
X207724300Y-101485700D01*
X205740000Y-101473000D02*
X205752700Y-101485700D01*
X207086200Y-95948500D02*
X207086200Y-100266500D01*
X207374700Y-95660000D02*
X207086200Y-95948500D01*
X208620000Y-95660000D02*
X207374700Y-95660000D01*
X217120000Y-90060000D02*
X218540000Y-90060000D01*
X218650000Y-89950000D02*
X220230000Y-89950000D01*
X218540000Y-90060000D02*
X218650000Y-89950000D01*
X217120000Y-90860000D02*
X218510000Y-90860000D01*
X218600000Y-90950000D02*
X220230000Y-90950000D01*
X218510000Y-90860000D02*
X218600000Y-90950000D01*
X216611200Y-98425000D02*
X218452700Y-96583500D01*
X215938100Y-98425000D02*
X216611200Y-98425000D01*
X215670000Y-98156900D02*
X215938100Y-98425000D01*
X215670000Y-97110000D02*
X215670000Y-98156900D01*
X219011500Y-96989900D02*
X219176600Y-96583500D01*
X216992200Y-99009200D02*
X219011500Y-96989900D01*
X215646000Y-99009200D02*
X216992200Y-99009200D01*
X214870000Y-98233200D02*
X215646000Y-99009200D01*
X214870000Y-97110000D02*
X214870000Y-98233200D01*
X213470000Y-99540000D02*
X213470000Y-98810000D01*
X213270000Y-98610000D02*
X213270000Y-97110000D01*
X213470000Y-98810000D02*
X213270000Y-98610000D01*
X212470000Y-99540000D02*
X212470000Y-97110000D01*
X208620000Y-94060000D02*
X207490000Y-94060000D01*
X206760000Y-93330000D02*
X206030000Y-93330000D01*
X207490000Y-94060000D02*
X206760000Y-93330000D01*
X208620000Y-91660000D02*
X207510000Y-91660000D01*
X206840000Y-92330000D02*
X206030000Y-92330000D01*
X207510000Y-91660000D02*
X206840000Y-92330000D01*
X210870000Y-88610000D02*
X210870000Y-86741000D01*
X211670000Y-88610000D02*
X211670000Y-86995000D01*
X212470000Y-88610000D02*
X212471000Y-87249000D01*
X214070000Y-88610000D02*
X214070000Y-87320000D01*
X214070000Y-87320000D02*
X215380000Y-86010000D01*
X215380000Y-86010000D02*
X217190000Y-86010000D01*
X218130000Y-86950000D02*
X220230000Y-86950000D01*
X217190000Y-86010000D02*
X218130000Y-86950000D01*
X216920000Y-86620000D02*
X218250000Y-87950000D01*
X215650000Y-86620000D02*
X216920000Y-86620000D01*
X218250000Y-87950000D02*
X220230000Y-87950000D01*
X214870000Y-87400000D02*
X215650000Y-86620000D01*
X214870000Y-88610000D02*
X214870000Y-87400000D01*
X218420000Y-88950000D02*
X220230000Y-88950000D01*
X216660000Y-87190000D02*
X218420000Y-88950000D01*
X215920000Y-87190000D02*
X216660000Y-87190000D01*
X215670000Y-87440000D02*
X215920000Y-87190000D01*
X215670000Y-88610000D02*
X215670000Y-87440000D01*
X208620000Y-90860000D02*
X205670000Y-90860000D01*
X205670000Y-90860000D02*
X204820000Y-91710000D01*
X204820000Y-91710000D02*
X204820000Y-101020000D01*
X204820000Y-101020000D02*
X204350000Y-101490000D01*
X204350000Y-101490000D02*
X199910000Y-101490000D01*
X199910000Y-101490000D02*
X199860000Y-101490000D01*
X199860000Y-101490000D02*
X199590000Y-101760000D01*
X199590000Y-101760000D02*
X199590000Y-108670000D01*
X199590000Y-108670000D02*
X200450000Y-109530000D01*
X200450000Y-109530000D02*
X210760000Y-109530000D01*
X210760000Y-109530000D02*
X211870000Y-110640000D01*
X211870000Y-110640000D02*
X211870000Y-112850000D01*
X211870000Y-112850000D02*
X211870000Y-112850000D01*
X219786200Y-97040700D02*
X219913200Y-96583500D01*
X217233500Y-99593400D02*
X219786200Y-97040700D01*
X215392000Y-99593400D02*
X217233500Y-99593400D01*
X214070000Y-98271400D02*
X215392000Y-99593400D01*
X214070000Y-97110000D02*
X214070000Y-98271400D01*
X204410000Y-87520000D02*
X204410000Y-88600000D01*
X204860000Y-87070000D02*
X204410000Y-87520000D01*
X209670000Y-87070000D02*
X204860000Y-87070000D01*
X210070000Y-87470000D02*
X209670000Y-87070000D01*
X210070000Y-88610000D02*
X210070000Y-87470000D01*
X203970000Y-99460000D02*
X203380000Y-99460000D01*
X204230000Y-99200000D02*
X203970000Y-99460000D01*
X204230000Y-91400000D02*
X204230000Y-99200000D01*
X205570000Y-90060000D02*
X204230000Y-91400000D01*
X208620000Y-90060000D02*
X205570000Y-90060000D01*
D25*
X182442000Y-82456500D02*
X182581500Y-82596000D01*
X183546000Y-82596000D01*
X183546000Y-82576000D01*
X183954000Y-82576000D01*
X183954000Y-82596000D01*
X184918500Y-82596000D01*
X185058000Y-82456500D01*
X185060589Y-80350000D01*
X190939411Y-80350000D01*
X190942000Y-82456500D01*
X191081500Y-82596000D01*
X192046000Y-82596000D01*
X192046000Y-82576000D01*
X192454000Y-82576000D01*
X192454000Y-82596000D01*
X193418500Y-82596000D01*
X193558000Y-82456500D01*
X193560589Y-80350000D01*
X194439411Y-80350000D01*
X194442000Y-82456500D01*
X194581500Y-82596000D01*
X195546000Y-82596000D01*
X195546000Y-82576000D01*
X195954000Y-82576000D01*
X195954000Y-82596000D01*
X196918500Y-82596000D01*
X197058000Y-82456500D01*
X197060589Y-80350000D01*
X202939411Y-80350000D01*
X202942000Y-82456500D01*
X203081500Y-82596000D01*
X204046000Y-82596000D01*
X204046000Y-82576000D01*
X204454000Y-82576000D01*
X204454000Y-82596000D01*
X205418500Y-82596000D01*
X205558000Y-82456500D01*
X205559642Y-81120000D01*
X222672791Y-81120000D01*
X222672791Y-82820000D01*
X222677618Y-82869008D01*
X222691913Y-82916134D01*
X222715127Y-82959564D01*
X222746368Y-82997632D01*
X222784436Y-83028873D01*
X222827866Y-83052087D01*
X222874992Y-83066382D01*
X222924000Y-83071209D01*
X224624000Y-83071209D01*
X224673008Y-83066382D01*
X224720134Y-83052087D01*
X224763564Y-83028873D01*
X224801632Y-82997632D01*
X224832873Y-82959564D01*
X224856087Y-82916134D01*
X224870382Y-82869008D01*
X224875209Y-82820000D01*
X224875209Y-81120000D01*
X224870382Y-81070992D01*
X224856087Y-81023866D01*
X224832873Y-80980436D01*
X224801632Y-80942368D01*
X224763564Y-80911127D01*
X224720134Y-80887913D01*
X224673008Y-80873618D01*
X224624000Y-80868791D01*
X222924000Y-80868791D01*
X222874992Y-80873618D01*
X222827866Y-80887913D01*
X222784436Y-80911127D01*
X222746368Y-80942368D01*
X222715127Y-80980436D01*
X222691913Y-81023866D01*
X222677618Y-81070992D01*
X222672791Y-81120000D01*
X205559642Y-81120000D01*
X205560589Y-80350000D01*
X225450000Y-80350000D01*
X225450000Y-99689411D01*
X223343500Y-99692000D01*
X223204000Y-99831500D01*
X223204000Y-100796000D01*
X223224000Y-100796000D01*
X223224000Y-101204000D01*
X223204000Y-101204000D01*
X223204000Y-102168500D01*
X223343500Y-102308000D01*
X225450000Y-102310589D01*
X225450001Y-108189411D01*
X223343500Y-108192000D01*
X223204000Y-108331500D01*
X223204000Y-109296000D01*
X223224000Y-109296000D01*
X223224000Y-109704000D01*
X223204000Y-109704000D01*
X223204000Y-110668500D01*
X223343500Y-110808000D01*
X225450001Y-110810589D01*
X225450001Y-129750000D01*
X205559715Y-129750000D01*
X205560700Y-129740000D01*
X205558000Y-127543500D01*
X205418500Y-127404000D01*
X204454000Y-127404000D01*
X204454000Y-127424000D01*
X204046000Y-127424000D01*
X204046000Y-127404000D01*
X203081500Y-127404000D01*
X202942000Y-127543500D01*
X202939300Y-129740000D01*
X202940285Y-129750000D01*
X197059715Y-129750000D01*
X197060700Y-129740000D01*
X197058000Y-127543500D01*
X196918500Y-127404000D01*
X195954000Y-127404000D01*
X195954000Y-127424000D01*
X195546000Y-127424000D01*
X195546000Y-127404000D01*
X194581500Y-127404000D01*
X194442000Y-127543500D01*
X194439300Y-129740000D01*
X194440285Y-129750000D01*
X193559715Y-129750000D01*
X193560700Y-129740000D01*
X193558000Y-127543500D01*
X193418500Y-127404000D01*
X192454000Y-127404000D01*
X192454000Y-127424000D01*
X192046000Y-127424000D01*
X192046000Y-127404000D01*
X191081500Y-127404000D01*
X190942000Y-127543500D01*
X190939300Y-129740000D01*
X190940285Y-129750000D01*
X185059715Y-129750000D01*
X185060700Y-129740000D01*
X185058000Y-127543500D01*
X184918500Y-127404000D01*
X183954000Y-127404000D01*
X183954000Y-127424000D01*
X183546000Y-127424000D01*
X183546000Y-127404000D01*
X182581500Y-127404000D01*
X182442000Y-127543500D01*
X182439300Y-129740000D01*
X182440285Y-129750000D01*
X169650000Y-129750000D01*
X169650000Y-127293000D01*
X170221791Y-127293000D01*
X170221791Y-128993000D01*
X170226618Y-129042008D01*
X170240913Y-129089134D01*
X170264127Y-129132564D01*
X170295368Y-129170632D01*
X170333436Y-129201873D01*
X170376866Y-129225087D01*
X170423992Y-129239382D01*
X170473000Y-129244209D01*
X172173000Y-129244209D01*
X172222008Y-129239382D01*
X172269134Y-129225087D01*
X172312564Y-129201873D01*
X172350632Y-129170632D01*
X172381873Y-129132564D01*
X172405087Y-129089134D01*
X172419382Y-129042008D01*
X172424209Y-128993000D01*
X172424209Y-127293000D01*
X172419382Y-127243992D01*
X172405087Y-127196866D01*
X172381873Y-127153436D01*
X172350632Y-127115368D01*
X172312564Y-127084127D01*
X172269134Y-127060913D01*
X172222008Y-127046618D01*
X172173000Y-127041791D01*
X170473000Y-127041791D01*
X170423992Y-127046618D01*
X170376866Y-127060913D01*
X170333436Y-127084127D01*
X170295368Y-127115368D01*
X170264127Y-127153436D01*
X170240913Y-127196866D01*
X170226618Y-127243992D01*
X170221791Y-127293000D01*
X169650000Y-127293000D01*
X169650000Y-124660000D01*
X182439300Y-124660000D01*
X182442000Y-126856500D01*
X182581500Y-126996000D01*
X183546000Y-126996000D01*
X183546000Y-124241500D01*
X183954000Y-124241500D01*
X183954000Y-126996000D01*
X184918500Y-126996000D01*
X185058000Y-126856500D01*
X185060700Y-124660000D01*
X190939300Y-124660000D01*
X190942000Y-126856500D01*
X191081500Y-126996000D01*
X192046000Y-126996000D01*
X192046000Y-124241500D01*
X192454000Y-124241500D01*
X192454000Y-126996000D01*
X193418500Y-126996000D01*
X193558000Y-126856500D01*
X193560700Y-124660000D01*
X194439300Y-124660000D01*
X194442000Y-126856500D01*
X194581500Y-126996000D01*
X195546000Y-126996000D01*
X195546000Y-124241500D01*
X195954000Y-124241500D01*
X195954000Y-126996000D01*
X196918500Y-126996000D01*
X197058000Y-126856500D01*
X197060700Y-124660000D01*
X202939300Y-124660000D01*
X202942000Y-126856500D01*
X203081500Y-126996000D01*
X204046000Y-126996000D01*
X204046000Y-124241500D01*
X204454000Y-124241500D01*
X204454000Y-126996000D01*
X205418500Y-126996000D01*
X205558000Y-126856500D01*
X205558079Y-126791517D01*
X209815843Y-126791517D01*
X209920993Y-127036087D01*
X210071836Y-127255444D01*
X210262575Y-127441158D01*
X210485880Y-127586093D01*
X210698484Y-127674148D01*
X210906000Y-127581302D01*
X210906000Y-126584000D01*
X211314000Y-126584000D01*
X211314000Y-127581302D01*
X211521516Y-127674148D01*
X211734120Y-127586093D01*
X211957425Y-127441158D01*
X212109591Y-127293000D01*
X222672791Y-127293000D01*
X222672791Y-128993000D01*
X222677618Y-129042008D01*
X222691913Y-129089134D01*
X222715127Y-129132564D01*
X222746368Y-129170632D01*
X222784436Y-129201873D01*
X222827866Y-129225087D01*
X222874992Y-129239382D01*
X222924000Y-129244209D01*
X224624000Y-129244209D01*
X224673008Y-129239382D01*
X224720134Y-129225087D01*
X224763564Y-129201873D01*
X224801632Y-129170632D01*
X224832873Y-129132564D01*
X224856087Y-129089134D01*
X224870382Y-129042008D01*
X224875209Y-128993000D01*
X224875209Y-127293000D01*
X224870382Y-127243992D01*
X224856087Y-127196866D01*
X224832873Y-127153436D01*
X224801632Y-127115368D01*
X224763564Y-127084127D01*
X224720134Y-127060913D01*
X224673008Y-127046618D01*
X224624000Y-127041791D01*
X222924000Y-127041791D01*
X222874992Y-127046618D01*
X222827866Y-127060913D01*
X222784436Y-127084127D01*
X222746368Y-127115368D01*
X222715127Y-127153436D01*
X222691913Y-127196866D01*
X222677618Y-127243992D01*
X222672791Y-127293000D01*
X212109591Y-127293000D01*
X212148164Y-127255444D01*
X212299007Y-127036087D01*
X212404157Y-126791517D01*
X212313099Y-126584000D01*
X211314000Y-126584000D01*
X210906000Y-126584000D01*
X209906901Y-126584000D01*
X209815843Y-126791517D01*
X205558079Y-126791517D01*
X205559091Y-125968483D01*
X209815843Y-125968483D01*
X209906901Y-126176000D01*
X210906000Y-126176000D01*
X210906000Y-125178698D01*
X211314000Y-125178698D01*
X211314000Y-126176000D01*
X212313099Y-126176000D01*
X212404157Y-125968483D01*
X212299007Y-125723913D01*
X212148164Y-125504556D01*
X211957425Y-125318842D01*
X211734120Y-125173907D01*
X211521516Y-125085852D01*
X211314000Y-125178698D01*
X210906000Y-125178698D01*
X210698484Y-125085852D01*
X210485880Y-125173907D01*
X210262575Y-125318842D01*
X210071836Y-125504556D01*
X209920993Y-125723913D01*
X209815843Y-125968483D01*
X205559091Y-125968483D01*
X205560700Y-124660000D01*
X205549926Y-124550613D01*
X205518019Y-124445429D01*
X205467898Y-124351659D01*
X213657000Y-124351659D01*
X213657000Y-124568341D01*
X213699273Y-124780858D01*
X213782193Y-124981045D01*
X213902575Y-125161209D01*
X214055791Y-125314425D01*
X214235955Y-125434807D01*
X214436142Y-125517727D01*
X214648659Y-125560000D01*
X214865341Y-125560000D01*
X215077858Y-125517727D01*
X215278045Y-125434807D01*
X215458209Y-125314425D01*
X215611425Y-125161209D01*
X215731807Y-124981045D01*
X215814727Y-124780858D01*
X215857000Y-124568341D01*
X215857000Y-124351659D01*
X215814727Y-124139142D01*
X215731807Y-123938955D01*
X215611425Y-123758791D01*
X215458209Y-123605575D01*
X215278045Y-123485193D01*
X215077858Y-123402273D01*
X214865341Y-123360000D01*
X214648659Y-123360000D01*
X214436142Y-123402273D01*
X214235955Y-123485193D01*
X214055791Y-123605575D01*
X213902575Y-123758791D01*
X213782193Y-123938955D01*
X213699273Y-124139142D01*
X213657000Y-124351659D01*
X205467898Y-124351659D01*
X205466205Y-124348492D01*
X205396475Y-124263525D01*
X205311508Y-124193795D01*
X205214571Y-124141981D01*
X205109387Y-124110074D01*
X205000000Y-124099300D01*
X204593500Y-124102000D01*
X204454000Y-124241500D01*
X204046000Y-124241500D01*
X203906500Y-124102000D01*
X203500000Y-124099300D01*
X203390613Y-124110074D01*
X203285429Y-124141981D01*
X203188492Y-124193795D01*
X203103525Y-124263525D01*
X203033795Y-124348492D01*
X202981981Y-124445429D01*
X202950074Y-124550613D01*
X202939300Y-124660000D01*
X197060700Y-124660000D01*
X197049926Y-124550613D01*
X197018019Y-124445429D01*
X196966205Y-124348492D01*
X196896475Y-124263525D01*
X196811508Y-124193795D01*
X196714571Y-124141981D01*
X196609387Y-124110074D01*
X196500000Y-124099300D01*
X196093500Y-124102000D01*
X195954000Y-124241500D01*
X195546000Y-124241500D01*
X195406500Y-124102000D01*
X195000000Y-124099300D01*
X194890613Y-124110074D01*
X194785429Y-124141981D01*
X194688492Y-124193795D01*
X194603525Y-124263525D01*
X194533795Y-124348492D01*
X194481981Y-124445429D01*
X194450074Y-124550613D01*
X194439300Y-124660000D01*
X193560700Y-124660000D01*
X193549926Y-124550613D01*
X193518019Y-124445429D01*
X193466205Y-124348492D01*
X193396475Y-124263525D01*
X193311508Y-124193795D01*
X193214571Y-124141981D01*
X193109387Y-124110074D01*
X193000000Y-124099300D01*
X192593500Y-124102000D01*
X192454000Y-124241500D01*
X192046000Y-124241500D01*
X191906500Y-124102000D01*
X191500000Y-124099300D01*
X191390613Y-124110074D01*
X191285429Y-124141981D01*
X191188492Y-124193795D01*
X191103525Y-124263525D01*
X191033795Y-124348492D01*
X190981981Y-124445429D01*
X190950074Y-124550613D01*
X190939300Y-124660000D01*
X185060700Y-124660000D01*
X185049926Y-124550613D01*
X185018019Y-124445429D01*
X184966205Y-124348492D01*
X184896475Y-124263525D01*
X184811508Y-124193795D01*
X184714571Y-124141981D01*
X184609387Y-124110074D01*
X184500000Y-124099300D01*
X184093500Y-124102000D01*
X183954000Y-124241500D01*
X183546000Y-124241500D01*
X183406500Y-124102000D01*
X183000000Y-124099300D01*
X182890613Y-124110074D01*
X182785429Y-124141981D01*
X182688492Y-124193795D01*
X182603525Y-124263525D01*
X182533795Y-124348492D01*
X182481981Y-124445429D01*
X182450074Y-124550613D01*
X182439300Y-124660000D01*
X169650000Y-124660000D01*
X169650000Y-122339424D01*
X213412922Y-122339424D01*
X213510009Y-122573834D01*
X213661526Y-122804547D01*
X213855142Y-123001267D01*
X214083416Y-123156434D01*
X214337575Y-123264086D01*
X214553000Y-123173651D01*
X214553000Y-122124000D01*
X214961000Y-122124000D01*
X214961000Y-123173651D01*
X215176425Y-123264086D01*
X215430584Y-123156434D01*
X215658858Y-123001267D01*
X215852474Y-122804547D01*
X216003991Y-122573834D01*
X216101078Y-122339424D01*
X216008989Y-122124000D01*
X214961000Y-122124000D01*
X214553000Y-122124000D01*
X213505011Y-122124000D01*
X213412922Y-122339424D01*
X169650000Y-122339424D01*
X169650000Y-121500576D01*
X213412922Y-121500576D01*
X213505011Y-121716000D01*
X214553000Y-121716000D01*
X214553000Y-120666349D01*
X214961000Y-120666349D01*
X214961000Y-121716000D01*
X216008989Y-121716000D01*
X216101078Y-121500576D01*
X216003991Y-121266166D01*
X215852474Y-121035453D01*
X215658858Y-120838733D01*
X215430584Y-120683566D01*
X215176425Y-120575914D01*
X214961000Y-120666349D01*
X214553000Y-120666349D01*
X214337575Y-120575914D01*
X214083416Y-120683566D01*
X213855142Y-120838733D01*
X213661526Y-121035453D01*
X213510009Y-121266166D01*
X213412922Y-121500576D01*
X169650000Y-121500576D01*
X169650000Y-119895599D01*
X173940000Y-119895599D01*
X173940000Y-120104401D01*
X173980735Y-120309191D01*
X174060640Y-120502098D01*
X174176644Y-120675711D01*
X174324289Y-120823356D01*
X174497902Y-120939360D01*
X174690809Y-121019265D01*
X174895599Y-121060000D01*
X175104401Y-121060000D01*
X175309191Y-121019265D01*
X175502098Y-120939360D01*
X175675711Y-120823356D01*
X175823356Y-120675711D01*
X175939360Y-120502098D01*
X176019265Y-120309191D01*
X176060000Y-120104401D01*
X176060000Y-119895599D01*
X178940000Y-119895599D01*
X178940000Y-120104401D01*
X178980735Y-120309191D01*
X179060640Y-120502098D01*
X179176644Y-120675711D01*
X179324289Y-120823356D01*
X179497902Y-120939360D01*
X179690809Y-121019265D01*
X179895599Y-121060000D01*
X180104401Y-121060000D01*
X180309191Y-121019265D01*
X180502098Y-120939360D01*
X180675711Y-120823356D01*
X180823356Y-120675711D01*
X180939360Y-120502098D01*
X181019265Y-120309191D01*
X181060000Y-120104401D01*
X181060000Y-119895599D01*
X181019265Y-119690809D01*
X180939360Y-119497902D01*
X180823356Y-119324289D01*
X180675711Y-119176644D01*
X180502098Y-119060640D01*
X180309191Y-118980735D01*
X180104401Y-118940000D01*
X179895599Y-118940000D01*
X179690809Y-118980735D01*
X179497902Y-119060640D01*
X179324289Y-119176644D01*
X179176644Y-119324289D01*
X179060640Y-119497902D01*
X178980735Y-119690809D01*
X178940000Y-119895599D01*
X176060000Y-119895599D01*
X176019265Y-119690809D01*
X175939360Y-119497902D01*
X175823356Y-119324289D01*
X175675711Y-119176644D01*
X175502098Y-119060640D01*
X175309191Y-118980735D01*
X175104401Y-118940000D01*
X174895599Y-118940000D01*
X174690809Y-118980735D01*
X174497902Y-119060640D01*
X174324289Y-119176644D01*
X174176644Y-119324289D01*
X174060640Y-119497902D01*
X173980735Y-119690809D01*
X173940000Y-119895599D01*
X169650000Y-119895599D01*
X169650000Y-117395599D01*
X176440000Y-117395599D01*
X176440000Y-117604401D01*
X176480735Y-117809191D01*
X176560640Y-118002098D01*
X176676644Y-118175711D01*
X176824289Y-118323356D01*
X176997902Y-118439360D01*
X177190809Y-118519265D01*
X177395599Y-118560000D01*
X177604401Y-118560000D01*
X177755222Y-118530000D01*
X213655791Y-118530000D01*
X213655791Y-120230000D01*
X213660618Y-120279008D01*
X213674913Y-120326134D01*
X213698127Y-120369564D01*
X213729368Y-120407632D01*
X213767436Y-120438873D01*
X213810866Y-120462087D01*
X213857992Y-120476382D01*
X213907000Y-120481209D01*
X215607000Y-120481209D01*
X215656008Y-120476382D01*
X215703134Y-120462087D01*
X215746564Y-120438873D01*
X215784632Y-120407632D01*
X215815873Y-120369564D01*
X215839087Y-120326134D01*
X215853382Y-120279008D01*
X215858209Y-120230000D01*
X215858209Y-119780000D01*
X217785354Y-119780000D01*
X217805000Y-119781935D01*
X217824646Y-119780000D01*
X217824647Y-119780000D01*
X217883414Y-119774212D01*
X217958814Y-119751340D01*
X218028303Y-119714197D01*
X218089211Y-119664211D01*
X218101737Y-119648948D01*
X218962954Y-118787732D01*
X218978211Y-118775211D01*
X219028197Y-118714303D01*
X219028198Y-118714302D01*
X219065340Y-118644815D01*
X219088212Y-118569414D01*
X219095935Y-118491000D01*
X219094000Y-118471353D01*
X219094000Y-110250000D01*
X219899300Y-110250000D01*
X219910074Y-110359387D01*
X219941981Y-110464571D01*
X219993795Y-110561508D01*
X220063525Y-110646475D01*
X220148492Y-110716205D01*
X220245429Y-110768019D01*
X220350613Y-110799926D01*
X220460000Y-110810700D01*
X222656500Y-110808000D01*
X222796000Y-110668500D01*
X222796000Y-109704000D01*
X220041500Y-109704000D01*
X219902000Y-109843500D01*
X219899300Y-110250000D01*
X219094000Y-110250000D01*
X219094000Y-108750000D01*
X219899300Y-108750000D01*
X219902000Y-109156500D01*
X220041500Y-109296000D01*
X222796000Y-109296000D01*
X222796000Y-108331500D01*
X222656500Y-108192000D01*
X220460000Y-108189300D01*
X220350613Y-108200074D01*
X220245429Y-108231981D01*
X220148492Y-108283795D01*
X220063525Y-108353525D01*
X219993795Y-108438492D01*
X219941981Y-108535429D01*
X219910074Y-108640613D01*
X219899300Y-108750000D01*
X219094000Y-108750000D01*
X219094000Y-101750000D01*
X219899300Y-101750000D01*
X219910074Y-101859387D01*
X219941981Y-101964571D01*
X219993795Y-102061508D01*
X220063525Y-102146475D01*
X220148492Y-102216205D01*
X220245429Y-102268019D01*
X220350613Y-102299926D01*
X220460000Y-102310700D01*
X222656500Y-102308000D01*
X222796000Y-102168500D01*
X222796000Y-101204000D01*
X220041500Y-101204000D01*
X219902000Y-101343500D01*
X219899300Y-101750000D01*
X219094000Y-101750000D01*
X219094000Y-100250000D01*
X219899300Y-100250000D01*
X219902000Y-100656500D01*
X220041500Y-100796000D01*
X222796000Y-100796000D01*
X222796000Y-99831500D01*
X222656500Y-99692000D01*
X220460000Y-99689300D01*
X220350613Y-99700074D01*
X220245429Y-99731981D01*
X220148492Y-99783795D01*
X220063525Y-99853525D01*
X219993795Y-99938492D01*
X219941981Y-100035429D01*
X219910074Y-100140613D01*
X219899300Y-100250000D01*
X219094000Y-100250000D01*
X219094000Y-99673635D01*
X219095934Y-99653999D01*
X219094000Y-99634363D01*
X219094000Y-99634353D01*
X219088212Y-99575586D01*
X219065340Y-99500186D01*
X219038320Y-99449636D01*
X219026746Y-99391448D01*
X218990939Y-99305003D01*
X218938956Y-99227205D01*
X218872795Y-99161044D01*
X218794997Y-99109061D01*
X218708552Y-99073254D01*
X218616783Y-99055000D01*
X218523217Y-99055000D01*
X218431448Y-99073254D01*
X218345003Y-99109061D01*
X218267205Y-99161044D01*
X218201044Y-99227205D01*
X218149061Y-99305003D01*
X218113254Y-99391448D01*
X218095000Y-99483217D01*
X218095000Y-99576783D01*
X218113254Y-99668552D01*
X218149061Y-99754997D01*
X218201044Y-99832795D01*
X218267205Y-99898956D01*
X218294001Y-99916861D01*
X218294000Y-118325314D01*
X217639315Y-118980000D01*
X215858209Y-118980000D01*
X215858209Y-118530000D01*
X215853382Y-118480992D01*
X215839087Y-118433866D01*
X215815873Y-118390436D01*
X215784632Y-118352368D01*
X215746564Y-118321127D01*
X215703134Y-118297913D01*
X215656008Y-118283618D01*
X215607000Y-118278791D01*
X213907000Y-118278791D01*
X213857992Y-118283618D01*
X213810866Y-118297913D01*
X213767436Y-118321127D01*
X213729368Y-118352368D01*
X213698127Y-118390436D01*
X213674913Y-118433866D01*
X213660618Y-118480992D01*
X213655791Y-118530000D01*
X177755222Y-118530000D01*
X177809191Y-118519265D01*
X178002098Y-118439360D01*
X178175711Y-118323356D01*
X178323356Y-118175711D01*
X178439360Y-118002098D01*
X178519265Y-117809191D01*
X178560000Y-117604401D01*
X178560000Y-117395599D01*
X178519265Y-117190809D01*
X178439360Y-116997902D01*
X178323356Y-116824289D01*
X178175711Y-116676644D01*
X178002098Y-116560640D01*
X177809191Y-116480735D01*
X177604401Y-116440000D01*
X177395599Y-116440000D01*
X177190809Y-116480735D01*
X176997902Y-116560640D01*
X176824289Y-116676644D01*
X176676644Y-116824289D01*
X176560640Y-116997902D01*
X176480735Y-117190809D01*
X176440000Y-117395599D01*
X169650000Y-117395599D01*
X169650000Y-116276584D01*
X210060000Y-116276584D01*
X210060000Y-116483416D01*
X210100350Y-116686274D01*
X210179502Y-116877362D01*
X210294411Y-117049336D01*
X210440664Y-117195589D01*
X210612638Y-117310498D01*
X210803726Y-117389650D01*
X211006584Y-117430000D01*
X211213416Y-117430000D01*
X211416274Y-117389650D01*
X211607362Y-117310498D01*
X211779336Y-117195589D01*
X211925589Y-117049336D01*
X212040498Y-116877362D01*
X212119650Y-116686274D01*
X212160000Y-116483416D01*
X212160000Y-116276584D01*
X212119650Y-116073726D01*
X212040498Y-115882638D01*
X211925589Y-115710664D01*
X211779336Y-115564411D01*
X211607362Y-115449502D01*
X211416274Y-115370350D01*
X211213416Y-115330000D01*
X211006584Y-115330000D01*
X210803726Y-115370350D01*
X210612638Y-115449502D01*
X210440664Y-115564411D01*
X210294411Y-115710664D01*
X210179502Y-115882638D01*
X210100350Y-116073726D01*
X210060000Y-116276584D01*
X169650000Y-116276584D01*
X169650000Y-114256000D01*
X179323791Y-114256000D01*
X179323791Y-115106000D01*
X179328618Y-115155008D01*
X179342913Y-115202134D01*
X179366127Y-115245564D01*
X179397368Y-115283632D01*
X179435436Y-115314873D01*
X179478866Y-115338087D01*
X179525992Y-115352382D01*
X179575000Y-115357209D01*
X180425000Y-115357209D01*
X180474008Y-115352382D01*
X180521134Y-115338087D01*
X180564564Y-115314873D01*
X180602632Y-115283632D01*
X180633873Y-115245564D01*
X180657087Y-115202134D01*
X180671382Y-115155008D01*
X180676209Y-115106000D01*
X180676209Y-114256000D01*
X180671382Y-114206992D01*
X180657087Y-114159866D01*
X180633873Y-114116436D01*
X180602632Y-114078368D01*
X180564564Y-114047127D01*
X180521134Y-114023913D01*
X180474008Y-114009618D01*
X180425000Y-114004791D01*
X179575000Y-114004791D01*
X179525992Y-114009618D01*
X179478866Y-114023913D01*
X179435436Y-114047127D01*
X179397368Y-114078368D01*
X179366127Y-114116436D01*
X179342913Y-114159866D01*
X179328618Y-114206992D01*
X179323791Y-114256000D01*
X169650000Y-114256000D01*
X169650000Y-110308730D01*
X169670000Y-110310700D01*
X171866500Y-110308000D01*
X172006000Y-110168500D01*
X172006000Y-109204000D01*
X172414000Y-109204000D01*
X172414000Y-110168500D01*
X172553500Y-110308000D01*
X174750000Y-110310700D01*
X174859387Y-110299926D01*
X174964571Y-110268019D01*
X175061508Y-110216205D01*
X175146475Y-110146475D01*
X175216205Y-110061508D01*
X175268019Y-109964571D01*
X175299926Y-109859387D01*
X175310700Y-109750000D01*
X175308000Y-109343500D01*
X175168500Y-109204000D01*
X172414000Y-109204000D01*
X172006000Y-109204000D01*
X171986000Y-109204000D01*
X171986000Y-108796000D01*
X172006000Y-108796000D01*
X172006000Y-107831500D01*
X172414000Y-107831500D01*
X172414000Y-108796000D01*
X175168500Y-108796000D01*
X175308000Y-108656500D01*
X175310700Y-108250000D01*
X175299926Y-108140613D01*
X175268019Y-108035429D01*
X175216205Y-107938492D01*
X175146475Y-107853525D01*
X175061508Y-107783795D01*
X174964571Y-107731981D01*
X174859387Y-107700074D01*
X174750000Y-107689300D01*
X172553500Y-107692000D01*
X172414000Y-107831500D01*
X172006000Y-107831500D01*
X171866500Y-107692000D01*
X169670000Y-107689300D01*
X169650000Y-107691270D01*
X169650000Y-101808730D01*
X169670000Y-101810700D01*
X171866500Y-101808000D01*
X172006000Y-101668500D01*
X172006000Y-100704000D01*
X172414000Y-100704000D01*
X172414000Y-101668500D01*
X172553500Y-101808000D01*
X174750000Y-101810700D01*
X174859387Y-101799926D01*
X174964571Y-101768019D01*
X175061508Y-101716205D01*
X175146475Y-101646475D01*
X175216205Y-101561508D01*
X175268019Y-101464571D01*
X175274496Y-101443217D01*
X192905000Y-101443217D01*
X192905000Y-101536783D01*
X192923254Y-101628552D01*
X192959061Y-101714997D01*
X193011044Y-101792795D01*
X193077205Y-101858956D01*
X193155003Y-101910939D01*
X193241448Y-101946746D01*
X193278414Y-101954099D01*
X194833263Y-103508948D01*
X194845789Y-103524211D01*
X194861050Y-103536735D01*
X194906697Y-103574197D01*
X194976186Y-103611340D01*
X195051586Y-103634212D01*
X195130000Y-103641935D01*
X195149647Y-103640000D01*
X198354315Y-103640000D01*
X198610000Y-103895685D01*
X198610001Y-108890344D01*
X198608065Y-108910000D01*
X198615788Y-108988413D01*
X198638661Y-109063814D01*
X198675803Y-109133302D01*
X198713265Y-109178950D01*
X198713268Y-109178953D01*
X198725790Y-109194211D01*
X198741048Y-109206733D01*
X199933263Y-110398948D01*
X199945789Y-110414211D01*
X199961050Y-110426735D01*
X200006697Y-110464197D01*
X200076186Y-110501340D01*
X200151586Y-110524212D01*
X200230000Y-110531935D01*
X200249647Y-110530000D01*
X209173666Y-110530000D01*
X209205003Y-110550939D01*
X209291448Y-110586746D01*
X209383217Y-110605000D01*
X209476783Y-110605000D01*
X209568552Y-110586746D01*
X209654997Y-110550939D01*
X209732795Y-110498956D01*
X209798956Y-110432795D01*
X209850939Y-110354997D01*
X209886746Y-110268552D01*
X209905000Y-110176783D01*
X209905000Y-110083217D01*
X209886746Y-109991448D01*
X209861293Y-109930000D01*
X210594315Y-109930000D01*
X211470000Y-110805686D01*
X211470001Y-112593664D01*
X211449061Y-112625003D01*
X211413254Y-112711448D01*
X211395000Y-112803217D01*
X211395000Y-112896783D01*
X211413254Y-112988552D01*
X211449061Y-113074997D01*
X211501044Y-113152795D01*
X211567205Y-113218956D01*
X211645003Y-113270939D01*
X211731448Y-113306746D01*
X211823217Y-113325000D01*
X211916783Y-113325000D01*
X212008552Y-113306746D01*
X212094997Y-113270939D01*
X212172795Y-113218956D01*
X212238956Y-113152795D01*
X212290939Y-113074997D01*
X212326746Y-112988552D01*
X212345000Y-112896783D01*
X212345000Y-112803217D01*
X212326746Y-112711448D01*
X212290939Y-112625003D01*
X212270000Y-112593666D01*
X212270000Y-110659643D01*
X212271935Y-110639999D01*
X212270000Y-110620353D01*
X212264212Y-110561586D01*
X212241340Y-110486186D01*
X212204197Y-110416697D01*
X212154211Y-110355789D01*
X212138954Y-110343268D01*
X211056735Y-109261050D01*
X211044211Y-109245789D01*
X210983303Y-109195803D01*
X210913814Y-109158660D01*
X210838414Y-109135788D01*
X210779647Y-109130000D01*
X210779646Y-109130000D01*
X210760000Y-109128065D01*
X210740354Y-109130000D01*
X200615685Y-109130000D01*
X200068902Y-108583217D01*
X202025000Y-108583217D01*
X202025000Y-108676783D01*
X202043254Y-108768552D01*
X202079061Y-108854997D01*
X202131044Y-108932795D01*
X202197205Y-108998956D01*
X202275003Y-109050939D01*
X202361448Y-109086746D01*
X202453217Y-109105000D01*
X202546783Y-109105000D01*
X202638552Y-109086746D01*
X202724997Y-109050939D01*
X202756334Y-109030000D01*
X209980354Y-109030000D01*
X210000000Y-109031935D01*
X210019646Y-109030000D01*
X210019647Y-109030000D01*
X210078414Y-109024212D01*
X210153814Y-109001340D01*
X210223303Y-108964197D01*
X210284211Y-108914211D01*
X210296737Y-108898948D01*
X210728953Y-108466733D01*
X210744211Y-108454211D01*
X210757112Y-108438492D01*
X210794196Y-108393304D01*
X210794197Y-108393303D01*
X210831340Y-108323814D01*
X210854212Y-108248414D01*
X210860000Y-108189647D01*
X210860000Y-108189637D01*
X210861934Y-108170001D01*
X210860000Y-108150365D01*
X210860000Y-99705685D01*
X211938948Y-98626737D01*
X211954211Y-98614211D01*
X212004197Y-98553303D01*
X212041340Y-98483814D01*
X212064212Y-98408414D01*
X212070000Y-98349647D01*
X212070000Y-98995456D01*
X212039713Y-99015693D01*
X211945693Y-99109713D01*
X211871823Y-99220268D01*
X211820940Y-99343110D01*
X211795000Y-99473518D01*
X211795000Y-99606482D01*
X211820940Y-99736890D01*
X211871823Y-99859732D01*
X211945693Y-99970287D01*
X212039713Y-100064307D01*
X212150268Y-100138177D01*
X212273110Y-100189060D01*
X212403518Y-100215000D01*
X212536482Y-100215000D01*
X212666890Y-100189060D01*
X212789732Y-100138177D01*
X212837512Y-100106252D01*
X212867368Y-100142632D01*
X212905436Y-100173873D01*
X212948866Y-100197087D01*
X212995992Y-100211382D01*
X213045000Y-100216209D01*
X213895000Y-100216209D01*
X213944008Y-100211382D01*
X213991134Y-100197087D01*
X214034564Y-100173873D01*
X214072632Y-100142632D01*
X214103873Y-100104564D01*
X214127087Y-100061134D01*
X214141382Y-100014008D01*
X214146209Y-99965000D01*
X214146209Y-99115000D01*
X214141382Y-99065992D01*
X214127087Y-99018866D01*
X214103873Y-98975436D01*
X214072632Y-98937368D01*
X214034564Y-98906127D01*
X213991134Y-98882913D01*
X213944008Y-98868618D01*
X213895000Y-98863791D01*
X213870000Y-98863791D01*
X213870000Y-98829647D01*
X213871935Y-98810000D01*
X213864212Y-98731586D01*
X213841340Y-98656186D01*
X213819319Y-98614988D01*
X213804197Y-98586697D01*
X213754211Y-98525789D01*
X213738943Y-98513259D01*
X213670000Y-98444316D01*
X213670000Y-98291046D01*
X213675788Y-98349813D01*
X213698661Y-98425214D01*
X213735803Y-98494702D01*
X213773265Y-98540350D01*
X213773268Y-98540353D01*
X213785790Y-98555611D01*
X213801048Y-98568133D01*
X215095267Y-99862353D01*
X215107789Y-99877611D01*
X215123047Y-99890133D01*
X215123049Y-99890135D01*
X215132077Y-99897544D01*
X215168697Y-99927597D01*
X215238186Y-99964740D01*
X215313586Y-99987612D01*
X215372353Y-99993400D01*
X215372363Y-99993400D01*
X215391999Y-99995334D01*
X215411635Y-99993400D01*
X217213854Y-99993400D01*
X217233500Y-99995335D01*
X217253146Y-99993400D01*
X217253147Y-99993400D01*
X217311914Y-99987612D01*
X217387314Y-99964740D01*
X217456803Y-99927597D01*
X217517711Y-99877611D01*
X217530237Y-99862348D01*
X219373085Y-98019500D01*
X220962000Y-98019500D01*
X220981767Y-98087129D01*
X221022763Y-98189114D01*
X221082868Y-98281141D01*
X221159772Y-98359674D01*
X221250519Y-98421695D01*
X221351622Y-98464821D01*
X221430500Y-98488000D01*
X221570000Y-98348500D01*
X221570000Y-97880000D01*
X221101500Y-97880000D01*
X220962000Y-98019500D01*
X219373085Y-98019500D01*
X219952085Y-97440500D01*
X220962000Y-97440500D01*
X221101500Y-97580000D01*
X221570000Y-97580000D01*
X221570000Y-97111500D01*
X221430500Y-96972000D01*
X221351622Y-96995179D01*
X221250519Y-97038305D01*
X221159772Y-97100326D01*
X221082868Y-97178859D01*
X221022763Y-97270886D01*
X220981767Y-97372871D01*
X220962000Y-97440500D01*
X219952085Y-97440500D01*
X220044552Y-97348034D01*
X220048439Y-97345302D01*
X220072351Y-97320235D01*
X220082935Y-97309651D01*
X220085939Y-97305991D01*
X220102825Y-97288289D01*
X220110869Y-97275613D01*
X220120397Y-97264003D01*
X220131935Y-97242417D01*
X220145043Y-97221761D01*
X220150459Y-97207762D01*
X220157539Y-97194515D01*
X220164646Y-97171087D01*
X220166348Y-97166687D01*
X220170338Y-97152322D01*
X220180412Y-97119114D01*
X220180879Y-97114377D01*
X220229650Y-96938801D01*
X220282156Y-96886295D01*
X220334139Y-96808497D01*
X220369946Y-96722052D01*
X220388200Y-96630283D01*
X220388200Y-96536717D01*
X220369946Y-96444948D01*
X220334139Y-96358503D01*
X220282156Y-96280705D01*
X220215995Y-96214544D01*
X220138197Y-96162561D01*
X220051752Y-96126754D01*
X219959983Y-96108500D01*
X219866417Y-96108500D01*
X219774648Y-96126754D01*
X219688203Y-96162561D01*
X219610405Y-96214544D01*
X219544900Y-96280049D01*
X219479395Y-96214544D01*
X219401597Y-96162561D01*
X219315152Y-96126754D01*
X219223383Y-96108500D01*
X219129817Y-96108500D01*
X219038048Y-96126754D01*
X218951603Y-96162561D01*
X218873805Y-96214544D01*
X218814650Y-96273699D01*
X218755495Y-96214544D01*
X218677697Y-96162561D01*
X218591252Y-96126754D01*
X218499483Y-96108500D01*
X218405917Y-96108500D01*
X218314148Y-96126754D01*
X218227703Y-96162561D01*
X218149905Y-96214544D01*
X218083744Y-96280705D01*
X218031761Y-96358503D01*
X217995954Y-96444948D01*
X217988601Y-96481913D01*
X216445515Y-98025000D01*
X216167003Y-98025000D01*
X216177087Y-98006134D01*
X216191382Y-97959008D01*
X216196209Y-97910000D01*
X216196209Y-96310000D01*
X216191382Y-96260992D01*
X216177087Y-96213866D01*
X216153873Y-96170436D01*
X216122632Y-96132368D01*
X216084564Y-96101127D01*
X216041134Y-96077913D01*
X215994008Y-96063618D01*
X215945000Y-96058791D01*
X215395000Y-96058791D01*
X215345992Y-96063618D01*
X215298866Y-96077913D01*
X215270000Y-96093342D01*
X215241134Y-96077913D01*
X215194008Y-96063618D01*
X215145000Y-96058791D01*
X214595000Y-96058791D01*
X214545992Y-96063618D01*
X214498866Y-96077913D01*
X214470000Y-96093342D01*
X214441134Y-96077913D01*
X214394008Y-96063618D01*
X214345000Y-96058791D01*
X213795000Y-96058791D01*
X213745992Y-96063618D01*
X213698866Y-96077913D01*
X213670000Y-96093342D01*
X213641134Y-96077913D01*
X213594008Y-96063618D01*
X213545000Y-96058791D01*
X212995000Y-96058791D01*
X212945992Y-96063618D01*
X212898866Y-96077913D01*
X212870000Y-96093342D01*
X212841134Y-96077913D01*
X212794008Y-96063618D01*
X212745000Y-96058791D01*
X212195000Y-96058791D01*
X212145992Y-96063618D01*
X212098866Y-96077913D01*
X212070000Y-96093342D01*
X212041134Y-96077913D01*
X211994008Y-96063618D01*
X211945000Y-96058791D01*
X211395000Y-96058791D01*
X211345992Y-96063618D01*
X211298866Y-96077913D01*
X211270000Y-96093342D01*
X211241134Y-96077913D01*
X211194008Y-96063618D01*
X211145000Y-96058791D01*
X210595000Y-96058791D01*
X210545992Y-96063618D01*
X210498866Y-96077913D01*
X210470000Y-96093342D01*
X210441134Y-96077913D01*
X210394008Y-96063618D01*
X210345000Y-96058791D01*
X209795000Y-96058791D01*
X209745992Y-96063618D01*
X209698866Y-96077913D01*
X209655436Y-96101127D01*
X209617368Y-96132368D01*
X209586127Y-96170436D01*
X209562913Y-96213866D01*
X209548618Y-96260992D01*
X209543791Y-96310000D01*
X209543791Y-97910000D01*
X209548618Y-97959008D01*
X209562913Y-98006134D01*
X209586127Y-98049564D01*
X209617368Y-98087632D01*
X209643999Y-98109487D01*
X208796420Y-98964598D01*
X208761448Y-98971554D01*
X208675003Y-99007361D01*
X208597205Y-99059344D01*
X208531044Y-99125505D01*
X208479061Y-99203303D01*
X208443254Y-99289748D01*
X208425000Y-99381517D01*
X208425000Y-99475083D01*
X208443254Y-99566852D01*
X208479061Y-99653297D01*
X208531044Y-99731095D01*
X208597205Y-99797256D01*
X208675003Y-99849239D01*
X208759907Y-99884408D01*
X207558615Y-101085700D01*
X206015341Y-101085700D01*
X205964997Y-101052061D01*
X205878552Y-101016254D01*
X205786783Y-100998000D01*
X205693217Y-100998000D01*
X205601448Y-101016254D01*
X205515003Y-101052061D01*
X205437205Y-101104044D01*
X205371044Y-101170205D01*
X205319061Y-101248003D01*
X205283254Y-101334448D01*
X205265000Y-101426217D01*
X205265000Y-101519783D01*
X205283254Y-101611552D01*
X205319061Y-101697997D01*
X205371044Y-101775795D01*
X205437205Y-101841956D01*
X205515003Y-101893939D01*
X205601448Y-101929746D01*
X205693217Y-101948000D01*
X205786783Y-101948000D01*
X205878552Y-101929746D01*
X205964997Y-101893939D01*
X205977328Y-101885700D01*
X207704654Y-101885700D01*
X207724300Y-101887635D01*
X207743946Y-101885700D01*
X207743947Y-101885700D01*
X207802714Y-101879912D01*
X207878114Y-101857040D01*
X207947603Y-101819897D01*
X208008511Y-101769911D01*
X208021037Y-101754648D01*
X210060000Y-99715685D01*
X210060001Y-108004313D01*
X209834315Y-108230000D01*
X202756334Y-108230000D01*
X202724997Y-108209061D01*
X202638552Y-108173254D01*
X202546783Y-108155000D01*
X202453217Y-108155000D01*
X202361448Y-108173254D01*
X202275003Y-108209061D01*
X202197205Y-108261044D01*
X202131044Y-108327205D01*
X202079061Y-108405003D01*
X202043254Y-108491448D01*
X202025000Y-108583217D01*
X200068902Y-108583217D01*
X199990000Y-108504315D01*
X199990000Y-101925685D01*
X200025685Y-101890000D01*
X204330354Y-101890000D01*
X204350000Y-101891935D01*
X204369646Y-101890000D01*
X204369647Y-101890000D01*
X204428414Y-101884212D01*
X204503814Y-101861340D01*
X204573303Y-101824197D01*
X204634211Y-101774211D01*
X204646737Y-101758948D01*
X205088948Y-101316737D01*
X205104211Y-101304211D01*
X205154197Y-101243303D01*
X205191340Y-101173814D01*
X205214212Y-101098414D01*
X205220000Y-101039647D01*
X205220000Y-101039637D01*
X205221934Y-101020001D01*
X205220000Y-101000365D01*
X205220000Y-91875685D01*
X205835685Y-91260000D01*
X207490353Y-91260000D01*
X207431586Y-91265788D01*
X207356186Y-91288660D01*
X207286697Y-91325803D01*
X207274282Y-91335992D01*
X207241049Y-91363265D01*
X207241047Y-91363267D01*
X207225789Y-91375789D01*
X207213267Y-91391047D01*
X206705591Y-91898724D01*
X206701382Y-91855992D01*
X206687087Y-91808866D01*
X206663873Y-91765436D01*
X206632632Y-91727368D01*
X206594564Y-91696127D01*
X206551134Y-91672913D01*
X206504008Y-91658618D01*
X206455000Y-91653791D01*
X205605000Y-91653791D01*
X205555992Y-91658618D01*
X205508866Y-91672913D01*
X205465436Y-91696127D01*
X205427368Y-91727368D01*
X205396127Y-91765436D01*
X205372913Y-91808866D01*
X205358618Y-91855992D01*
X205353791Y-91905000D01*
X205353791Y-92755000D01*
X205358618Y-92804008D01*
X205372913Y-92851134D01*
X205396127Y-92894564D01*
X205427368Y-92932632D01*
X205463748Y-92962488D01*
X205431823Y-93010268D01*
X205380940Y-93133110D01*
X205355000Y-93263518D01*
X205355000Y-93396482D01*
X205380940Y-93526890D01*
X205431823Y-93649732D01*
X205505693Y-93760287D01*
X205599713Y-93854307D01*
X205710268Y-93928177D01*
X205833110Y-93979060D01*
X205963518Y-94005000D01*
X206096482Y-94005000D01*
X206226890Y-93979060D01*
X206349732Y-93928177D01*
X206460287Y-93854307D01*
X206554307Y-93760287D01*
X206574544Y-93730000D01*
X206594315Y-93730000D01*
X207193267Y-94328953D01*
X207205789Y-94344211D01*
X207221047Y-94356733D01*
X207221049Y-94356735D01*
X207266697Y-94394197D01*
X207336185Y-94431340D01*
X207411586Y-94454212D01*
X207470353Y-94460000D01*
X207346334Y-94460000D01*
X207314997Y-94439061D01*
X207228552Y-94403254D01*
X207136783Y-94385000D01*
X207043217Y-94385000D01*
X206951448Y-94403254D01*
X206865003Y-94439061D01*
X206787205Y-94491044D01*
X206721044Y-94557205D01*
X206669061Y-94635003D01*
X206633254Y-94721448D01*
X206615000Y-94813217D01*
X206615000Y-94906783D01*
X206633254Y-94998552D01*
X206669061Y-95084997D01*
X206721044Y-95162795D01*
X206787205Y-95228956D01*
X206865003Y-95280939D01*
X206951448Y-95316746D01*
X207043217Y-95335000D01*
X207136783Y-95335000D01*
X207141281Y-95334105D01*
X207090489Y-95375789D01*
X207077963Y-95391052D01*
X206817252Y-95651763D01*
X206801989Y-95664289D01*
X206752003Y-95725198D01*
X206714860Y-95794687D01*
X206709058Y-95813814D01*
X206691988Y-95870087D01*
X206684265Y-95948500D01*
X206686200Y-95968146D01*
X206686201Y-100010164D01*
X206665261Y-100041503D01*
X206629454Y-100127948D01*
X206611200Y-100219717D01*
X206611200Y-100313283D01*
X206629454Y-100405052D01*
X206665261Y-100491497D01*
X206717244Y-100569295D01*
X206783405Y-100635456D01*
X206861203Y-100687439D01*
X206947648Y-100723246D01*
X207039417Y-100741500D01*
X207132983Y-100741500D01*
X207224752Y-100723246D01*
X207311197Y-100687439D01*
X207388995Y-100635456D01*
X207455156Y-100569295D01*
X207507139Y-100491497D01*
X207542946Y-100405052D01*
X207561200Y-100313283D01*
X207561200Y-100219717D01*
X207542946Y-100127948D01*
X207507139Y-100041503D01*
X207486200Y-100010166D01*
X207486200Y-96114185D01*
X207540385Y-96060000D01*
X207603342Y-96060000D01*
X207611127Y-96074564D01*
X207642368Y-96112632D01*
X207680436Y-96143873D01*
X207723866Y-96167087D01*
X207770992Y-96181382D01*
X207820000Y-96186209D01*
X209420000Y-96186209D01*
X209469008Y-96181382D01*
X209516134Y-96167087D01*
X209559564Y-96143873D01*
X209597632Y-96112632D01*
X209628873Y-96074564D01*
X209652087Y-96031134D01*
X209666382Y-95984008D01*
X209671209Y-95935000D01*
X209671209Y-95385000D01*
X209666382Y-95335992D01*
X209652087Y-95288866D01*
X209636658Y-95260000D01*
X209700354Y-95260000D01*
X209720000Y-95261935D01*
X209739646Y-95260000D01*
X209739647Y-95260000D01*
X209798414Y-95254212D01*
X209873814Y-95231340D01*
X209943303Y-95194197D01*
X210004211Y-95144211D01*
X210016737Y-95128948D01*
X211088954Y-94056732D01*
X211104211Y-94044211D01*
X211131588Y-94010853D01*
X211154197Y-93983303D01*
X211191340Y-93913815D01*
X211214212Y-93838414D01*
X211221935Y-93760000D01*
X211220000Y-93740354D01*
X211220000Y-93660000D01*
X212733666Y-93660000D01*
X212765003Y-93680939D01*
X212851448Y-93716746D01*
X212943217Y-93735000D01*
X213036783Y-93735000D01*
X213128552Y-93716746D01*
X213214997Y-93680939D01*
X213246334Y-93660000D01*
X215164315Y-93660000D01*
X215833267Y-94328953D01*
X215845789Y-94344211D01*
X215861047Y-94356733D01*
X215861049Y-94356735D01*
X215906697Y-94394197D01*
X215976185Y-94431340D01*
X216051586Y-94454212D01*
X216102953Y-94459271D01*
X216103342Y-94460000D01*
X216087913Y-94488866D01*
X216073618Y-94535992D01*
X216068791Y-94585000D01*
X216068791Y-95135000D01*
X216073618Y-95184008D01*
X216087913Y-95231134D01*
X216103342Y-95260000D01*
X216087913Y-95288866D01*
X216073618Y-95335992D01*
X216068791Y-95385000D01*
X216068791Y-95935000D01*
X216073618Y-95984008D01*
X216087913Y-96031134D01*
X216111127Y-96074564D01*
X216142368Y-96112632D01*
X216180436Y-96143873D01*
X216223866Y-96167087D01*
X216270992Y-96181382D01*
X216320000Y-96186209D01*
X217920000Y-96186209D01*
X217969008Y-96181382D01*
X218016134Y-96167087D01*
X218059564Y-96143873D01*
X218097632Y-96112632D01*
X218128873Y-96074564D01*
X218136658Y-96060000D01*
X221624315Y-96060000D01*
X222890679Y-97326365D01*
X222889173Y-97330000D01*
X222700191Y-97330000D01*
X222654402Y-97305525D01*
X222588517Y-97285539D01*
X222520000Y-97278791D01*
X222480415Y-97278791D01*
X222477237Y-97270886D01*
X222417132Y-97178859D01*
X222340228Y-97100326D01*
X222249481Y-97038305D01*
X222148378Y-96995179D01*
X222069500Y-96972000D01*
X221930000Y-97111500D01*
X221930000Y-97513811D01*
X221915539Y-97561483D01*
X221908791Y-97630000D01*
X221908791Y-97830000D01*
X221915539Y-97898517D01*
X221930000Y-97946189D01*
X221930000Y-98348500D01*
X222069500Y-98488000D01*
X222148378Y-98464821D01*
X222249481Y-98421695D01*
X222340228Y-98359674D01*
X222417132Y-98281141D01*
X222477237Y-98189114D01*
X222480415Y-98181209D01*
X222520000Y-98181209D01*
X222588517Y-98174461D01*
X222654402Y-98154475D01*
X222700191Y-98130000D01*
X222889173Y-98130000D01*
X222929502Y-98227362D01*
X223044411Y-98399336D01*
X223190664Y-98545589D01*
X223362638Y-98660498D01*
X223553726Y-98739650D01*
X223756584Y-98780000D01*
X223963416Y-98780000D01*
X224166274Y-98739650D01*
X224357362Y-98660498D01*
X224529336Y-98545589D01*
X224675589Y-98399336D01*
X224790498Y-98227362D01*
X224869650Y-98036274D01*
X224910000Y-97833416D01*
X224910000Y-97626584D01*
X224869650Y-97423726D01*
X224790498Y-97232638D01*
X224675589Y-97060664D01*
X224529336Y-96914411D01*
X224357362Y-96799502D01*
X224166274Y-96720350D01*
X223963416Y-96680000D01*
X223756584Y-96680000D01*
X223553726Y-96720350D01*
X223456365Y-96760679D01*
X222086737Y-95391052D01*
X222074211Y-95375789D01*
X222013303Y-95325803D01*
X221943814Y-95288660D01*
X221868414Y-95265788D01*
X221809647Y-95260000D01*
X221809646Y-95260000D01*
X221794647Y-95258523D01*
X221838414Y-95254212D01*
X221913814Y-95231340D01*
X221983303Y-95194197D01*
X222044211Y-95144211D01*
X222056737Y-95128948D01*
X224128949Y-93056736D01*
X224144211Y-93044211D01*
X224194197Y-92983303D01*
X224231340Y-92913814D01*
X224254212Y-92838414D01*
X224260000Y-92779647D01*
X224260000Y-92779637D01*
X224261934Y-92760001D01*
X224260000Y-92740365D01*
X224260000Y-91200827D01*
X224357362Y-91160498D01*
X224529336Y-91045589D01*
X224675589Y-90899336D01*
X224790498Y-90727362D01*
X224869650Y-90536274D01*
X224910000Y-90333416D01*
X224910000Y-90126584D01*
X224869650Y-89923726D01*
X224790498Y-89732638D01*
X224675589Y-89560664D01*
X224529336Y-89414411D01*
X224357362Y-89299502D01*
X224166274Y-89220350D01*
X223963416Y-89180000D01*
X223756584Y-89180000D01*
X223553726Y-89220350D01*
X223362638Y-89299502D01*
X223190664Y-89414411D01*
X223044411Y-89560664D01*
X222929502Y-89732638D01*
X222889173Y-89830000D01*
X222710191Y-89830000D01*
X222664402Y-89805525D01*
X222598517Y-89785539D01*
X222530000Y-89778791D01*
X222490415Y-89778791D01*
X222487237Y-89770886D01*
X222427132Y-89678859D01*
X222350228Y-89600326D01*
X222259481Y-89538305D01*
X222158378Y-89495179D01*
X222079500Y-89472000D01*
X221940000Y-89611500D01*
X221940000Y-90013811D01*
X221925539Y-90061483D01*
X221918791Y-90130000D01*
X221918791Y-90330000D01*
X221925539Y-90398517D01*
X221940000Y-90446189D01*
X221940000Y-90848500D01*
X222079500Y-90988000D01*
X222158378Y-90964821D01*
X222259481Y-90921695D01*
X222350228Y-90859674D01*
X222427132Y-90781141D01*
X222487237Y-90689114D01*
X222490415Y-90681209D01*
X222530000Y-90681209D01*
X222598517Y-90674461D01*
X222664402Y-90654475D01*
X222710191Y-90630000D01*
X222889173Y-90630000D01*
X222929502Y-90727362D01*
X223044411Y-90899336D01*
X223190664Y-91045589D01*
X223362638Y-91160498D01*
X223460001Y-91200827D01*
X223460000Y-92594315D01*
X221594315Y-94460000D01*
X220674594Y-94460000D01*
X220754307Y-94380287D01*
X220828177Y-94269732D01*
X220879060Y-94146890D01*
X220905000Y-94016482D01*
X220905000Y-93883518D01*
X220879060Y-93753110D01*
X220828177Y-93630268D01*
X220754307Y-93519713D01*
X220684594Y-93450000D01*
X220754307Y-93380287D01*
X220828177Y-93269732D01*
X220879060Y-93146890D01*
X220905000Y-93016482D01*
X220905000Y-92883518D01*
X220879060Y-92753110D01*
X220828177Y-92630268D01*
X220754307Y-92519713D01*
X220684594Y-92450000D01*
X220754307Y-92380287D01*
X220828177Y-92269732D01*
X220879060Y-92146890D01*
X220905000Y-92016482D01*
X220905000Y-91883518D01*
X220879060Y-91753110D01*
X220828177Y-91630268D01*
X220754307Y-91519713D01*
X220684594Y-91450000D01*
X220754307Y-91380287D01*
X220828177Y-91269732D01*
X220879060Y-91146890D01*
X220905000Y-91016482D01*
X220905000Y-90883518D01*
X220879060Y-90753110D01*
X220828177Y-90630268D01*
X220754307Y-90519713D01*
X220754094Y-90519500D01*
X220972000Y-90519500D01*
X220991767Y-90587129D01*
X221032763Y-90689114D01*
X221092868Y-90781141D01*
X221169772Y-90859674D01*
X221260519Y-90921695D01*
X221361622Y-90964821D01*
X221440500Y-90988000D01*
X221580000Y-90848500D01*
X221580000Y-90380000D01*
X221111500Y-90380000D01*
X220972000Y-90519500D01*
X220754094Y-90519500D01*
X220684594Y-90450000D01*
X220754307Y-90380287D01*
X220828177Y-90269732D01*
X220879060Y-90146890D01*
X220905000Y-90016482D01*
X220905000Y-89940500D01*
X220972000Y-89940500D01*
X221111500Y-90080000D01*
X221580000Y-90080000D01*
X221580000Y-89611500D01*
X221440500Y-89472000D01*
X221361622Y-89495179D01*
X221260519Y-89538305D01*
X221169772Y-89600326D01*
X221092868Y-89678859D01*
X221032763Y-89770886D01*
X220991767Y-89872871D01*
X220972000Y-89940500D01*
X220905000Y-89940500D01*
X220905000Y-89883518D01*
X220879060Y-89753110D01*
X220828177Y-89630268D01*
X220754307Y-89519713D01*
X220684594Y-89450000D01*
X220754307Y-89380287D01*
X220828177Y-89269732D01*
X220879060Y-89146890D01*
X220905000Y-89016482D01*
X220905000Y-88883518D01*
X220879060Y-88753110D01*
X220828177Y-88630268D01*
X220754307Y-88519713D01*
X220684594Y-88450000D01*
X220754307Y-88380287D01*
X220828177Y-88269732D01*
X220879060Y-88146890D01*
X220905000Y-88016482D01*
X220905000Y-87883518D01*
X220879060Y-87753110D01*
X220828177Y-87630268D01*
X220796252Y-87582488D01*
X220832632Y-87552632D01*
X220863873Y-87514564D01*
X220887087Y-87471134D01*
X220901382Y-87424008D01*
X220906209Y-87375000D01*
X220906209Y-86525000D01*
X220901382Y-86475992D01*
X220892892Y-86448000D01*
X222363300Y-86448000D01*
X222374074Y-86557387D01*
X222405981Y-86662571D01*
X222457795Y-86759508D01*
X222527525Y-86844475D01*
X222612492Y-86914205D01*
X222709429Y-86966019D01*
X222814613Y-86997926D01*
X222924000Y-87008700D01*
X223430500Y-87006000D01*
X223570000Y-86866500D01*
X223570000Y-85802000D01*
X223978000Y-85802000D01*
X223978000Y-86866500D01*
X224117500Y-87006000D01*
X224624000Y-87008700D01*
X224733387Y-86997926D01*
X224838571Y-86966019D01*
X224935508Y-86914205D01*
X225020475Y-86844475D01*
X225090205Y-86759508D01*
X225142019Y-86662571D01*
X225173926Y-86557387D01*
X225184700Y-86448000D01*
X225182000Y-85941500D01*
X225042500Y-85802000D01*
X223978000Y-85802000D01*
X223570000Y-85802000D01*
X222505500Y-85802000D01*
X222366000Y-85941500D01*
X222363300Y-86448000D01*
X220892892Y-86448000D01*
X220887087Y-86428866D01*
X220863873Y-86385436D01*
X220832632Y-86347368D01*
X220794564Y-86316127D01*
X220751134Y-86292913D01*
X220704008Y-86278618D01*
X220655000Y-86273791D01*
X219805000Y-86273791D01*
X219755992Y-86278618D01*
X219708866Y-86292913D01*
X219665436Y-86316127D01*
X219627368Y-86347368D01*
X219596127Y-86385436D01*
X219572913Y-86428866D01*
X219558618Y-86475992D01*
X219553791Y-86525000D01*
X219553791Y-86550000D01*
X218295686Y-86550000D01*
X217486737Y-85741052D01*
X217474211Y-85725789D01*
X217413303Y-85675803D01*
X217343814Y-85638660D01*
X217268414Y-85615788D01*
X217209647Y-85610000D01*
X217209646Y-85610000D01*
X217190000Y-85608065D01*
X217170354Y-85610000D01*
X215399647Y-85610000D01*
X215380000Y-85608065D01*
X215301586Y-85615788D01*
X215226186Y-85638660D01*
X215156697Y-85675803D01*
X215111049Y-85713265D01*
X215111047Y-85713267D01*
X215095789Y-85725789D01*
X215083267Y-85741047D01*
X213801048Y-87023267D01*
X213785790Y-87035789D01*
X213773268Y-87051047D01*
X213773265Y-87051050D01*
X213735803Y-87096698D01*
X213698661Y-87166186D01*
X213675788Y-87241587D01*
X213670000Y-87300353D01*
X213670000Y-86699339D01*
X214633681Y-85681693D01*
X214658552Y-85676746D01*
X214744997Y-85640939D01*
X214822795Y-85588956D01*
X214888956Y-85522795D01*
X214940939Y-85444997D01*
X214976746Y-85358552D01*
X214995000Y-85266783D01*
X214995000Y-85173217D01*
X214976746Y-85081448D01*
X214940939Y-84995003D01*
X214888956Y-84917205D01*
X214822795Y-84851044D01*
X214744997Y-84799061D01*
X214658552Y-84763254D01*
X214566783Y-84745000D01*
X214473217Y-84745000D01*
X214381448Y-84763254D01*
X214295003Y-84799061D01*
X214217205Y-84851044D01*
X214187155Y-84881094D01*
X214219580Y-84706610D01*
X214216280Y-84445000D01*
X215153791Y-84445000D01*
X215153791Y-85295000D01*
X215158618Y-85344008D01*
X215172913Y-85391134D01*
X215196127Y-85434564D01*
X215227368Y-85472632D01*
X215265436Y-85503873D01*
X215308866Y-85527087D01*
X215355992Y-85541382D01*
X215405000Y-85546209D01*
X216255000Y-85546209D01*
X216304008Y-85541382D01*
X216351134Y-85527087D01*
X216394564Y-85503873D01*
X216432632Y-85472632D01*
X216462488Y-85436252D01*
X216510268Y-85468177D01*
X216633110Y-85519060D01*
X216763518Y-85545000D01*
X216896482Y-85545000D01*
X217026890Y-85519060D01*
X217149732Y-85468177D01*
X217260287Y-85394307D01*
X217330000Y-85324594D01*
X217399713Y-85394307D01*
X217510268Y-85468177D01*
X217633110Y-85519060D01*
X217763518Y-85545000D01*
X217896482Y-85545000D01*
X218026890Y-85519060D01*
X218149732Y-85468177D01*
X218260287Y-85394307D01*
X218354307Y-85300287D01*
X218428177Y-85189732D01*
X218479060Y-85066890D01*
X218505000Y-84936482D01*
X218505000Y-84803518D01*
X218493957Y-84748000D01*
X222363300Y-84748000D01*
X222366000Y-85254500D01*
X222505500Y-85394000D01*
X223570000Y-85394000D01*
X223570000Y-84329500D01*
X223978000Y-84329500D01*
X223978000Y-85394000D01*
X225042500Y-85394000D01*
X225182000Y-85254500D01*
X225184700Y-84748000D01*
X225173926Y-84638613D01*
X225142019Y-84533429D01*
X225090205Y-84436492D01*
X225020475Y-84351525D01*
X224935508Y-84281795D01*
X224838571Y-84229981D01*
X224733387Y-84198074D01*
X224624000Y-84187300D01*
X224117500Y-84190000D01*
X223978000Y-84329500D01*
X223570000Y-84329500D01*
X223430500Y-84190000D01*
X222924000Y-84187300D01*
X222814613Y-84198074D01*
X222709429Y-84229981D01*
X222612492Y-84281795D01*
X222527525Y-84351525D01*
X222457795Y-84436492D01*
X222405981Y-84533429D01*
X222374074Y-84638613D01*
X222363300Y-84748000D01*
X218493957Y-84748000D01*
X218479060Y-84673110D01*
X218428177Y-84550268D01*
X218354307Y-84439713D01*
X218260287Y-84345693D01*
X218149732Y-84271823D01*
X218026890Y-84220940D01*
X217896482Y-84195000D01*
X217763518Y-84195000D01*
X217633110Y-84220940D01*
X217510268Y-84271823D01*
X217399713Y-84345693D01*
X217330000Y-84415406D01*
X217260287Y-84345693D01*
X217149732Y-84271823D01*
X217026890Y-84220940D01*
X216896482Y-84195000D01*
X216763518Y-84195000D01*
X216633110Y-84220940D01*
X216510268Y-84271823D01*
X216462488Y-84303748D01*
X216432632Y-84267368D01*
X216394564Y-84236127D01*
X216351134Y-84212913D01*
X216304008Y-84198618D01*
X216255000Y-84193791D01*
X215405000Y-84193791D01*
X215355992Y-84198618D01*
X215308866Y-84212913D01*
X215265436Y-84236127D01*
X215227368Y-84267368D01*
X215196127Y-84305436D01*
X215172913Y-84348866D01*
X215158618Y-84395992D01*
X215153791Y-84445000D01*
X214216280Y-84445000D01*
X214216205Y-84439129D01*
X214160713Y-84177446D01*
X214071463Y-83961978D01*
X213858411Y-83880089D01*
X213148500Y-84590000D01*
X213162642Y-84604142D01*
X212874142Y-84892642D01*
X212860000Y-84878500D01*
X212150089Y-85588411D01*
X212231978Y-85801463D01*
X212480390Y-85900706D01*
X212743390Y-85949580D01*
X213010871Y-85946205D01*
X213272554Y-85890713D01*
X213373600Y-85848858D01*
X212996825Y-86246733D01*
X212985790Y-86255789D01*
X212969811Y-86275260D01*
X212966052Y-86279229D01*
X212957329Y-86290468D01*
X212935804Y-86316697D01*
X212933216Y-86321539D01*
X212929847Y-86325880D01*
X212914658Y-86356258D01*
X212898661Y-86386186D01*
X212897068Y-86391439D01*
X212894610Y-86396354D01*
X212885640Y-86429111D01*
X212875789Y-86461586D01*
X212875251Y-86467051D01*
X212873800Y-86472349D01*
X212871392Y-86506232D01*
X212870001Y-86520353D01*
X212870001Y-86525800D01*
X212868214Y-86550943D01*
X212870001Y-86565117D01*
X212870001Y-86991170D01*
X212839956Y-86946205D01*
X212773795Y-86880044D01*
X212695997Y-86828061D01*
X212609552Y-86792254D01*
X212517783Y-86774000D01*
X212424217Y-86774000D01*
X212332448Y-86792254D01*
X212246003Y-86828061D01*
X212168205Y-86880044D01*
X212137539Y-86910710D01*
X212126746Y-86856448D01*
X212090939Y-86770003D01*
X212038956Y-86692205D01*
X211972795Y-86626044D01*
X211894997Y-86574061D01*
X211808552Y-86538254D01*
X211716783Y-86520000D01*
X211623217Y-86520000D01*
X211531448Y-86538254D01*
X211445003Y-86574061D01*
X211367205Y-86626044D01*
X211337373Y-86655876D01*
X211326746Y-86602448D01*
X211290939Y-86516003D01*
X211238956Y-86438205D01*
X211172795Y-86372044D01*
X211094997Y-86320061D01*
X211008552Y-86284254D01*
X210916783Y-86266000D01*
X210823217Y-86266000D01*
X210731448Y-86284254D01*
X210645003Y-86320061D01*
X210567205Y-86372044D01*
X210501044Y-86438205D01*
X210449061Y-86516003D01*
X210413254Y-86602448D01*
X210395000Y-86694217D01*
X210395000Y-86787783D01*
X210413254Y-86879552D01*
X210449061Y-86965997D01*
X210470001Y-86997336D01*
X210470001Y-87450369D01*
X210470000Y-87450363D01*
X210470000Y-87450353D01*
X210464212Y-87391586D01*
X210441340Y-87316186D01*
X210404197Y-87246697D01*
X210354211Y-87185789D01*
X210338948Y-87173263D01*
X209966737Y-86801052D01*
X209954211Y-86785789D01*
X209893303Y-86735803D01*
X209823814Y-86698660D01*
X209748414Y-86675788D01*
X209689647Y-86670000D01*
X209689646Y-86670000D01*
X209670000Y-86668065D01*
X209650354Y-86670000D01*
X204879635Y-86670000D01*
X204859999Y-86668066D01*
X204840363Y-86670000D01*
X204840353Y-86670000D01*
X204781586Y-86675788D01*
X204706186Y-86698660D01*
X204636697Y-86735803D01*
X204604495Y-86762231D01*
X204591049Y-86773265D01*
X204591047Y-86773267D01*
X204575789Y-86785789D01*
X204563267Y-86801047D01*
X204141052Y-87223263D01*
X204125789Y-87235789D01*
X204075803Y-87296698D01*
X204038660Y-87366187D01*
X204020609Y-87425693D01*
X204015788Y-87441587D01*
X204008065Y-87520000D01*
X204010000Y-87539647D01*
X204010000Y-87923791D01*
X203985000Y-87923791D01*
X203935992Y-87928618D01*
X203888866Y-87942913D01*
X203845436Y-87966127D01*
X203807368Y-87997368D01*
X203776127Y-88035436D01*
X203752913Y-88078866D01*
X203738618Y-88125992D01*
X203733791Y-88175000D01*
X203733791Y-89025000D01*
X203738618Y-89074008D01*
X203752913Y-89121134D01*
X203776127Y-89164564D01*
X203807368Y-89202632D01*
X203845436Y-89233873D01*
X203888866Y-89257087D01*
X203935992Y-89271382D01*
X203985000Y-89276209D01*
X204835000Y-89276209D01*
X204884008Y-89271382D01*
X204931134Y-89257087D01*
X204974564Y-89233873D01*
X205012632Y-89202632D01*
X205043873Y-89164564D01*
X205067087Y-89121134D01*
X205081382Y-89074008D01*
X205086209Y-89025000D01*
X205086209Y-88175000D01*
X205081382Y-88125992D01*
X205067087Y-88078866D01*
X205043873Y-88035436D01*
X205012632Y-87997368D01*
X204974564Y-87966127D01*
X204931134Y-87942913D01*
X204884008Y-87928618D01*
X204835000Y-87923791D01*
X204810000Y-87923791D01*
X204810000Y-87685685D01*
X205025686Y-87470000D01*
X209504315Y-87470000D01*
X209644454Y-87610139D01*
X209617368Y-87632368D01*
X209586127Y-87670436D01*
X209562913Y-87713866D01*
X209548618Y-87760992D01*
X209543791Y-87810000D01*
X209543791Y-89410000D01*
X209548618Y-89459008D01*
X209562913Y-89506134D01*
X209586127Y-89549564D01*
X209617368Y-89587632D01*
X209655436Y-89618873D01*
X209698866Y-89642087D01*
X209745992Y-89656382D01*
X209795000Y-89661209D01*
X210345000Y-89661209D01*
X210394008Y-89656382D01*
X210441134Y-89642087D01*
X210470000Y-89626658D01*
X210498866Y-89642087D01*
X210545992Y-89656382D01*
X210595000Y-89661209D01*
X211145000Y-89661209D01*
X211194008Y-89656382D01*
X211241134Y-89642087D01*
X211270000Y-89626658D01*
X211298866Y-89642087D01*
X211345992Y-89656382D01*
X211395000Y-89661209D01*
X211945000Y-89661209D01*
X211994008Y-89656382D01*
X212041134Y-89642087D01*
X212070000Y-89626658D01*
X212098866Y-89642087D01*
X212145992Y-89656382D01*
X212195000Y-89661209D01*
X212745000Y-89661209D01*
X212794008Y-89656382D01*
X212841134Y-89642087D01*
X212870000Y-89626658D01*
X212898866Y-89642087D01*
X212945992Y-89656382D01*
X212995000Y-89661209D01*
X213545000Y-89661209D01*
X213594008Y-89656382D01*
X213641134Y-89642087D01*
X213670000Y-89626658D01*
X213698866Y-89642087D01*
X213745992Y-89656382D01*
X213795000Y-89661209D01*
X214345000Y-89661209D01*
X214394008Y-89656382D01*
X214441134Y-89642087D01*
X214470000Y-89626658D01*
X214498866Y-89642087D01*
X214545992Y-89656382D01*
X214595000Y-89661209D01*
X215145000Y-89661209D01*
X215194008Y-89656382D01*
X215241134Y-89642087D01*
X215270000Y-89626658D01*
X215298866Y-89642087D01*
X215345992Y-89656382D01*
X215395000Y-89661209D01*
X215945000Y-89661209D01*
X215994008Y-89656382D01*
X216041134Y-89642087D01*
X216084564Y-89618873D01*
X216122632Y-89587632D01*
X216153873Y-89549564D01*
X216177087Y-89506134D01*
X216191382Y-89459008D01*
X216196209Y-89410000D01*
X216196209Y-87810000D01*
X216191382Y-87760992D01*
X216177087Y-87713866D01*
X216153873Y-87670436D01*
X216122632Y-87632368D01*
X216084564Y-87601127D01*
X216078043Y-87597641D01*
X216085684Y-87590000D01*
X216494315Y-87590000D01*
X218123267Y-89218953D01*
X218135789Y-89234211D01*
X218151047Y-89246733D01*
X218151049Y-89246735D01*
X218196697Y-89284197D01*
X218266185Y-89321340D01*
X218341586Y-89344212D01*
X218420000Y-89351935D01*
X218439646Y-89350000D01*
X219685456Y-89350000D01*
X219705693Y-89380287D01*
X219775406Y-89450000D01*
X219705693Y-89519713D01*
X219685456Y-89550000D01*
X218669635Y-89550000D01*
X218649999Y-89548066D01*
X218630363Y-89550000D01*
X218630353Y-89550000D01*
X218571586Y-89555788D01*
X218496186Y-89578660D01*
X218426697Y-89615803D01*
X218372843Y-89660000D01*
X218136658Y-89660000D01*
X218128873Y-89645436D01*
X218097632Y-89607368D01*
X218059564Y-89576127D01*
X218016134Y-89552913D01*
X217969008Y-89538618D01*
X217920000Y-89533791D01*
X216320000Y-89533791D01*
X216270992Y-89538618D01*
X216223866Y-89552913D01*
X216180436Y-89576127D01*
X216142368Y-89607368D01*
X216111127Y-89645436D01*
X216087913Y-89688866D01*
X216073618Y-89735992D01*
X216068791Y-89785000D01*
X216068791Y-90335000D01*
X216073618Y-90384008D01*
X216087913Y-90431134D01*
X216103342Y-90460000D01*
X216087913Y-90488866D01*
X216073618Y-90535992D01*
X216068791Y-90585000D01*
X216068791Y-90886726D01*
X216023440Y-90909147D01*
X215936304Y-90976146D01*
X215863913Y-91058858D01*
X215809049Y-91154103D01*
X215773821Y-91258221D01*
X215762000Y-91316500D01*
X215901500Y-91456000D01*
X216916000Y-91456000D01*
X216916000Y-91436000D01*
X217324000Y-91436000D01*
X217324000Y-91456000D01*
X218338500Y-91456000D01*
X218466882Y-91327618D01*
X218521586Y-91344212D01*
X218580353Y-91350000D01*
X218580363Y-91350000D01*
X218599999Y-91351934D01*
X218619635Y-91350000D01*
X219685456Y-91350000D01*
X219705693Y-91380287D01*
X219775406Y-91450000D01*
X219705693Y-91519713D01*
X219631823Y-91630268D01*
X219580940Y-91753110D01*
X219555000Y-91883518D01*
X219555000Y-92016482D01*
X219580940Y-92146890D01*
X219631823Y-92269732D01*
X219705693Y-92380287D01*
X219775406Y-92450000D01*
X219705693Y-92519713D01*
X219631823Y-92630268D01*
X219580940Y-92753110D01*
X219555000Y-92883518D01*
X219555000Y-93016482D01*
X219580940Y-93146890D01*
X219631823Y-93269732D01*
X219705693Y-93380287D01*
X219775406Y-93450000D01*
X219705693Y-93519713D01*
X219631823Y-93630268D01*
X219580940Y-93753110D01*
X219555000Y-93883518D01*
X219555000Y-94016482D01*
X219580940Y-94146890D01*
X219631823Y-94269732D01*
X219705693Y-94380287D01*
X219785406Y-94460000D01*
X218136658Y-94460000D01*
X218152087Y-94431134D01*
X218166382Y-94384008D01*
X218171209Y-94335000D01*
X218171209Y-94033274D01*
X218216560Y-94010853D01*
X218303696Y-93943854D01*
X218376087Y-93861142D01*
X218430951Y-93765897D01*
X218466179Y-93661779D01*
X218478000Y-93603500D01*
X218338500Y-93464000D01*
X217324000Y-93464000D01*
X217324000Y-93484000D01*
X216916000Y-93484000D01*
X216916000Y-93464000D01*
X216896000Y-93464000D01*
X216896000Y-93056000D01*
X216916000Y-93056000D01*
X216916000Y-93036000D01*
X217324000Y-93036000D01*
X217324000Y-93056000D01*
X218338500Y-93056000D01*
X218478000Y-92916500D01*
X218466179Y-92858221D01*
X218430951Y-92754103D01*
X218376087Y-92658858D01*
X218303696Y-92576146D01*
X218216560Y-92509147D01*
X218171209Y-92486726D01*
X218171209Y-92433274D01*
X218216560Y-92410853D01*
X218303696Y-92343854D01*
X218376087Y-92261142D01*
X218430951Y-92165897D01*
X218466179Y-92061779D01*
X218478000Y-92003500D01*
X218338500Y-91864000D01*
X217324000Y-91864000D01*
X217324000Y-91884000D01*
X216916000Y-91884000D01*
X216916000Y-91864000D01*
X215901500Y-91864000D01*
X215762000Y-92003500D01*
X215773821Y-92061779D01*
X215809049Y-92165897D01*
X215827093Y-92197221D01*
X215164315Y-92860000D01*
X213246334Y-92860000D01*
X213214997Y-92839061D01*
X213128552Y-92803254D01*
X213036783Y-92785000D01*
X212943217Y-92785000D01*
X212851448Y-92803254D01*
X212765003Y-92839061D01*
X212733666Y-92860000D01*
X210839647Y-92860000D01*
X210820000Y-92858065D01*
X210800354Y-92860000D01*
X209966540Y-92860000D01*
X209978000Y-92803500D01*
X209838500Y-92664000D01*
X208824000Y-92664000D01*
X208824000Y-92684000D01*
X208416000Y-92684000D01*
X208416000Y-92664000D01*
X208396000Y-92664000D01*
X208396000Y-92256000D01*
X208416000Y-92256000D01*
X208416000Y-92236000D01*
X208824000Y-92236000D01*
X208824000Y-92256000D01*
X209838500Y-92256000D01*
X209978000Y-92116500D01*
X209966179Y-92058221D01*
X209930951Y-91954103D01*
X209876087Y-91858858D01*
X209803696Y-91776146D01*
X209716560Y-91709147D01*
X209671209Y-91686726D01*
X209671209Y-91385000D01*
X209666382Y-91335992D01*
X209652087Y-91288866D01*
X209636658Y-91260000D01*
X209652087Y-91231134D01*
X209666382Y-91184008D01*
X209671209Y-91135000D01*
X209671209Y-90585000D01*
X209666382Y-90535992D01*
X209652087Y-90488866D01*
X209636658Y-90460000D01*
X209652087Y-90431134D01*
X209666382Y-90384008D01*
X209671209Y-90335000D01*
X209671209Y-89785000D01*
X209666382Y-89735992D01*
X209652087Y-89688866D01*
X209628873Y-89645436D01*
X209597632Y-89607368D01*
X209559564Y-89576127D01*
X209516134Y-89552913D01*
X209469008Y-89538618D01*
X209420000Y-89533791D01*
X207820000Y-89533791D01*
X207770992Y-89538618D01*
X207723866Y-89552913D01*
X207680436Y-89576127D01*
X207642368Y-89607368D01*
X207611127Y-89645436D01*
X207603342Y-89660000D01*
X205589635Y-89660000D01*
X205569999Y-89658066D01*
X205550363Y-89660000D01*
X205550353Y-89660000D01*
X205491586Y-89665788D01*
X205416186Y-89688660D01*
X205346697Y-89725803D01*
X205338369Y-89732638D01*
X205301049Y-89763265D01*
X205301047Y-89763267D01*
X205285789Y-89775789D01*
X205273267Y-89791047D01*
X203961052Y-91103263D01*
X203945789Y-91115789D01*
X203895803Y-91176698D01*
X203858660Y-91246187D01*
X203837547Y-91315788D01*
X203835788Y-91321587D01*
X203828065Y-91400000D01*
X203830000Y-91419646D01*
X203830001Y-98786253D01*
X203805000Y-98783791D01*
X202955000Y-98783791D01*
X202905992Y-98788618D01*
X202858866Y-98802913D01*
X202815436Y-98826127D01*
X202777368Y-98857368D01*
X202746127Y-98895436D01*
X202722913Y-98938866D01*
X202708618Y-98985992D01*
X202703791Y-99035000D01*
X202703791Y-99885000D01*
X202708618Y-99934008D01*
X202722913Y-99981134D01*
X202746127Y-100024564D01*
X202777368Y-100062632D01*
X202815436Y-100093873D01*
X202858866Y-100117087D01*
X202905992Y-100131382D01*
X202955000Y-100136209D01*
X203805000Y-100136209D01*
X203854008Y-100131382D01*
X203901134Y-100117087D01*
X203944564Y-100093873D01*
X203982632Y-100062632D01*
X204013873Y-100024564D01*
X204037087Y-99981134D01*
X204051382Y-99934008D01*
X204056209Y-99885000D01*
X204056209Y-99851847D01*
X204123814Y-99831340D01*
X204193303Y-99794197D01*
X204254211Y-99744211D01*
X204266738Y-99728947D01*
X204420001Y-99575684D01*
X204420001Y-100854314D01*
X204184315Y-101090000D01*
X199879647Y-101090000D01*
X199860000Y-101088065D01*
X199840353Y-101090000D01*
X199781586Y-101095788D01*
X199706186Y-101118660D01*
X199636697Y-101155803D01*
X199575789Y-101205789D01*
X199563265Y-101221050D01*
X199321052Y-101463263D01*
X199305789Y-101475789D01*
X199255803Y-101536698D01*
X199218660Y-101606187D01*
X199217033Y-101611552D01*
X199195788Y-101681587D01*
X199188065Y-101760000D01*
X199190000Y-101779646D01*
X199190000Y-103344315D01*
X198816735Y-102971050D01*
X198804211Y-102955789D01*
X198743303Y-102905803D01*
X198673814Y-102868660D01*
X198598414Y-102845788D01*
X198539647Y-102840000D01*
X198539646Y-102840000D01*
X198520000Y-102838065D01*
X198500354Y-102840000D01*
X195295685Y-102840000D01*
X193844099Y-101388414D01*
X193836746Y-101351448D01*
X193800939Y-101265003D01*
X193748956Y-101187205D01*
X193682795Y-101121044D01*
X193604997Y-101069061D01*
X193518552Y-101033254D01*
X193426783Y-101015000D01*
X193333217Y-101015000D01*
X193241448Y-101033254D01*
X193155003Y-101069061D01*
X193077205Y-101121044D01*
X193011044Y-101187205D01*
X192959061Y-101265003D01*
X192923254Y-101351448D01*
X192905000Y-101443217D01*
X175274496Y-101443217D01*
X175299926Y-101359387D01*
X175310700Y-101250000D01*
X175308000Y-100843500D01*
X175168500Y-100704000D01*
X172414000Y-100704000D01*
X172006000Y-100704000D01*
X171986000Y-100704000D01*
X171986000Y-100296000D01*
X172006000Y-100296000D01*
X172006000Y-99331500D01*
X172414000Y-99331500D01*
X172414000Y-100296000D01*
X175168500Y-100296000D01*
X175308000Y-100156500D01*
X175310700Y-99750000D01*
X175299926Y-99640613D01*
X175268019Y-99535429D01*
X175216205Y-99438492D01*
X175146475Y-99353525D01*
X175061508Y-99283795D01*
X174964571Y-99231981D01*
X174859387Y-99200074D01*
X174750000Y-99189300D01*
X172553500Y-99192000D01*
X172414000Y-99331500D01*
X172006000Y-99331500D01*
X171866500Y-99192000D01*
X169670000Y-99189300D01*
X169650000Y-99191270D01*
X169650000Y-93364500D01*
X179323791Y-93364500D01*
X179323791Y-94214500D01*
X179328618Y-94263508D01*
X179342913Y-94310634D01*
X179366127Y-94354064D01*
X179397368Y-94392132D01*
X179435436Y-94423373D01*
X179478866Y-94446587D01*
X179525992Y-94460882D01*
X179575000Y-94465709D01*
X180425000Y-94465709D01*
X180474008Y-94460882D01*
X180521134Y-94446587D01*
X180564564Y-94423373D01*
X180602632Y-94392132D01*
X180633873Y-94354064D01*
X180657087Y-94310634D01*
X180671382Y-94263508D01*
X180676209Y-94214500D01*
X180676209Y-93364500D01*
X180671382Y-93315492D01*
X180657087Y-93268366D01*
X180633873Y-93224936D01*
X180602632Y-93186868D01*
X180564564Y-93155627D01*
X180521134Y-93132413D01*
X180474008Y-93118118D01*
X180425000Y-93113291D01*
X179575000Y-93113291D01*
X179525992Y-93118118D01*
X179478866Y-93132413D01*
X179435436Y-93155627D01*
X179397368Y-93186868D01*
X179366127Y-93224936D01*
X179342913Y-93268366D01*
X179328618Y-93315492D01*
X179323791Y-93364500D01*
X169650000Y-93364500D01*
X169650000Y-85340000D01*
X182439300Y-85340000D01*
X182450074Y-85449387D01*
X182481981Y-85554571D01*
X182533795Y-85651508D01*
X182603525Y-85736475D01*
X182688492Y-85806205D01*
X182785429Y-85858019D01*
X182890613Y-85889926D01*
X183000000Y-85900700D01*
X183406500Y-85898000D01*
X183546000Y-85758500D01*
X183546000Y-83004000D01*
X183954000Y-83004000D01*
X183954000Y-85758500D01*
X184093500Y-85898000D01*
X184500000Y-85900700D01*
X184609387Y-85889926D01*
X184714571Y-85858019D01*
X184811508Y-85806205D01*
X184896475Y-85736475D01*
X184966205Y-85651508D01*
X185018019Y-85554571D01*
X185049926Y-85449387D01*
X185060700Y-85340000D01*
X190939300Y-85340000D01*
X190950074Y-85449387D01*
X190981981Y-85554571D01*
X191033795Y-85651508D01*
X191103525Y-85736475D01*
X191188492Y-85806205D01*
X191285429Y-85858019D01*
X191390613Y-85889926D01*
X191500000Y-85900700D01*
X191906500Y-85898000D01*
X192046000Y-85758500D01*
X192046000Y-83004000D01*
X192454000Y-83004000D01*
X192454000Y-85758500D01*
X192593500Y-85898000D01*
X193000000Y-85900700D01*
X193109387Y-85889926D01*
X193214571Y-85858019D01*
X193311508Y-85806205D01*
X193396475Y-85736475D01*
X193466205Y-85651508D01*
X193518019Y-85554571D01*
X193549926Y-85449387D01*
X193560700Y-85340000D01*
X194439300Y-85340000D01*
X194450074Y-85449387D01*
X194481981Y-85554571D01*
X194533795Y-85651508D01*
X194603525Y-85736475D01*
X194688492Y-85806205D01*
X194785429Y-85858019D01*
X194890613Y-85889926D01*
X195000000Y-85900700D01*
X195406500Y-85898000D01*
X195546000Y-85758500D01*
X195546000Y-83004000D01*
X195954000Y-83004000D01*
X195954000Y-85758500D01*
X196093500Y-85898000D01*
X196500000Y-85900700D01*
X196609387Y-85889926D01*
X196714571Y-85858019D01*
X196811508Y-85806205D01*
X196896475Y-85736475D01*
X196966205Y-85651508D01*
X197018019Y-85554571D01*
X197049926Y-85449387D01*
X197060700Y-85340000D01*
X202939300Y-85340000D01*
X202950074Y-85449387D01*
X202981981Y-85554571D01*
X203033795Y-85651508D01*
X203103525Y-85736475D01*
X203188492Y-85806205D01*
X203285429Y-85858019D01*
X203390613Y-85889926D01*
X203500000Y-85900700D01*
X203906500Y-85898000D01*
X204046000Y-85758500D01*
X204046000Y-83004000D01*
X204454000Y-83004000D01*
X204454000Y-85758500D01*
X204593500Y-85898000D01*
X205000000Y-85900700D01*
X205109387Y-85889926D01*
X205214571Y-85858019D01*
X205311508Y-85806205D01*
X205396475Y-85736475D01*
X205466205Y-85651508D01*
X205518019Y-85554571D01*
X205549926Y-85449387D01*
X205560700Y-85340000D01*
X205558795Y-83790000D01*
X206808791Y-83790000D01*
X206808791Y-85390000D01*
X206813618Y-85439008D01*
X206827913Y-85486134D01*
X206851127Y-85529564D01*
X206882368Y-85567632D01*
X206920436Y-85598873D01*
X206963866Y-85622087D01*
X207010992Y-85636382D01*
X207060000Y-85641209D01*
X208660000Y-85641209D01*
X208709008Y-85636382D01*
X208756134Y-85622087D01*
X208799564Y-85598873D01*
X208837632Y-85567632D01*
X208868873Y-85529564D01*
X208892087Y-85486134D01*
X208906382Y-85439008D01*
X208911209Y-85390000D01*
X208911209Y-84980000D01*
X209049809Y-84980000D01*
X209095598Y-85004475D01*
X209161483Y-85024461D01*
X209230000Y-85031209D01*
X209269585Y-85031209D01*
X209272763Y-85039114D01*
X209332868Y-85131141D01*
X209409772Y-85209674D01*
X209500519Y-85271695D01*
X209601622Y-85314821D01*
X209680500Y-85338000D01*
X209820000Y-85198500D01*
X209820000Y-84796189D01*
X209834461Y-84748517D01*
X209836284Y-84730000D01*
X210180000Y-84730000D01*
X210180000Y-85198500D01*
X210319500Y-85338000D01*
X210398378Y-85314821D01*
X210499481Y-85271695D01*
X210590228Y-85209674D01*
X210667132Y-85131141D01*
X210727237Y-85039114D01*
X210768233Y-84937129D01*
X210788000Y-84869500D01*
X210648500Y-84730000D01*
X210180000Y-84730000D01*
X209836284Y-84730000D01*
X209841209Y-84680000D01*
X209841209Y-84480000D01*
X209840559Y-84473390D01*
X211500420Y-84473390D01*
X211503795Y-84740871D01*
X211559287Y-85002554D01*
X211648537Y-85218022D01*
X211861589Y-85299911D01*
X212571500Y-84590000D01*
X211861589Y-83880089D01*
X211648537Y-83961978D01*
X211549294Y-84210390D01*
X211500420Y-84473390D01*
X209840559Y-84473390D01*
X209834461Y-84411483D01*
X209820000Y-84363811D01*
X209820000Y-83961500D01*
X210180000Y-83961500D01*
X210180000Y-84430000D01*
X210648500Y-84430000D01*
X210788000Y-84290500D01*
X210768233Y-84222871D01*
X210727237Y-84120886D01*
X210667132Y-84028859D01*
X210590228Y-83950326D01*
X210499481Y-83888305D01*
X210398378Y-83845179D01*
X210319500Y-83822000D01*
X210180000Y-83961500D01*
X209820000Y-83961500D01*
X209680500Y-83822000D01*
X209601622Y-83845179D01*
X209500519Y-83888305D01*
X209409772Y-83950326D01*
X209332868Y-84028859D01*
X209272763Y-84120886D01*
X209269585Y-84128791D01*
X209230000Y-84128791D01*
X209161483Y-84135539D01*
X209095598Y-84155525D01*
X209049809Y-84180000D01*
X208911209Y-84180000D01*
X208911209Y-83790000D01*
X208906382Y-83740992D01*
X208892087Y-83693866D01*
X208868873Y-83650436D01*
X208837632Y-83612368D01*
X208812313Y-83591589D01*
X212150089Y-83591589D01*
X212860000Y-84301500D01*
X213569911Y-83591589D01*
X213488022Y-83378537D01*
X213239610Y-83279294D01*
X212976610Y-83230420D01*
X212709129Y-83233795D01*
X212447446Y-83289287D01*
X212231978Y-83378537D01*
X212150089Y-83591589D01*
X208812313Y-83591589D01*
X208799564Y-83581127D01*
X208756134Y-83557913D01*
X208709008Y-83543618D01*
X208660000Y-83538791D01*
X207060000Y-83538791D01*
X207010992Y-83543618D01*
X206963866Y-83557913D01*
X206920436Y-83581127D01*
X206882368Y-83612368D01*
X206851127Y-83650436D01*
X206827913Y-83693866D01*
X206813618Y-83740992D01*
X206808791Y-83790000D01*
X205558795Y-83790000D01*
X205558000Y-83143500D01*
X205418500Y-83004000D01*
X204454000Y-83004000D01*
X204046000Y-83004000D01*
X203081500Y-83004000D01*
X202942000Y-83143500D01*
X202939300Y-85340000D01*
X197060700Y-85340000D01*
X197058000Y-83143500D01*
X196918500Y-83004000D01*
X195954000Y-83004000D01*
X195546000Y-83004000D01*
X194581500Y-83004000D01*
X194442000Y-83143500D01*
X194439300Y-85340000D01*
X193560700Y-85340000D01*
X193558000Y-83143500D01*
X193418500Y-83004000D01*
X192454000Y-83004000D01*
X192046000Y-83004000D01*
X191081500Y-83004000D01*
X190942000Y-83143500D01*
X190939300Y-85340000D01*
X185060700Y-85340000D01*
X185058000Y-83143500D01*
X184918500Y-83004000D01*
X183954000Y-83004000D01*
X183546000Y-83004000D01*
X182581500Y-83004000D01*
X182442000Y-83143500D01*
X182439300Y-85340000D01*
X169650000Y-85340000D01*
X169650000Y-81065000D01*
X170221791Y-81065000D01*
X170221791Y-82765000D01*
X170226618Y-82814008D01*
X170240913Y-82861134D01*
X170264127Y-82904564D01*
X170295368Y-82942632D01*
X170333436Y-82973873D01*
X170376866Y-82997087D01*
X170423992Y-83011382D01*
X170473000Y-83016209D01*
X172173000Y-83016209D01*
X172222008Y-83011382D01*
X172269134Y-82997087D01*
X172312564Y-82973873D01*
X172350632Y-82942632D01*
X172381873Y-82904564D01*
X172405087Y-82861134D01*
X172419382Y-82814008D01*
X172424209Y-82765000D01*
X172424209Y-81065000D01*
X172419382Y-81015992D01*
X172405087Y-80968866D01*
X172381873Y-80925436D01*
X172350632Y-80887368D01*
X172312564Y-80856127D01*
X172269134Y-80832913D01*
X172222008Y-80818618D01*
X172173000Y-80813791D01*
X170473000Y-80813791D01*
X170423992Y-80818618D01*
X170376866Y-80832913D01*
X170333436Y-80856127D01*
X170295368Y-80887368D01*
X170264127Y-80925436D01*
X170240913Y-80968866D01*
X170226618Y-81015992D01*
X170221791Y-81065000D01*
X169650000Y-81065000D01*
X169650000Y-80350000D01*
X182439411Y-80350000D01*
X182442000Y-82456500D01*
G04 #@! TA.AperFunction,Conductor*
G36*
X182442000Y-82456500D02*
G01*
X182581500Y-82596000D01*
X183546000Y-82596000D01*
X183546000Y-82576000D01*
X183954000Y-82576000D01*
X183954000Y-82596000D01*
X184918500Y-82596000D01*
X185058000Y-82456500D01*
X185060589Y-80350000D01*
X190939411Y-80350000D01*
X190942000Y-82456500D01*
X191081500Y-82596000D01*
X192046000Y-82596000D01*
X192046000Y-82576000D01*
X192454000Y-82576000D01*
X192454000Y-82596000D01*
X193418500Y-82596000D01*
X193558000Y-82456500D01*
X193560589Y-80350000D01*
X194439411Y-80350000D01*
X194442000Y-82456500D01*
X194581500Y-82596000D01*
X195546000Y-82596000D01*
X195546000Y-82576000D01*
X195954000Y-82576000D01*
X195954000Y-82596000D01*
X196918500Y-82596000D01*
X197058000Y-82456500D01*
X197060589Y-80350000D01*
X202939411Y-80350000D01*
X202942000Y-82456500D01*
X203081500Y-82596000D01*
X204046000Y-82596000D01*
X204046000Y-82576000D01*
X204454000Y-82576000D01*
X204454000Y-82596000D01*
X205418500Y-82596000D01*
X205558000Y-82456500D01*
X205559642Y-81120000D01*
X222672791Y-81120000D01*
X222672791Y-82820000D01*
X222677618Y-82869008D01*
X222691913Y-82916134D01*
X222715127Y-82959564D01*
X222746368Y-82997632D01*
X222784436Y-83028873D01*
X222827866Y-83052087D01*
X222874992Y-83066382D01*
X222924000Y-83071209D01*
X224624000Y-83071209D01*
X224673008Y-83066382D01*
X224720134Y-83052087D01*
X224763564Y-83028873D01*
X224801632Y-82997632D01*
X224832873Y-82959564D01*
X224856087Y-82916134D01*
X224870382Y-82869008D01*
X224875209Y-82820000D01*
X224875209Y-81120000D01*
X224870382Y-81070992D01*
X224856087Y-81023866D01*
X224832873Y-80980436D01*
X224801632Y-80942368D01*
X224763564Y-80911127D01*
X224720134Y-80887913D01*
X224673008Y-80873618D01*
X224624000Y-80868791D01*
X222924000Y-80868791D01*
X222874992Y-80873618D01*
X222827866Y-80887913D01*
X222784436Y-80911127D01*
X222746368Y-80942368D01*
X222715127Y-80980436D01*
X222691913Y-81023866D01*
X222677618Y-81070992D01*
X222672791Y-81120000D01*
X205559642Y-81120000D01*
X205560589Y-80350000D01*
X225450000Y-80350000D01*
X225450000Y-99689411D01*
X223343500Y-99692000D01*
X223204000Y-99831500D01*
X223204000Y-100796000D01*
X223224000Y-100796000D01*
X223224000Y-101204000D01*
X223204000Y-101204000D01*
X223204000Y-102168500D01*
X223343500Y-102308000D01*
X225450000Y-102310589D01*
X225450001Y-108189411D01*
X223343500Y-108192000D01*
X223204000Y-108331500D01*
X223204000Y-109296000D01*
X223224000Y-109296000D01*
X223224000Y-109704000D01*
X223204000Y-109704000D01*
X223204000Y-110668500D01*
X223343500Y-110808000D01*
X225450001Y-110810589D01*
X225450001Y-129750000D01*
X205559715Y-129750000D01*
X205560700Y-129740000D01*
X205558000Y-127543500D01*
X205418500Y-127404000D01*
X204454000Y-127404000D01*
X204454000Y-127424000D01*
X204046000Y-127424000D01*
X204046000Y-127404000D01*
X203081500Y-127404000D01*
X202942000Y-127543500D01*
X202939300Y-129740000D01*
X202940285Y-129750000D01*
X197059715Y-129750000D01*
X197060700Y-129740000D01*
X197058000Y-127543500D01*
X196918500Y-127404000D01*
X195954000Y-127404000D01*
X195954000Y-127424000D01*
X195546000Y-127424000D01*
X195546000Y-127404000D01*
X194581500Y-127404000D01*
X194442000Y-127543500D01*
X194439300Y-129740000D01*
X194440285Y-129750000D01*
X193559715Y-129750000D01*
X193560700Y-129740000D01*
X193558000Y-127543500D01*
X193418500Y-127404000D01*
X192454000Y-127404000D01*
X192454000Y-127424000D01*
X192046000Y-127424000D01*
X192046000Y-127404000D01*
X191081500Y-127404000D01*
X190942000Y-127543500D01*
X190939300Y-129740000D01*
X190940285Y-129750000D01*
X185059715Y-129750000D01*
X185060700Y-129740000D01*
X185058000Y-127543500D01*
X184918500Y-127404000D01*
X183954000Y-127404000D01*
X183954000Y-127424000D01*
X183546000Y-127424000D01*
X183546000Y-127404000D01*
X182581500Y-127404000D01*
X182442000Y-127543500D01*
X182439300Y-129740000D01*
X182440285Y-129750000D01*
X169650000Y-129750000D01*
X169650000Y-127293000D01*
X170221791Y-127293000D01*
X170221791Y-128993000D01*
X170226618Y-129042008D01*
X170240913Y-129089134D01*
X170264127Y-129132564D01*
X170295368Y-129170632D01*
X170333436Y-129201873D01*
X170376866Y-129225087D01*
X170423992Y-129239382D01*
X170473000Y-129244209D01*
X172173000Y-129244209D01*
X172222008Y-129239382D01*
X172269134Y-129225087D01*
X172312564Y-129201873D01*
X172350632Y-129170632D01*
X172381873Y-129132564D01*
X172405087Y-129089134D01*
X172419382Y-129042008D01*
X172424209Y-128993000D01*
X172424209Y-127293000D01*
X172419382Y-127243992D01*
X172405087Y-127196866D01*
X172381873Y-127153436D01*
X172350632Y-127115368D01*
X172312564Y-127084127D01*
X172269134Y-127060913D01*
X172222008Y-127046618D01*
X172173000Y-127041791D01*
X170473000Y-127041791D01*
X170423992Y-127046618D01*
X170376866Y-127060913D01*
X170333436Y-127084127D01*
X170295368Y-127115368D01*
X170264127Y-127153436D01*
X170240913Y-127196866D01*
X170226618Y-127243992D01*
X170221791Y-127293000D01*
X169650000Y-127293000D01*
X169650000Y-124660000D01*
X182439300Y-124660000D01*
X182442000Y-126856500D01*
X182581500Y-126996000D01*
X183546000Y-126996000D01*
X183546000Y-124241500D01*
X183954000Y-124241500D01*
X183954000Y-126996000D01*
X184918500Y-126996000D01*
X185058000Y-126856500D01*
X185060700Y-124660000D01*
X190939300Y-124660000D01*
X190942000Y-126856500D01*
X191081500Y-126996000D01*
X192046000Y-126996000D01*
X192046000Y-124241500D01*
X192454000Y-124241500D01*
X192454000Y-126996000D01*
X193418500Y-126996000D01*
X193558000Y-126856500D01*
X193560700Y-124660000D01*
X194439300Y-124660000D01*
X194442000Y-126856500D01*
X194581500Y-126996000D01*
X195546000Y-126996000D01*
X195546000Y-124241500D01*
X195954000Y-124241500D01*
X195954000Y-126996000D01*
X196918500Y-126996000D01*
X197058000Y-126856500D01*
X197060700Y-124660000D01*
X202939300Y-124660000D01*
X202942000Y-126856500D01*
X203081500Y-126996000D01*
X204046000Y-126996000D01*
X204046000Y-124241500D01*
X204454000Y-124241500D01*
X204454000Y-126996000D01*
X205418500Y-126996000D01*
X205558000Y-126856500D01*
X205558079Y-126791517D01*
X209815843Y-126791517D01*
X209920993Y-127036087D01*
X210071836Y-127255444D01*
X210262575Y-127441158D01*
X210485880Y-127586093D01*
X210698484Y-127674148D01*
X210906000Y-127581302D01*
X210906000Y-126584000D01*
X211314000Y-126584000D01*
X211314000Y-127581302D01*
X211521516Y-127674148D01*
X211734120Y-127586093D01*
X211957425Y-127441158D01*
X212109591Y-127293000D01*
X222672791Y-127293000D01*
X222672791Y-128993000D01*
X222677618Y-129042008D01*
X222691913Y-129089134D01*
X222715127Y-129132564D01*
X222746368Y-129170632D01*
X222784436Y-129201873D01*
X222827866Y-129225087D01*
X222874992Y-129239382D01*
X222924000Y-129244209D01*
X224624000Y-129244209D01*
X224673008Y-129239382D01*
X224720134Y-129225087D01*
X224763564Y-129201873D01*
X224801632Y-129170632D01*
X224832873Y-129132564D01*
X224856087Y-129089134D01*
X224870382Y-129042008D01*
X224875209Y-128993000D01*
X224875209Y-127293000D01*
X224870382Y-127243992D01*
X224856087Y-127196866D01*
X224832873Y-127153436D01*
X224801632Y-127115368D01*
X224763564Y-127084127D01*
X224720134Y-127060913D01*
X224673008Y-127046618D01*
X224624000Y-127041791D01*
X222924000Y-127041791D01*
X222874992Y-127046618D01*
X222827866Y-127060913D01*
X222784436Y-127084127D01*
X222746368Y-127115368D01*
X222715127Y-127153436D01*
X222691913Y-127196866D01*
X222677618Y-127243992D01*
X222672791Y-127293000D01*
X212109591Y-127293000D01*
X212148164Y-127255444D01*
X212299007Y-127036087D01*
X212404157Y-126791517D01*
X212313099Y-126584000D01*
X211314000Y-126584000D01*
X210906000Y-126584000D01*
X209906901Y-126584000D01*
X209815843Y-126791517D01*
X205558079Y-126791517D01*
X205559091Y-125968483D01*
X209815843Y-125968483D01*
X209906901Y-126176000D01*
X210906000Y-126176000D01*
X210906000Y-125178698D01*
X211314000Y-125178698D01*
X211314000Y-126176000D01*
X212313099Y-126176000D01*
X212404157Y-125968483D01*
X212299007Y-125723913D01*
X212148164Y-125504556D01*
X211957425Y-125318842D01*
X211734120Y-125173907D01*
X211521516Y-125085852D01*
X211314000Y-125178698D01*
X210906000Y-125178698D01*
X210698484Y-125085852D01*
X210485880Y-125173907D01*
X210262575Y-125318842D01*
X210071836Y-125504556D01*
X209920993Y-125723913D01*
X209815843Y-125968483D01*
X205559091Y-125968483D01*
X205560700Y-124660000D01*
X205549926Y-124550613D01*
X205518019Y-124445429D01*
X205467898Y-124351659D01*
X213657000Y-124351659D01*
X213657000Y-124568341D01*
X213699273Y-124780858D01*
X213782193Y-124981045D01*
X213902575Y-125161209D01*
X214055791Y-125314425D01*
X214235955Y-125434807D01*
X214436142Y-125517727D01*
X214648659Y-125560000D01*
X214865341Y-125560000D01*
X215077858Y-125517727D01*
X215278045Y-125434807D01*
X215458209Y-125314425D01*
X215611425Y-125161209D01*
X215731807Y-124981045D01*
X215814727Y-124780858D01*
X215857000Y-124568341D01*
X215857000Y-124351659D01*
X215814727Y-124139142D01*
X215731807Y-123938955D01*
X215611425Y-123758791D01*
X215458209Y-123605575D01*
X215278045Y-123485193D01*
X215077858Y-123402273D01*
X214865341Y-123360000D01*
X214648659Y-123360000D01*
X214436142Y-123402273D01*
X214235955Y-123485193D01*
X214055791Y-123605575D01*
X213902575Y-123758791D01*
X213782193Y-123938955D01*
X213699273Y-124139142D01*
X213657000Y-124351659D01*
X205467898Y-124351659D01*
X205466205Y-124348492D01*
X205396475Y-124263525D01*
X205311508Y-124193795D01*
X205214571Y-124141981D01*
X205109387Y-124110074D01*
X205000000Y-124099300D01*
X204593500Y-124102000D01*
X204454000Y-124241500D01*
X204046000Y-124241500D01*
X203906500Y-124102000D01*
X203500000Y-124099300D01*
X203390613Y-124110074D01*
X203285429Y-124141981D01*
X203188492Y-124193795D01*
X203103525Y-124263525D01*
X203033795Y-124348492D01*
X202981981Y-124445429D01*
X202950074Y-124550613D01*
X202939300Y-124660000D01*
X197060700Y-124660000D01*
X197049926Y-124550613D01*
X197018019Y-124445429D01*
X196966205Y-124348492D01*
X196896475Y-124263525D01*
X196811508Y-124193795D01*
X196714571Y-124141981D01*
X196609387Y-124110074D01*
X196500000Y-124099300D01*
X196093500Y-124102000D01*
X195954000Y-124241500D01*
X195546000Y-124241500D01*
X195406500Y-124102000D01*
X195000000Y-124099300D01*
X194890613Y-124110074D01*
X194785429Y-124141981D01*
X194688492Y-124193795D01*
X194603525Y-124263525D01*
X194533795Y-124348492D01*
X194481981Y-124445429D01*
X194450074Y-124550613D01*
X194439300Y-124660000D01*
X193560700Y-124660000D01*
X193549926Y-124550613D01*
X193518019Y-124445429D01*
X193466205Y-124348492D01*
X193396475Y-124263525D01*
X193311508Y-124193795D01*
X193214571Y-124141981D01*
X193109387Y-124110074D01*
X193000000Y-124099300D01*
X192593500Y-124102000D01*
X192454000Y-124241500D01*
X192046000Y-124241500D01*
X191906500Y-124102000D01*
X191500000Y-124099300D01*
X191390613Y-124110074D01*
X191285429Y-124141981D01*
X191188492Y-124193795D01*
X191103525Y-124263525D01*
X191033795Y-124348492D01*
X190981981Y-124445429D01*
X190950074Y-124550613D01*
X190939300Y-124660000D01*
X185060700Y-124660000D01*
X185049926Y-124550613D01*
X185018019Y-124445429D01*
X184966205Y-124348492D01*
X184896475Y-124263525D01*
X184811508Y-124193795D01*
X184714571Y-124141981D01*
X184609387Y-124110074D01*
X184500000Y-124099300D01*
X184093500Y-124102000D01*
X183954000Y-124241500D01*
X183546000Y-124241500D01*
X183406500Y-124102000D01*
X183000000Y-124099300D01*
X182890613Y-124110074D01*
X182785429Y-124141981D01*
X182688492Y-124193795D01*
X182603525Y-124263525D01*
X182533795Y-124348492D01*
X182481981Y-124445429D01*
X182450074Y-124550613D01*
X182439300Y-124660000D01*
X169650000Y-124660000D01*
X169650000Y-122339424D01*
X213412922Y-122339424D01*
X213510009Y-122573834D01*
X213661526Y-122804547D01*
X213855142Y-123001267D01*
X214083416Y-123156434D01*
X214337575Y-123264086D01*
X214553000Y-123173651D01*
X214553000Y-122124000D01*
X214961000Y-122124000D01*
X214961000Y-123173651D01*
X215176425Y-123264086D01*
X215430584Y-123156434D01*
X215658858Y-123001267D01*
X215852474Y-122804547D01*
X216003991Y-122573834D01*
X216101078Y-122339424D01*
X216008989Y-122124000D01*
X214961000Y-122124000D01*
X214553000Y-122124000D01*
X213505011Y-122124000D01*
X213412922Y-122339424D01*
X169650000Y-122339424D01*
X169650000Y-121500576D01*
X213412922Y-121500576D01*
X213505011Y-121716000D01*
X214553000Y-121716000D01*
X214553000Y-120666349D01*
X214961000Y-120666349D01*
X214961000Y-121716000D01*
X216008989Y-121716000D01*
X216101078Y-121500576D01*
X216003991Y-121266166D01*
X215852474Y-121035453D01*
X215658858Y-120838733D01*
X215430584Y-120683566D01*
X215176425Y-120575914D01*
X214961000Y-120666349D01*
X214553000Y-120666349D01*
X214337575Y-120575914D01*
X214083416Y-120683566D01*
X213855142Y-120838733D01*
X213661526Y-121035453D01*
X213510009Y-121266166D01*
X213412922Y-121500576D01*
X169650000Y-121500576D01*
X169650000Y-119895599D01*
X173940000Y-119895599D01*
X173940000Y-120104401D01*
X173980735Y-120309191D01*
X174060640Y-120502098D01*
X174176644Y-120675711D01*
X174324289Y-120823356D01*
X174497902Y-120939360D01*
X174690809Y-121019265D01*
X174895599Y-121060000D01*
X175104401Y-121060000D01*
X175309191Y-121019265D01*
X175502098Y-120939360D01*
X175675711Y-120823356D01*
X175823356Y-120675711D01*
X175939360Y-120502098D01*
X176019265Y-120309191D01*
X176060000Y-120104401D01*
X176060000Y-119895599D01*
X178940000Y-119895599D01*
X178940000Y-120104401D01*
X178980735Y-120309191D01*
X179060640Y-120502098D01*
X179176644Y-120675711D01*
X179324289Y-120823356D01*
X179497902Y-120939360D01*
X179690809Y-121019265D01*
X179895599Y-121060000D01*
X180104401Y-121060000D01*
X180309191Y-121019265D01*
X180502098Y-120939360D01*
X180675711Y-120823356D01*
X180823356Y-120675711D01*
X180939360Y-120502098D01*
X181019265Y-120309191D01*
X181060000Y-120104401D01*
X181060000Y-119895599D01*
X181019265Y-119690809D01*
X180939360Y-119497902D01*
X180823356Y-119324289D01*
X180675711Y-119176644D01*
X180502098Y-119060640D01*
X180309191Y-118980735D01*
X180104401Y-118940000D01*
X179895599Y-118940000D01*
X179690809Y-118980735D01*
X179497902Y-119060640D01*
X179324289Y-119176644D01*
X179176644Y-119324289D01*
X179060640Y-119497902D01*
X178980735Y-119690809D01*
X178940000Y-119895599D01*
X176060000Y-119895599D01*
X176019265Y-119690809D01*
X175939360Y-119497902D01*
X175823356Y-119324289D01*
X175675711Y-119176644D01*
X175502098Y-119060640D01*
X175309191Y-118980735D01*
X175104401Y-118940000D01*
X174895599Y-118940000D01*
X174690809Y-118980735D01*
X174497902Y-119060640D01*
X174324289Y-119176644D01*
X174176644Y-119324289D01*
X174060640Y-119497902D01*
X173980735Y-119690809D01*
X173940000Y-119895599D01*
X169650000Y-119895599D01*
X169650000Y-117395599D01*
X176440000Y-117395599D01*
X176440000Y-117604401D01*
X176480735Y-117809191D01*
X176560640Y-118002098D01*
X176676644Y-118175711D01*
X176824289Y-118323356D01*
X176997902Y-118439360D01*
X177190809Y-118519265D01*
X177395599Y-118560000D01*
X177604401Y-118560000D01*
X177755222Y-118530000D01*
X213655791Y-118530000D01*
X213655791Y-120230000D01*
X213660618Y-120279008D01*
X213674913Y-120326134D01*
X213698127Y-120369564D01*
X213729368Y-120407632D01*
X213767436Y-120438873D01*
X213810866Y-120462087D01*
X213857992Y-120476382D01*
X213907000Y-120481209D01*
X215607000Y-120481209D01*
X215656008Y-120476382D01*
X215703134Y-120462087D01*
X215746564Y-120438873D01*
X215784632Y-120407632D01*
X215815873Y-120369564D01*
X215839087Y-120326134D01*
X215853382Y-120279008D01*
X215858209Y-120230000D01*
X215858209Y-119780000D01*
X217785354Y-119780000D01*
X217805000Y-119781935D01*
X217824646Y-119780000D01*
X217824647Y-119780000D01*
X217883414Y-119774212D01*
X217958814Y-119751340D01*
X218028303Y-119714197D01*
X218089211Y-119664211D01*
X218101737Y-119648948D01*
X218962954Y-118787732D01*
X218978211Y-118775211D01*
X219028197Y-118714303D01*
X219028198Y-118714302D01*
X219065340Y-118644815D01*
X219088212Y-118569414D01*
X219095935Y-118491000D01*
X219094000Y-118471353D01*
X219094000Y-110250000D01*
X219899300Y-110250000D01*
X219910074Y-110359387D01*
X219941981Y-110464571D01*
X219993795Y-110561508D01*
X220063525Y-110646475D01*
X220148492Y-110716205D01*
X220245429Y-110768019D01*
X220350613Y-110799926D01*
X220460000Y-110810700D01*
X222656500Y-110808000D01*
X222796000Y-110668500D01*
X222796000Y-109704000D01*
X220041500Y-109704000D01*
X219902000Y-109843500D01*
X219899300Y-110250000D01*
X219094000Y-110250000D01*
X219094000Y-108750000D01*
X219899300Y-108750000D01*
X219902000Y-109156500D01*
X220041500Y-109296000D01*
X222796000Y-109296000D01*
X222796000Y-108331500D01*
X222656500Y-108192000D01*
X220460000Y-108189300D01*
X220350613Y-108200074D01*
X220245429Y-108231981D01*
X220148492Y-108283795D01*
X220063525Y-108353525D01*
X219993795Y-108438492D01*
X219941981Y-108535429D01*
X219910074Y-108640613D01*
X219899300Y-108750000D01*
X219094000Y-108750000D01*
X219094000Y-101750000D01*
X219899300Y-101750000D01*
X219910074Y-101859387D01*
X219941981Y-101964571D01*
X219993795Y-102061508D01*
X220063525Y-102146475D01*
X220148492Y-102216205D01*
X220245429Y-102268019D01*
X220350613Y-102299926D01*
X220460000Y-102310700D01*
X222656500Y-102308000D01*
X222796000Y-102168500D01*
X222796000Y-101204000D01*
X220041500Y-101204000D01*
X219902000Y-101343500D01*
X219899300Y-101750000D01*
X219094000Y-101750000D01*
X219094000Y-100250000D01*
X219899300Y-100250000D01*
X219902000Y-100656500D01*
X220041500Y-100796000D01*
X222796000Y-100796000D01*
X222796000Y-99831500D01*
X222656500Y-99692000D01*
X220460000Y-99689300D01*
X220350613Y-99700074D01*
X220245429Y-99731981D01*
X220148492Y-99783795D01*
X220063525Y-99853525D01*
X219993795Y-99938492D01*
X219941981Y-100035429D01*
X219910074Y-100140613D01*
X219899300Y-100250000D01*
X219094000Y-100250000D01*
X219094000Y-99673635D01*
X219095934Y-99653999D01*
X219094000Y-99634363D01*
X219094000Y-99634353D01*
X219088212Y-99575586D01*
X219065340Y-99500186D01*
X219038320Y-99449636D01*
X219026746Y-99391448D01*
X218990939Y-99305003D01*
X218938956Y-99227205D01*
X218872795Y-99161044D01*
X218794997Y-99109061D01*
X218708552Y-99073254D01*
X218616783Y-99055000D01*
X218523217Y-99055000D01*
X218431448Y-99073254D01*
X218345003Y-99109061D01*
X218267205Y-99161044D01*
X218201044Y-99227205D01*
X218149061Y-99305003D01*
X218113254Y-99391448D01*
X218095000Y-99483217D01*
X218095000Y-99576783D01*
X218113254Y-99668552D01*
X218149061Y-99754997D01*
X218201044Y-99832795D01*
X218267205Y-99898956D01*
X218294001Y-99916861D01*
X218294000Y-118325314D01*
X217639315Y-118980000D01*
X215858209Y-118980000D01*
X215858209Y-118530000D01*
X215853382Y-118480992D01*
X215839087Y-118433866D01*
X215815873Y-118390436D01*
X215784632Y-118352368D01*
X215746564Y-118321127D01*
X215703134Y-118297913D01*
X215656008Y-118283618D01*
X215607000Y-118278791D01*
X213907000Y-118278791D01*
X213857992Y-118283618D01*
X213810866Y-118297913D01*
X213767436Y-118321127D01*
X213729368Y-118352368D01*
X213698127Y-118390436D01*
X213674913Y-118433866D01*
X213660618Y-118480992D01*
X213655791Y-118530000D01*
X177755222Y-118530000D01*
X177809191Y-118519265D01*
X178002098Y-118439360D01*
X178175711Y-118323356D01*
X178323356Y-118175711D01*
X178439360Y-118002098D01*
X178519265Y-117809191D01*
X178560000Y-117604401D01*
X178560000Y-117395599D01*
X178519265Y-117190809D01*
X178439360Y-116997902D01*
X178323356Y-116824289D01*
X178175711Y-116676644D01*
X178002098Y-116560640D01*
X177809191Y-116480735D01*
X177604401Y-116440000D01*
X177395599Y-116440000D01*
X177190809Y-116480735D01*
X176997902Y-116560640D01*
X176824289Y-116676644D01*
X176676644Y-116824289D01*
X176560640Y-116997902D01*
X176480735Y-117190809D01*
X176440000Y-117395599D01*
X169650000Y-117395599D01*
X169650000Y-116276584D01*
X210060000Y-116276584D01*
X210060000Y-116483416D01*
X210100350Y-116686274D01*
X210179502Y-116877362D01*
X210294411Y-117049336D01*
X210440664Y-117195589D01*
X210612638Y-117310498D01*
X210803726Y-117389650D01*
X211006584Y-117430000D01*
X211213416Y-117430000D01*
X211416274Y-117389650D01*
X211607362Y-117310498D01*
X211779336Y-117195589D01*
X211925589Y-117049336D01*
X212040498Y-116877362D01*
X212119650Y-116686274D01*
X212160000Y-116483416D01*
X212160000Y-116276584D01*
X212119650Y-116073726D01*
X212040498Y-115882638D01*
X211925589Y-115710664D01*
X211779336Y-115564411D01*
X211607362Y-115449502D01*
X211416274Y-115370350D01*
X211213416Y-115330000D01*
X211006584Y-115330000D01*
X210803726Y-115370350D01*
X210612638Y-115449502D01*
X210440664Y-115564411D01*
X210294411Y-115710664D01*
X210179502Y-115882638D01*
X210100350Y-116073726D01*
X210060000Y-116276584D01*
X169650000Y-116276584D01*
X169650000Y-114256000D01*
X179323791Y-114256000D01*
X179323791Y-115106000D01*
X179328618Y-115155008D01*
X179342913Y-115202134D01*
X179366127Y-115245564D01*
X179397368Y-115283632D01*
X179435436Y-115314873D01*
X179478866Y-115338087D01*
X179525992Y-115352382D01*
X179575000Y-115357209D01*
X180425000Y-115357209D01*
X180474008Y-115352382D01*
X180521134Y-115338087D01*
X180564564Y-115314873D01*
X180602632Y-115283632D01*
X180633873Y-115245564D01*
X180657087Y-115202134D01*
X180671382Y-115155008D01*
X180676209Y-115106000D01*
X180676209Y-114256000D01*
X180671382Y-114206992D01*
X180657087Y-114159866D01*
X180633873Y-114116436D01*
X180602632Y-114078368D01*
X180564564Y-114047127D01*
X180521134Y-114023913D01*
X180474008Y-114009618D01*
X180425000Y-114004791D01*
X179575000Y-114004791D01*
X179525992Y-114009618D01*
X179478866Y-114023913D01*
X179435436Y-114047127D01*
X179397368Y-114078368D01*
X179366127Y-114116436D01*
X179342913Y-114159866D01*
X179328618Y-114206992D01*
X179323791Y-114256000D01*
X169650000Y-114256000D01*
X169650000Y-110308730D01*
X169670000Y-110310700D01*
X171866500Y-110308000D01*
X172006000Y-110168500D01*
X172006000Y-109204000D01*
X172414000Y-109204000D01*
X172414000Y-110168500D01*
X172553500Y-110308000D01*
X174750000Y-110310700D01*
X174859387Y-110299926D01*
X174964571Y-110268019D01*
X175061508Y-110216205D01*
X175146475Y-110146475D01*
X175216205Y-110061508D01*
X175268019Y-109964571D01*
X175299926Y-109859387D01*
X175310700Y-109750000D01*
X175308000Y-109343500D01*
X175168500Y-109204000D01*
X172414000Y-109204000D01*
X172006000Y-109204000D01*
X171986000Y-109204000D01*
X171986000Y-108796000D01*
X172006000Y-108796000D01*
X172006000Y-107831500D01*
X172414000Y-107831500D01*
X172414000Y-108796000D01*
X175168500Y-108796000D01*
X175308000Y-108656500D01*
X175310700Y-108250000D01*
X175299926Y-108140613D01*
X175268019Y-108035429D01*
X175216205Y-107938492D01*
X175146475Y-107853525D01*
X175061508Y-107783795D01*
X174964571Y-107731981D01*
X174859387Y-107700074D01*
X174750000Y-107689300D01*
X172553500Y-107692000D01*
X172414000Y-107831500D01*
X172006000Y-107831500D01*
X171866500Y-107692000D01*
X169670000Y-107689300D01*
X169650000Y-107691270D01*
X169650000Y-101808730D01*
X169670000Y-101810700D01*
X171866500Y-101808000D01*
X172006000Y-101668500D01*
X172006000Y-100704000D01*
X172414000Y-100704000D01*
X172414000Y-101668500D01*
X172553500Y-101808000D01*
X174750000Y-101810700D01*
X174859387Y-101799926D01*
X174964571Y-101768019D01*
X175061508Y-101716205D01*
X175146475Y-101646475D01*
X175216205Y-101561508D01*
X175268019Y-101464571D01*
X175274496Y-101443217D01*
X192905000Y-101443217D01*
X192905000Y-101536783D01*
X192923254Y-101628552D01*
X192959061Y-101714997D01*
X193011044Y-101792795D01*
X193077205Y-101858956D01*
X193155003Y-101910939D01*
X193241448Y-101946746D01*
X193278414Y-101954099D01*
X194833263Y-103508948D01*
X194845789Y-103524211D01*
X194861050Y-103536735D01*
X194906697Y-103574197D01*
X194976186Y-103611340D01*
X195051586Y-103634212D01*
X195130000Y-103641935D01*
X195149647Y-103640000D01*
X198354315Y-103640000D01*
X198610000Y-103895685D01*
X198610001Y-108890344D01*
X198608065Y-108910000D01*
X198615788Y-108988413D01*
X198638661Y-109063814D01*
X198675803Y-109133302D01*
X198713265Y-109178950D01*
X198713268Y-109178953D01*
X198725790Y-109194211D01*
X198741048Y-109206733D01*
X199933263Y-110398948D01*
X199945789Y-110414211D01*
X199961050Y-110426735D01*
X200006697Y-110464197D01*
X200076186Y-110501340D01*
X200151586Y-110524212D01*
X200230000Y-110531935D01*
X200249647Y-110530000D01*
X209173666Y-110530000D01*
X209205003Y-110550939D01*
X209291448Y-110586746D01*
X209383217Y-110605000D01*
X209476783Y-110605000D01*
X209568552Y-110586746D01*
X209654997Y-110550939D01*
X209732795Y-110498956D01*
X209798956Y-110432795D01*
X209850939Y-110354997D01*
X209886746Y-110268552D01*
X209905000Y-110176783D01*
X209905000Y-110083217D01*
X209886746Y-109991448D01*
X209861293Y-109930000D01*
X210594315Y-109930000D01*
X211470000Y-110805686D01*
X211470001Y-112593664D01*
X211449061Y-112625003D01*
X211413254Y-112711448D01*
X211395000Y-112803217D01*
X211395000Y-112896783D01*
X211413254Y-112988552D01*
X211449061Y-113074997D01*
X211501044Y-113152795D01*
X211567205Y-113218956D01*
X211645003Y-113270939D01*
X211731448Y-113306746D01*
X211823217Y-113325000D01*
X211916783Y-113325000D01*
X212008552Y-113306746D01*
X212094997Y-113270939D01*
X212172795Y-113218956D01*
X212238956Y-113152795D01*
X212290939Y-113074997D01*
X212326746Y-112988552D01*
X212345000Y-112896783D01*
X212345000Y-112803217D01*
X212326746Y-112711448D01*
X212290939Y-112625003D01*
X212270000Y-112593666D01*
X212270000Y-110659643D01*
X212271935Y-110639999D01*
X212270000Y-110620353D01*
X212264212Y-110561586D01*
X212241340Y-110486186D01*
X212204197Y-110416697D01*
X212154211Y-110355789D01*
X212138954Y-110343268D01*
X211056735Y-109261050D01*
X211044211Y-109245789D01*
X210983303Y-109195803D01*
X210913814Y-109158660D01*
X210838414Y-109135788D01*
X210779647Y-109130000D01*
X210779646Y-109130000D01*
X210760000Y-109128065D01*
X210740354Y-109130000D01*
X200615685Y-109130000D01*
X200068902Y-108583217D01*
X202025000Y-108583217D01*
X202025000Y-108676783D01*
X202043254Y-108768552D01*
X202079061Y-108854997D01*
X202131044Y-108932795D01*
X202197205Y-108998956D01*
X202275003Y-109050939D01*
X202361448Y-109086746D01*
X202453217Y-109105000D01*
X202546783Y-109105000D01*
X202638552Y-109086746D01*
X202724997Y-109050939D01*
X202756334Y-109030000D01*
X209980354Y-109030000D01*
X210000000Y-109031935D01*
X210019646Y-109030000D01*
X210019647Y-109030000D01*
X210078414Y-109024212D01*
X210153814Y-109001340D01*
X210223303Y-108964197D01*
X210284211Y-108914211D01*
X210296737Y-108898948D01*
X210728953Y-108466733D01*
X210744211Y-108454211D01*
X210757112Y-108438492D01*
X210794196Y-108393304D01*
X210794197Y-108393303D01*
X210831340Y-108323814D01*
X210854212Y-108248414D01*
X210860000Y-108189647D01*
X210860000Y-108189637D01*
X210861934Y-108170001D01*
X210860000Y-108150365D01*
X210860000Y-99705685D01*
X211938948Y-98626737D01*
X211954211Y-98614211D01*
X212004197Y-98553303D01*
X212041340Y-98483814D01*
X212064212Y-98408414D01*
X212070000Y-98349647D01*
X212070000Y-98995456D01*
X212039713Y-99015693D01*
X211945693Y-99109713D01*
X211871823Y-99220268D01*
X211820940Y-99343110D01*
X211795000Y-99473518D01*
X211795000Y-99606482D01*
X211820940Y-99736890D01*
X211871823Y-99859732D01*
X211945693Y-99970287D01*
X212039713Y-100064307D01*
X212150268Y-100138177D01*
X212273110Y-100189060D01*
X212403518Y-100215000D01*
X212536482Y-100215000D01*
X212666890Y-100189060D01*
X212789732Y-100138177D01*
X212837512Y-100106252D01*
X212867368Y-100142632D01*
X212905436Y-100173873D01*
X212948866Y-100197087D01*
X212995992Y-100211382D01*
X213045000Y-100216209D01*
X213895000Y-100216209D01*
X213944008Y-100211382D01*
X213991134Y-100197087D01*
X214034564Y-100173873D01*
X214072632Y-100142632D01*
X214103873Y-100104564D01*
X214127087Y-100061134D01*
X214141382Y-100014008D01*
X214146209Y-99965000D01*
X214146209Y-99115000D01*
X214141382Y-99065992D01*
X214127087Y-99018866D01*
X214103873Y-98975436D01*
X214072632Y-98937368D01*
X214034564Y-98906127D01*
X213991134Y-98882913D01*
X213944008Y-98868618D01*
X213895000Y-98863791D01*
X213870000Y-98863791D01*
X213870000Y-98829647D01*
X213871935Y-98810000D01*
X213864212Y-98731586D01*
X213841340Y-98656186D01*
X213819319Y-98614988D01*
X213804197Y-98586697D01*
X213754211Y-98525789D01*
X213738943Y-98513259D01*
X213670000Y-98444316D01*
X213670000Y-98291046D01*
X213675788Y-98349813D01*
X213698661Y-98425214D01*
X213735803Y-98494702D01*
X213773265Y-98540350D01*
X213773268Y-98540353D01*
X213785790Y-98555611D01*
X213801048Y-98568133D01*
X215095267Y-99862353D01*
X215107789Y-99877611D01*
X215123047Y-99890133D01*
X215123049Y-99890135D01*
X215132077Y-99897544D01*
X215168697Y-99927597D01*
X215238186Y-99964740D01*
X215313586Y-99987612D01*
X215372353Y-99993400D01*
X215372363Y-99993400D01*
X215391999Y-99995334D01*
X215411635Y-99993400D01*
X217213854Y-99993400D01*
X217233500Y-99995335D01*
X217253146Y-99993400D01*
X217253147Y-99993400D01*
X217311914Y-99987612D01*
X217387314Y-99964740D01*
X217456803Y-99927597D01*
X217517711Y-99877611D01*
X217530237Y-99862348D01*
X219373085Y-98019500D01*
X220962000Y-98019500D01*
X220981767Y-98087129D01*
X221022763Y-98189114D01*
X221082868Y-98281141D01*
X221159772Y-98359674D01*
X221250519Y-98421695D01*
X221351622Y-98464821D01*
X221430500Y-98488000D01*
X221570000Y-98348500D01*
X221570000Y-97880000D01*
X221101500Y-97880000D01*
X220962000Y-98019500D01*
X219373085Y-98019500D01*
X219952085Y-97440500D01*
X220962000Y-97440500D01*
X221101500Y-97580000D01*
X221570000Y-97580000D01*
X221570000Y-97111500D01*
X221430500Y-96972000D01*
X221351622Y-96995179D01*
X221250519Y-97038305D01*
X221159772Y-97100326D01*
X221082868Y-97178859D01*
X221022763Y-97270886D01*
X220981767Y-97372871D01*
X220962000Y-97440500D01*
X219952085Y-97440500D01*
X220044552Y-97348034D01*
X220048439Y-97345302D01*
X220072351Y-97320235D01*
X220082935Y-97309651D01*
X220085939Y-97305991D01*
X220102825Y-97288289D01*
X220110869Y-97275613D01*
X220120397Y-97264003D01*
X220131935Y-97242417D01*
X220145043Y-97221761D01*
X220150459Y-97207762D01*
X220157539Y-97194515D01*
X220164646Y-97171087D01*
X220166348Y-97166687D01*
X220170338Y-97152322D01*
X220180412Y-97119114D01*
X220180879Y-97114377D01*
X220229650Y-96938801D01*
X220282156Y-96886295D01*
X220334139Y-96808497D01*
X220369946Y-96722052D01*
X220388200Y-96630283D01*
X220388200Y-96536717D01*
X220369946Y-96444948D01*
X220334139Y-96358503D01*
X220282156Y-96280705D01*
X220215995Y-96214544D01*
X220138197Y-96162561D01*
X220051752Y-96126754D01*
X219959983Y-96108500D01*
X219866417Y-96108500D01*
X219774648Y-96126754D01*
X219688203Y-96162561D01*
X219610405Y-96214544D01*
X219544900Y-96280049D01*
X219479395Y-96214544D01*
X219401597Y-96162561D01*
X219315152Y-96126754D01*
X219223383Y-96108500D01*
X219129817Y-96108500D01*
X219038048Y-96126754D01*
X218951603Y-96162561D01*
X218873805Y-96214544D01*
X218814650Y-96273699D01*
X218755495Y-96214544D01*
X218677697Y-96162561D01*
X218591252Y-96126754D01*
X218499483Y-96108500D01*
X218405917Y-96108500D01*
X218314148Y-96126754D01*
X218227703Y-96162561D01*
X218149905Y-96214544D01*
X218083744Y-96280705D01*
X218031761Y-96358503D01*
X217995954Y-96444948D01*
X217988601Y-96481913D01*
X216445515Y-98025000D01*
X216167003Y-98025000D01*
X216177087Y-98006134D01*
X216191382Y-97959008D01*
X216196209Y-97910000D01*
X216196209Y-96310000D01*
X216191382Y-96260992D01*
X216177087Y-96213866D01*
X216153873Y-96170436D01*
X216122632Y-96132368D01*
X216084564Y-96101127D01*
X216041134Y-96077913D01*
X215994008Y-96063618D01*
X215945000Y-96058791D01*
X215395000Y-96058791D01*
X215345992Y-96063618D01*
X215298866Y-96077913D01*
X215270000Y-96093342D01*
X215241134Y-96077913D01*
X215194008Y-96063618D01*
X215145000Y-96058791D01*
X214595000Y-96058791D01*
X214545992Y-96063618D01*
X214498866Y-96077913D01*
X214470000Y-96093342D01*
X214441134Y-96077913D01*
X214394008Y-96063618D01*
X214345000Y-96058791D01*
X213795000Y-96058791D01*
X213745992Y-96063618D01*
X213698866Y-96077913D01*
X213670000Y-96093342D01*
X213641134Y-96077913D01*
X213594008Y-96063618D01*
X213545000Y-96058791D01*
X212995000Y-96058791D01*
X212945992Y-96063618D01*
X212898866Y-96077913D01*
X212870000Y-96093342D01*
X212841134Y-96077913D01*
X212794008Y-96063618D01*
X212745000Y-96058791D01*
X212195000Y-96058791D01*
X212145992Y-96063618D01*
X212098866Y-96077913D01*
X212070000Y-96093342D01*
X212041134Y-96077913D01*
X211994008Y-96063618D01*
X211945000Y-96058791D01*
X211395000Y-96058791D01*
X211345992Y-96063618D01*
X211298866Y-96077913D01*
X211270000Y-96093342D01*
X211241134Y-96077913D01*
X211194008Y-96063618D01*
X211145000Y-96058791D01*
X210595000Y-96058791D01*
X210545992Y-96063618D01*
X210498866Y-96077913D01*
X210470000Y-96093342D01*
X210441134Y-96077913D01*
X210394008Y-96063618D01*
X210345000Y-96058791D01*
X209795000Y-96058791D01*
X209745992Y-96063618D01*
X209698866Y-96077913D01*
X209655436Y-96101127D01*
X209617368Y-96132368D01*
X209586127Y-96170436D01*
X209562913Y-96213866D01*
X209548618Y-96260992D01*
X209543791Y-96310000D01*
X209543791Y-97910000D01*
X209548618Y-97959008D01*
X209562913Y-98006134D01*
X209586127Y-98049564D01*
X209617368Y-98087632D01*
X209643999Y-98109487D01*
X208796420Y-98964598D01*
X208761448Y-98971554D01*
X208675003Y-99007361D01*
X208597205Y-99059344D01*
X208531044Y-99125505D01*
X208479061Y-99203303D01*
X208443254Y-99289748D01*
X208425000Y-99381517D01*
X208425000Y-99475083D01*
X208443254Y-99566852D01*
X208479061Y-99653297D01*
X208531044Y-99731095D01*
X208597205Y-99797256D01*
X208675003Y-99849239D01*
X208759907Y-99884408D01*
X207558615Y-101085700D01*
X206015341Y-101085700D01*
X205964997Y-101052061D01*
X205878552Y-101016254D01*
X205786783Y-100998000D01*
X205693217Y-100998000D01*
X205601448Y-101016254D01*
X205515003Y-101052061D01*
X205437205Y-101104044D01*
X205371044Y-101170205D01*
X205319061Y-101248003D01*
X205283254Y-101334448D01*
X205265000Y-101426217D01*
X205265000Y-101519783D01*
X205283254Y-101611552D01*
X205319061Y-101697997D01*
X205371044Y-101775795D01*
X205437205Y-101841956D01*
X205515003Y-101893939D01*
X205601448Y-101929746D01*
X205693217Y-101948000D01*
X205786783Y-101948000D01*
X205878552Y-101929746D01*
X205964997Y-101893939D01*
X205977328Y-101885700D01*
X207704654Y-101885700D01*
X207724300Y-101887635D01*
X207743946Y-101885700D01*
X207743947Y-101885700D01*
X207802714Y-101879912D01*
X207878114Y-101857040D01*
X207947603Y-101819897D01*
X208008511Y-101769911D01*
X208021037Y-101754648D01*
X210060000Y-99715685D01*
X210060001Y-108004313D01*
X209834315Y-108230000D01*
X202756334Y-108230000D01*
X202724997Y-108209061D01*
X202638552Y-108173254D01*
X202546783Y-108155000D01*
X202453217Y-108155000D01*
X202361448Y-108173254D01*
X202275003Y-108209061D01*
X202197205Y-108261044D01*
X202131044Y-108327205D01*
X202079061Y-108405003D01*
X202043254Y-108491448D01*
X202025000Y-108583217D01*
X200068902Y-108583217D01*
X199990000Y-108504315D01*
X199990000Y-101925685D01*
X200025685Y-101890000D01*
X204330354Y-101890000D01*
X204350000Y-101891935D01*
X204369646Y-101890000D01*
X204369647Y-101890000D01*
X204428414Y-101884212D01*
X204503814Y-101861340D01*
X204573303Y-101824197D01*
X204634211Y-101774211D01*
X204646737Y-101758948D01*
X205088948Y-101316737D01*
X205104211Y-101304211D01*
X205154197Y-101243303D01*
X205191340Y-101173814D01*
X205214212Y-101098414D01*
X205220000Y-101039647D01*
X205220000Y-101039637D01*
X205221934Y-101020001D01*
X205220000Y-101000365D01*
X205220000Y-91875685D01*
X205835685Y-91260000D01*
X207490353Y-91260000D01*
X207431586Y-91265788D01*
X207356186Y-91288660D01*
X207286697Y-91325803D01*
X207274282Y-91335992D01*
X207241049Y-91363265D01*
X207241047Y-91363267D01*
X207225789Y-91375789D01*
X207213267Y-91391047D01*
X206705591Y-91898724D01*
X206701382Y-91855992D01*
X206687087Y-91808866D01*
X206663873Y-91765436D01*
X206632632Y-91727368D01*
X206594564Y-91696127D01*
X206551134Y-91672913D01*
X206504008Y-91658618D01*
X206455000Y-91653791D01*
X205605000Y-91653791D01*
X205555992Y-91658618D01*
X205508866Y-91672913D01*
X205465436Y-91696127D01*
X205427368Y-91727368D01*
X205396127Y-91765436D01*
X205372913Y-91808866D01*
X205358618Y-91855992D01*
X205353791Y-91905000D01*
X205353791Y-92755000D01*
X205358618Y-92804008D01*
X205372913Y-92851134D01*
X205396127Y-92894564D01*
X205427368Y-92932632D01*
X205463748Y-92962488D01*
X205431823Y-93010268D01*
X205380940Y-93133110D01*
X205355000Y-93263518D01*
X205355000Y-93396482D01*
X205380940Y-93526890D01*
X205431823Y-93649732D01*
X205505693Y-93760287D01*
X205599713Y-93854307D01*
X205710268Y-93928177D01*
X205833110Y-93979060D01*
X205963518Y-94005000D01*
X206096482Y-94005000D01*
X206226890Y-93979060D01*
X206349732Y-93928177D01*
X206460287Y-93854307D01*
X206554307Y-93760287D01*
X206574544Y-93730000D01*
X206594315Y-93730000D01*
X207193267Y-94328953D01*
X207205789Y-94344211D01*
X207221047Y-94356733D01*
X207221049Y-94356735D01*
X207266697Y-94394197D01*
X207336185Y-94431340D01*
X207411586Y-94454212D01*
X207470353Y-94460000D01*
X207346334Y-94460000D01*
X207314997Y-94439061D01*
X207228552Y-94403254D01*
X207136783Y-94385000D01*
X207043217Y-94385000D01*
X206951448Y-94403254D01*
X206865003Y-94439061D01*
X206787205Y-94491044D01*
X206721044Y-94557205D01*
X206669061Y-94635003D01*
X206633254Y-94721448D01*
X206615000Y-94813217D01*
X206615000Y-94906783D01*
X206633254Y-94998552D01*
X206669061Y-95084997D01*
X206721044Y-95162795D01*
X206787205Y-95228956D01*
X206865003Y-95280939D01*
X206951448Y-95316746D01*
X207043217Y-95335000D01*
X207136783Y-95335000D01*
X207141281Y-95334105D01*
X207090489Y-95375789D01*
X207077963Y-95391052D01*
X206817252Y-95651763D01*
X206801989Y-95664289D01*
X206752003Y-95725198D01*
X206714860Y-95794687D01*
X206709058Y-95813814D01*
X206691988Y-95870087D01*
X206684265Y-95948500D01*
X206686200Y-95968146D01*
X206686201Y-100010164D01*
X206665261Y-100041503D01*
X206629454Y-100127948D01*
X206611200Y-100219717D01*
X206611200Y-100313283D01*
X206629454Y-100405052D01*
X206665261Y-100491497D01*
X206717244Y-100569295D01*
X206783405Y-100635456D01*
X206861203Y-100687439D01*
X206947648Y-100723246D01*
X207039417Y-100741500D01*
X207132983Y-100741500D01*
X207224752Y-100723246D01*
X207311197Y-100687439D01*
X207388995Y-100635456D01*
X207455156Y-100569295D01*
X207507139Y-100491497D01*
X207542946Y-100405052D01*
X207561200Y-100313283D01*
X207561200Y-100219717D01*
X207542946Y-100127948D01*
X207507139Y-100041503D01*
X207486200Y-100010166D01*
X207486200Y-96114185D01*
X207540385Y-96060000D01*
X207603342Y-96060000D01*
X207611127Y-96074564D01*
X207642368Y-96112632D01*
X207680436Y-96143873D01*
X207723866Y-96167087D01*
X207770992Y-96181382D01*
X207820000Y-96186209D01*
X209420000Y-96186209D01*
X209469008Y-96181382D01*
X209516134Y-96167087D01*
X209559564Y-96143873D01*
X209597632Y-96112632D01*
X209628873Y-96074564D01*
X209652087Y-96031134D01*
X209666382Y-95984008D01*
X209671209Y-95935000D01*
X209671209Y-95385000D01*
X209666382Y-95335992D01*
X209652087Y-95288866D01*
X209636658Y-95260000D01*
X209700354Y-95260000D01*
X209720000Y-95261935D01*
X209739646Y-95260000D01*
X209739647Y-95260000D01*
X209798414Y-95254212D01*
X209873814Y-95231340D01*
X209943303Y-95194197D01*
X210004211Y-95144211D01*
X210016737Y-95128948D01*
X211088954Y-94056732D01*
X211104211Y-94044211D01*
X211131588Y-94010853D01*
X211154197Y-93983303D01*
X211191340Y-93913815D01*
X211214212Y-93838414D01*
X211221935Y-93760000D01*
X211220000Y-93740354D01*
X211220000Y-93660000D01*
X212733666Y-93660000D01*
X212765003Y-93680939D01*
X212851448Y-93716746D01*
X212943217Y-93735000D01*
X213036783Y-93735000D01*
X213128552Y-93716746D01*
X213214997Y-93680939D01*
X213246334Y-93660000D01*
X215164315Y-93660000D01*
X215833267Y-94328953D01*
X215845789Y-94344211D01*
X215861047Y-94356733D01*
X215861049Y-94356735D01*
X215906697Y-94394197D01*
X215976185Y-94431340D01*
X216051586Y-94454212D01*
X216102953Y-94459271D01*
X216103342Y-94460000D01*
X216087913Y-94488866D01*
X216073618Y-94535992D01*
X216068791Y-94585000D01*
X216068791Y-95135000D01*
X216073618Y-95184008D01*
X216087913Y-95231134D01*
X216103342Y-95260000D01*
X216087913Y-95288866D01*
X216073618Y-95335992D01*
X216068791Y-95385000D01*
X216068791Y-95935000D01*
X216073618Y-95984008D01*
X216087913Y-96031134D01*
X216111127Y-96074564D01*
X216142368Y-96112632D01*
X216180436Y-96143873D01*
X216223866Y-96167087D01*
X216270992Y-96181382D01*
X216320000Y-96186209D01*
X217920000Y-96186209D01*
X217969008Y-96181382D01*
X218016134Y-96167087D01*
X218059564Y-96143873D01*
X218097632Y-96112632D01*
X218128873Y-96074564D01*
X218136658Y-96060000D01*
X221624315Y-96060000D01*
X222890679Y-97326365D01*
X222889173Y-97330000D01*
X222700191Y-97330000D01*
X222654402Y-97305525D01*
X222588517Y-97285539D01*
X222520000Y-97278791D01*
X222480415Y-97278791D01*
X222477237Y-97270886D01*
X222417132Y-97178859D01*
X222340228Y-97100326D01*
X222249481Y-97038305D01*
X222148378Y-96995179D01*
X222069500Y-96972000D01*
X221930000Y-97111500D01*
X221930000Y-97513811D01*
X221915539Y-97561483D01*
X221908791Y-97630000D01*
X221908791Y-97830000D01*
X221915539Y-97898517D01*
X221930000Y-97946189D01*
X221930000Y-98348500D01*
X222069500Y-98488000D01*
X222148378Y-98464821D01*
X222249481Y-98421695D01*
X222340228Y-98359674D01*
X222417132Y-98281141D01*
X222477237Y-98189114D01*
X222480415Y-98181209D01*
X222520000Y-98181209D01*
X222588517Y-98174461D01*
X222654402Y-98154475D01*
X222700191Y-98130000D01*
X222889173Y-98130000D01*
X222929502Y-98227362D01*
X223044411Y-98399336D01*
X223190664Y-98545589D01*
X223362638Y-98660498D01*
X223553726Y-98739650D01*
X223756584Y-98780000D01*
X223963416Y-98780000D01*
X224166274Y-98739650D01*
X224357362Y-98660498D01*
X224529336Y-98545589D01*
X224675589Y-98399336D01*
X224790498Y-98227362D01*
X224869650Y-98036274D01*
X224910000Y-97833416D01*
X224910000Y-97626584D01*
X224869650Y-97423726D01*
X224790498Y-97232638D01*
X224675589Y-97060664D01*
X224529336Y-96914411D01*
X224357362Y-96799502D01*
X224166274Y-96720350D01*
X223963416Y-96680000D01*
X223756584Y-96680000D01*
X223553726Y-96720350D01*
X223456365Y-96760679D01*
X222086737Y-95391052D01*
X222074211Y-95375789D01*
X222013303Y-95325803D01*
X221943814Y-95288660D01*
X221868414Y-95265788D01*
X221809647Y-95260000D01*
X221809646Y-95260000D01*
X221794647Y-95258523D01*
X221838414Y-95254212D01*
X221913814Y-95231340D01*
X221983303Y-95194197D01*
X222044211Y-95144211D01*
X222056737Y-95128948D01*
X224128949Y-93056736D01*
X224144211Y-93044211D01*
X224194197Y-92983303D01*
X224231340Y-92913814D01*
X224254212Y-92838414D01*
X224260000Y-92779647D01*
X224260000Y-92779637D01*
X224261934Y-92760001D01*
X224260000Y-92740365D01*
X224260000Y-91200827D01*
X224357362Y-91160498D01*
X224529336Y-91045589D01*
X224675589Y-90899336D01*
X224790498Y-90727362D01*
X224869650Y-90536274D01*
X224910000Y-90333416D01*
X224910000Y-90126584D01*
X224869650Y-89923726D01*
X224790498Y-89732638D01*
X224675589Y-89560664D01*
X224529336Y-89414411D01*
X224357362Y-89299502D01*
X224166274Y-89220350D01*
X223963416Y-89180000D01*
X223756584Y-89180000D01*
X223553726Y-89220350D01*
X223362638Y-89299502D01*
X223190664Y-89414411D01*
X223044411Y-89560664D01*
X222929502Y-89732638D01*
X222889173Y-89830000D01*
X222710191Y-89830000D01*
X222664402Y-89805525D01*
X222598517Y-89785539D01*
X222530000Y-89778791D01*
X222490415Y-89778791D01*
X222487237Y-89770886D01*
X222427132Y-89678859D01*
X222350228Y-89600326D01*
X222259481Y-89538305D01*
X222158378Y-89495179D01*
X222079500Y-89472000D01*
X221940000Y-89611500D01*
X221940000Y-90013811D01*
X221925539Y-90061483D01*
X221918791Y-90130000D01*
X221918791Y-90330000D01*
X221925539Y-90398517D01*
X221940000Y-90446189D01*
X221940000Y-90848500D01*
X222079500Y-90988000D01*
X222158378Y-90964821D01*
X222259481Y-90921695D01*
X222350228Y-90859674D01*
X222427132Y-90781141D01*
X222487237Y-90689114D01*
X222490415Y-90681209D01*
X222530000Y-90681209D01*
X222598517Y-90674461D01*
X222664402Y-90654475D01*
X222710191Y-90630000D01*
X222889173Y-90630000D01*
X222929502Y-90727362D01*
X223044411Y-90899336D01*
X223190664Y-91045589D01*
X223362638Y-91160498D01*
X223460001Y-91200827D01*
X223460000Y-92594315D01*
X221594315Y-94460000D01*
X220674594Y-94460000D01*
X220754307Y-94380287D01*
X220828177Y-94269732D01*
X220879060Y-94146890D01*
X220905000Y-94016482D01*
X220905000Y-93883518D01*
X220879060Y-93753110D01*
X220828177Y-93630268D01*
X220754307Y-93519713D01*
X220684594Y-93450000D01*
X220754307Y-93380287D01*
X220828177Y-93269732D01*
X220879060Y-93146890D01*
X220905000Y-93016482D01*
X220905000Y-92883518D01*
X220879060Y-92753110D01*
X220828177Y-92630268D01*
X220754307Y-92519713D01*
X220684594Y-92450000D01*
X220754307Y-92380287D01*
X220828177Y-92269732D01*
X220879060Y-92146890D01*
X220905000Y-92016482D01*
X220905000Y-91883518D01*
X220879060Y-91753110D01*
X220828177Y-91630268D01*
X220754307Y-91519713D01*
X220684594Y-91450000D01*
X220754307Y-91380287D01*
X220828177Y-91269732D01*
X220879060Y-91146890D01*
X220905000Y-91016482D01*
X220905000Y-90883518D01*
X220879060Y-90753110D01*
X220828177Y-90630268D01*
X220754307Y-90519713D01*
X220754094Y-90519500D01*
X220972000Y-90519500D01*
X220991767Y-90587129D01*
X221032763Y-90689114D01*
X221092868Y-90781141D01*
X221169772Y-90859674D01*
X221260519Y-90921695D01*
X221361622Y-90964821D01*
X221440500Y-90988000D01*
X221580000Y-90848500D01*
X221580000Y-90380000D01*
X221111500Y-90380000D01*
X220972000Y-90519500D01*
X220754094Y-90519500D01*
X220684594Y-90450000D01*
X220754307Y-90380287D01*
X220828177Y-90269732D01*
X220879060Y-90146890D01*
X220905000Y-90016482D01*
X220905000Y-89940500D01*
X220972000Y-89940500D01*
X221111500Y-90080000D01*
X221580000Y-90080000D01*
X221580000Y-89611500D01*
X221440500Y-89472000D01*
X221361622Y-89495179D01*
X221260519Y-89538305D01*
X221169772Y-89600326D01*
X221092868Y-89678859D01*
X221032763Y-89770886D01*
X220991767Y-89872871D01*
X220972000Y-89940500D01*
X220905000Y-89940500D01*
X220905000Y-89883518D01*
X220879060Y-89753110D01*
X220828177Y-89630268D01*
X220754307Y-89519713D01*
X220684594Y-89450000D01*
X220754307Y-89380287D01*
X220828177Y-89269732D01*
X220879060Y-89146890D01*
X220905000Y-89016482D01*
X220905000Y-88883518D01*
X220879060Y-88753110D01*
X220828177Y-88630268D01*
X220754307Y-88519713D01*
X220684594Y-88450000D01*
X220754307Y-88380287D01*
X220828177Y-88269732D01*
X220879060Y-88146890D01*
X220905000Y-88016482D01*
X220905000Y-87883518D01*
X220879060Y-87753110D01*
X220828177Y-87630268D01*
X220796252Y-87582488D01*
X220832632Y-87552632D01*
X220863873Y-87514564D01*
X220887087Y-87471134D01*
X220901382Y-87424008D01*
X220906209Y-87375000D01*
X220906209Y-86525000D01*
X220901382Y-86475992D01*
X220892892Y-86448000D01*
X222363300Y-86448000D01*
X222374074Y-86557387D01*
X222405981Y-86662571D01*
X222457795Y-86759508D01*
X222527525Y-86844475D01*
X222612492Y-86914205D01*
X222709429Y-86966019D01*
X222814613Y-86997926D01*
X222924000Y-87008700D01*
X223430500Y-87006000D01*
X223570000Y-86866500D01*
X223570000Y-85802000D01*
X223978000Y-85802000D01*
X223978000Y-86866500D01*
X224117500Y-87006000D01*
X224624000Y-87008700D01*
X224733387Y-86997926D01*
X224838571Y-86966019D01*
X224935508Y-86914205D01*
X225020475Y-86844475D01*
X225090205Y-86759508D01*
X225142019Y-86662571D01*
X225173926Y-86557387D01*
X225184700Y-86448000D01*
X225182000Y-85941500D01*
X225042500Y-85802000D01*
X223978000Y-85802000D01*
X223570000Y-85802000D01*
X222505500Y-85802000D01*
X222366000Y-85941500D01*
X222363300Y-86448000D01*
X220892892Y-86448000D01*
X220887087Y-86428866D01*
X220863873Y-86385436D01*
X220832632Y-86347368D01*
X220794564Y-86316127D01*
X220751134Y-86292913D01*
X220704008Y-86278618D01*
X220655000Y-86273791D01*
X219805000Y-86273791D01*
X219755992Y-86278618D01*
X219708866Y-86292913D01*
X219665436Y-86316127D01*
X219627368Y-86347368D01*
X219596127Y-86385436D01*
X219572913Y-86428866D01*
X219558618Y-86475992D01*
X219553791Y-86525000D01*
X219553791Y-86550000D01*
X218295686Y-86550000D01*
X217486737Y-85741052D01*
X217474211Y-85725789D01*
X217413303Y-85675803D01*
X217343814Y-85638660D01*
X217268414Y-85615788D01*
X217209647Y-85610000D01*
X217209646Y-85610000D01*
X217190000Y-85608065D01*
X217170354Y-85610000D01*
X215399647Y-85610000D01*
X215380000Y-85608065D01*
X215301586Y-85615788D01*
X215226186Y-85638660D01*
X215156697Y-85675803D01*
X215111049Y-85713265D01*
X215111047Y-85713267D01*
X215095789Y-85725789D01*
X215083267Y-85741047D01*
X213801048Y-87023267D01*
X213785790Y-87035789D01*
X213773268Y-87051047D01*
X213773265Y-87051050D01*
X213735803Y-87096698D01*
X213698661Y-87166186D01*
X213675788Y-87241587D01*
X213670000Y-87300353D01*
X213670000Y-86699339D01*
X214633681Y-85681693D01*
X214658552Y-85676746D01*
X214744997Y-85640939D01*
X214822795Y-85588956D01*
X214888956Y-85522795D01*
X214940939Y-85444997D01*
X214976746Y-85358552D01*
X214995000Y-85266783D01*
X214995000Y-85173217D01*
X214976746Y-85081448D01*
X214940939Y-84995003D01*
X214888956Y-84917205D01*
X214822795Y-84851044D01*
X214744997Y-84799061D01*
X214658552Y-84763254D01*
X214566783Y-84745000D01*
X214473217Y-84745000D01*
X214381448Y-84763254D01*
X214295003Y-84799061D01*
X214217205Y-84851044D01*
X214187155Y-84881094D01*
X214219580Y-84706610D01*
X214216280Y-84445000D01*
X215153791Y-84445000D01*
X215153791Y-85295000D01*
X215158618Y-85344008D01*
X215172913Y-85391134D01*
X215196127Y-85434564D01*
X215227368Y-85472632D01*
X215265436Y-85503873D01*
X215308866Y-85527087D01*
X215355992Y-85541382D01*
X215405000Y-85546209D01*
X216255000Y-85546209D01*
X216304008Y-85541382D01*
X216351134Y-85527087D01*
X216394564Y-85503873D01*
X216432632Y-85472632D01*
X216462488Y-85436252D01*
X216510268Y-85468177D01*
X216633110Y-85519060D01*
X216763518Y-85545000D01*
X216896482Y-85545000D01*
X217026890Y-85519060D01*
X217149732Y-85468177D01*
X217260287Y-85394307D01*
X217330000Y-85324594D01*
X217399713Y-85394307D01*
X217510268Y-85468177D01*
X217633110Y-85519060D01*
X217763518Y-85545000D01*
X217896482Y-85545000D01*
X218026890Y-85519060D01*
X218149732Y-85468177D01*
X218260287Y-85394307D01*
X218354307Y-85300287D01*
X218428177Y-85189732D01*
X218479060Y-85066890D01*
X218505000Y-84936482D01*
X218505000Y-84803518D01*
X218493957Y-84748000D01*
X222363300Y-84748000D01*
X222366000Y-85254500D01*
X222505500Y-85394000D01*
X223570000Y-85394000D01*
X223570000Y-84329500D01*
X223978000Y-84329500D01*
X223978000Y-85394000D01*
X225042500Y-85394000D01*
X225182000Y-85254500D01*
X225184700Y-84748000D01*
X225173926Y-84638613D01*
X225142019Y-84533429D01*
X225090205Y-84436492D01*
X225020475Y-84351525D01*
X224935508Y-84281795D01*
X224838571Y-84229981D01*
X224733387Y-84198074D01*
X224624000Y-84187300D01*
X224117500Y-84190000D01*
X223978000Y-84329500D01*
X223570000Y-84329500D01*
X223430500Y-84190000D01*
X222924000Y-84187300D01*
X222814613Y-84198074D01*
X222709429Y-84229981D01*
X222612492Y-84281795D01*
X222527525Y-84351525D01*
X222457795Y-84436492D01*
X222405981Y-84533429D01*
X222374074Y-84638613D01*
X222363300Y-84748000D01*
X218493957Y-84748000D01*
X218479060Y-84673110D01*
X218428177Y-84550268D01*
X218354307Y-84439713D01*
X218260287Y-84345693D01*
X218149732Y-84271823D01*
X218026890Y-84220940D01*
X217896482Y-84195000D01*
X217763518Y-84195000D01*
X217633110Y-84220940D01*
X217510268Y-84271823D01*
X217399713Y-84345693D01*
X217330000Y-84415406D01*
X217260287Y-84345693D01*
X217149732Y-84271823D01*
X217026890Y-84220940D01*
X216896482Y-84195000D01*
X216763518Y-84195000D01*
X216633110Y-84220940D01*
X216510268Y-84271823D01*
X216462488Y-84303748D01*
X216432632Y-84267368D01*
X216394564Y-84236127D01*
X216351134Y-84212913D01*
X216304008Y-84198618D01*
X216255000Y-84193791D01*
X215405000Y-84193791D01*
X215355992Y-84198618D01*
X215308866Y-84212913D01*
X215265436Y-84236127D01*
X215227368Y-84267368D01*
X215196127Y-84305436D01*
X215172913Y-84348866D01*
X215158618Y-84395992D01*
X215153791Y-84445000D01*
X214216280Y-84445000D01*
X214216205Y-84439129D01*
X214160713Y-84177446D01*
X214071463Y-83961978D01*
X213858411Y-83880089D01*
X213148500Y-84590000D01*
X213162642Y-84604142D01*
X212874142Y-84892642D01*
X212860000Y-84878500D01*
X212150089Y-85588411D01*
X212231978Y-85801463D01*
X212480390Y-85900706D01*
X212743390Y-85949580D01*
X213010871Y-85946205D01*
X213272554Y-85890713D01*
X213373600Y-85848858D01*
X212996825Y-86246733D01*
X212985790Y-86255789D01*
X212969811Y-86275260D01*
X212966052Y-86279229D01*
X212957329Y-86290468D01*
X212935804Y-86316697D01*
X212933216Y-86321539D01*
X212929847Y-86325880D01*
X212914658Y-86356258D01*
X212898661Y-86386186D01*
X212897068Y-86391439D01*
X212894610Y-86396354D01*
X212885640Y-86429111D01*
X212875789Y-86461586D01*
X212875251Y-86467051D01*
X212873800Y-86472349D01*
X212871392Y-86506232D01*
X212870001Y-86520353D01*
X212870001Y-86525800D01*
X212868214Y-86550943D01*
X212870001Y-86565117D01*
X212870001Y-86991170D01*
X212839956Y-86946205D01*
X212773795Y-86880044D01*
X212695997Y-86828061D01*
X212609552Y-86792254D01*
X212517783Y-86774000D01*
X212424217Y-86774000D01*
X212332448Y-86792254D01*
X212246003Y-86828061D01*
X212168205Y-86880044D01*
X212137539Y-86910710D01*
X212126746Y-86856448D01*
X212090939Y-86770003D01*
X212038956Y-86692205D01*
X211972795Y-86626044D01*
X211894997Y-86574061D01*
X211808552Y-86538254D01*
X211716783Y-86520000D01*
X211623217Y-86520000D01*
X211531448Y-86538254D01*
X211445003Y-86574061D01*
X211367205Y-86626044D01*
X211337373Y-86655876D01*
X211326746Y-86602448D01*
X211290939Y-86516003D01*
X211238956Y-86438205D01*
X211172795Y-86372044D01*
X211094997Y-86320061D01*
X211008552Y-86284254D01*
X210916783Y-86266000D01*
X210823217Y-86266000D01*
X210731448Y-86284254D01*
X210645003Y-86320061D01*
X210567205Y-86372044D01*
X210501044Y-86438205D01*
X210449061Y-86516003D01*
X210413254Y-86602448D01*
X210395000Y-86694217D01*
X210395000Y-86787783D01*
X210413254Y-86879552D01*
X210449061Y-86965997D01*
X210470001Y-86997336D01*
X210470001Y-87450369D01*
X210470000Y-87450363D01*
X210470000Y-87450353D01*
X210464212Y-87391586D01*
X210441340Y-87316186D01*
X210404197Y-87246697D01*
X210354211Y-87185789D01*
X210338948Y-87173263D01*
X209966737Y-86801052D01*
X209954211Y-86785789D01*
X209893303Y-86735803D01*
X209823814Y-86698660D01*
X209748414Y-86675788D01*
X209689647Y-86670000D01*
X209689646Y-86670000D01*
X209670000Y-86668065D01*
X209650354Y-86670000D01*
X204879635Y-86670000D01*
X204859999Y-86668066D01*
X204840363Y-86670000D01*
X204840353Y-86670000D01*
X204781586Y-86675788D01*
X204706186Y-86698660D01*
X204636697Y-86735803D01*
X204604495Y-86762231D01*
X204591049Y-86773265D01*
X204591047Y-86773267D01*
X204575789Y-86785789D01*
X204563267Y-86801047D01*
X204141052Y-87223263D01*
X204125789Y-87235789D01*
X204075803Y-87296698D01*
X204038660Y-87366187D01*
X204020609Y-87425693D01*
X204015788Y-87441587D01*
X204008065Y-87520000D01*
X204010000Y-87539647D01*
X204010000Y-87923791D01*
X203985000Y-87923791D01*
X203935992Y-87928618D01*
X203888866Y-87942913D01*
X203845436Y-87966127D01*
X203807368Y-87997368D01*
X203776127Y-88035436D01*
X203752913Y-88078866D01*
X203738618Y-88125992D01*
X203733791Y-88175000D01*
X203733791Y-89025000D01*
X203738618Y-89074008D01*
X203752913Y-89121134D01*
X203776127Y-89164564D01*
X203807368Y-89202632D01*
X203845436Y-89233873D01*
X203888866Y-89257087D01*
X203935992Y-89271382D01*
X203985000Y-89276209D01*
X204835000Y-89276209D01*
X204884008Y-89271382D01*
X204931134Y-89257087D01*
X204974564Y-89233873D01*
X205012632Y-89202632D01*
X205043873Y-89164564D01*
X205067087Y-89121134D01*
X205081382Y-89074008D01*
X205086209Y-89025000D01*
X205086209Y-88175000D01*
X205081382Y-88125992D01*
X205067087Y-88078866D01*
X205043873Y-88035436D01*
X205012632Y-87997368D01*
X204974564Y-87966127D01*
X204931134Y-87942913D01*
X204884008Y-87928618D01*
X204835000Y-87923791D01*
X204810000Y-87923791D01*
X204810000Y-87685685D01*
X205025686Y-87470000D01*
X209504315Y-87470000D01*
X209644454Y-87610139D01*
X209617368Y-87632368D01*
X209586127Y-87670436D01*
X209562913Y-87713866D01*
X209548618Y-87760992D01*
X209543791Y-87810000D01*
X209543791Y-89410000D01*
X209548618Y-89459008D01*
X209562913Y-89506134D01*
X209586127Y-89549564D01*
X209617368Y-89587632D01*
X209655436Y-89618873D01*
X209698866Y-89642087D01*
X209745992Y-89656382D01*
X209795000Y-89661209D01*
X210345000Y-89661209D01*
X210394008Y-89656382D01*
X210441134Y-89642087D01*
X210470000Y-89626658D01*
X210498866Y-89642087D01*
X210545992Y-89656382D01*
X210595000Y-89661209D01*
X211145000Y-89661209D01*
X211194008Y-89656382D01*
X211241134Y-89642087D01*
X211270000Y-89626658D01*
X211298866Y-89642087D01*
X211345992Y-89656382D01*
X211395000Y-89661209D01*
X211945000Y-89661209D01*
X211994008Y-89656382D01*
X212041134Y-89642087D01*
X212070000Y-89626658D01*
X212098866Y-89642087D01*
X212145992Y-89656382D01*
X212195000Y-89661209D01*
X212745000Y-89661209D01*
X212794008Y-89656382D01*
X212841134Y-89642087D01*
X212870000Y-89626658D01*
X212898866Y-89642087D01*
X212945992Y-89656382D01*
X212995000Y-89661209D01*
X213545000Y-89661209D01*
X213594008Y-89656382D01*
X213641134Y-89642087D01*
X213670000Y-89626658D01*
X213698866Y-89642087D01*
X213745992Y-89656382D01*
X213795000Y-89661209D01*
X214345000Y-89661209D01*
X214394008Y-89656382D01*
X214441134Y-89642087D01*
X214470000Y-89626658D01*
X214498866Y-89642087D01*
X214545992Y-89656382D01*
X214595000Y-89661209D01*
X215145000Y-89661209D01*
X215194008Y-89656382D01*
X215241134Y-89642087D01*
X215270000Y-89626658D01*
X215298866Y-89642087D01*
X215345992Y-89656382D01*
X215395000Y-89661209D01*
X215945000Y-89661209D01*
X215994008Y-89656382D01*
X216041134Y-89642087D01*
X216084564Y-89618873D01*
X216122632Y-89587632D01*
X216153873Y-89549564D01*
X216177087Y-89506134D01*
X216191382Y-89459008D01*
X216196209Y-89410000D01*
X216196209Y-87810000D01*
X216191382Y-87760992D01*
X216177087Y-87713866D01*
X216153873Y-87670436D01*
X216122632Y-87632368D01*
X216084564Y-87601127D01*
X216078043Y-87597641D01*
X216085684Y-87590000D01*
X216494315Y-87590000D01*
X218123267Y-89218953D01*
X218135789Y-89234211D01*
X218151047Y-89246733D01*
X218151049Y-89246735D01*
X218196697Y-89284197D01*
X218266185Y-89321340D01*
X218341586Y-89344212D01*
X218420000Y-89351935D01*
X218439646Y-89350000D01*
X219685456Y-89350000D01*
X219705693Y-89380287D01*
X219775406Y-89450000D01*
X219705693Y-89519713D01*
X219685456Y-89550000D01*
X218669635Y-89550000D01*
X218649999Y-89548066D01*
X218630363Y-89550000D01*
X218630353Y-89550000D01*
X218571586Y-89555788D01*
X218496186Y-89578660D01*
X218426697Y-89615803D01*
X218372843Y-89660000D01*
X218136658Y-89660000D01*
X218128873Y-89645436D01*
X218097632Y-89607368D01*
X218059564Y-89576127D01*
X218016134Y-89552913D01*
X217969008Y-89538618D01*
X217920000Y-89533791D01*
X216320000Y-89533791D01*
X216270992Y-89538618D01*
X216223866Y-89552913D01*
X216180436Y-89576127D01*
X216142368Y-89607368D01*
X216111127Y-89645436D01*
X216087913Y-89688866D01*
X216073618Y-89735992D01*
X216068791Y-89785000D01*
X216068791Y-90335000D01*
X216073618Y-90384008D01*
X216087913Y-90431134D01*
X216103342Y-90460000D01*
X216087913Y-90488866D01*
X216073618Y-90535992D01*
X216068791Y-90585000D01*
X216068791Y-90886726D01*
X216023440Y-90909147D01*
X215936304Y-90976146D01*
X215863913Y-91058858D01*
X215809049Y-91154103D01*
X215773821Y-91258221D01*
X215762000Y-91316500D01*
X215901500Y-91456000D01*
X216916000Y-91456000D01*
X216916000Y-91436000D01*
X217324000Y-91436000D01*
X217324000Y-91456000D01*
X218338500Y-91456000D01*
X218466882Y-91327618D01*
X218521586Y-91344212D01*
X218580353Y-91350000D01*
X218580363Y-91350000D01*
X218599999Y-91351934D01*
X218619635Y-91350000D01*
X219685456Y-91350000D01*
X219705693Y-91380287D01*
X219775406Y-91450000D01*
X219705693Y-91519713D01*
X219631823Y-91630268D01*
X219580940Y-91753110D01*
X219555000Y-91883518D01*
X219555000Y-92016482D01*
X219580940Y-92146890D01*
X219631823Y-92269732D01*
X219705693Y-92380287D01*
X219775406Y-92450000D01*
X219705693Y-92519713D01*
X219631823Y-92630268D01*
X219580940Y-92753110D01*
X219555000Y-92883518D01*
X219555000Y-93016482D01*
X219580940Y-93146890D01*
X219631823Y-93269732D01*
X219705693Y-93380287D01*
X219775406Y-93450000D01*
X219705693Y-93519713D01*
X219631823Y-93630268D01*
X219580940Y-93753110D01*
X219555000Y-93883518D01*
X219555000Y-94016482D01*
X219580940Y-94146890D01*
X219631823Y-94269732D01*
X219705693Y-94380287D01*
X219785406Y-94460000D01*
X218136658Y-94460000D01*
X218152087Y-94431134D01*
X218166382Y-94384008D01*
X218171209Y-94335000D01*
X218171209Y-94033274D01*
X218216560Y-94010853D01*
X218303696Y-93943854D01*
X218376087Y-93861142D01*
X218430951Y-93765897D01*
X218466179Y-93661779D01*
X218478000Y-93603500D01*
X218338500Y-93464000D01*
X217324000Y-93464000D01*
X217324000Y-93484000D01*
X216916000Y-93484000D01*
X216916000Y-93464000D01*
X216896000Y-93464000D01*
X216896000Y-93056000D01*
X216916000Y-93056000D01*
X216916000Y-93036000D01*
X217324000Y-93036000D01*
X217324000Y-93056000D01*
X218338500Y-93056000D01*
X218478000Y-92916500D01*
X218466179Y-92858221D01*
X218430951Y-92754103D01*
X218376087Y-92658858D01*
X218303696Y-92576146D01*
X218216560Y-92509147D01*
X218171209Y-92486726D01*
X218171209Y-92433274D01*
X218216560Y-92410853D01*
X218303696Y-92343854D01*
X218376087Y-92261142D01*
X218430951Y-92165897D01*
X218466179Y-92061779D01*
X218478000Y-92003500D01*
X218338500Y-91864000D01*
X217324000Y-91864000D01*
X217324000Y-91884000D01*
X216916000Y-91884000D01*
X216916000Y-91864000D01*
X215901500Y-91864000D01*
X215762000Y-92003500D01*
X215773821Y-92061779D01*
X215809049Y-92165897D01*
X215827093Y-92197221D01*
X215164315Y-92860000D01*
X213246334Y-92860000D01*
X213214997Y-92839061D01*
X213128552Y-92803254D01*
X213036783Y-92785000D01*
X212943217Y-92785000D01*
X212851448Y-92803254D01*
X212765003Y-92839061D01*
X212733666Y-92860000D01*
X210839647Y-92860000D01*
X210820000Y-92858065D01*
X210800354Y-92860000D01*
X209966540Y-92860000D01*
X209978000Y-92803500D01*
X209838500Y-92664000D01*
X208824000Y-92664000D01*
X208824000Y-92684000D01*
X208416000Y-92684000D01*
X208416000Y-92664000D01*
X208396000Y-92664000D01*
X208396000Y-92256000D01*
X208416000Y-92256000D01*
X208416000Y-92236000D01*
X208824000Y-92236000D01*
X208824000Y-92256000D01*
X209838500Y-92256000D01*
X209978000Y-92116500D01*
X209966179Y-92058221D01*
X209930951Y-91954103D01*
X209876087Y-91858858D01*
X209803696Y-91776146D01*
X209716560Y-91709147D01*
X209671209Y-91686726D01*
X209671209Y-91385000D01*
X209666382Y-91335992D01*
X209652087Y-91288866D01*
X209636658Y-91260000D01*
X209652087Y-91231134D01*
X209666382Y-91184008D01*
X209671209Y-91135000D01*
X209671209Y-90585000D01*
X209666382Y-90535992D01*
X209652087Y-90488866D01*
X209636658Y-90460000D01*
X209652087Y-90431134D01*
X209666382Y-90384008D01*
X209671209Y-90335000D01*
X209671209Y-89785000D01*
X209666382Y-89735992D01*
X209652087Y-89688866D01*
X209628873Y-89645436D01*
X209597632Y-89607368D01*
X209559564Y-89576127D01*
X209516134Y-89552913D01*
X209469008Y-89538618D01*
X209420000Y-89533791D01*
X207820000Y-89533791D01*
X207770992Y-89538618D01*
X207723866Y-89552913D01*
X207680436Y-89576127D01*
X207642368Y-89607368D01*
X207611127Y-89645436D01*
X207603342Y-89660000D01*
X205589635Y-89660000D01*
X205569999Y-89658066D01*
X205550363Y-89660000D01*
X205550353Y-89660000D01*
X205491586Y-89665788D01*
X205416186Y-89688660D01*
X205346697Y-89725803D01*
X205338369Y-89732638D01*
X205301049Y-89763265D01*
X205301047Y-89763267D01*
X205285789Y-89775789D01*
X205273267Y-89791047D01*
X203961052Y-91103263D01*
X203945789Y-91115789D01*
X203895803Y-91176698D01*
X203858660Y-91246187D01*
X203837547Y-91315788D01*
X203835788Y-91321587D01*
X203828065Y-91400000D01*
X203830000Y-91419646D01*
X203830001Y-98786253D01*
X203805000Y-98783791D01*
X202955000Y-98783791D01*
X202905992Y-98788618D01*
X202858866Y-98802913D01*
X202815436Y-98826127D01*
X202777368Y-98857368D01*
X202746127Y-98895436D01*
X202722913Y-98938866D01*
X202708618Y-98985992D01*
X202703791Y-99035000D01*
X202703791Y-99885000D01*
X202708618Y-99934008D01*
X202722913Y-99981134D01*
X202746127Y-100024564D01*
X202777368Y-100062632D01*
X202815436Y-100093873D01*
X202858866Y-100117087D01*
X202905992Y-100131382D01*
X202955000Y-100136209D01*
X203805000Y-100136209D01*
X203854008Y-100131382D01*
X203901134Y-100117087D01*
X203944564Y-100093873D01*
X203982632Y-100062632D01*
X204013873Y-100024564D01*
X204037087Y-99981134D01*
X204051382Y-99934008D01*
X204056209Y-99885000D01*
X204056209Y-99851847D01*
X204123814Y-99831340D01*
X204193303Y-99794197D01*
X204254211Y-99744211D01*
X204266738Y-99728947D01*
X204420001Y-99575684D01*
X204420001Y-100854314D01*
X204184315Y-101090000D01*
X199879647Y-101090000D01*
X199860000Y-101088065D01*
X199840353Y-101090000D01*
X199781586Y-101095788D01*
X199706186Y-101118660D01*
X199636697Y-101155803D01*
X199575789Y-101205789D01*
X199563265Y-101221050D01*
X199321052Y-101463263D01*
X199305789Y-101475789D01*
X199255803Y-101536698D01*
X199218660Y-101606187D01*
X199217033Y-101611552D01*
X199195788Y-101681587D01*
X199188065Y-101760000D01*
X199190000Y-101779646D01*
X199190000Y-103344315D01*
X198816735Y-102971050D01*
X198804211Y-102955789D01*
X198743303Y-102905803D01*
X198673814Y-102868660D01*
X198598414Y-102845788D01*
X198539647Y-102840000D01*
X198539646Y-102840000D01*
X198520000Y-102838065D01*
X198500354Y-102840000D01*
X195295685Y-102840000D01*
X193844099Y-101388414D01*
X193836746Y-101351448D01*
X193800939Y-101265003D01*
X193748956Y-101187205D01*
X193682795Y-101121044D01*
X193604997Y-101069061D01*
X193518552Y-101033254D01*
X193426783Y-101015000D01*
X193333217Y-101015000D01*
X193241448Y-101033254D01*
X193155003Y-101069061D01*
X193077205Y-101121044D01*
X193011044Y-101187205D01*
X192959061Y-101265003D01*
X192923254Y-101351448D01*
X192905000Y-101443217D01*
X175274496Y-101443217D01*
X175299926Y-101359387D01*
X175310700Y-101250000D01*
X175308000Y-100843500D01*
X175168500Y-100704000D01*
X172414000Y-100704000D01*
X172006000Y-100704000D01*
X171986000Y-100704000D01*
X171986000Y-100296000D01*
X172006000Y-100296000D01*
X172006000Y-99331500D01*
X172414000Y-99331500D01*
X172414000Y-100296000D01*
X175168500Y-100296000D01*
X175308000Y-100156500D01*
X175310700Y-99750000D01*
X175299926Y-99640613D01*
X175268019Y-99535429D01*
X175216205Y-99438492D01*
X175146475Y-99353525D01*
X175061508Y-99283795D01*
X174964571Y-99231981D01*
X174859387Y-99200074D01*
X174750000Y-99189300D01*
X172553500Y-99192000D01*
X172414000Y-99331500D01*
X172006000Y-99331500D01*
X171866500Y-99192000D01*
X169670000Y-99189300D01*
X169650000Y-99191270D01*
X169650000Y-93364500D01*
X179323791Y-93364500D01*
X179323791Y-94214500D01*
X179328618Y-94263508D01*
X179342913Y-94310634D01*
X179366127Y-94354064D01*
X179397368Y-94392132D01*
X179435436Y-94423373D01*
X179478866Y-94446587D01*
X179525992Y-94460882D01*
X179575000Y-94465709D01*
X180425000Y-94465709D01*
X180474008Y-94460882D01*
X180521134Y-94446587D01*
X180564564Y-94423373D01*
X180602632Y-94392132D01*
X180633873Y-94354064D01*
X180657087Y-94310634D01*
X180671382Y-94263508D01*
X180676209Y-94214500D01*
X180676209Y-93364500D01*
X180671382Y-93315492D01*
X180657087Y-93268366D01*
X180633873Y-93224936D01*
X180602632Y-93186868D01*
X180564564Y-93155627D01*
X180521134Y-93132413D01*
X180474008Y-93118118D01*
X180425000Y-93113291D01*
X179575000Y-93113291D01*
X179525992Y-93118118D01*
X179478866Y-93132413D01*
X179435436Y-93155627D01*
X179397368Y-93186868D01*
X179366127Y-93224936D01*
X179342913Y-93268366D01*
X179328618Y-93315492D01*
X179323791Y-93364500D01*
X169650000Y-93364500D01*
X169650000Y-85340000D01*
X182439300Y-85340000D01*
X182450074Y-85449387D01*
X182481981Y-85554571D01*
X182533795Y-85651508D01*
X182603525Y-85736475D01*
X182688492Y-85806205D01*
X182785429Y-85858019D01*
X182890613Y-85889926D01*
X183000000Y-85900700D01*
X183406500Y-85898000D01*
X183546000Y-85758500D01*
X183546000Y-83004000D01*
X183954000Y-83004000D01*
X183954000Y-85758500D01*
X184093500Y-85898000D01*
X184500000Y-85900700D01*
X184609387Y-85889926D01*
X184714571Y-85858019D01*
X184811508Y-85806205D01*
X184896475Y-85736475D01*
X184966205Y-85651508D01*
X185018019Y-85554571D01*
X185049926Y-85449387D01*
X185060700Y-85340000D01*
X190939300Y-85340000D01*
X190950074Y-85449387D01*
X190981981Y-85554571D01*
X191033795Y-85651508D01*
X191103525Y-85736475D01*
X191188492Y-85806205D01*
X191285429Y-85858019D01*
X191390613Y-85889926D01*
X191500000Y-85900700D01*
X191906500Y-85898000D01*
X192046000Y-85758500D01*
X192046000Y-83004000D01*
X192454000Y-83004000D01*
X192454000Y-85758500D01*
X192593500Y-85898000D01*
X193000000Y-85900700D01*
X193109387Y-85889926D01*
X193214571Y-85858019D01*
X193311508Y-85806205D01*
X193396475Y-85736475D01*
X193466205Y-85651508D01*
X193518019Y-85554571D01*
X193549926Y-85449387D01*
X193560700Y-85340000D01*
X194439300Y-85340000D01*
X194450074Y-85449387D01*
X194481981Y-85554571D01*
X194533795Y-85651508D01*
X194603525Y-85736475D01*
X194688492Y-85806205D01*
X194785429Y-85858019D01*
X194890613Y-85889926D01*
X195000000Y-85900700D01*
X195406500Y-85898000D01*
X195546000Y-85758500D01*
X195546000Y-83004000D01*
X195954000Y-83004000D01*
X195954000Y-85758500D01*
X196093500Y-85898000D01*
X196500000Y-85900700D01*
X196609387Y-85889926D01*
X196714571Y-85858019D01*
X196811508Y-85806205D01*
X196896475Y-85736475D01*
X196966205Y-85651508D01*
X197018019Y-85554571D01*
X197049926Y-85449387D01*
X197060700Y-85340000D01*
X202939300Y-85340000D01*
X202950074Y-85449387D01*
X202981981Y-85554571D01*
X203033795Y-85651508D01*
X203103525Y-85736475D01*
X203188492Y-85806205D01*
X203285429Y-85858019D01*
X203390613Y-85889926D01*
X203500000Y-85900700D01*
X203906500Y-85898000D01*
X204046000Y-85758500D01*
X204046000Y-83004000D01*
X204454000Y-83004000D01*
X204454000Y-85758500D01*
X204593500Y-85898000D01*
X205000000Y-85900700D01*
X205109387Y-85889926D01*
X205214571Y-85858019D01*
X205311508Y-85806205D01*
X205396475Y-85736475D01*
X205466205Y-85651508D01*
X205518019Y-85554571D01*
X205549926Y-85449387D01*
X205560700Y-85340000D01*
X205558795Y-83790000D01*
X206808791Y-83790000D01*
X206808791Y-85390000D01*
X206813618Y-85439008D01*
X206827913Y-85486134D01*
X206851127Y-85529564D01*
X206882368Y-85567632D01*
X206920436Y-85598873D01*
X206963866Y-85622087D01*
X207010992Y-85636382D01*
X207060000Y-85641209D01*
X208660000Y-85641209D01*
X208709008Y-85636382D01*
X208756134Y-85622087D01*
X208799564Y-85598873D01*
X208837632Y-85567632D01*
X208868873Y-85529564D01*
X208892087Y-85486134D01*
X208906382Y-85439008D01*
X208911209Y-85390000D01*
X208911209Y-84980000D01*
X209049809Y-84980000D01*
X209095598Y-85004475D01*
X209161483Y-85024461D01*
X209230000Y-85031209D01*
X209269585Y-85031209D01*
X209272763Y-85039114D01*
X209332868Y-85131141D01*
X209409772Y-85209674D01*
X209500519Y-85271695D01*
X209601622Y-85314821D01*
X209680500Y-85338000D01*
X209820000Y-85198500D01*
X209820000Y-84796189D01*
X209834461Y-84748517D01*
X209836284Y-84730000D01*
X210180000Y-84730000D01*
X210180000Y-85198500D01*
X210319500Y-85338000D01*
X210398378Y-85314821D01*
X210499481Y-85271695D01*
X210590228Y-85209674D01*
X210667132Y-85131141D01*
X210727237Y-85039114D01*
X210768233Y-84937129D01*
X210788000Y-84869500D01*
X210648500Y-84730000D01*
X210180000Y-84730000D01*
X209836284Y-84730000D01*
X209841209Y-84680000D01*
X209841209Y-84480000D01*
X209840559Y-84473390D01*
X211500420Y-84473390D01*
X211503795Y-84740871D01*
X211559287Y-85002554D01*
X211648537Y-85218022D01*
X211861589Y-85299911D01*
X212571500Y-84590000D01*
X211861589Y-83880089D01*
X211648537Y-83961978D01*
X211549294Y-84210390D01*
X211500420Y-84473390D01*
X209840559Y-84473390D01*
X209834461Y-84411483D01*
X209820000Y-84363811D01*
X209820000Y-83961500D01*
X210180000Y-83961500D01*
X210180000Y-84430000D01*
X210648500Y-84430000D01*
X210788000Y-84290500D01*
X210768233Y-84222871D01*
X210727237Y-84120886D01*
X210667132Y-84028859D01*
X210590228Y-83950326D01*
X210499481Y-83888305D01*
X210398378Y-83845179D01*
X210319500Y-83822000D01*
X210180000Y-83961500D01*
X209820000Y-83961500D01*
X209680500Y-83822000D01*
X209601622Y-83845179D01*
X209500519Y-83888305D01*
X209409772Y-83950326D01*
X209332868Y-84028859D01*
X209272763Y-84120886D01*
X209269585Y-84128791D01*
X209230000Y-84128791D01*
X209161483Y-84135539D01*
X209095598Y-84155525D01*
X209049809Y-84180000D01*
X208911209Y-84180000D01*
X208911209Y-83790000D01*
X208906382Y-83740992D01*
X208892087Y-83693866D01*
X208868873Y-83650436D01*
X208837632Y-83612368D01*
X208812313Y-83591589D01*
X212150089Y-83591589D01*
X212860000Y-84301500D01*
X213569911Y-83591589D01*
X213488022Y-83378537D01*
X213239610Y-83279294D01*
X212976610Y-83230420D01*
X212709129Y-83233795D01*
X212447446Y-83289287D01*
X212231978Y-83378537D01*
X212150089Y-83591589D01*
X208812313Y-83591589D01*
X208799564Y-83581127D01*
X208756134Y-83557913D01*
X208709008Y-83543618D01*
X208660000Y-83538791D01*
X207060000Y-83538791D01*
X207010992Y-83543618D01*
X206963866Y-83557913D01*
X206920436Y-83581127D01*
X206882368Y-83612368D01*
X206851127Y-83650436D01*
X206827913Y-83693866D01*
X206813618Y-83740992D01*
X206808791Y-83790000D01*
X205558795Y-83790000D01*
X205558000Y-83143500D01*
X205418500Y-83004000D01*
X204454000Y-83004000D01*
X204046000Y-83004000D01*
X203081500Y-83004000D01*
X202942000Y-83143500D01*
X202939300Y-85340000D01*
X197060700Y-85340000D01*
X197058000Y-83143500D01*
X196918500Y-83004000D01*
X195954000Y-83004000D01*
X195546000Y-83004000D01*
X194581500Y-83004000D01*
X194442000Y-83143500D01*
X194439300Y-85340000D01*
X193560700Y-85340000D01*
X193558000Y-83143500D01*
X193418500Y-83004000D01*
X192454000Y-83004000D01*
X192046000Y-83004000D01*
X191081500Y-83004000D01*
X190942000Y-83143500D01*
X190939300Y-85340000D01*
X185060700Y-85340000D01*
X185058000Y-83143500D01*
X184918500Y-83004000D01*
X183954000Y-83004000D01*
X183546000Y-83004000D01*
X182581500Y-83004000D01*
X182442000Y-83143500D01*
X182439300Y-85340000D01*
X169650000Y-85340000D01*
X169650000Y-81065000D01*
X170221791Y-81065000D01*
X170221791Y-82765000D01*
X170226618Y-82814008D01*
X170240913Y-82861134D01*
X170264127Y-82904564D01*
X170295368Y-82942632D01*
X170333436Y-82973873D01*
X170376866Y-82997087D01*
X170423992Y-83011382D01*
X170473000Y-83016209D01*
X172173000Y-83016209D01*
X172222008Y-83011382D01*
X172269134Y-82997087D01*
X172312564Y-82973873D01*
X172350632Y-82942632D01*
X172381873Y-82904564D01*
X172405087Y-82861134D01*
X172419382Y-82814008D01*
X172424209Y-82765000D01*
X172424209Y-81065000D01*
X172419382Y-81015992D01*
X172405087Y-80968866D01*
X172381873Y-80925436D01*
X172350632Y-80887368D01*
X172312564Y-80856127D01*
X172269134Y-80832913D01*
X172222008Y-80818618D01*
X172173000Y-80813791D01*
X170473000Y-80813791D01*
X170423992Y-80818618D01*
X170376866Y-80832913D01*
X170333436Y-80856127D01*
X170295368Y-80887368D01*
X170264127Y-80925436D01*
X170240913Y-80968866D01*
X170226618Y-81015992D01*
X170221791Y-81065000D01*
X169650000Y-81065000D01*
X169650000Y-80350000D01*
X182439411Y-80350000D01*
X182442000Y-82456500D01*
G37*
G04 #@! TD.AperFunction*
M02*
