G04 #@! TF.GenerationSoftware,KiCad,Pcbnew,(5.1.8)-1*
G04 #@! TF.CreationDate,2020-12-15T23:42:14+02:00*
G04 #@! TF.ProjectId,qam - demodulator,71616d20-2d20-4646-956d-6f64756c6174,rev?*
G04 #@! TF.SameCoordinates,Original*
G04 #@! TF.FileFunction,Soldermask,Top*
G04 #@! TF.FilePolarity,Negative*
%FSLAX46Y46*%
G04 Gerber Fmt 4.6, Leading zero omitted, Abs format (unit mm)*
G04 Created by KiCad (PCBNEW (5.1.8)-1) date 2020-12-15 23:42:14*
%MOMM*%
%LPD*%
G01*
G04 APERTURE LIST*
%ADD10C,1.702000*%
%ADD11O,1.702000X1.702000*%
%ADD12C,1.722000*%
%ADD13O,0.952000X0.952000*%
%ADD14O,1.802000X1.802000*%
%ADD15C,0.100000*%
G04 APERTURE END LIST*
G36*
G01*
X179524000Y-115106000D02*
X179524000Y-114256000D01*
G75*
G02*
X179575000Y-114205000I51000J0D01*
G01*
X180425000Y-114205000D01*
G75*
G02*
X180476000Y-114256000I0J-51000D01*
G01*
X180476000Y-115106000D01*
G75*
G02*
X180425000Y-115157000I-51000J0D01*
G01*
X179575000Y-115157000D01*
G75*
G02*
X179524000Y-115106000I0J51000D01*
G01*
G37*
G36*
G01*
X203934000Y-89025000D02*
X203934000Y-88175000D01*
G75*
G02*
X203985000Y-88124000I51000J0D01*
G01*
X204835000Y-88124000D01*
G75*
G02*
X204886000Y-88175000I0J-51000D01*
G01*
X204886000Y-89025000D01*
G75*
G02*
X204835000Y-89076000I-51000J0D01*
G01*
X203985000Y-89076000D01*
G75*
G02*
X203934000Y-89025000I0J51000D01*
G01*
G37*
G36*
G01*
X170422000Y-128993000D02*
X170422000Y-127293000D01*
G75*
G02*
X170473000Y-127242000I51000J0D01*
G01*
X172173000Y-127242000D01*
G75*
G02*
X172224000Y-127293000I0J-51000D01*
G01*
X172224000Y-128993000D01*
G75*
G02*
X172173000Y-129044000I-51000J0D01*
G01*
X170473000Y-129044000D01*
G75*
G02*
X170422000Y-128993000I0J51000D01*
G01*
G37*
G36*
G01*
X170422000Y-82765000D02*
X170422000Y-81065000D01*
G75*
G02*
X170473000Y-81014000I51000J0D01*
G01*
X172173000Y-81014000D01*
G75*
G02*
X172224000Y-81065000I0J-51000D01*
G01*
X172224000Y-82765000D01*
G75*
G02*
X172173000Y-82816000I-51000J0D01*
G01*
X170473000Y-82816000D01*
G75*
G02*
X170422000Y-82765000I0J51000D01*
G01*
G37*
G36*
G01*
X222873000Y-128993000D02*
X222873000Y-127293000D01*
G75*
G02*
X222924000Y-127242000I51000J0D01*
G01*
X224624000Y-127242000D01*
G75*
G02*
X224675000Y-127293000I0J-51000D01*
G01*
X224675000Y-128993000D01*
G75*
G02*
X224624000Y-129044000I-51000J0D01*
G01*
X222924000Y-129044000D01*
G75*
G02*
X222873000Y-128993000I0J51000D01*
G01*
G37*
G36*
G01*
X212864500Y-93649000D02*
X213115500Y-93649000D01*
G75*
G02*
X213241000Y-93774500I0J-125500D01*
G01*
X213241000Y-94085500D01*
G75*
G02*
X213115500Y-94211000I-125500J0D01*
G01*
X212864500Y-94211000D01*
G75*
G02*
X212739000Y-94085500I0J125500D01*
G01*
X212739000Y-93774500D01*
G75*
G02*
X212864500Y-93649000I125500J0D01*
G01*
G37*
G36*
G01*
X212864500Y-94289000D02*
X213115500Y-94289000D01*
G75*
G02*
X213241000Y-94414500I0J-125500D01*
G01*
X213241000Y-94725500D01*
G75*
G02*
X213115500Y-94851000I-125500J0D01*
G01*
X212864500Y-94851000D01*
G75*
G02*
X212739000Y-94725500I0J125500D01*
G01*
X212739000Y-94414500D01*
G75*
G02*
X212864500Y-94289000I125500J0D01*
G01*
G37*
G36*
G01*
X207009000Y-85390000D02*
X207009000Y-83790000D01*
G75*
G02*
X207060000Y-83739000I51000J0D01*
G01*
X208660000Y-83739000D01*
G75*
G02*
X208711000Y-83790000I0J-51000D01*
G01*
X208711000Y-85390000D01*
G75*
G02*
X208660000Y-85441000I-51000J0D01*
G01*
X207060000Y-85441000D01*
G75*
G02*
X207009000Y-85390000I0J51000D01*
G01*
G37*
D10*
X212860000Y-84590000D03*
X211110000Y-116380000D03*
D11*
X211110000Y-126380000D03*
G36*
G01*
X225540000Y-110301000D02*
X220460000Y-110301000D01*
G75*
G02*
X220409000Y-110250000I0J51000D01*
G01*
X220409000Y-108750000D01*
G75*
G02*
X220460000Y-108699000I51000J0D01*
G01*
X225540000Y-108699000D01*
G75*
G02*
X225591000Y-108750000I0J-51000D01*
G01*
X225591000Y-110250000D01*
G75*
G02*
X225540000Y-110301000I-51000J0D01*
G01*
G37*
G36*
G01*
X225540000Y-101801000D02*
X220460000Y-101801000D01*
G75*
G02*
X220409000Y-101750000I0J51000D01*
G01*
X220409000Y-100250000D01*
G75*
G02*
X220460000Y-100199000I51000J0D01*
G01*
X225540000Y-100199000D01*
G75*
G02*
X225591000Y-100250000I0J-51000D01*
G01*
X225591000Y-101750000D01*
G75*
G02*
X225540000Y-101801000I-51000J0D01*
G01*
G37*
G36*
G01*
X225540000Y-106051000D02*
X220460000Y-106051000D01*
G75*
G02*
X220409000Y-106000000I0J51000D01*
G01*
X220409000Y-104500000D01*
G75*
G02*
X220460000Y-104449000I51000J0D01*
G01*
X225540000Y-104449000D01*
G75*
G02*
X225591000Y-104500000I0J-51000D01*
G01*
X225591000Y-106000000D01*
G75*
G02*
X225540000Y-106051000I-51000J0D01*
G01*
G37*
G36*
G01*
X222873000Y-82820000D02*
X222873000Y-81120000D01*
G75*
G02*
X222924000Y-81069000I51000J0D01*
G01*
X224624000Y-81069000D01*
G75*
G02*
X224675000Y-81120000I0J-51000D01*
G01*
X224675000Y-82820000D01*
G75*
G02*
X224624000Y-82871000I-51000J0D01*
G01*
X222924000Y-82871000D01*
G75*
G02*
X222873000Y-82820000I0J51000D01*
G01*
G37*
G36*
G01*
X222873000Y-86448000D02*
X222873000Y-84748000D01*
G75*
G02*
X222924000Y-84697000I51000J0D01*
G01*
X224624000Y-84697000D01*
G75*
G02*
X224675000Y-84748000I0J-51000D01*
G01*
X224675000Y-86448000D01*
G75*
G02*
X224624000Y-86499000I-51000J0D01*
G01*
X222924000Y-86499000D01*
G75*
G02*
X222873000Y-86448000I0J51000D01*
G01*
G37*
G36*
G01*
X175478828Y-125781000D02*
X174521172Y-125781000D01*
G75*
G02*
X174249000Y-125508828I0J272172D01*
G01*
X174249000Y-124801172D01*
G75*
G02*
X174521172Y-124529000I272172J0D01*
G01*
X175478828Y-124529000D01*
G75*
G02*
X175751000Y-124801172I0J-272172D01*
G01*
X175751000Y-125508828D01*
G75*
G02*
X175478828Y-125781000I-272172J0D01*
G01*
G37*
G36*
G01*
X175478828Y-127831000D02*
X174521172Y-127831000D01*
G75*
G02*
X174249000Y-127558828I0J272172D01*
G01*
X174249000Y-126851172D01*
G75*
G02*
X174521172Y-126579000I272172J0D01*
G01*
X175478828Y-126579000D01*
G75*
G02*
X175751000Y-126851172I0J-272172D01*
G01*
X175751000Y-127558828D01*
G75*
G02*
X175478828Y-127831000I-272172J0D01*
G01*
G37*
G36*
G01*
X179521172Y-126579000D02*
X180478828Y-126579000D01*
G75*
G02*
X180751000Y-126851172I0J-272172D01*
G01*
X180751000Y-127558828D01*
G75*
G02*
X180478828Y-127831000I-272172J0D01*
G01*
X179521172Y-127831000D01*
G75*
G02*
X179249000Y-127558828I0J272172D01*
G01*
X179249000Y-126851172D01*
G75*
G02*
X179521172Y-126579000I272172J0D01*
G01*
G37*
G36*
G01*
X179521172Y-124529000D02*
X180478828Y-124529000D01*
G75*
G02*
X180751000Y-124801172I0J-272172D01*
G01*
X180751000Y-125508828D01*
G75*
G02*
X180478828Y-125781000I-272172J0D01*
G01*
X179521172Y-125781000D01*
G75*
G02*
X179249000Y-125508828I0J272172D01*
G01*
X179249000Y-124801172D01*
G75*
G02*
X179521172Y-124529000I272172J0D01*
G01*
G37*
D12*
X180000000Y-120000000D03*
X177500000Y-117500000D03*
X175000000Y-120000000D03*
G36*
G01*
X178074000Y-103625000D02*
X178074000Y-103275000D01*
G75*
G02*
X178125000Y-103224000I51000J0D01*
G01*
X178775000Y-103224000D01*
G75*
G02*
X178826000Y-103275000I0J-51000D01*
G01*
X178826000Y-103625000D01*
G75*
G02*
X178775000Y-103676000I-51000J0D01*
G01*
X178125000Y-103676000D01*
G75*
G02*
X178074000Y-103625000I0J51000D01*
G01*
G37*
G36*
G01*
X178074000Y-104275000D02*
X178074000Y-103925000D01*
G75*
G02*
X178125000Y-103874000I51000J0D01*
G01*
X178775000Y-103874000D01*
G75*
G02*
X178826000Y-103925000I0J-51000D01*
G01*
X178826000Y-104275000D01*
G75*
G02*
X178775000Y-104326000I-51000J0D01*
G01*
X178125000Y-104326000D01*
G75*
G02*
X178074000Y-104275000I0J51000D01*
G01*
G37*
G36*
G01*
X178074000Y-104925000D02*
X178074000Y-104575000D01*
G75*
G02*
X178125000Y-104524000I51000J0D01*
G01*
X178775000Y-104524000D01*
G75*
G02*
X178826000Y-104575000I0J-51000D01*
G01*
X178826000Y-104925000D01*
G75*
G02*
X178775000Y-104976000I-51000J0D01*
G01*
X178125000Y-104976000D01*
G75*
G02*
X178074000Y-104925000I0J51000D01*
G01*
G37*
G36*
G01*
X180174000Y-104925000D02*
X180174000Y-104575000D01*
G75*
G02*
X180225000Y-104524000I51000J0D01*
G01*
X180875000Y-104524000D01*
G75*
G02*
X180926000Y-104575000I0J-51000D01*
G01*
X180926000Y-104925000D01*
G75*
G02*
X180875000Y-104976000I-51000J0D01*
G01*
X180225000Y-104976000D01*
G75*
G02*
X180174000Y-104925000I0J51000D01*
G01*
G37*
G36*
G01*
X180174000Y-104275000D02*
X180174000Y-103925000D01*
G75*
G02*
X180225000Y-103874000I51000J0D01*
G01*
X180875000Y-103874000D01*
G75*
G02*
X180926000Y-103925000I0J-51000D01*
G01*
X180926000Y-104275000D01*
G75*
G02*
X180875000Y-104326000I-51000J0D01*
G01*
X180225000Y-104326000D01*
G75*
G02*
X180174000Y-104275000I0J51000D01*
G01*
G37*
G36*
G01*
X180174000Y-103625000D02*
X180174000Y-103275000D01*
G75*
G02*
X180225000Y-103224000I51000J0D01*
G01*
X180875000Y-103224000D01*
G75*
G02*
X180926000Y-103275000I0J-51000D01*
G01*
X180926000Y-103625000D01*
G75*
G02*
X180875000Y-103676000I-51000J0D01*
G01*
X180225000Y-103676000D01*
G75*
G02*
X180174000Y-103625000I0J51000D01*
G01*
G37*
G36*
G01*
X178949000Y-104900000D02*
X178949000Y-103300000D01*
G75*
G02*
X179000000Y-103249000I51000J0D01*
G01*
X180000000Y-103249000D01*
G75*
G02*
X180051000Y-103300000I0J-51000D01*
G01*
X180051000Y-104900000D01*
G75*
G02*
X180000000Y-104951000I-51000J0D01*
G01*
X179000000Y-104951000D01*
G75*
G02*
X178949000Y-104900000I0J51000D01*
G01*
G37*
G36*
G01*
X182149000Y-103400000D02*
X182149000Y-103100000D01*
G75*
G02*
X182200000Y-103049000I51000J0D01*
G01*
X183000000Y-103049000D01*
G75*
G02*
X183051000Y-103100000I0J-51000D01*
G01*
X183051000Y-103400000D01*
G75*
G02*
X183000000Y-103451000I-51000J0D01*
G01*
X182200000Y-103451000D01*
G75*
G02*
X182149000Y-103400000I0J51000D01*
G01*
G37*
G36*
G01*
X182149000Y-103900000D02*
X182149000Y-103600000D01*
G75*
G02*
X182200000Y-103549000I51000J0D01*
G01*
X183000000Y-103549000D01*
G75*
G02*
X183051000Y-103600000I0J-51000D01*
G01*
X183051000Y-103900000D01*
G75*
G02*
X183000000Y-103951000I-51000J0D01*
G01*
X182200000Y-103951000D01*
G75*
G02*
X182149000Y-103900000I0J51000D01*
G01*
G37*
G36*
G01*
X182149000Y-104400000D02*
X182149000Y-104100000D01*
G75*
G02*
X182200000Y-104049000I51000J0D01*
G01*
X183000000Y-104049000D01*
G75*
G02*
X183051000Y-104100000I0J-51000D01*
G01*
X183051000Y-104400000D01*
G75*
G02*
X183000000Y-104451000I-51000J0D01*
G01*
X182200000Y-104451000D01*
G75*
G02*
X182149000Y-104400000I0J51000D01*
G01*
G37*
G36*
G01*
X182149000Y-104900000D02*
X182149000Y-104600000D01*
G75*
G02*
X182200000Y-104549000I51000J0D01*
G01*
X183000000Y-104549000D01*
G75*
G02*
X183051000Y-104600000I0J-51000D01*
G01*
X183051000Y-104900000D01*
G75*
G02*
X183000000Y-104951000I-51000J0D01*
G01*
X182200000Y-104951000D01*
G75*
G02*
X182149000Y-104900000I0J51000D01*
G01*
G37*
G36*
G01*
X182149000Y-105400000D02*
X182149000Y-105100000D01*
G75*
G02*
X182200000Y-105049000I51000J0D01*
G01*
X183000000Y-105049000D01*
G75*
G02*
X183051000Y-105100000I0J-51000D01*
G01*
X183051000Y-105400000D01*
G75*
G02*
X183000000Y-105451000I-51000J0D01*
G01*
X182200000Y-105451000D01*
G75*
G02*
X182149000Y-105400000I0J51000D01*
G01*
G37*
G36*
G01*
X182149000Y-105900000D02*
X182149000Y-105600000D01*
G75*
G02*
X182200000Y-105549000I51000J0D01*
G01*
X183000000Y-105549000D01*
G75*
G02*
X183051000Y-105600000I0J-51000D01*
G01*
X183051000Y-105900000D01*
G75*
G02*
X183000000Y-105951000I-51000J0D01*
G01*
X182200000Y-105951000D01*
G75*
G02*
X182149000Y-105900000I0J51000D01*
G01*
G37*
G36*
G01*
X182149000Y-106400000D02*
X182149000Y-106100000D01*
G75*
G02*
X182200000Y-106049000I51000J0D01*
G01*
X183000000Y-106049000D01*
G75*
G02*
X183051000Y-106100000I0J-51000D01*
G01*
X183051000Y-106400000D01*
G75*
G02*
X183000000Y-106451000I-51000J0D01*
G01*
X182200000Y-106451000D01*
G75*
G02*
X182149000Y-106400000I0J51000D01*
G01*
G37*
G36*
G01*
X182149000Y-106900000D02*
X182149000Y-106600000D01*
G75*
G02*
X182200000Y-106549000I51000J0D01*
G01*
X183000000Y-106549000D01*
G75*
G02*
X183051000Y-106600000I0J-51000D01*
G01*
X183051000Y-106900000D01*
G75*
G02*
X183000000Y-106951000I-51000J0D01*
G01*
X182200000Y-106951000D01*
G75*
G02*
X182149000Y-106900000I0J51000D01*
G01*
G37*
G36*
G01*
X183400000Y-107851000D02*
X183100000Y-107851000D01*
G75*
G02*
X183049000Y-107800000I0J51000D01*
G01*
X183049000Y-107000000D01*
G75*
G02*
X183100000Y-106949000I51000J0D01*
G01*
X183400000Y-106949000D01*
G75*
G02*
X183451000Y-107000000I0J-51000D01*
G01*
X183451000Y-107800000D01*
G75*
G02*
X183400000Y-107851000I-51000J0D01*
G01*
G37*
G36*
G01*
X183900000Y-107851000D02*
X183600000Y-107851000D01*
G75*
G02*
X183549000Y-107800000I0J51000D01*
G01*
X183549000Y-107000000D01*
G75*
G02*
X183600000Y-106949000I51000J0D01*
G01*
X183900000Y-106949000D01*
G75*
G02*
X183951000Y-107000000I0J-51000D01*
G01*
X183951000Y-107800000D01*
G75*
G02*
X183900000Y-107851000I-51000J0D01*
G01*
G37*
G36*
G01*
X184400000Y-107851000D02*
X184100000Y-107851000D01*
G75*
G02*
X184049000Y-107800000I0J51000D01*
G01*
X184049000Y-107000000D01*
G75*
G02*
X184100000Y-106949000I51000J0D01*
G01*
X184400000Y-106949000D01*
G75*
G02*
X184451000Y-107000000I0J-51000D01*
G01*
X184451000Y-107800000D01*
G75*
G02*
X184400000Y-107851000I-51000J0D01*
G01*
G37*
G36*
G01*
X184900000Y-107851000D02*
X184600000Y-107851000D01*
G75*
G02*
X184549000Y-107800000I0J51000D01*
G01*
X184549000Y-107000000D01*
G75*
G02*
X184600000Y-106949000I51000J0D01*
G01*
X184900000Y-106949000D01*
G75*
G02*
X184951000Y-107000000I0J-51000D01*
G01*
X184951000Y-107800000D01*
G75*
G02*
X184900000Y-107851000I-51000J0D01*
G01*
G37*
G36*
G01*
X185400000Y-107851000D02*
X185100000Y-107851000D01*
G75*
G02*
X185049000Y-107800000I0J51000D01*
G01*
X185049000Y-107000000D01*
G75*
G02*
X185100000Y-106949000I51000J0D01*
G01*
X185400000Y-106949000D01*
G75*
G02*
X185451000Y-107000000I0J-51000D01*
G01*
X185451000Y-107800000D01*
G75*
G02*
X185400000Y-107851000I-51000J0D01*
G01*
G37*
G36*
G01*
X185900000Y-107851000D02*
X185600000Y-107851000D01*
G75*
G02*
X185549000Y-107800000I0J51000D01*
G01*
X185549000Y-107000000D01*
G75*
G02*
X185600000Y-106949000I51000J0D01*
G01*
X185900000Y-106949000D01*
G75*
G02*
X185951000Y-107000000I0J-51000D01*
G01*
X185951000Y-107800000D01*
G75*
G02*
X185900000Y-107851000I-51000J0D01*
G01*
G37*
G36*
G01*
X186400000Y-107851000D02*
X186100000Y-107851000D01*
G75*
G02*
X186049000Y-107800000I0J51000D01*
G01*
X186049000Y-107000000D01*
G75*
G02*
X186100000Y-106949000I51000J0D01*
G01*
X186400000Y-106949000D01*
G75*
G02*
X186451000Y-107000000I0J-51000D01*
G01*
X186451000Y-107800000D01*
G75*
G02*
X186400000Y-107851000I-51000J0D01*
G01*
G37*
G36*
G01*
X186900000Y-107851000D02*
X186600000Y-107851000D01*
G75*
G02*
X186549000Y-107800000I0J51000D01*
G01*
X186549000Y-107000000D01*
G75*
G02*
X186600000Y-106949000I51000J0D01*
G01*
X186900000Y-106949000D01*
G75*
G02*
X186951000Y-107000000I0J-51000D01*
G01*
X186951000Y-107800000D01*
G75*
G02*
X186900000Y-107851000I-51000J0D01*
G01*
G37*
G36*
G01*
X186949000Y-106900000D02*
X186949000Y-106600000D01*
G75*
G02*
X187000000Y-106549000I51000J0D01*
G01*
X187800000Y-106549000D01*
G75*
G02*
X187851000Y-106600000I0J-51000D01*
G01*
X187851000Y-106900000D01*
G75*
G02*
X187800000Y-106951000I-51000J0D01*
G01*
X187000000Y-106951000D01*
G75*
G02*
X186949000Y-106900000I0J51000D01*
G01*
G37*
G36*
G01*
X186949000Y-106400000D02*
X186949000Y-106100000D01*
G75*
G02*
X187000000Y-106049000I51000J0D01*
G01*
X187800000Y-106049000D01*
G75*
G02*
X187851000Y-106100000I0J-51000D01*
G01*
X187851000Y-106400000D01*
G75*
G02*
X187800000Y-106451000I-51000J0D01*
G01*
X187000000Y-106451000D01*
G75*
G02*
X186949000Y-106400000I0J51000D01*
G01*
G37*
G36*
G01*
X186949000Y-105900000D02*
X186949000Y-105600000D01*
G75*
G02*
X187000000Y-105549000I51000J0D01*
G01*
X187800000Y-105549000D01*
G75*
G02*
X187851000Y-105600000I0J-51000D01*
G01*
X187851000Y-105900000D01*
G75*
G02*
X187800000Y-105951000I-51000J0D01*
G01*
X187000000Y-105951000D01*
G75*
G02*
X186949000Y-105900000I0J51000D01*
G01*
G37*
G36*
G01*
X186949000Y-105400000D02*
X186949000Y-105100000D01*
G75*
G02*
X187000000Y-105049000I51000J0D01*
G01*
X187800000Y-105049000D01*
G75*
G02*
X187851000Y-105100000I0J-51000D01*
G01*
X187851000Y-105400000D01*
G75*
G02*
X187800000Y-105451000I-51000J0D01*
G01*
X187000000Y-105451000D01*
G75*
G02*
X186949000Y-105400000I0J51000D01*
G01*
G37*
G36*
G01*
X186949000Y-104900000D02*
X186949000Y-104600000D01*
G75*
G02*
X187000000Y-104549000I51000J0D01*
G01*
X187800000Y-104549000D01*
G75*
G02*
X187851000Y-104600000I0J-51000D01*
G01*
X187851000Y-104900000D01*
G75*
G02*
X187800000Y-104951000I-51000J0D01*
G01*
X187000000Y-104951000D01*
G75*
G02*
X186949000Y-104900000I0J51000D01*
G01*
G37*
G36*
G01*
X186949000Y-104400000D02*
X186949000Y-104100000D01*
G75*
G02*
X187000000Y-104049000I51000J0D01*
G01*
X187800000Y-104049000D01*
G75*
G02*
X187851000Y-104100000I0J-51000D01*
G01*
X187851000Y-104400000D01*
G75*
G02*
X187800000Y-104451000I-51000J0D01*
G01*
X187000000Y-104451000D01*
G75*
G02*
X186949000Y-104400000I0J51000D01*
G01*
G37*
G36*
G01*
X186949000Y-103900000D02*
X186949000Y-103600000D01*
G75*
G02*
X187000000Y-103549000I51000J0D01*
G01*
X187800000Y-103549000D01*
G75*
G02*
X187851000Y-103600000I0J-51000D01*
G01*
X187851000Y-103900000D01*
G75*
G02*
X187800000Y-103951000I-51000J0D01*
G01*
X187000000Y-103951000D01*
G75*
G02*
X186949000Y-103900000I0J51000D01*
G01*
G37*
G36*
G01*
X186949000Y-103400000D02*
X186949000Y-103100000D01*
G75*
G02*
X187000000Y-103049000I51000J0D01*
G01*
X187800000Y-103049000D01*
G75*
G02*
X187851000Y-103100000I0J-51000D01*
G01*
X187851000Y-103400000D01*
G75*
G02*
X187800000Y-103451000I-51000J0D01*
G01*
X187000000Y-103451000D01*
G75*
G02*
X186949000Y-103400000I0J51000D01*
G01*
G37*
G36*
G01*
X186900000Y-103051000D02*
X186600000Y-103051000D01*
G75*
G02*
X186549000Y-103000000I0J51000D01*
G01*
X186549000Y-102200000D01*
G75*
G02*
X186600000Y-102149000I51000J0D01*
G01*
X186900000Y-102149000D01*
G75*
G02*
X186951000Y-102200000I0J-51000D01*
G01*
X186951000Y-103000000D01*
G75*
G02*
X186900000Y-103051000I-51000J0D01*
G01*
G37*
G36*
G01*
X186400000Y-103051000D02*
X186100000Y-103051000D01*
G75*
G02*
X186049000Y-103000000I0J51000D01*
G01*
X186049000Y-102200000D01*
G75*
G02*
X186100000Y-102149000I51000J0D01*
G01*
X186400000Y-102149000D01*
G75*
G02*
X186451000Y-102200000I0J-51000D01*
G01*
X186451000Y-103000000D01*
G75*
G02*
X186400000Y-103051000I-51000J0D01*
G01*
G37*
G36*
G01*
X185900000Y-103051000D02*
X185600000Y-103051000D01*
G75*
G02*
X185549000Y-103000000I0J51000D01*
G01*
X185549000Y-102200000D01*
G75*
G02*
X185600000Y-102149000I51000J0D01*
G01*
X185900000Y-102149000D01*
G75*
G02*
X185951000Y-102200000I0J-51000D01*
G01*
X185951000Y-103000000D01*
G75*
G02*
X185900000Y-103051000I-51000J0D01*
G01*
G37*
G36*
G01*
X185400000Y-103051000D02*
X185100000Y-103051000D01*
G75*
G02*
X185049000Y-103000000I0J51000D01*
G01*
X185049000Y-102200000D01*
G75*
G02*
X185100000Y-102149000I51000J0D01*
G01*
X185400000Y-102149000D01*
G75*
G02*
X185451000Y-102200000I0J-51000D01*
G01*
X185451000Y-103000000D01*
G75*
G02*
X185400000Y-103051000I-51000J0D01*
G01*
G37*
G36*
G01*
X184900000Y-103051000D02*
X184600000Y-103051000D01*
G75*
G02*
X184549000Y-103000000I0J51000D01*
G01*
X184549000Y-102200000D01*
G75*
G02*
X184600000Y-102149000I51000J0D01*
G01*
X184900000Y-102149000D01*
G75*
G02*
X184951000Y-102200000I0J-51000D01*
G01*
X184951000Y-103000000D01*
G75*
G02*
X184900000Y-103051000I-51000J0D01*
G01*
G37*
G36*
G01*
X184400000Y-103051000D02*
X184100000Y-103051000D01*
G75*
G02*
X184049000Y-103000000I0J51000D01*
G01*
X184049000Y-102200000D01*
G75*
G02*
X184100000Y-102149000I51000J0D01*
G01*
X184400000Y-102149000D01*
G75*
G02*
X184451000Y-102200000I0J-51000D01*
G01*
X184451000Y-103000000D01*
G75*
G02*
X184400000Y-103051000I-51000J0D01*
G01*
G37*
G36*
G01*
X183900000Y-103051000D02*
X183600000Y-103051000D01*
G75*
G02*
X183549000Y-103000000I0J51000D01*
G01*
X183549000Y-102200000D01*
G75*
G02*
X183600000Y-102149000I51000J0D01*
G01*
X183900000Y-102149000D01*
G75*
G02*
X183951000Y-102200000I0J-51000D01*
G01*
X183951000Y-103000000D01*
G75*
G02*
X183900000Y-103051000I-51000J0D01*
G01*
G37*
G36*
G01*
X183400000Y-103051000D02*
X183100000Y-103051000D01*
G75*
G02*
X183049000Y-103000000I0J51000D01*
G01*
X183049000Y-102200000D01*
G75*
G02*
X183100000Y-102149000I51000J0D01*
G01*
X183400000Y-102149000D01*
G75*
G02*
X183451000Y-102200000I0J-51000D01*
G01*
X183451000Y-103000000D01*
G75*
G02*
X183400000Y-103051000I-51000J0D01*
G01*
G37*
G36*
G01*
X183324000Y-106625000D02*
X183324000Y-103375000D01*
G75*
G02*
X183375000Y-103324000I51000J0D01*
G01*
X186625000Y-103324000D01*
G75*
G02*
X186676000Y-103375000I0J-51000D01*
G01*
X186676000Y-106625000D01*
G75*
G02*
X186625000Y-106676000I-51000J0D01*
G01*
X183375000Y-106676000D01*
G75*
G02*
X183324000Y-106625000I0J51000D01*
G01*
G37*
D10*
X223860000Y-90230000D03*
D11*
X223860000Y-97730000D03*
G36*
G01*
X193051000Y-80260000D02*
X193051000Y-85340000D01*
G75*
G02*
X193000000Y-85391000I-51000J0D01*
G01*
X191500000Y-85391000D01*
G75*
G02*
X191449000Y-85340000I0J51000D01*
G01*
X191449000Y-80260000D01*
G75*
G02*
X191500000Y-80209000I51000J0D01*
G01*
X193000000Y-80209000D01*
G75*
G02*
X193051000Y-80260000I0J-51000D01*
G01*
G37*
G36*
G01*
X184551000Y-80260000D02*
X184551000Y-85340000D01*
G75*
G02*
X184500000Y-85391000I-51000J0D01*
G01*
X183000000Y-85391000D01*
G75*
G02*
X182949000Y-85340000I0J51000D01*
G01*
X182949000Y-80260000D01*
G75*
G02*
X183000000Y-80209000I51000J0D01*
G01*
X184500000Y-80209000D01*
G75*
G02*
X184551000Y-80260000I0J-51000D01*
G01*
G37*
G36*
G01*
X188801000Y-80260000D02*
X188801000Y-85340000D01*
G75*
G02*
X188750000Y-85391000I-51000J0D01*
G01*
X187250000Y-85391000D01*
G75*
G02*
X187199000Y-85340000I0J51000D01*
G01*
X187199000Y-80260000D01*
G75*
G02*
X187250000Y-80209000I51000J0D01*
G01*
X188750000Y-80209000D01*
G75*
G02*
X188801000Y-80260000I0J-51000D01*
G01*
G37*
G36*
G01*
X187199000Y-129740000D02*
X187199000Y-124660000D01*
G75*
G02*
X187250000Y-124609000I51000J0D01*
G01*
X188750000Y-124609000D01*
G75*
G02*
X188801000Y-124660000I0J-51000D01*
G01*
X188801000Y-129740000D01*
G75*
G02*
X188750000Y-129791000I-51000J0D01*
G01*
X187250000Y-129791000D01*
G75*
G02*
X187199000Y-129740000I0J51000D01*
G01*
G37*
G36*
G01*
X191449000Y-129740000D02*
X191449000Y-124660000D01*
G75*
G02*
X191500000Y-124609000I51000J0D01*
G01*
X193000000Y-124609000D01*
G75*
G02*
X193051000Y-124660000I0J-51000D01*
G01*
X193051000Y-129740000D01*
G75*
G02*
X193000000Y-129791000I-51000J0D01*
G01*
X191500000Y-129791000D01*
G75*
G02*
X191449000Y-129740000I0J51000D01*
G01*
G37*
G36*
G01*
X182949000Y-129740000D02*
X182949000Y-124660000D01*
G75*
G02*
X183000000Y-124609000I51000J0D01*
G01*
X184500000Y-124609000D01*
G75*
G02*
X184551000Y-124660000I0J-51000D01*
G01*
X184551000Y-129740000D01*
G75*
G02*
X184500000Y-129791000I-51000J0D01*
G01*
X183000000Y-129791000D01*
G75*
G02*
X182949000Y-129740000I0J51000D01*
G01*
G37*
G36*
G01*
X205051000Y-80260000D02*
X205051000Y-85340000D01*
G75*
G02*
X205000000Y-85391000I-51000J0D01*
G01*
X203500000Y-85391000D01*
G75*
G02*
X203449000Y-85340000I0J51000D01*
G01*
X203449000Y-80260000D01*
G75*
G02*
X203500000Y-80209000I51000J0D01*
G01*
X205000000Y-80209000D01*
G75*
G02*
X205051000Y-80260000I0J-51000D01*
G01*
G37*
G36*
G01*
X196551000Y-80260000D02*
X196551000Y-85340000D01*
G75*
G02*
X196500000Y-85391000I-51000J0D01*
G01*
X195000000Y-85391000D01*
G75*
G02*
X194949000Y-85340000I0J51000D01*
G01*
X194949000Y-80260000D01*
G75*
G02*
X195000000Y-80209000I51000J0D01*
G01*
X196500000Y-80209000D01*
G75*
G02*
X196551000Y-80260000I0J-51000D01*
G01*
G37*
G36*
G01*
X200801000Y-80260000D02*
X200801000Y-85340000D01*
G75*
G02*
X200750000Y-85391000I-51000J0D01*
G01*
X199250000Y-85391000D01*
G75*
G02*
X199199000Y-85340000I0J51000D01*
G01*
X199199000Y-80260000D01*
G75*
G02*
X199250000Y-80209000I51000J0D01*
G01*
X200750000Y-80209000D01*
G75*
G02*
X200801000Y-80260000I0J-51000D01*
G01*
G37*
G36*
G01*
X199199000Y-129740000D02*
X199199000Y-124660000D01*
G75*
G02*
X199250000Y-124609000I51000J0D01*
G01*
X200750000Y-124609000D01*
G75*
G02*
X200801000Y-124660000I0J-51000D01*
G01*
X200801000Y-129740000D01*
G75*
G02*
X200750000Y-129791000I-51000J0D01*
G01*
X199250000Y-129791000D01*
G75*
G02*
X199199000Y-129740000I0J51000D01*
G01*
G37*
G36*
G01*
X203449000Y-129740000D02*
X203449000Y-124660000D01*
G75*
G02*
X203500000Y-124609000I51000J0D01*
G01*
X205000000Y-124609000D01*
G75*
G02*
X205051000Y-124660000I0J-51000D01*
G01*
X205051000Y-129740000D01*
G75*
G02*
X205000000Y-129791000I-51000J0D01*
G01*
X203500000Y-129791000D01*
G75*
G02*
X203449000Y-129740000I0J51000D01*
G01*
G37*
G36*
G01*
X194949000Y-129740000D02*
X194949000Y-124660000D01*
G75*
G02*
X195000000Y-124609000I51000J0D01*
G01*
X196500000Y-124609000D01*
G75*
G02*
X196551000Y-124660000I0J-51000D01*
G01*
X196551000Y-129740000D01*
G75*
G02*
X196500000Y-129791000I-51000J0D01*
G01*
X195000000Y-129791000D01*
G75*
G02*
X194949000Y-129740000I0J51000D01*
G01*
G37*
G36*
G01*
X184825500Y-97161000D02*
X184574500Y-97161000D01*
G75*
G02*
X184449000Y-97035500I0J125500D01*
G01*
X184449000Y-96724500D01*
G75*
G02*
X184574500Y-96599000I125500J0D01*
G01*
X184825500Y-96599000D01*
G75*
G02*
X184951000Y-96724500I0J-125500D01*
G01*
X184951000Y-97035500D01*
G75*
G02*
X184825500Y-97161000I-125500J0D01*
G01*
G37*
G36*
G01*
X184825500Y-97801000D02*
X184574500Y-97801000D01*
G75*
G02*
X184449000Y-97675500I0J125500D01*
G01*
X184449000Y-97364500D01*
G75*
G02*
X184574500Y-97239000I125500J0D01*
G01*
X184825500Y-97239000D01*
G75*
G02*
X184951000Y-97364500I0J-125500D01*
G01*
X184951000Y-97675500D01*
G75*
G02*
X184825500Y-97801000I-125500J0D01*
G01*
G37*
G36*
G01*
X183925500Y-97801000D02*
X183674500Y-97801000D01*
G75*
G02*
X183549000Y-97675500I0J125500D01*
G01*
X183549000Y-97364500D01*
G75*
G02*
X183674500Y-97239000I125500J0D01*
G01*
X183925500Y-97239000D01*
G75*
G02*
X184051000Y-97364500I0J-125500D01*
G01*
X184051000Y-97675500D01*
G75*
G02*
X183925500Y-97801000I-125500J0D01*
G01*
G37*
G36*
G01*
X183925500Y-97161000D02*
X183674500Y-97161000D01*
G75*
G02*
X183549000Y-97035500I0J125500D01*
G01*
X183549000Y-96724500D01*
G75*
G02*
X183674500Y-96599000I125500J0D01*
G01*
X183925500Y-96599000D01*
G75*
G02*
X184051000Y-96724500I0J-125500D01*
G01*
X184051000Y-97035500D01*
G75*
G02*
X183925500Y-97161000I-125500J0D01*
G01*
G37*
G36*
G01*
X183674500Y-112839000D02*
X183925500Y-112839000D01*
G75*
G02*
X184051000Y-112964500I0J-125500D01*
G01*
X184051000Y-113275500D01*
G75*
G02*
X183925500Y-113401000I-125500J0D01*
G01*
X183674500Y-113401000D01*
G75*
G02*
X183549000Y-113275500I0J125500D01*
G01*
X183549000Y-112964500D01*
G75*
G02*
X183674500Y-112839000I125500J0D01*
G01*
G37*
G36*
G01*
X183674500Y-112199000D02*
X183925500Y-112199000D01*
G75*
G02*
X184051000Y-112324500I0J-125500D01*
G01*
X184051000Y-112635500D01*
G75*
G02*
X183925500Y-112761000I-125500J0D01*
G01*
X183674500Y-112761000D01*
G75*
G02*
X183549000Y-112635500I0J125500D01*
G01*
X183549000Y-112324500D01*
G75*
G02*
X183674500Y-112199000I125500J0D01*
G01*
G37*
G36*
G01*
X184574500Y-112199000D02*
X184825500Y-112199000D01*
G75*
G02*
X184951000Y-112324500I0J-125500D01*
G01*
X184951000Y-112635500D01*
G75*
G02*
X184825500Y-112761000I-125500J0D01*
G01*
X184574500Y-112761000D01*
G75*
G02*
X184449000Y-112635500I0J125500D01*
G01*
X184449000Y-112324500D01*
G75*
G02*
X184574500Y-112199000I125500J0D01*
G01*
G37*
G36*
G01*
X184574500Y-112839000D02*
X184825500Y-112839000D01*
G75*
G02*
X184951000Y-112964500I0J-125500D01*
G01*
X184951000Y-113275500D01*
G75*
G02*
X184825500Y-113401000I-125500J0D01*
G01*
X184574500Y-113401000D01*
G75*
G02*
X184449000Y-113275500I0J125500D01*
G01*
X184449000Y-112964500D01*
G75*
G02*
X184574500Y-112839000I125500J0D01*
G01*
G37*
G36*
G01*
X184825500Y-100461000D02*
X184574500Y-100461000D01*
G75*
G02*
X184449000Y-100335500I0J125500D01*
G01*
X184449000Y-100024500D01*
G75*
G02*
X184574500Y-99899000I125500J0D01*
G01*
X184825500Y-99899000D01*
G75*
G02*
X184951000Y-100024500I0J-125500D01*
G01*
X184951000Y-100335500D01*
G75*
G02*
X184825500Y-100461000I-125500J0D01*
G01*
G37*
G36*
G01*
X184825500Y-101101000D02*
X184574500Y-101101000D01*
G75*
G02*
X184449000Y-100975500I0J125500D01*
G01*
X184449000Y-100664500D01*
G75*
G02*
X184574500Y-100539000I125500J0D01*
G01*
X184825500Y-100539000D01*
G75*
G02*
X184951000Y-100664500I0J-125500D01*
G01*
X184951000Y-100975500D01*
G75*
G02*
X184825500Y-101101000I-125500J0D01*
G01*
G37*
G36*
G01*
X183925500Y-101101000D02*
X183674500Y-101101000D01*
G75*
G02*
X183549000Y-100975500I0J125500D01*
G01*
X183549000Y-100664500D01*
G75*
G02*
X183674500Y-100539000I125500J0D01*
G01*
X183925500Y-100539000D01*
G75*
G02*
X184051000Y-100664500I0J-125500D01*
G01*
X184051000Y-100975500D01*
G75*
G02*
X183925500Y-101101000I-125500J0D01*
G01*
G37*
G36*
G01*
X183925500Y-100461000D02*
X183674500Y-100461000D01*
G75*
G02*
X183549000Y-100335500I0J125500D01*
G01*
X183549000Y-100024500D01*
G75*
G02*
X183674500Y-99899000I125500J0D01*
G01*
X183925500Y-99899000D01*
G75*
G02*
X184051000Y-100024500I0J-125500D01*
G01*
X184051000Y-100335500D01*
G75*
G02*
X183925500Y-100461000I-125500J0D01*
G01*
G37*
G36*
G01*
X183674500Y-109539000D02*
X183925500Y-109539000D01*
G75*
G02*
X184051000Y-109664500I0J-125500D01*
G01*
X184051000Y-109975500D01*
G75*
G02*
X183925500Y-110101000I-125500J0D01*
G01*
X183674500Y-110101000D01*
G75*
G02*
X183549000Y-109975500I0J125500D01*
G01*
X183549000Y-109664500D01*
G75*
G02*
X183674500Y-109539000I125500J0D01*
G01*
G37*
G36*
G01*
X183674500Y-108899000D02*
X183925500Y-108899000D01*
G75*
G02*
X184051000Y-109024500I0J-125500D01*
G01*
X184051000Y-109335500D01*
G75*
G02*
X183925500Y-109461000I-125500J0D01*
G01*
X183674500Y-109461000D01*
G75*
G02*
X183549000Y-109335500I0J125500D01*
G01*
X183549000Y-109024500D01*
G75*
G02*
X183674500Y-108899000I125500J0D01*
G01*
G37*
G36*
G01*
X184574500Y-108899000D02*
X184825500Y-108899000D01*
G75*
G02*
X184951000Y-109024500I0J-125500D01*
G01*
X184951000Y-109335500D01*
G75*
G02*
X184825500Y-109461000I-125500J0D01*
G01*
X184574500Y-109461000D01*
G75*
G02*
X184449000Y-109335500I0J125500D01*
G01*
X184449000Y-109024500D01*
G75*
G02*
X184574500Y-108899000I125500J0D01*
G01*
G37*
G36*
G01*
X184574500Y-109539000D02*
X184825500Y-109539000D01*
G75*
G02*
X184951000Y-109664500I0J-125500D01*
G01*
X184951000Y-109975500D01*
G75*
G02*
X184825500Y-110101000I-125500J0D01*
G01*
X184574500Y-110101000D01*
G75*
G02*
X184449000Y-109975500I0J125500D01*
G01*
X184449000Y-109664500D01*
G75*
G02*
X184574500Y-109539000I125500J0D01*
G01*
G37*
G36*
G01*
X190155500Y-105531000D02*
X189904500Y-105531000D01*
G75*
G02*
X189779000Y-105405500I0J125500D01*
G01*
X189779000Y-105094500D01*
G75*
G02*
X189904500Y-104969000I125500J0D01*
G01*
X190155500Y-104969000D01*
G75*
G02*
X190281000Y-105094500I0J-125500D01*
G01*
X190281000Y-105405500D01*
G75*
G02*
X190155500Y-105531000I-125500J0D01*
G01*
G37*
G36*
G01*
X190155500Y-104891000D02*
X189904500Y-104891000D01*
G75*
G02*
X189779000Y-104765500I0J125500D01*
G01*
X189779000Y-104454500D01*
G75*
G02*
X189904500Y-104329000I125500J0D01*
G01*
X190155500Y-104329000D01*
G75*
G02*
X190281000Y-104454500I0J-125500D01*
G01*
X190281000Y-104765500D01*
G75*
G02*
X190155500Y-104891000I-125500J0D01*
G01*
G37*
G36*
G01*
X189904500Y-106609000D02*
X190155500Y-106609000D01*
G75*
G02*
X190281000Y-106734500I0J-125500D01*
G01*
X190281000Y-107045500D01*
G75*
G02*
X190155500Y-107171000I-125500J0D01*
G01*
X189904500Y-107171000D01*
G75*
G02*
X189779000Y-107045500I0J125500D01*
G01*
X189779000Y-106734500D01*
G75*
G02*
X189904500Y-106609000I125500J0D01*
G01*
G37*
G36*
G01*
X189904500Y-105969000D02*
X190155500Y-105969000D01*
G75*
G02*
X190281000Y-106094500I0J-125500D01*
G01*
X190281000Y-106405500D01*
G75*
G02*
X190155500Y-106531000I-125500J0D01*
G01*
X189904500Y-106531000D01*
G75*
G02*
X189779000Y-106405500I0J125500D01*
G01*
X189779000Y-106094500D01*
G75*
G02*
X189904500Y-105969000I125500J0D01*
G01*
G37*
G36*
G01*
X191901000Y-106124500D02*
X191901000Y-106375500D01*
G75*
G02*
X191775500Y-106501000I-125500J0D01*
G01*
X191464500Y-106501000D01*
G75*
G02*
X191339000Y-106375500I0J125500D01*
G01*
X191339000Y-106124500D01*
G75*
G02*
X191464500Y-105999000I125500J0D01*
G01*
X191775500Y-105999000D01*
G75*
G02*
X191901000Y-106124500I0J-125500D01*
G01*
G37*
G36*
G01*
X191261000Y-106124500D02*
X191261000Y-106375500D01*
G75*
G02*
X191135500Y-106501000I-125500J0D01*
G01*
X190824500Y-106501000D01*
G75*
G02*
X190699000Y-106375500I0J125500D01*
G01*
X190699000Y-106124500D01*
G75*
G02*
X190824500Y-105999000I125500J0D01*
G01*
X191135500Y-105999000D01*
G75*
G02*
X191261000Y-106124500I0J-125500D01*
G01*
G37*
G36*
G01*
X192685500Y-105531000D02*
X192434500Y-105531000D01*
G75*
G02*
X192309000Y-105405500I0J125500D01*
G01*
X192309000Y-105094500D01*
G75*
G02*
X192434500Y-104969000I125500J0D01*
G01*
X192685500Y-104969000D01*
G75*
G02*
X192811000Y-105094500I0J-125500D01*
G01*
X192811000Y-105405500D01*
G75*
G02*
X192685500Y-105531000I-125500J0D01*
G01*
G37*
G36*
G01*
X192685500Y-104891000D02*
X192434500Y-104891000D01*
G75*
G02*
X192309000Y-104765500I0J125500D01*
G01*
X192309000Y-104454500D01*
G75*
G02*
X192434500Y-104329000I125500J0D01*
G01*
X192685500Y-104329000D01*
G75*
G02*
X192811000Y-104454500I0J-125500D01*
G01*
X192811000Y-104765500D01*
G75*
G02*
X192685500Y-104891000I-125500J0D01*
G01*
G37*
G36*
G01*
X184211000Y-98274500D02*
X184211000Y-98525500D01*
G75*
G02*
X184085500Y-98651000I-125500J0D01*
G01*
X183774500Y-98651000D01*
G75*
G02*
X183649000Y-98525500I0J125500D01*
G01*
X183649000Y-98274500D01*
G75*
G02*
X183774500Y-98149000I125500J0D01*
G01*
X184085500Y-98149000D01*
G75*
G02*
X184211000Y-98274500I0J-125500D01*
G01*
G37*
G36*
G01*
X184851000Y-98274500D02*
X184851000Y-98525500D01*
G75*
G02*
X184725500Y-98651000I-125500J0D01*
G01*
X184414500Y-98651000D01*
G75*
G02*
X184289000Y-98525500I0J125500D01*
G01*
X184289000Y-98274500D01*
G75*
G02*
X184414500Y-98149000I125500J0D01*
G01*
X184725500Y-98149000D01*
G75*
G02*
X184851000Y-98274500I0J-125500D01*
G01*
G37*
G36*
G01*
X184289000Y-111725500D02*
X184289000Y-111474500D01*
G75*
G02*
X184414500Y-111349000I125500J0D01*
G01*
X184725500Y-111349000D01*
G75*
G02*
X184851000Y-111474500I0J-125500D01*
G01*
X184851000Y-111725500D01*
G75*
G02*
X184725500Y-111851000I-125500J0D01*
G01*
X184414500Y-111851000D01*
G75*
G02*
X184289000Y-111725500I0J125500D01*
G01*
G37*
G36*
G01*
X183649000Y-111725500D02*
X183649000Y-111474500D01*
G75*
G02*
X183774500Y-111349000I125500J0D01*
G01*
X184085500Y-111349000D01*
G75*
G02*
X184211000Y-111474500I0J-125500D01*
G01*
X184211000Y-111725500D01*
G75*
G02*
X184085500Y-111851000I-125500J0D01*
G01*
X183774500Y-111851000D01*
G75*
G02*
X183649000Y-111725500I0J125500D01*
G01*
G37*
G36*
G01*
X184851000Y-99174500D02*
X184851000Y-99425500D01*
G75*
G02*
X184725500Y-99551000I-125500J0D01*
G01*
X184414500Y-99551000D01*
G75*
G02*
X184289000Y-99425500I0J125500D01*
G01*
X184289000Y-99174500D01*
G75*
G02*
X184414500Y-99049000I125500J0D01*
G01*
X184725500Y-99049000D01*
G75*
G02*
X184851000Y-99174500I0J-125500D01*
G01*
G37*
G36*
G01*
X184211000Y-99174500D02*
X184211000Y-99425500D01*
G75*
G02*
X184085500Y-99551000I-125500J0D01*
G01*
X183774500Y-99551000D01*
G75*
G02*
X183649000Y-99425500I0J125500D01*
G01*
X183649000Y-99174500D01*
G75*
G02*
X183774500Y-99049000I125500J0D01*
G01*
X184085500Y-99049000D01*
G75*
G02*
X184211000Y-99174500I0J-125500D01*
G01*
G37*
G36*
G01*
X183649000Y-110825500D02*
X183649000Y-110574500D01*
G75*
G02*
X183774500Y-110449000I125500J0D01*
G01*
X184085500Y-110449000D01*
G75*
G02*
X184211000Y-110574500I0J-125500D01*
G01*
X184211000Y-110825500D01*
G75*
G02*
X184085500Y-110951000I-125500J0D01*
G01*
X183774500Y-110951000D01*
G75*
G02*
X183649000Y-110825500I0J125500D01*
G01*
G37*
G36*
G01*
X184289000Y-110825500D02*
X184289000Y-110574500D01*
G75*
G02*
X184414500Y-110449000I125500J0D01*
G01*
X184725500Y-110449000D01*
G75*
G02*
X184851000Y-110574500I0J-125500D01*
G01*
X184851000Y-110825500D01*
G75*
G02*
X184725500Y-110951000I-125500J0D01*
G01*
X184414500Y-110951000D01*
G75*
G02*
X184289000Y-110825500I0J125500D01*
G01*
G37*
G36*
G01*
X189824565Y-112304081D02*
X189647081Y-112481565D01*
G75*
G02*
X189469597Y-112481565I-88742J88742D01*
G01*
X189249687Y-112261655D01*
G75*
G02*
X189249687Y-112084171I88742J88742D01*
G01*
X189427171Y-111906687D01*
G75*
G02*
X189604655Y-111906687I88742J-88742D01*
G01*
X189824565Y-112126597D01*
G75*
G02*
X189824565Y-112304081I-88742J-88742D01*
G01*
G37*
G36*
G01*
X190277113Y-112756629D02*
X190099629Y-112934113D01*
G75*
G02*
X189922145Y-112934113I-88742J88742D01*
G01*
X189702235Y-112714203D01*
G75*
G02*
X189702235Y-112536719I88742J88742D01*
G01*
X189879719Y-112359235D01*
G75*
G02*
X190057203Y-112359235I88742J-88742D01*
G01*
X190277113Y-112579145D01*
G75*
G02*
X190277113Y-112756629I-88742J-88742D01*
G01*
G37*
G36*
G01*
X191424765Y-113091481D02*
X191247281Y-113268965D01*
G75*
G02*
X191069797Y-113268965I-88742J88742D01*
G01*
X190849887Y-113049055D01*
G75*
G02*
X190849887Y-112871571I88742J88742D01*
G01*
X191027371Y-112694087D01*
G75*
G02*
X191204855Y-112694087I88742J-88742D01*
G01*
X191424765Y-112913997D01*
G75*
G02*
X191424765Y-113091481I-88742J-88742D01*
G01*
G37*
G36*
G01*
X191877313Y-113544029D02*
X191699829Y-113721513D01*
G75*
G02*
X191522345Y-113721513I-88742J88742D01*
G01*
X191302435Y-113501603D01*
G75*
G02*
X191302435Y-113324119I88742J88742D01*
G01*
X191479919Y-113146635D01*
G75*
G02*
X191657403Y-113146635I88742J-88742D01*
G01*
X191877313Y-113366545D01*
G75*
G02*
X191877313Y-113544029I-88742J-88742D01*
G01*
G37*
G36*
G01*
X191064513Y-111969229D02*
X190887029Y-112146713D01*
G75*
G02*
X190709545Y-112146713I-88742J88742D01*
G01*
X190489635Y-111926803D01*
G75*
G02*
X190489635Y-111749319I88742J88742D01*
G01*
X190667119Y-111571835D01*
G75*
G02*
X190844603Y-111571835I88742J-88742D01*
G01*
X191064513Y-111791745D01*
G75*
G02*
X191064513Y-111969229I-88742J-88742D01*
G01*
G37*
G36*
G01*
X190611965Y-111516681D02*
X190434481Y-111694165D01*
G75*
G02*
X190256997Y-111694165I-88742J88742D01*
G01*
X190037087Y-111474255D01*
G75*
G02*
X190037087Y-111296771I88742J88742D01*
G01*
X190214571Y-111119287D01*
G75*
G02*
X190392055Y-111119287I88742J-88742D01*
G01*
X190611965Y-111339197D01*
G75*
G02*
X190611965Y-111516681I-88742J-88742D01*
G01*
G37*
G36*
G01*
X191261000Y-105124500D02*
X191261000Y-105375500D01*
G75*
G02*
X191135500Y-105501000I-125500J0D01*
G01*
X190824500Y-105501000D01*
G75*
G02*
X190699000Y-105375500I0J125500D01*
G01*
X190699000Y-105124500D01*
G75*
G02*
X190824500Y-104999000I125500J0D01*
G01*
X191135500Y-104999000D01*
G75*
G02*
X191261000Y-105124500I0J-125500D01*
G01*
G37*
G36*
G01*
X191901000Y-105124500D02*
X191901000Y-105375500D01*
G75*
G02*
X191775500Y-105501000I-125500J0D01*
G01*
X191464500Y-105501000D01*
G75*
G02*
X191339000Y-105375500I0J125500D01*
G01*
X191339000Y-105124500D01*
G75*
G02*
X191464500Y-104999000I125500J0D01*
G01*
X191775500Y-104999000D01*
G75*
G02*
X191901000Y-105124500I0J-125500D01*
G01*
G37*
G36*
G01*
X189621681Y-97500235D02*
X189799165Y-97677719D01*
G75*
G02*
X189799165Y-97855203I-88742J-88742D01*
G01*
X189579255Y-98075113D01*
G75*
G02*
X189401771Y-98075113I-88742J88742D01*
G01*
X189224287Y-97897629D01*
G75*
G02*
X189224287Y-97720145I88742J88742D01*
G01*
X189444197Y-97500235D01*
G75*
G02*
X189621681Y-97500235I88742J-88742D01*
G01*
G37*
G36*
G01*
X190074229Y-97047687D02*
X190251713Y-97225171D01*
G75*
G02*
X190251713Y-97402655I-88742J-88742D01*
G01*
X190031803Y-97622565D01*
G75*
G02*
X189854319Y-97622565I-88742J88742D01*
G01*
X189676835Y-97445081D01*
G75*
G02*
X189676835Y-97267597I88742J88742D01*
G01*
X189896745Y-97047687D01*
G75*
G02*
X190074229Y-97047687I88742J-88742D01*
G01*
G37*
G36*
G01*
X191272681Y-96712835D02*
X191450165Y-96890319D01*
G75*
G02*
X191450165Y-97067803I-88742J-88742D01*
G01*
X191230255Y-97287713D01*
G75*
G02*
X191052771Y-97287713I-88742J88742D01*
G01*
X190875287Y-97110229D01*
G75*
G02*
X190875287Y-96932745I88742J88742D01*
G01*
X191095197Y-96712835D01*
G75*
G02*
X191272681Y-96712835I88742J-88742D01*
G01*
G37*
G36*
G01*
X191725229Y-96260287D02*
X191902713Y-96437771D01*
G75*
G02*
X191902713Y-96615255I-88742J-88742D01*
G01*
X191682803Y-96835165D01*
G75*
G02*
X191505319Y-96835165I-88742J88742D01*
G01*
X191327835Y-96657681D01*
G75*
G02*
X191327835Y-96480197I88742J88742D01*
G01*
X191547745Y-96260287D01*
G75*
G02*
X191725229Y-96260287I88742J-88742D01*
G01*
G37*
G36*
G01*
X190912429Y-97885887D02*
X191089913Y-98063371D01*
G75*
G02*
X191089913Y-98240855I-88742J-88742D01*
G01*
X190870003Y-98460765D01*
G75*
G02*
X190692519Y-98460765I-88742J88742D01*
G01*
X190515035Y-98283281D01*
G75*
G02*
X190515035Y-98105797I88742J88742D01*
G01*
X190734945Y-97885887D01*
G75*
G02*
X190912429Y-97885887I88742J-88742D01*
G01*
G37*
G36*
G01*
X190459881Y-98338435D02*
X190637365Y-98515919D01*
G75*
G02*
X190637365Y-98693403I-88742J-88742D01*
G01*
X190417455Y-98913313D01*
G75*
G02*
X190239971Y-98913313I-88742J88742D01*
G01*
X190062487Y-98735829D01*
G75*
G02*
X190062487Y-98558345I88742J88742D01*
G01*
X190282397Y-98338435D01*
G75*
G02*
X190459881Y-98338435I88742J-88742D01*
G01*
G37*
G36*
G01*
X216255000Y-85346000D02*
X215405000Y-85346000D01*
G75*
G02*
X215354000Y-85295000I0J51000D01*
G01*
X215354000Y-84445000D01*
G75*
G02*
X215405000Y-84394000I51000J0D01*
G01*
X216255000Y-84394000D01*
G75*
G02*
X216306000Y-84445000I0J-51000D01*
G01*
X216306000Y-85295000D01*
G75*
G02*
X216255000Y-85346000I-51000J0D01*
G01*
G37*
D13*
X216830000Y-84870000D03*
X217830000Y-84870000D03*
G36*
G01*
X213045000Y-99064000D02*
X213895000Y-99064000D01*
G75*
G02*
X213946000Y-99115000I0J-51000D01*
G01*
X213946000Y-99965000D01*
G75*
G02*
X213895000Y-100016000I-51000J0D01*
G01*
X213045000Y-100016000D01*
G75*
G02*
X212994000Y-99965000I0J51000D01*
G01*
X212994000Y-99115000D01*
G75*
G02*
X213045000Y-99064000I51000J0D01*
G01*
G37*
X212470000Y-99540000D03*
G36*
G01*
X205554000Y-92755000D02*
X205554000Y-91905000D01*
G75*
G02*
X205605000Y-91854000I51000J0D01*
G01*
X206455000Y-91854000D01*
G75*
G02*
X206506000Y-91905000I0J-51000D01*
G01*
X206506000Y-92755000D01*
G75*
G02*
X206455000Y-92806000I-51000J0D01*
G01*
X205605000Y-92806000D01*
G75*
G02*
X205554000Y-92755000I0J51000D01*
G01*
G37*
X206030000Y-93330000D03*
G36*
G01*
X176611000Y-104624500D02*
X176611000Y-104875500D01*
G75*
G02*
X176485500Y-105001000I-125500J0D01*
G01*
X176174500Y-105001000D01*
G75*
G02*
X176049000Y-104875500I0J125500D01*
G01*
X176049000Y-104624500D01*
G75*
G02*
X176174500Y-104499000I125500J0D01*
G01*
X176485500Y-104499000D01*
G75*
G02*
X176611000Y-104624500I0J-125500D01*
G01*
G37*
G36*
G01*
X175971000Y-104624500D02*
X175971000Y-104875500D01*
G75*
G02*
X175845500Y-105001000I-125500J0D01*
G01*
X175534500Y-105001000D01*
G75*
G02*
X175409000Y-104875500I0J125500D01*
G01*
X175409000Y-104624500D01*
G75*
G02*
X175534500Y-104499000I125500J0D01*
G01*
X175845500Y-104499000D01*
G75*
G02*
X175971000Y-104624500I0J-125500D01*
G01*
G37*
G36*
G01*
X177154500Y-105109000D02*
X177405500Y-105109000D01*
G75*
G02*
X177531000Y-105234500I0J-125500D01*
G01*
X177531000Y-105545500D01*
G75*
G02*
X177405500Y-105671000I-125500J0D01*
G01*
X177154500Y-105671000D01*
G75*
G02*
X177029000Y-105545500I0J125500D01*
G01*
X177029000Y-105234500D01*
G75*
G02*
X177154500Y-105109000I125500J0D01*
G01*
G37*
G36*
G01*
X177154500Y-104469000D02*
X177405500Y-104469000D01*
G75*
G02*
X177531000Y-104594500I0J-125500D01*
G01*
X177531000Y-104905500D01*
G75*
G02*
X177405500Y-105031000I-125500J0D01*
G01*
X177154500Y-105031000D01*
G75*
G02*
X177029000Y-104905500I0J125500D01*
G01*
X177029000Y-104594500D01*
G75*
G02*
X177154500Y-104469000I125500J0D01*
G01*
G37*
G36*
G01*
X169670000Y-99699000D02*
X174750000Y-99699000D01*
G75*
G02*
X174801000Y-99750000I0J-51000D01*
G01*
X174801000Y-101250000D01*
G75*
G02*
X174750000Y-101301000I-51000J0D01*
G01*
X169670000Y-101301000D01*
G75*
G02*
X169619000Y-101250000I0J51000D01*
G01*
X169619000Y-99750000D01*
G75*
G02*
X169670000Y-99699000I51000J0D01*
G01*
G37*
G36*
G01*
X169670000Y-108199000D02*
X174750000Y-108199000D01*
G75*
G02*
X174801000Y-108250000I0J-51000D01*
G01*
X174801000Y-109750000D01*
G75*
G02*
X174750000Y-109801000I-51000J0D01*
G01*
X169670000Y-109801000D01*
G75*
G02*
X169619000Y-109750000I0J51000D01*
G01*
X169619000Y-108250000D01*
G75*
G02*
X169670000Y-108199000I51000J0D01*
G01*
G37*
G36*
G01*
X169670000Y-103949000D02*
X174750000Y-103949000D01*
G75*
G02*
X174801000Y-104000000I0J-51000D01*
G01*
X174801000Y-105500000D01*
G75*
G02*
X174750000Y-105551000I-51000J0D01*
G01*
X169670000Y-105551000D01*
G75*
G02*
X169619000Y-105500000I0J51000D01*
G01*
X169619000Y-104000000D01*
G75*
G02*
X169670000Y-103949000I51000J0D01*
G01*
G37*
G36*
G01*
X205571172Y-115729000D02*
X207828828Y-115729000D01*
G75*
G02*
X208101000Y-116001172I0J-272172D01*
G01*
X208101000Y-116708828D01*
G75*
G02*
X207828828Y-116981000I-272172J0D01*
G01*
X205571172Y-116981000D01*
G75*
G02*
X205299000Y-116708828I0J272172D01*
G01*
X205299000Y-116001172D01*
G75*
G02*
X205571172Y-115729000I272172J0D01*
G01*
G37*
G36*
G01*
X205571172Y-118679000D02*
X207828828Y-118679000D01*
G75*
G02*
X208101000Y-118951172I0J-272172D01*
G01*
X208101000Y-119658828D01*
G75*
G02*
X207828828Y-119931000I-272172J0D01*
G01*
X205571172Y-119931000D01*
G75*
G02*
X205299000Y-119658828I0J272172D01*
G01*
X205299000Y-118951172D01*
G75*
G02*
X205571172Y-118679000I272172J0D01*
G01*
G37*
G36*
G01*
X210891000Y-113200000D02*
X210891000Y-114000000D01*
G75*
G02*
X210840000Y-114051000I-51000J0D01*
G01*
X209940000Y-114051000D01*
G75*
G02*
X209889000Y-114000000I0J51000D01*
G01*
X209889000Y-113200000D01*
G75*
G02*
X209940000Y-113149000I51000J0D01*
G01*
X210840000Y-113149000D01*
G75*
G02*
X210891000Y-113200000I0J-51000D01*
G01*
G37*
G36*
G01*
X210891000Y-111300000D02*
X210891000Y-112100000D01*
G75*
G02*
X210840000Y-112151000I-51000J0D01*
G01*
X209940000Y-112151000D01*
G75*
G02*
X209889000Y-112100000I0J51000D01*
G01*
X209889000Y-111300000D01*
G75*
G02*
X209940000Y-111249000I51000J0D01*
G01*
X210840000Y-111249000D01*
G75*
G02*
X210891000Y-111300000I0J-51000D01*
G01*
G37*
G36*
G01*
X208891000Y-112250000D02*
X208891000Y-113050000D01*
G75*
G02*
X208840000Y-113101000I-51000J0D01*
G01*
X207940000Y-113101000D01*
G75*
G02*
X207889000Y-113050000I0J51000D01*
G01*
X207889000Y-112250000D01*
G75*
G02*
X207940000Y-112199000I51000J0D01*
G01*
X208840000Y-112199000D01*
G75*
G02*
X208891000Y-112250000I0J-51000D01*
G01*
G37*
G36*
G01*
X204269000Y-112775500D02*
X204269000Y-112524500D01*
G75*
G02*
X204394500Y-112399000I125500J0D01*
G01*
X204705500Y-112399000D01*
G75*
G02*
X204831000Y-112524500I0J-125500D01*
G01*
X204831000Y-112775500D01*
G75*
G02*
X204705500Y-112901000I-125500J0D01*
G01*
X204394500Y-112901000D01*
G75*
G02*
X204269000Y-112775500I0J125500D01*
G01*
G37*
G36*
G01*
X204909000Y-112775500D02*
X204909000Y-112524500D01*
G75*
G02*
X205034500Y-112399000I125500J0D01*
G01*
X205345500Y-112399000D01*
G75*
G02*
X205471000Y-112524500I0J-125500D01*
G01*
X205471000Y-112775500D01*
G75*
G02*
X205345500Y-112901000I-125500J0D01*
G01*
X205034500Y-112901000D01*
G75*
G02*
X204909000Y-112775500I0J125500D01*
G01*
G37*
G36*
G01*
X213856000Y-120230000D02*
X213856000Y-118530000D01*
G75*
G02*
X213907000Y-118479000I51000J0D01*
G01*
X215607000Y-118479000D01*
G75*
G02*
X215658000Y-118530000I0J-51000D01*
G01*
X215658000Y-120230000D01*
G75*
G02*
X215607000Y-120281000I-51000J0D01*
G01*
X213907000Y-120281000D01*
G75*
G02*
X213856000Y-120230000I0J51000D01*
G01*
G37*
D14*
X214757000Y-121920000D03*
X214757000Y-124460000D03*
G36*
G01*
X219754000Y-87375000D02*
X219754000Y-86525000D01*
G75*
G02*
X219805000Y-86474000I51000J0D01*
G01*
X220655000Y-86474000D01*
G75*
G02*
X220706000Y-86525000I0J-51000D01*
G01*
X220706000Y-87375000D01*
G75*
G02*
X220655000Y-87426000I-51000J0D01*
G01*
X219805000Y-87426000D01*
G75*
G02*
X219754000Y-87375000I0J51000D01*
G01*
G37*
D13*
X220230000Y-87950000D03*
X220230000Y-88950000D03*
X220230000Y-89950000D03*
X220230000Y-90950000D03*
X220230000Y-91950000D03*
X220230000Y-92950000D03*
X220230000Y-93950000D03*
G36*
G01*
X179524000Y-94214500D02*
X179524000Y-93364500D01*
G75*
G02*
X179575000Y-93313500I51000J0D01*
G01*
X180425000Y-93313500D01*
G75*
G02*
X180476000Y-93364500I0J-51000D01*
G01*
X180476000Y-94214500D01*
G75*
G02*
X180425000Y-94265500I-51000J0D01*
G01*
X179575000Y-94265500D01*
G75*
G02*
X179524000Y-94214500I0J51000D01*
G01*
G37*
G36*
G01*
X185801746Y-101587404D02*
X185930304Y-101434196D01*
G75*
G02*
X186213479Y-101409421I153975J-129200D01*
G01*
X186213479Y-101409421D01*
G75*
G02*
X186238254Y-101692596I-129200J-153975D01*
G01*
X186109696Y-101845804D01*
G75*
G02*
X185826521Y-101870579I-153975J129200D01*
G01*
X185826521Y-101870579D01*
G75*
G02*
X185801746Y-101587404I129200J153975D01*
G01*
G37*
G36*
G01*
X202904000Y-99885000D02*
X202904000Y-99035000D01*
G75*
G02*
X202955000Y-98984000I51000J0D01*
G01*
X203805000Y-98984000D01*
G75*
G02*
X203856000Y-99035000I0J-51000D01*
G01*
X203856000Y-99885000D01*
G75*
G02*
X203805000Y-99936000I-51000J0D01*
G01*
X202955000Y-99936000D01*
G75*
G02*
X202904000Y-99885000I0J51000D01*
G01*
G37*
D15*
G36*
X191426188Y-112912594D02*
G01*
X191466030Y-112952436D01*
X191466162Y-112952581D01*
X191477836Y-112966805D01*
X191478054Y-112967131D01*
X191483822Y-112977924D01*
X191483972Y-112978286D01*
X191490264Y-112999024D01*
X191499529Y-113021388D01*
X191512924Y-113041435D01*
X191529972Y-113058481D01*
X191550020Y-113071875D01*
X191572376Y-113081136D01*
X191593114Y-113087428D01*
X191593476Y-113087578D01*
X191604269Y-113093346D01*
X191604595Y-113093564D01*
X191618819Y-113105238D01*
X191618964Y-113105370D01*
X191658806Y-113145212D01*
X191659324Y-113147144D01*
X191657910Y-113148558D01*
X191656123Y-113148172D01*
X191637269Y-113132699D01*
X191615919Y-113121287D01*
X191592750Y-113114258D01*
X191568661Y-113111886D01*
X191544572Y-113114258D01*
X191521403Y-113121287D01*
X191500053Y-113132699D01*
X191481260Y-113148122D01*
X191303922Y-113325460D01*
X191288499Y-113344253D01*
X191277087Y-113365603D01*
X191270058Y-113388772D01*
X191267686Y-113412861D01*
X191270058Y-113436950D01*
X191277087Y-113460119D01*
X191288499Y-113481469D01*
X191303972Y-113500323D01*
X191304298Y-113502297D01*
X191302752Y-113503565D01*
X191301012Y-113503006D01*
X191261170Y-113463164D01*
X191261038Y-113463019D01*
X191249364Y-113448795D01*
X191249146Y-113448469D01*
X191243378Y-113437676D01*
X191243228Y-113437314D01*
X191236936Y-113416576D01*
X191227671Y-113394212D01*
X191214276Y-113374165D01*
X191197228Y-113357119D01*
X191177180Y-113343725D01*
X191154824Y-113334464D01*
X191134086Y-113328172D01*
X191133724Y-113328022D01*
X191122931Y-113322254D01*
X191122605Y-113322036D01*
X191108381Y-113310362D01*
X191108236Y-113310230D01*
X191068394Y-113270388D01*
X191067876Y-113268456D01*
X191069290Y-113267042D01*
X191071077Y-113267428D01*
X191089931Y-113282901D01*
X191111281Y-113294313D01*
X191134450Y-113301342D01*
X191158539Y-113303714D01*
X191182628Y-113301342D01*
X191205797Y-113294313D01*
X191227147Y-113282901D01*
X191245940Y-113267478D01*
X191423278Y-113090140D01*
X191438701Y-113071347D01*
X191450113Y-113049997D01*
X191457142Y-113026828D01*
X191459514Y-113002739D01*
X191457142Y-112978650D01*
X191450113Y-112955481D01*
X191438701Y-112934131D01*
X191423228Y-112915277D01*
X191422902Y-112913303D01*
X191424448Y-112912035D01*
X191426188Y-112912594D01*
G37*
G36*
X184052165Y-112633874D02*
G01*
X184053000Y-112635500D01*
X184053000Y-112691862D01*
X184052990Y-112692058D01*
X184051187Y-112710366D01*
X184051111Y-112710751D01*
X184047559Y-112722458D01*
X184047409Y-112722820D01*
X184037193Y-112741935D01*
X184027930Y-112764298D01*
X184023226Y-112787948D01*
X184023226Y-112812054D01*
X184027931Y-112835704D01*
X184037193Y-112858065D01*
X184047409Y-112877180D01*
X184047559Y-112877542D01*
X184051111Y-112889249D01*
X184051187Y-112889634D01*
X184052990Y-112907942D01*
X184053000Y-112908138D01*
X184053000Y-112964500D01*
X184052000Y-112966232D01*
X184050000Y-112966232D01*
X184049010Y-112964696D01*
X184046619Y-112940411D01*
X184039590Y-112917242D01*
X184028178Y-112895892D01*
X184012821Y-112877179D01*
X183994108Y-112861822D01*
X183972758Y-112850410D01*
X183949589Y-112843381D01*
X183925406Y-112841000D01*
X183674594Y-112841000D01*
X183650411Y-112843381D01*
X183627242Y-112850410D01*
X183605892Y-112861822D01*
X183587179Y-112877179D01*
X183571822Y-112895892D01*
X183560410Y-112917242D01*
X183553381Y-112940411D01*
X183550990Y-112964696D01*
X183549825Y-112966322D01*
X183547835Y-112966126D01*
X183547000Y-112964500D01*
X183547000Y-112908138D01*
X183547010Y-112907942D01*
X183548813Y-112889634D01*
X183548889Y-112889249D01*
X183552441Y-112877542D01*
X183552591Y-112877180D01*
X183562807Y-112858065D01*
X183572070Y-112835702D01*
X183576774Y-112812052D01*
X183576774Y-112787946D01*
X183572069Y-112764296D01*
X183562807Y-112741935D01*
X183552591Y-112722820D01*
X183552441Y-112722458D01*
X183548889Y-112710751D01*
X183548813Y-112710366D01*
X183547010Y-112692058D01*
X183547000Y-112691862D01*
X183547000Y-112635500D01*
X183548000Y-112633768D01*
X183550000Y-112633768D01*
X183550990Y-112635304D01*
X183553381Y-112659589D01*
X183560410Y-112682758D01*
X183571822Y-112704108D01*
X183587178Y-112722820D01*
X183605892Y-112738178D01*
X183627242Y-112749590D01*
X183650411Y-112756619D01*
X183674594Y-112759000D01*
X183925406Y-112759000D01*
X183949589Y-112756619D01*
X183972758Y-112749590D01*
X183994108Y-112738178D01*
X184012822Y-112722820D01*
X184028178Y-112704108D01*
X184039590Y-112682758D01*
X184046619Y-112659589D01*
X184049010Y-112635304D01*
X184050175Y-112633678D01*
X184052165Y-112633874D01*
G37*
G36*
X184952165Y-112633874D02*
G01*
X184953000Y-112635500D01*
X184953000Y-112691862D01*
X184952990Y-112692058D01*
X184951187Y-112710366D01*
X184951111Y-112710751D01*
X184947559Y-112722458D01*
X184947409Y-112722820D01*
X184937193Y-112741935D01*
X184927930Y-112764298D01*
X184923226Y-112787948D01*
X184923226Y-112812054D01*
X184927931Y-112835704D01*
X184937193Y-112858065D01*
X184947409Y-112877180D01*
X184947559Y-112877542D01*
X184951111Y-112889249D01*
X184951187Y-112889634D01*
X184952990Y-112907942D01*
X184953000Y-112908138D01*
X184953000Y-112964500D01*
X184952000Y-112966232D01*
X184950000Y-112966232D01*
X184949010Y-112964696D01*
X184946619Y-112940411D01*
X184939590Y-112917242D01*
X184928178Y-112895892D01*
X184912821Y-112877179D01*
X184894108Y-112861822D01*
X184872758Y-112850410D01*
X184849589Y-112843381D01*
X184825406Y-112841000D01*
X184574594Y-112841000D01*
X184550411Y-112843381D01*
X184527242Y-112850410D01*
X184505892Y-112861822D01*
X184487179Y-112877179D01*
X184471822Y-112895892D01*
X184460410Y-112917242D01*
X184453381Y-112940411D01*
X184450990Y-112964696D01*
X184449825Y-112966322D01*
X184447835Y-112966126D01*
X184447000Y-112964500D01*
X184447000Y-112908138D01*
X184447010Y-112907942D01*
X184448813Y-112889634D01*
X184448889Y-112889249D01*
X184452441Y-112877542D01*
X184452591Y-112877180D01*
X184462807Y-112858065D01*
X184472070Y-112835702D01*
X184476774Y-112812052D01*
X184476774Y-112787946D01*
X184472069Y-112764296D01*
X184462807Y-112741935D01*
X184452591Y-112722820D01*
X184452441Y-112722458D01*
X184448889Y-112710751D01*
X184448813Y-112710366D01*
X184447010Y-112692058D01*
X184447000Y-112691862D01*
X184447000Y-112635500D01*
X184448000Y-112633768D01*
X184450000Y-112633768D01*
X184450990Y-112635304D01*
X184453381Y-112659589D01*
X184460410Y-112682758D01*
X184471822Y-112704108D01*
X184487178Y-112722820D01*
X184505892Y-112738178D01*
X184527242Y-112749590D01*
X184550411Y-112756619D01*
X184574594Y-112759000D01*
X184825406Y-112759000D01*
X184849589Y-112756619D01*
X184872758Y-112749590D01*
X184894108Y-112738178D01*
X184912822Y-112722820D01*
X184928178Y-112704108D01*
X184939590Y-112682758D01*
X184946619Y-112659589D01*
X184949010Y-112635304D01*
X184950175Y-112633678D01*
X184952165Y-112633874D01*
G37*
G36*
X204762058Y-112397010D02*
G01*
X204780366Y-112398813D01*
X204780751Y-112398889D01*
X204792458Y-112402441D01*
X204792820Y-112402591D01*
X204811935Y-112412807D01*
X204834298Y-112422070D01*
X204857948Y-112426774D01*
X204882054Y-112426774D01*
X204905704Y-112422069D01*
X204928065Y-112412807D01*
X204947180Y-112402591D01*
X204947542Y-112402441D01*
X204959249Y-112398889D01*
X204959634Y-112398813D01*
X204977942Y-112397010D01*
X204978138Y-112397000D01*
X205034500Y-112397000D01*
X205036232Y-112398000D01*
X205036232Y-112400000D01*
X205034696Y-112400990D01*
X205010411Y-112403381D01*
X204987242Y-112410410D01*
X204965892Y-112421822D01*
X204947179Y-112437179D01*
X204931822Y-112455892D01*
X204920410Y-112477242D01*
X204913381Y-112500411D01*
X204911000Y-112524594D01*
X204911000Y-112775406D01*
X204913381Y-112799589D01*
X204920410Y-112822758D01*
X204931822Y-112844108D01*
X204947179Y-112862821D01*
X204965892Y-112878178D01*
X204987242Y-112889590D01*
X205010411Y-112896619D01*
X205034696Y-112899010D01*
X205036322Y-112900175D01*
X205036126Y-112902165D01*
X205034500Y-112903000D01*
X204978138Y-112903000D01*
X204977942Y-112902990D01*
X204959634Y-112901187D01*
X204959249Y-112901111D01*
X204947542Y-112897559D01*
X204947180Y-112897409D01*
X204928065Y-112887193D01*
X204905702Y-112877930D01*
X204882052Y-112873226D01*
X204857946Y-112873226D01*
X204834296Y-112877931D01*
X204811935Y-112887193D01*
X204792820Y-112897409D01*
X204792458Y-112897559D01*
X204780751Y-112901111D01*
X204780366Y-112901187D01*
X204762058Y-112902990D01*
X204761862Y-112903000D01*
X204705500Y-112903000D01*
X204703768Y-112902000D01*
X204703768Y-112900000D01*
X204705304Y-112899010D01*
X204729589Y-112896619D01*
X204752758Y-112889590D01*
X204774108Y-112878178D01*
X204792821Y-112862821D01*
X204808178Y-112844108D01*
X204819590Y-112822758D01*
X204826619Y-112799589D01*
X204829000Y-112775406D01*
X204829000Y-112524594D01*
X204826619Y-112500411D01*
X204819590Y-112477242D01*
X204808178Y-112455892D01*
X204792821Y-112437179D01*
X204774108Y-112421822D01*
X204752758Y-112410410D01*
X204729589Y-112403381D01*
X204705304Y-112400990D01*
X204703678Y-112399825D01*
X204703874Y-112397835D01*
X204705500Y-112397000D01*
X204761862Y-112397000D01*
X204762058Y-112397010D01*
G37*
G36*
X189825988Y-112125194D02*
G01*
X189865830Y-112165036D01*
X189865962Y-112165181D01*
X189877636Y-112179405D01*
X189877854Y-112179731D01*
X189883622Y-112190524D01*
X189883772Y-112190886D01*
X189890064Y-112211624D01*
X189899329Y-112233988D01*
X189912724Y-112254035D01*
X189929772Y-112271081D01*
X189949820Y-112284475D01*
X189972176Y-112293736D01*
X189992914Y-112300028D01*
X189993276Y-112300178D01*
X190004069Y-112305946D01*
X190004395Y-112306164D01*
X190018619Y-112317838D01*
X190018764Y-112317970D01*
X190058606Y-112357812D01*
X190059124Y-112359744D01*
X190057710Y-112361158D01*
X190055923Y-112360772D01*
X190037069Y-112345299D01*
X190015719Y-112333887D01*
X189992550Y-112326858D01*
X189968461Y-112324486D01*
X189944372Y-112326858D01*
X189921203Y-112333887D01*
X189899853Y-112345299D01*
X189881060Y-112360722D01*
X189703722Y-112538060D01*
X189688299Y-112556853D01*
X189676887Y-112578203D01*
X189669858Y-112601372D01*
X189667486Y-112625461D01*
X189669858Y-112649550D01*
X189676887Y-112672719D01*
X189688299Y-112694069D01*
X189703772Y-112712923D01*
X189704098Y-112714897D01*
X189702552Y-112716165D01*
X189700812Y-112715606D01*
X189660970Y-112675764D01*
X189660838Y-112675619D01*
X189649164Y-112661395D01*
X189648946Y-112661069D01*
X189643178Y-112650276D01*
X189643028Y-112649914D01*
X189636736Y-112629176D01*
X189627471Y-112606812D01*
X189614076Y-112586765D01*
X189597028Y-112569719D01*
X189576980Y-112556325D01*
X189554624Y-112547064D01*
X189533886Y-112540772D01*
X189533524Y-112540622D01*
X189522731Y-112534854D01*
X189522405Y-112534636D01*
X189508181Y-112522962D01*
X189508036Y-112522830D01*
X189468194Y-112482988D01*
X189467676Y-112481056D01*
X189469090Y-112479642D01*
X189470877Y-112480028D01*
X189489731Y-112495501D01*
X189511081Y-112506913D01*
X189534250Y-112513942D01*
X189558339Y-112516314D01*
X189582428Y-112513942D01*
X189605597Y-112506913D01*
X189626947Y-112495501D01*
X189645740Y-112480078D01*
X189823078Y-112302740D01*
X189838501Y-112283947D01*
X189849913Y-112262597D01*
X189856942Y-112239428D01*
X189859314Y-112215339D01*
X189856942Y-112191250D01*
X189849913Y-112168081D01*
X189838501Y-112146731D01*
X189823028Y-112127877D01*
X189822702Y-112125903D01*
X189824248Y-112124635D01*
X189825988Y-112125194D01*
G37*
G36*
X190613388Y-111337794D02*
G01*
X190653230Y-111377636D01*
X190653362Y-111377781D01*
X190665036Y-111392005D01*
X190665254Y-111392331D01*
X190671022Y-111403124D01*
X190671172Y-111403486D01*
X190677464Y-111424224D01*
X190686729Y-111446588D01*
X190700124Y-111466635D01*
X190717172Y-111483681D01*
X190737220Y-111497075D01*
X190759576Y-111506336D01*
X190780314Y-111512628D01*
X190780676Y-111512778D01*
X190791469Y-111518546D01*
X190791795Y-111518764D01*
X190806019Y-111530438D01*
X190806164Y-111530570D01*
X190846006Y-111570412D01*
X190846524Y-111572344D01*
X190845110Y-111573758D01*
X190843323Y-111573372D01*
X190824469Y-111557899D01*
X190803119Y-111546487D01*
X190779950Y-111539458D01*
X190755861Y-111537086D01*
X190731772Y-111539458D01*
X190708603Y-111546487D01*
X190687253Y-111557899D01*
X190668460Y-111573322D01*
X190491122Y-111750660D01*
X190475699Y-111769453D01*
X190464287Y-111790803D01*
X190457258Y-111813972D01*
X190454886Y-111838061D01*
X190457258Y-111862150D01*
X190464287Y-111885319D01*
X190475699Y-111906669D01*
X190491172Y-111925523D01*
X190491498Y-111927497D01*
X190489952Y-111928765D01*
X190488212Y-111928206D01*
X190448370Y-111888364D01*
X190448238Y-111888219D01*
X190436564Y-111873995D01*
X190436346Y-111873669D01*
X190430578Y-111862876D01*
X190430428Y-111862514D01*
X190424136Y-111841776D01*
X190414871Y-111819412D01*
X190401476Y-111799365D01*
X190384428Y-111782319D01*
X190364380Y-111768925D01*
X190342024Y-111759664D01*
X190321286Y-111753372D01*
X190320924Y-111753222D01*
X190310131Y-111747454D01*
X190309805Y-111747236D01*
X190295581Y-111735562D01*
X190295436Y-111735430D01*
X190255594Y-111695588D01*
X190255076Y-111693656D01*
X190256490Y-111692242D01*
X190258277Y-111692628D01*
X190277131Y-111708101D01*
X190298481Y-111719513D01*
X190321650Y-111726542D01*
X190345739Y-111728914D01*
X190369828Y-111726542D01*
X190392997Y-111719513D01*
X190414347Y-111708101D01*
X190433140Y-111692678D01*
X190610478Y-111515340D01*
X190625901Y-111496547D01*
X190637313Y-111475197D01*
X190644342Y-111452028D01*
X190646714Y-111427939D01*
X190644342Y-111403850D01*
X190637313Y-111380681D01*
X190625901Y-111359331D01*
X190610428Y-111340477D01*
X190610102Y-111338503D01*
X190611648Y-111337235D01*
X190613388Y-111337794D01*
G37*
G36*
X184142058Y-111347010D02*
G01*
X184160366Y-111348813D01*
X184160751Y-111348889D01*
X184172458Y-111352441D01*
X184172820Y-111352591D01*
X184191935Y-111362807D01*
X184214298Y-111372070D01*
X184237948Y-111376774D01*
X184262054Y-111376774D01*
X184285704Y-111372069D01*
X184308065Y-111362807D01*
X184327180Y-111352591D01*
X184327542Y-111352441D01*
X184339249Y-111348889D01*
X184339634Y-111348813D01*
X184357942Y-111347010D01*
X184358138Y-111347000D01*
X184414500Y-111347000D01*
X184416232Y-111348000D01*
X184416232Y-111350000D01*
X184414696Y-111350990D01*
X184390411Y-111353381D01*
X184367242Y-111360410D01*
X184345892Y-111371822D01*
X184327179Y-111387179D01*
X184311822Y-111405892D01*
X184300410Y-111427242D01*
X184293381Y-111450411D01*
X184291000Y-111474594D01*
X184291000Y-111725406D01*
X184293381Y-111749589D01*
X184300410Y-111772758D01*
X184311822Y-111794108D01*
X184327179Y-111812821D01*
X184345892Y-111828178D01*
X184367242Y-111839590D01*
X184390411Y-111846619D01*
X184414696Y-111849010D01*
X184416322Y-111850175D01*
X184416126Y-111852165D01*
X184414500Y-111853000D01*
X184358138Y-111853000D01*
X184357942Y-111852990D01*
X184339634Y-111851187D01*
X184339249Y-111851111D01*
X184327542Y-111847559D01*
X184327180Y-111847409D01*
X184308065Y-111837193D01*
X184285702Y-111827930D01*
X184262052Y-111823226D01*
X184237946Y-111823226D01*
X184214296Y-111827931D01*
X184191935Y-111837193D01*
X184172820Y-111847409D01*
X184172458Y-111847559D01*
X184160751Y-111851111D01*
X184160366Y-111851187D01*
X184142058Y-111852990D01*
X184141862Y-111853000D01*
X184085500Y-111853000D01*
X184083768Y-111852000D01*
X184083768Y-111850000D01*
X184085304Y-111849010D01*
X184109589Y-111846619D01*
X184132758Y-111839590D01*
X184154108Y-111828178D01*
X184172821Y-111812821D01*
X184188178Y-111794108D01*
X184199590Y-111772758D01*
X184206619Y-111749589D01*
X184209000Y-111725406D01*
X184209000Y-111474594D01*
X184206619Y-111450411D01*
X184199590Y-111427242D01*
X184188178Y-111405892D01*
X184172821Y-111387179D01*
X184154108Y-111371822D01*
X184132758Y-111360410D01*
X184109589Y-111353381D01*
X184085304Y-111350990D01*
X184083678Y-111349825D01*
X184083874Y-111347835D01*
X184085500Y-111347000D01*
X184141862Y-111347000D01*
X184142058Y-111347010D01*
G37*
G36*
X184142058Y-110447010D02*
G01*
X184160366Y-110448813D01*
X184160751Y-110448889D01*
X184172458Y-110452441D01*
X184172820Y-110452591D01*
X184191935Y-110462807D01*
X184214298Y-110472070D01*
X184237948Y-110476774D01*
X184262054Y-110476774D01*
X184285704Y-110472069D01*
X184308065Y-110462807D01*
X184327180Y-110452591D01*
X184327542Y-110452441D01*
X184339249Y-110448889D01*
X184339634Y-110448813D01*
X184357942Y-110447010D01*
X184358138Y-110447000D01*
X184414500Y-110447000D01*
X184416232Y-110448000D01*
X184416232Y-110450000D01*
X184414696Y-110450990D01*
X184390411Y-110453381D01*
X184367242Y-110460410D01*
X184345892Y-110471822D01*
X184327179Y-110487179D01*
X184311822Y-110505892D01*
X184300410Y-110527242D01*
X184293381Y-110550411D01*
X184291000Y-110574594D01*
X184291000Y-110825406D01*
X184293381Y-110849589D01*
X184300410Y-110872758D01*
X184311822Y-110894108D01*
X184327179Y-110912821D01*
X184345892Y-110928178D01*
X184367242Y-110939590D01*
X184390411Y-110946619D01*
X184414696Y-110949010D01*
X184416322Y-110950175D01*
X184416126Y-110952165D01*
X184414500Y-110953000D01*
X184358138Y-110953000D01*
X184357942Y-110952990D01*
X184339634Y-110951187D01*
X184339249Y-110951111D01*
X184327542Y-110947559D01*
X184327180Y-110947409D01*
X184308065Y-110937193D01*
X184285702Y-110927930D01*
X184262052Y-110923226D01*
X184237946Y-110923226D01*
X184214296Y-110927931D01*
X184191935Y-110937193D01*
X184172820Y-110947409D01*
X184172458Y-110947559D01*
X184160751Y-110951111D01*
X184160366Y-110951187D01*
X184142058Y-110952990D01*
X184141862Y-110953000D01*
X184085500Y-110953000D01*
X184083768Y-110952000D01*
X184083768Y-110950000D01*
X184085304Y-110949010D01*
X184109589Y-110946619D01*
X184132758Y-110939590D01*
X184154108Y-110928178D01*
X184172821Y-110912821D01*
X184188178Y-110894108D01*
X184199590Y-110872758D01*
X184206619Y-110849589D01*
X184209000Y-110825406D01*
X184209000Y-110574594D01*
X184206619Y-110550411D01*
X184199590Y-110527242D01*
X184188178Y-110505892D01*
X184172821Y-110487179D01*
X184154108Y-110471822D01*
X184132758Y-110460410D01*
X184109589Y-110453381D01*
X184085304Y-110450990D01*
X184083678Y-110449825D01*
X184083874Y-110447835D01*
X184085500Y-110447000D01*
X184141862Y-110447000D01*
X184142058Y-110447010D01*
G37*
G36*
X184052165Y-109333874D02*
G01*
X184053000Y-109335500D01*
X184053000Y-109391862D01*
X184052990Y-109392058D01*
X184051187Y-109410366D01*
X184051111Y-109410751D01*
X184047559Y-109422458D01*
X184047409Y-109422820D01*
X184037193Y-109441935D01*
X184027930Y-109464298D01*
X184023226Y-109487948D01*
X184023226Y-109512054D01*
X184027931Y-109535704D01*
X184037193Y-109558065D01*
X184047409Y-109577180D01*
X184047559Y-109577542D01*
X184051111Y-109589249D01*
X184051187Y-109589634D01*
X184052990Y-109607942D01*
X184053000Y-109608138D01*
X184053000Y-109664500D01*
X184052000Y-109666232D01*
X184050000Y-109666232D01*
X184049010Y-109664696D01*
X184046619Y-109640411D01*
X184039590Y-109617242D01*
X184028178Y-109595892D01*
X184012821Y-109577179D01*
X183994108Y-109561822D01*
X183972758Y-109550410D01*
X183949589Y-109543381D01*
X183925406Y-109541000D01*
X183674594Y-109541000D01*
X183650411Y-109543381D01*
X183627242Y-109550410D01*
X183605892Y-109561822D01*
X183587179Y-109577179D01*
X183571822Y-109595892D01*
X183560410Y-109617242D01*
X183553381Y-109640411D01*
X183550990Y-109664696D01*
X183549825Y-109666322D01*
X183547835Y-109666126D01*
X183547000Y-109664500D01*
X183547000Y-109608138D01*
X183547010Y-109607942D01*
X183548813Y-109589634D01*
X183548889Y-109589249D01*
X183552441Y-109577542D01*
X183552591Y-109577180D01*
X183562807Y-109558065D01*
X183572070Y-109535702D01*
X183576774Y-109512052D01*
X183576774Y-109487946D01*
X183572069Y-109464296D01*
X183562807Y-109441935D01*
X183552591Y-109422820D01*
X183552441Y-109422458D01*
X183548889Y-109410751D01*
X183548813Y-109410366D01*
X183547010Y-109392058D01*
X183547000Y-109391862D01*
X183547000Y-109335500D01*
X183548000Y-109333768D01*
X183550000Y-109333768D01*
X183550990Y-109335304D01*
X183553381Y-109359589D01*
X183560410Y-109382758D01*
X183571822Y-109404108D01*
X183587178Y-109422820D01*
X183605892Y-109438178D01*
X183627242Y-109449590D01*
X183650411Y-109456619D01*
X183674594Y-109459000D01*
X183925406Y-109459000D01*
X183949589Y-109456619D01*
X183972758Y-109449590D01*
X183994108Y-109438178D01*
X184012822Y-109422820D01*
X184028178Y-109404108D01*
X184039590Y-109382758D01*
X184046619Y-109359589D01*
X184049010Y-109335304D01*
X184050175Y-109333678D01*
X184052165Y-109333874D01*
G37*
G36*
X184952165Y-109333874D02*
G01*
X184953000Y-109335500D01*
X184953000Y-109391862D01*
X184952990Y-109392058D01*
X184951187Y-109410366D01*
X184951111Y-109410751D01*
X184947559Y-109422458D01*
X184947409Y-109422820D01*
X184937193Y-109441935D01*
X184927930Y-109464298D01*
X184923226Y-109487948D01*
X184923226Y-109512054D01*
X184927931Y-109535704D01*
X184937193Y-109558065D01*
X184947409Y-109577180D01*
X184947559Y-109577542D01*
X184951111Y-109589249D01*
X184951187Y-109589634D01*
X184952990Y-109607942D01*
X184953000Y-109608138D01*
X184953000Y-109664500D01*
X184952000Y-109666232D01*
X184950000Y-109666232D01*
X184949010Y-109664696D01*
X184946619Y-109640411D01*
X184939590Y-109617242D01*
X184928178Y-109595892D01*
X184912821Y-109577179D01*
X184894108Y-109561822D01*
X184872758Y-109550410D01*
X184849589Y-109543381D01*
X184825406Y-109541000D01*
X184574594Y-109541000D01*
X184550411Y-109543381D01*
X184527242Y-109550410D01*
X184505892Y-109561822D01*
X184487179Y-109577179D01*
X184471822Y-109595892D01*
X184460410Y-109617242D01*
X184453381Y-109640411D01*
X184450990Y-109664696D01*
X184449825Y-109666322D01*
X184447835Y-109666126D01*
X184447000Y-109664500D01*
X184447000Y-109608138D01*
X184447010Y-109607942D01*
X184448813Y-109589634D01*
X184448889Y-109589249D01*
X184452441Y-109577542D01*
X184452591Y-109577180D01*
X184462807Y-109558065D01*
X184472070Y-109535702D01*
X184476774Y-109512052D01*
X184476774Y-109487946D01*
X184472069Y-109464296D01*
X184462807Y-109441935D01*
X184452591Y-109422820D01*
X184452441Y-109422458D01*
X184448889Y-109410751D01*
X184448813Y-109410366D01*
X184447010Y-109392058D01*
X184447000Y-109391862D01*
X184447000Y-109335500D01*
X184448000Y-109333768D01*
X184450000Y-109333768D01*
X184450990Y-109335304D01*
X184453381Y-109359589D01*
X184460410Y-109382758D01*
X184471822Y-109404108D01*
X184487178Y-109422820D01*
X184505892Y-109438178D01*
X184527242Y-109449590D01*
X184550411Y-109456619D01*
X184574594Y-109459000D01*
X184825406Y-109459000D01*
X184849589Y-109456619D01*
X184872758Y-109449590D01*
X184894108Y-109438178D01*
X184912822Y-109422820D01*
X184928178Y-109404108D01*
X184939590Y-109382758D01*
X184946619Y-109359589D01*
X184949010Y-109335304D01*
X184950175Y-109333678D01*
X184952165Y-109333874D01*
G37*
G36*
X184550732Y-106948000D02*
G01*
X184551000Y-106949000D01*
X184551000Y-107851000D01*
X184550000Y-107852732D01*
X184549000Y-107853000D01*
X184451000Y-107853000D01*
X184449268Y-107852000D01*
X184449000Y-107851000D01*
X184449000Y-106949000D01*
X184450000Y-106947268D01*
X184451000Y-106947000D01*
X184549000Y-106947000D01*
X184550732Y-106948000D01*
G37*
G36*
X184050732Y-106948000D02*
G01*
X184051000Y-106949000D01*
X184051000Y-107851000D01*
X184050000Y-107852732D01*
X184049000Y-107853000D01*
X183951000Y-107853000D01*
X183949268Y-107852000D01*
X183949000Y-107851000D01*
X183949000Y-106949000D01*
X183950000Y-106947268D01*
X183951000Y-106947000D01*
X184049000Y-106947000D01*
X184050732Y-106948000D01*
G37*
G36*
X183550732Y-106948000D02*
G01*
X183551000Y-106949000D01*
X183551000Y-107851000D01*
X183550000Y-107852732D01*
X183549000Y-107853000D01*
X183451000Y-107853000D01*
X183449268Y-107852000D01*
X183449000Y-107851000D01*
X183449000Y-106949000D01*
X183450000Y-106947268D01*
X183451000Y-106947000D01*
X183549000Y-106947000D01*
X183550732Y-106948000D01*
G37*
G36*
X185050732Y-106948000D02*
G01*
X185051000Y-106949000D01*
X185051000Y-107851000D01*
X185050000Y-107852732D01*
X185049000Y-107853000D01*
X184951000Y-107853000D01*
X184949268Y-107852000D01*
X184949000Y-107851000D01*
X184949000Y-106949000D01*
X184950000Y-106947268D01*
X184951000Y-106947000D01*
X185049000Y-106947000D01*
X185050732Y-106948000D01*
G37*
G36*
X186550732Y-106948000D02*
G01*
X186551000Y-106949000D01*
X186551000Y-107851000D01*
X186550000Y-107852732D01*
X186549000Y-107853000D01*
X186451000Y-107853000D01*
X186449268Y-107852000D01*
X186449000Y-107851000D01*
X186449000Y-106949000D01*
X186450000Y-106947268D01*
X186451000Y-106947000D01*
X186549000Y-106947000D01*
X186550732Y-106948000D01*
G37*
G36*
X185550732Y-106948000D02*
G01*
X185551000Y-106949000D01*
X185551000Y-107851000D01*
X185550000Y-107852732D01*
X185549000Y-107853000D01*
X185451000Y-107853000D01*
X185449268Y-107852000D01*
X185449000Y-107851000D01*
X185449000Y-106949000D01*
X185450000Y-106947268D01*
X185451000Y-106947000D01*
X185549000Y-106947000D01*
X185550732Y-106948000D01*
G37*
G36*
X186050732Y-106948000D02*
G01*
X186051000Y-106949000D01*
X186051000Y-107851000D01*
X186050000Y-107852732D01*
X186049000Y-107853000D01*
X185951000Y-107853000D01*
X185949268Y-107852000D01*
X185949000Y-107851000D01*
X185949000Y-106949000D01*
X185950000Y-106947268D01*
X185951000Y-106947000D01*
X186049000Y-106947000D01*
X186050732Y-106948000D01*
G37*
G36*
X190282165Y-106403874D02*
G01*
X190283000Y-106405500D01*
X190283000Y-106461862D01*
X190282990Y-106462058D01*
X190281187Y-106480366D01*
X190281111Y-106480751D01*
X190277559Y-106492458D01*
X190277409Y-106492820D01*
X190267193Y-106511935D01*
X190257930Y-106534298D01*
X190253226Y-106557948D01*
X190253226Y-106582054D01*
X190257931Y-106605704D01*
X190267193Y-106628065D01*
X190277409Y-106647180D01*
X190277559Y-106647542D01*
X190281111Y-106659249D01*
X190281187Y-106659634D01*
X190282990Y-106677942D01*
X190283000Y-106678138D01*
X190283000Y-106734500D01*
X190282000Y-106736232D01*
X190280000Y-106736232D01*
X190279010Y-106734696D01*
X190276619Y-106710411D01*
X190269590Y-106687242D01*
X190258178Y-106665892D01*
X190242821Y-106647179D01*
X190224108Y-106631822D01*
X190202758Y-106620410D01*
X190179589Y-106613381D01*
X190155406Y-106611000D01*
X189904594Y-106611000D01*
X189880411Y-106613381D01*
X189857242Y-106620410D01*
X189835892Y-106631822D01*
X189817179Y-106647179D01*
X189801822Y-106665892D01*
X189790410Y-106687242D01*
X189783381Y-106710411D01*
X189780990Y-106734696D01*
X189779825Y-106736322D01*
X189777835Y-106736126D01*
X189777000Y-106734500D01*
X189777000Y-106678138D01*
X189777010Y-106677942D01*
X189778813Y-106659634D01*
X189778889Y-106659249D01*
X189782441Y-106647542D01*
X189782591Y-106647180D01*
X189792807Y-106628065D01*
X189802070Y-106605702D01*
X189806774Y-106582052D01*
X189806774Y-106557946D01*
X189802069Y-106534296D01*
X189792807Y-106511935D01*
X189782591Y-106492820D01*
X189782441Y-106492458D01*
X189778889Y-106480751D01*
X189778813Y-106480366D01*
X189777010Y-106462058D01*
X189777000Y-106461862D01*
X189777000Y-106405500D01*
X189778000Y-106403768D01*
X189780000Y-106403768D01*
X189780990Y-106405304D01*
X189783381Y-106429589D01*
X189790410Y-106452758D01*
X189801822Y-106474108D01*
X189817178Y-106492820D01*
X189835892Y-106508178D01*
X189857242Y-106519590D01*
X189880411Y-106526619D01*
X189904594Y-106529000D01*
X190155406Y-106529000D01*
X190179589Y-106526619D01*
X190202758Y-106519590D01*
X190224108Y-106508178D01*
X190242822Y-106492820D01*
X190258178Y-106474108D01*
X190269590Y-106452758D01*
X190276619Y-106429589D01*
X190279010Y-106405304D01*
X190280175Y-106403678D01*
X190282165Y-106403874D01*
G37*
G36*
X183052732Y-106450000D02*
G01*
X183053000Y-106451000D01*
X183053000Y-106549000D01*
X183052000Y-106550732D01*
X183051000Y-106551000D01*
X182149000Y-106551000D01*
X182147268Y-106550000D01*
X182147000Y-106549000D01*
X182147000Y-106451000D01*
X182148000Y-106449268D01*
X182149000Y-106449000D01*
X183051000Y-106449000D01*
X183052732Y-106450000D01*
G37*
G36*
X187852732Y-106450000D02*
G01*
X187853000Y-106451000D01*
X187853000Y-106549000D01*
X187852000Y-106550732D01*
X187851000Y-106551000D01*
X186949000Y-106551000D01*
X186947268Y-106550000D01*
X186947000Y-106549000D01*
X186947000Y-106451000D01*
X186948000Y-106449268D01*
X186949000Y-106449000D01*
X187851000Y-106449000D01*
X187852732Y-106450000D01*
G37*
G36*
X191192058Y-105997010D02*
G01*
X191210366Y-105998813D01*
X191210751Y-105998889D01*
X191222458Y-106002441D01*
X191222820Y-106002591D01*
X191241935Y-106012807D01*
X191264298Y-106022070D01*
X191287948Y-106026774D01*
X191312054Y-106026774D01*
X191335704Y-106022069D01*
X191358065Y-106012807D01*
X191377180Y-106002591D01*
X191377542Y-106002441D01*
X191389249Y-105998889D01*
X191389634Y-105998813D01*
X191407942Y-105997010D01*
X191408138Y-105997000D01*
X191464500Y-105997000D01*
X191466232Y-105998000D01*
X191466232Y-106000000D01*
X191464696Y-106000990D01*
X191440411Y-106003381D01*
X191417242Y-106010410D01*
X191395892Y-106021822D01*
X191377179Y-106037179D01*
X191361822Y-106055892D01*
X191350410Y-106077242D01*
X191343381Y-106100411D01*
X191341000Y-106124594D01*
X191341000Y-106375406D01*
X191343381Y-106399589D01*
X191350410Y-106422758D01*
X191361822Y-106444108D01*
X191377179Y-106462821D01*
X191395892Y-106478178D01*
X191417242Y-106489590D01*
X191440411Y-106496619D01*
X191464696Y-106499010D01*
X191466322Y-106500175D01*
X191466126Y-106502165D01*
X191464500Y-106503000D01*
X191408138Y-106503000D01*
X191407942Y-106502990D01*
X191389634Y-106501187D01*
X191389249Y-106501111D01*
X191377542Y-106497559D01*
X191377180Y-106497409D01*
X191358065Y-106487193D01*
X191335702Y-106477930D01*
X191312052Y-106473226D01*
X191287946Y-106473226D01*
X191264296Y-106477931D01*
X191241935Y-106487193D01*
X191222820Y-106497409D01*
X191222458Y-106497559D01*
X191210751Y-106501111D01*
X191210366Y-106501187D01*
X191192058Y-106502990D01*
X191191862Y-106503000D01*
X191135500Y-106503000D01*
X191133768Y-106502000D01*
X191133768Y-106500000D01*
X191135304Y-106499010D01*
X191159589Y-106496619D01*
X191182758Y-106489590D01*
X191204108Y-106478178D01*
X191222821Y-106462821D01*
X191238178Y-106444108D01*
X191249590Y-106422758D01*
X191256619Y-106399589D01*
X191259000Y-106375406D01*
X191259000Y-106124594D01*
X191256619Y-106100411D01*
X191249590Y-106077242D01*
X191238178Y-106055892D01*
X191222821Y-106037179D01*
X191204108Y-106021822D01*
X191182758Y-106010410D01*
X191159589Y-106003381D01*
X191135304Y-106000990D01*
X191133678Y-105999825D01*
X191133874Y-105997835D01*
X191135500Y-105997000D01*
X191191862Y-105997000D01*
X191192058Y-105997010D01*
G37*
G36*
X183052732Y-105950000D02*
G01*
X183053000Y-105951000D01*
X183053000Y-106049000D01*
X183052000Y-106050732D01*
X183051000Y-106051000D01*
X182149000Y-106051000D01*
X182147268Y-106050000D01*
X182147000Y-106049000D01*
X182147000Y-105951000D01*
X182148000Y-105949268D01*
X182149000Y-105949000D01*
X183051000Y-105949000D01*
X183052732Y-105950000D01*
G37*
G36*
X187852732Y-105950000D02*
G01*
X187853000Y-105951000D01*
X187853000Y-106049000D01*
X187852000Y-106050732D01*
X187851000Y-106051000D01*
X186949000Y-106051000D01*
X186947268Y-106050000D01*
X186947000Y-106049000D01*
X186947000Y-105951000D01*
X186948000Y-105949268D01*
X186949000Y-105949000D01*
X187851000Y-105949000D01*
X187852732Y-105950000D01*
G37*
G36*
X183052732Y-105450000D02*
G01*
X183053000Y-105451000D01*
X183053000Y-105549000D01*
X183052000Y-105550732D01*
X183051000Y-105551000D01*
X182149000Y-105551000D01*
X182147268Y-105550000D01*
X182147000Y-105549000D01*
X182147000Y-105451000D01*
X182148000Y-105449268D01*
X182149000Y-105449000D01*
X183051000Y-105449000D01*
X183052732Y-105450000D01*
G37*
G36*
X187852732Y-105450000D02*
G01*
X187853000Y-105451000D01*
X187853000Y-105549000D01*
X187852000Y-105550732D01*
X187851000Y-105551000D01*
X186949000Y-105551000D01*
X186947268Y-105550000D01*
X186947000Y-105549000D01*
X186947000Y-105451000D01*
X186948000Y-105449268D01*
X186949000Y-105449000D01*
X187851000Y-105449000D01*
X187852732Y-105450000D01*
G37*
G36*
X191192058Y-104997010D02*
G01*
X191210366Y-104998813D01*
X191210751Y-104998889D01*
X191222458Y-105002441D01*
X191222820Y-105002591D01*
X191241935Y-105012807D01*
X191264298Y-105022070D01*
X191287948Y-105026774D01*
X191312054Y-105026774D01*
X191335704Y-105022069D01*
X191358065Y-105012807D01*
X191377180Y-105002591D01*
X191377542Y-105002441D01*
X191389249Y-104998889D01*
X191389634Y-104998813D01*
X191407942Y-104997010D01*
X191408138Y-104997000D01*
X191464500Y-104997000D01*
X191466232Y-104998000D01*
X191466232Y-105000000D01*
X191464696Y-105000990D01*
X191440411Y-105003381D01*
X191417242Y-105010410D01*
X191395892Y-105021822D01*
X191377179Y-105037179D01*
X191361822Y-105055892D01*
X191350410Y-105077242D01*
X191343381Y-105100411D01*
X191341000Y-105124594D01*
X191341000Y-105375406D01*
X191343381Y-105399589D01*
X191350410Y-105422758D01*
X191361822Y-105444108D01*
X191377179Y-105462821D01*
X191395892Y-105478178D01*
X191417242Y-105489590D01*
X191440411Y-105496619D01*
X191464696Y-105499010D01*
X191466322Y-105500175D01*
X191466126Y-105502165D01*
X191464500Y-105503000D01*
X191408138Y-105503000D01*
X191407942Y-105502990D01*
X191389634Y-105501187D01*
X191389249Y-105501111D01*
X191377542Y-105497559D01*
X191377180Y-105497409D01*
X191358065Y-105487193D01*
X191335702Y-105477930D01*
X191312052Y-105473226D01*
X191287946Y-105473226D01*
X191264296Y-105477931D01*
X191241935Y-105487193D01*
X191222820Y-105497409D01*
X191222458Y-105497559D01*
X191210751Y-105501111D01*
X191210366Y-105501187D01*
X191192058Y-105502990D01*
X191191862Y-105503000D01*
X191135500Y-105503000D01*
X191133768Y-105502000D01*
X191133768Y-105500000D01*
X191135304Y-105499010D01*
X191159589Y-105496619D01*
X191182758Y-105489590D01*
X191204108Y-105478178D01*
X191222821Y-105462821D01*
X191238178Y-105444108D01*
X191249590Y-105422758D01*
X191256619Y-105399589D01*
X191259000Y-105375406D01*
X191259000Y-105124594D01*
X191256619Y-105100411D01*
X191249590Y-105077242D01*
X191238178Y-105055892D01*
X191222821Y-105037179D01*
X191204108Y-105021822D01*
X191182758Y-105010410D01*
X191159589Y-105003381D01*
X191135304Y-105000990D01*
X191133678Y-104999825D01*
X191133874Y-104997835D01*
X191135500Y-104997000D01*
X191191862Y-104997000D01*
X191192058Y-104997010D01*
G37*
G36*
X177532165Y-104903874D02*
G01*
X177533000Y-104905500D01*
X177533000Y-104961862D01*
X177532990Y-104962058D01*
X177531187Y-104980366D01*
X177531111Y-104980751D01*
X177527559Y-104992458D01*
X177527409Y-104992820D01*
X177517193Y-105011935D01*
X177507930Y-105034298D01*
X177503226Y-105057948D01*
X177503226Y-105082054D01*
X177507931Y-105105704D01*
X177517193Y-105128065D01*
X177527409Y-105147180D01*
X177527559Y-105147542D01*
X177531111Y-105159249D01*
X177531187Y-105159634D01*
X177532990Y-105177942D01*
X177533000Y-105178138D01*
X177533000Y-105234500D01*
X177532000Y-105236232D01*
X177530000Y-105236232D01*
X177529010Y-105234696D01*
X177526619Y-105210411D01*
X177519590Y-105187242D01*
X177508178Y-105165892D01*
X177492821Y-105147179D01*
X177474108Y-105131822D01*
X177452758Y-105120410D01*
X177429589Y-105113381D01*
X177405406Y-105111000D01*
X177154594Y-105111000D01*
X177130411Y-105113381D01*
X177107242Y-105120410D01*
X177085892Y-105131822D01*
X177067179Y-105147179D01*
X177051822Y-105165892D01*
X177040410Y-105187242D01*
X177033381Y-105210411D01*
X177030990Y-105234696D01*
X177029825Y-105236322D01*
X177027835Y-105236126D01*
X177027000Y-105234500D01*
X177027000Y-105178138D01*
X177027010Y-105177942D01*
X177028813Y-105159634D01*
X177028889Y-105159249D01*
X177032441Y-105147542D01*
X177032591Y-105147180D01*
X177042807Y-105128065D01*
X177052070Y-105105702D01*
X177056774Y-105082052D01*
X177056774Y-105057946D01*
X177052069Y-105034296D01*
X177042807Y-105011935D01*
X177032591Y-104992820D01*
X177032441Y-104992458D01*
X177028889Y-104980751D01*
X177028813Y-104980366D01*
X177027010Y-104962058D01*
X177027000Y-104961862D01*
X177027000Y-104905500D01*
X177028000Y-104903768D01*
X177030000Y-104903768D01*
X177030990Y-104905304D01*
X177033381Y-104929589D01*
X177040410Y-104952758D01*
X177051822Y-104974108D01*
X177067178Y-104992820D01*
X177085892Y-105008178D01*
X177107242Y-105019590D01*
X177130411Y-105026619D01*
X177154594Y-105029000D01*
X177405406Y-105029000D01*
X177429589Y-105026619D01*
X177452758Y-105019590D01*
X177474108Y-105008178D01*
X177492822Y-104992820D01*
X177508178Y-104974108D01*
X177519590Y-104952758D01*
X177526619Y-104929589D01*
X177529010Y-104905304D01*
X177530175Y-104903678D01*
X177532165Y-104903874D01*
G37*
G36*
X192812165Y-104763874D02*
G01*
X192813000Y-104765500D01*
X192813000Y-104821862D01*
X192812990Y-104822058D01*
X192811187Y-104840366D01*
X192811111Y-104840751D01*
X192807559Y-104852458D01*
X192807409Y-104852820D01*
X192797193Y-104871935D01*
X192787930Y-104894298D01*
X192783226Y-104917948D01*
X192783226Y-104942054D01*
X192787931Y-104965704D01*
X192797193Y-104988065D01*
X192807409Y-105007180D01*
X192807559Y-105007542D01*
X192811111Y-105019249D01*
X192811187Y-105019634D01*
X192812990Y-105037942D01*
X192813000Y-105038138D01*
X192813000Y-105094500D01*
X192812000Y-105096232D01*
X192810000Y-105096232D01*
X192809010Y-105094696D01*
X192806619Y-105070411D01*
X192799590Y-105047242D01*
X192788178Y-105025892D01*
X192772821Y-105007179D01*
X192754108Y-104991822D01*
X192732758Y-104980410D01*
X192709589Y-104973381D01*
X192685406Y-104971000D01*
X192434594Y-104971000D01*
X192410411Y-104973381D01*
X192387242Y-104980410D01*
X192365892Y-104991822D01*
X192347179Y-105007179D01*
X192331822Y-105025892D01*
X192320410Y-105047242D01*
X192313381Y-105070411D01*
X192310990Y-105094696D01*
X192309825Y-105096322D01*
X192307835Y-105096126D01*
X192307000Y-105094500D01*
X192307000Y-105038138D01*
X192307010Y-105037942D01*
X192308813Y-105019634D01*
X192308889Y-105019249D01*
X192312441Y-105007542D01*
X192312591Y-105007180D01*
X192322807Y-104988065D01*
X192332070Y-104965702D01*
X192336774Y-104942052D01*
X192336774Y-104917946D01*
X192332069Y-104894296D01*
X192322807Y-104871935D01*
X192312591Y-104852820D01*
X192312441Y-104852458D01*
X192308889Y-104840751D01*
X192308813Y-104840366D01*
X192307010Y-104822058D01*
X192307000Y-104821862D01*
X192307000Y-104765500D01*
X192308000Y-104763768D01*
X192310000Y-104763768D01*
X192310990Y-104765304D01*
X192313381Y-104789589D01*
X192320410Y-104812758D01*
X192331822Y-104834108D01*
X192347178Y-104852820D01*
X192365892Y-104868178D01*
X192387242Y-104879590D01*
X192410411Y-104886619D01*
X192434594Y-104889000D01*
X192685406Y-104889000D01*
X192709589Y-104886619D01*
X192732758Y-104879590D01*
X192754108Y-104868178D01*
X192772822Y-104852820D01*
X192788178Y-104834108D01*
X192799590Y-104812758D01*
X192806619Y-104789589D01*
X192809010Y-104765304D01*
X192810175Y-104763678D01*
X192812165Y-104763874D01*
G37*
G36*
X190282165Y-104763874D02*
G01*
X190283000Y-104765500D01*
X190283000Y-104821862D01*
X190282990Y-104822058D01*
X190281187Y-104840366D01*
X190281111Y-104840751D01*
X190277559Y-104852458D01*
X190277409Y-104852820D01*
X190267193Y-104871935D01*
X190257930Y-104894298D01*
X190253226Y-104917948D01*
X190253226Y-104942054D01*
X190257931Y-104965704D01*
X190267193Y-104988065D01*
X190277409Y-105007180D01*
X190277559Y-105007542D01*
X190281111Y-105019249D01*
X190281187Y-105019634D01*
X190282990Y-105037942D01*
X190283000Y-105038138D01*
X190283000Y-105094500D01*
X190282000Y-105096232D01*
X190280000Y-105096232D01*
X190279010Y-105094696D01*
X190276619Y-105070411D01*
X190269590Y-105047242D01*
X190258178Y-105025892D01*
X190242821Y-105007179D01*
X190224108Y-104991822D01*
X190202758Y-104980410D01*
X190179589Y-104973381D01*
X190155406Y-104971000D01*
X189904594Y-104971000D01*
X189880411Y-104973381D01*
X189857242Y-104980410D01*
X189835892Y-104991822D01*
X189817179Y-105007179D01*
X189801822Y-105025892D01*
X189790410Y-105047242D01*
X189783381Y-105070411D01*
X189780990Y-105094696D01*
X189779825Y-105096322D01*
X189777835Y-105096126D01*
X189777000Y-105094500D01*
X189777000Y-105038138D01*
X189777010Y-105037942D01*
X189778813Y-105019634D01*
X189778889Y-105019249D01*
X189782441Y-105007542D01*
X189782591Y-105007180D01*
X189792807Y-104988065D01*
X189802070Y-104965702D01*
X189806774Y-104942052D01*
X189806774Y-104917946D01*
X189802069Y-104894296D01*
X189792807Y-104871935D01*
X189782591Y-104852820D01*
X189782441Y-104852458D01*
X189778889Y-104840751D01*
X189778813Y-104840366D01*
X189777010Y-104822058D01*
X189777000Y-104821862D01*
X189777000Y-104765500D01*
X189778000Y-104763768D01*
X189780000Y-104763768D01*
X189780990Y-104765304D01*
X189783381Y-104789589D01*
X189790410Y-104812758D01*
X189801822Y-104834108D01*
X189817178Y-104852820D01*
X189835892Y-104868178D01*
X189857242Y-104879590D01*
X189880411Y-104886619D01*
X189904594Y-104889000D01*
X190155406Y-104889000D01*
X190179589Y-104886619D01*
X190202758Y-104879590D01*
X190224108Y-104868178D01*
X190242822Y-104852820D01*
X190258178Y-104834108D01*
X190269590Y-104812758D01*
X190276619Y-104789589D01*
X190279010Y-104765304D01*
X190280175Y-104763678D01*
X190282165Y-104763874D01*
G37*
G36*
X183052732Y-104950000D02*
G01*
X183053000Y-104951000D01*
X183053000Y-105049000D01*
X183052000Y-105050732D01*
X183051000Y-105051000D01*
X182149000Y-105051000D01*
X182147268Y-105050000D01*
X182147000Y-105049000D01*
X182147000Y-104951000D01*
X182148000Y-104949268D01*
X182149000Y-104949000D01*
X183051000Y-104949000D01*
X183052732Y-104950000D01*
G37*
G36*
X187852732Y-104950000D02*
G01*
X187853000Y-104951000D01*
X187853000Y-105049000D01*
X187852000Y-105050732D01*
X187851000Y-105051000D01*
X186949000Y-105051000D01*
X186947268Y-105050000D01*
X186947000Y-105049000D01*
X186947000Y-104951000D01*
X186948000Y-104949268D01*
X186949000Y-104949000D01*
X187851000Y-104949000D01*
X187852732Y-104950000D01*
G37*
G36*
X175902058Y-104497010D02*
G01*
X175920366Y-104498813D01*
X175920751Y-104498889D01*
X175932458Y-104502441D01*
X175932820Y-104502591D01*
X175951935Y-104512807D01*
X175974298Y-104522070D01*
X175997948Y-104526774D01*
X176022054Y-104526774D01*
X176045704Y-104522069D01*
X176068065Y-104512807D01*
X176087180Y-104502591D01*
X176087542Y-104502441D01*
X176099249Y-104498889D01*
X176099634Y-104498813D01*
X176117942Y-104497010D01*
X176118138Y-104497000D01*
X176174500Y-104497000D01*
X176176232Y-104498000D01*
X176176232Y-104500000D01*
X176174696Y-104500990D01*
X176150411Y-104503381D01*
X176127242Y-104510410D01*
X176105892Y-104521822D01*
X176087179Y-104537179D01*
X176071822Y-104555892D01*
X176060410Y-104577242D01*
X176053381Y-104600411D01*
X176051000Y-104624594D01*
X176051000Y-104875406D01*
X176053381Y-104899589D01*
X176060410Y-104922758D01*
X176071822Y-104944108D01*
X176087179Y-104962821D01*
X176105892Y-104978178D01*
X176127242Y-104989590D01*
X176150411Y-104996619D01*
X176174696Y-104999010D01*
X176176322Y-105000175D01*
X176176126Y-105002165D01*
X176174500Y-105003000D01*
X176118138Y-105003000D01*
X176117942Y-105002990D01*
X176099634Y-105001187D01*
X176099249Y-105001111D01*
X176087542Y-104997559D01*
X176087180Y-104997409D01*
X176068065Y-104987193D01*
X176045702Y-104977930D01*
X176022052Y-104973226D01*
X175997946Y-104973226D01*
X175974296Y-104977931D01*
X175951935Y-104987193D01*
X175932820Y-104997409D01*
X175932458Y-104997559D01*
X175920751Y-105001111D01*
X175920366Y-105001187D01*
X175902058Y-105002990D01*
X175901862Y-105003000D01*
X175845500Y-105003000D01*
X175843768Y-105002000D01*
X175843768Y-105000000D01*
X175845304Y-104999010D01*
X175869589Y-104996619D01*
X175892758Y-104989590D01*
X175914108Y-104978178D01*
X175932821Y-104962821D01*
X175948178Y-104944108D01*
X175959590Y-104922758D01*
X175966619Y-104899589D01*
X175969000Y-104875406D01*
X175969000Y-104624594D01*
X175966619Y-104600411D01*
X175959590Y-104577242D01*
X175948178Y-104555892D01*
X175932821Y-104537179D01*
X175914108Y-104521822D01*
X175892758Y-104510410D01*
X175869589Y-104503381D01*
X175845304Y-104500990D01*
X175843678Y-104499825D01*
X175843874Y-104497835D01*
X175845500Y-104497000D01*
X175901862Y-104497000D01*
X175902058Y-104497010D01*
G37*
G36*
X180175732Y-103223000D02*
G01*
X180176000Y-103224000D01*
X180176000Y-103674000D01*
X180926000Y-103674000D01*
X180927732Y-103675000D01*
X180928000Y-103676000D01*
X180928000Y-103874000D01*
X180927000Y-103875732D01*
X180926000Y-103876000D01*
X180176000Y-103876000D01*
X180176000Y-104324000D01*
X180926000Y-104324000D01*
X180927732Y-104325000D01*
X180928000Y-104326000D01*
X180928000Y-104524000D01*
X180927000Y-104525732D01*
X180926000Y-104526000D01*
X180176000Y-104526000D01*
X180176000Y-104976000D01*
X180175000Y-104977732D01*
X180174000Y-104978000D01*
X180123241Y-104978000D01*
X180121972Y-104977546D01*
X180117331Y-104973737D01*
X180096067Y-104962372D01*
X180072992Y-104955372D01*
X180048805Y-104952990D01*
X180047179Y-104951825D01*
X180047375Y-104949835D01*
X180049000Y-104949001D01*
X180049000Y-103250999D01*
X180047269Y-103250000D01*
X180047269Y-103248000D01*
X180048805Y-103247010D01*
X180072992Y-103244628D01*
X180096067Y-103237628D01*
X180117331Y-103226263D01*
X180121972Y-103222454D01*
X180123241Y-103222000D01*
X180174000Y-103222000D01*
X180175732Y-103223000D01*
G37*
G36*
X178878028Y-103222454D02*
G01*
X178882669Y-103226263D01*
X178903933Y-103237628D01*
X178927008Y-103244628D01*
X178951195Y-103247010D01*
X178952821Y-103248175D01*
X178952625Y-103250165D01*
X178951000Y-103250999D01*
X178951000Y-104949001D01*
X178952731Y-104950000D01*
X178952731Y-104952000D01*
X178951195Y-104952990D01*
X178927008Y-104955372D01*
X178903933Y-104962372D01*
X178882669Y-104973737D01*
X178878028Y-104977546D01*
X178876759Y-104978000D01*
X178826000Y-104978000D01*
X178824268Y-104977000D01*
X178824000Y-104976000D01*
X178824000Y-104526000D01*
X178074000Y-104526000D01*
X178072268Y-104525000D01*
X178072000Y-104524000D01*
X178072000Y-104326000D01*
X178073000Y-104324268D01*
X178074000Y-104324000D01*
X178824000Y-104324000D01*
X178824000Y-103876000D01*
X178074000Y-103876000D01*
X178072268Y-103875000D01*
X178072000Y-103874000D01*
X178072000Y-103676000D01*
X178073000Y-103674268D01*
X178074000Y-103674000D01*
X178824000Y-103674000D01*
X178824000Y-103224000D01*
X178825000Y-103222268D01*
X178826000Y-103222000D01*
X178876759Y-103222000D01*
X178878028Y-103222454D01*
G37*
G36*
X187852732Y-104450000D02*
G01*
X187853000Y-104451000D01*
X187853000Y-104549000D01*
X187852000Y-104550732D01*
X187851000Y-104551000D01*
X186949000Y-104551000D01*
X186947268Y-104550000D01*
X186947000Y-104549000D01*
X186947000Y-104451000D01*
X186948000Y-104449268D01*
X186949000Y-104449000D01*
X187851000Y-104449000D01*
X187852732Y-104450000D01*
G37*
G36*
X183052732Y-104450000D02*
G01*
X183053000Y-104451000D01*
X183053000Y-104549000D01*
X183052000Y-104550732D01*
X183051000Y-104551000D01*
X182149000Y-104551000D01*
X182147268Y-104550000D01*
X182147000Y-104549000D01*
X182147000Y-104451000D01*
X182148000Y-104449268D01*
X182149000Y-104449000D01*
X183051000Y-104449000D01*
X183052732Y-104450000D01*
G37*
G36*
X183052732Y-103950000D02*
G01*
X183053000Y-103951000D01*
X183053000Y-104049000D01*
X183052000Y-104050732D01*
X183051000Y-104051000D01*
X182149000Y-104051000D01*
X182147268Y-104050000D01*
X182147000Y-104049000D01*
X182147000Y-103951000D01*
X182148000Y-103949268D01*
X182149000Y-103949000D01*
X183051000Y-103949000D01*
X183052732Y-103950000D01*
G37*
G36*
X187852732Y-103950000D02*
G01*
X187853000Y-103951000D01*
X187853000Y-104049000D01*
X187852000Y-104050732D01*
X187851000Y-104051000D01*
X186949000Y-104051000D01*
X186947268Y-104050000D01*
X186947000Y-104049000D01*
X186947000Y-103951000D01*
X186948000Y-103949268D01*
X186949000Y-103949000D01*
X187851000Y-103949000D01*
X187852732Y-103950000D01*
G37*
G36*
X183052732Y-103450000D02*
G01*
X183053000Y-103451000D01*
X183053000Y-103549000D01*
X183052000Y-103550732D01*
X183051000Y-103551000D01*
X182149000Y-103551000D01*
X182147268Y-103550000D01*
X182147000Y-103549000D01*
X182147000Y-103451000D01*
X182148000Y-103449268D01*
X182149000Y-103449000D01*
X183051000Y-103449000D01*
X183052732Y-103450000D01*
G37*
G36*
X187852732Y-103450000D02*
G01*
X187853000Y-103451000D01*
X187853000Y-103549000D01*
X187852000Y-103550732D01*
X187851000Y-103551000D01*
X186949000Y-103551000D01*
X186947268Y-103550000D01*
X186947000Y-103549000D01*
X186947000Y-103451000D01*
X186948000Y-103449268D01*
X186949000Y-103449000D01*
X187851000Y-103449000D01*
X187852732Y-103450000D01*
G37*
G36*
X185956867Y-102089350D02*
G01*
X185957835Y-102091209D01*
X185972927Y-102110013D01*
X185991398Y-102125513D01*
X186012534Y-102137109D01*
X186035521Y-102144357D01*
X186061044Y-102147011D01*
X186062663Y-102148185D01*
X186062456Y-102150174D01*
X186060837Y-102151000D01*
X186051000Y-102151000D01*
X186051000Y-103051000D01*
X186050000Y-103052732D01*
X186049000Y-103053000D01*
X185951000Y-103053000D01*
X185949268Y-103052000D01*
X185949000Y-103051000D01*
X185949000Y-102151000D01*
X185551000Y-102151000D01*
X185551000Y-103051000D01*
X185550000Y-103052732D01*
X185549000Y-103053000D01*
X183176093Y-103053000D01*
X183152008Y-103055372D01*
X183128933Y-103062372D01*
X183107669Y-103073737D01*
X183089032Y-103089032D01*
X183073737Y-103107669D01*
X183062372Y-103128933D01*
X183055372Y-103152008D01*
X183052990Y-103176195D01*
X183051825Y-103177821D01*
X183049835Y-103177625D01*
X183049000Y-103175999D01*
X183049000Y-103051000D01*
X182924001Y-103051000D01*
X182922269Y-103050000D01*
X182922269Y-103048000D01*
X182923805Y-103047010D01*
X182947992Y-103044628D01*
X182971067Y-103037628D01*
X182992331Y-103026263D01*
X183010968Y-103010968D01*
X183026263Y-102992331D01*
X183037628Y-102971067D01*
X183044628Y-102947992D01*
X183047010Y-102923805D01*
X183048175Y-102922179D01*
X183050165Y-102922375D01*
X183051000Y-102924001D01*
X183051000Y-103049000D01*
X183449000Y-103049000D01*
X183449000Y-102151000D01*
X183551000Y-102151000D01*
X183551000Y-103049000D01*
X183949000Y-103049000D01*
X183949000Y-102151000D01*
X184051000Y-102151000D01*
X184051000Y-103049000D01*
X184449000Y-103049000D01*
X184449000Y-102151000D01*
X184551000Y-102151000D01*
X184551000Y-103049000D01*
X184949000Y-103049000D01*
X184949000Y-102151000D01*
X185051000Y-102151000D01*
X185051000Y-103049000D01*
X185449000Y-103049000D01*
X185449000Y-102151000D01*
X185051000Y-102151000D01*
X184949000Y-102151000D01*
X184551000Y-102151000D01*
X184449000Y-102151000D01*
X184051000Y-102151000D01*
X183949000Y-102151000D01*
X183551000Y-102151000D01*
X183449000Y-102151000D01*
X183449000Y-102149000D01*
X183450000Y-102147268D01*
X183451000Y-102147000D01*
X185849370Y-102147000D01*
X185873455Y-102144628D01*
X185896530Y-102137628D01*
X185917794Y-102126263D01*
X185936431Y-102110968D01*
X185951726Y-102092331D01*
X185953329Y-102089331D01*
X185955028Y-102088275D01*
X185956867Y-102089350D01*
G37*
G36*
X186550732Y-102148000D02*
G01*
X186551000Y-102149000D01*
X186551000Y-103051000D01*
X186550000Y-103052732D01*
X186549000Y-103053000D01*
X186451000Y-103053000D01*
X186449268Y-103052000D01*
X186449000Y-103051000D01*
X186449000Y-102149000D01*
X186450000Y-102147268D01*
X186451000Y-102147000D01*
X186549000Y-102147000D01*
X186550732Y-102148000D01*
G37*
G36*
X184952165Y-100333874D02*
G01*
X184953000Y-100335500D01*
X184953000Y-100391862D01*
X184952990Y-100392058D01*
X184951187Y-100410366D01*
X184951111Y-100410751D01*
X184947559Y-100422458D01*
X184947409Y-100422820D01*
X184937193Y-100441935D01*
X184927930Y-100464298D01*
X184923226Y-100487948D01*
X184923226Y-100512054D01*
X184927931Y-100535704D01*
X184937193Y-100558065D01*
X184947409Y-100577180D01*
X184947559Y-100577542D01*
X184951111Y-100589249D01*
X184951187Y-100589634D01*
X184952990Y-100607942D01*
X184953000Y-100608138D01*
X184953000Y-100664500D01*
X184952000Y-100666232D01*
X184950000Y-100666232D01*
X184949010Y-100664696D01*
X184946619Y-100640411D01*
X184939590Y-100617242D01*
X184928178Y-100595892D01*
X184912821Y-100577179D01*
X184894108Y-100561822D01*
X184872758Y-100550410D01*
X184849589Y-100543381D01*
X184825406Y-100541000D01*
X184574594Y-100541000D01*
X184550411Y-100543381D01*
X184527242Y-100550410D01*
X184505892Y-100561822D01*
X184487179Y-100577179D01*
X184471822Y-100595892D01*
X184460410Y-100617242D01*
X184453381Y-100640411D01*
X184450990Y-100664696D01*
X184449825Y-100666322D01*
X184447835Y-100666126D01*
X184447000Y-100664500D01*
X184447000Y-100608138D01*
X184447010Y-100607942D01*
X184448813Y-100589634D01*
X184448889Y-100589249D01*
X184452441Y-100577542D01*
X184452591Y-100577180D01*
X184462807Y-100558065D01*
X184472070Y-100535702D01*
X184476774Y-100512052D01*
X184476774Y-100487946D01*
X184472069Y-100464296D01*
X184462807Y-100441935D01*
X184452591Y-100422820D01*
X184452441Y-100422458D01*
X184448889Y-100410751D01*
X184448813Y-100410366D01*
X184447010Y-100392058D01*
X184447000Y-100391862D01*
X184447000Y-100335500D01*
X184448000Y-100333768D01*
X184450000Y-100333768D01*
X184450990Y-100335304D01*
X184453381Y-100359589D01*
X184460410Y-100382758D01*
X184471822Y-100404108D01*
X184487178Y-100422820D01*
X184505892Y-100438178D01*
X184527242Y-100449590D01*
X184550411Y-100456619D01*
X184574594Y-100459000D01*
X184825406Y-100459000D01*
X184849589Y-100456619D01*
X184872758Y-100449590D01*
X184894108Y-100438178D01*
X184912822Y-100422820D01*
X184928178Y-100404108D01*
X184939590Y-100382758D01*
X184946619Y-100359589D01*
X184949010Y-100335304D01*
X184950175Y-100333678D01*
X184952165Y-100333874D01*
G37*
G36*
X184052165Y-100333874D02*
G01*
X184053000Y-100335500D01*
X184053000Y-100391862D01*
X184052990Y-100392058D01*
X184051187Y-100410366D01*
X184051111Y-100410751D01*
X184047559Y-100422458D01*
X184047409Y-100422820D01*
X184037193Y-100441935D01*
X184027930Y-100464298D01*
X184023226Y-100487948D01*
X184023226Y-100512054D01*
X184027931Y-100535704D01*
X184037193Y-100558065D01*
X184047409Y-100577180D01*
X184047559Y-100577542D01*
X184051111Y-100589249D01*
X184051187Y-100589634D01*
X184052990Y-100607942D01*
X184053000Y-100608138D01*
X184053000Y-100664500D01*
X184052000Y-100666232D01*
X184050000Y-100666232D01*
X184049010Y-100664696D01*
X184046619Y-100640411D01*
X184039590Y-100617242D01*
X184028178Y-100595892D01*
X184012821Y-100577179D01*
X183994108Y-100561822D01*
X183972758Y-100550410D01*
X183949589Y-100543381D01*
X183925406Y-100541000D01*
X183674594Y-100541000D01*
X183650411Y-100543381D01*
X183627242Y-100550410D01*
X183605892Y-100561822D01*
X183587179Y-100577179D01*
X183571822Y-100595892D01*
X183560410Y-100617242D01*
X183553381Y-100640411D01*
X183550990Y-100664696D01*
X183549825Y-100666322D01*
X183547835Y-100666126D01*
X183547000Y-100664500D01*
X183547000Y-100608138D01*
X183547010Y-100607942D01*
X183548813Y-100589634D01*
X183548889Y-100589249D01*
X183552441Y-100577542D01*
X183552591Y-100577180D01*
X183562807Y-100558065D01*
X183572070Y-100535702D01*
X183576774Y-100512052D01*
X183576774Y-100487946D01*
X183572069Y-100464296D01*
X183562807Y-100441935D01*
X183552591Y-100422820D01*
X183552441Y-100422458D01*
X183548889Y-100410751D01*
X183548813Y-100410366D01*
X183547010Y-100392058D01*
X183547000Y-100391862D01*
X183547000Y-100335500D01*
X183548000Y-100333768D01*
X183550000Y-100333768D01*
X183550990Y-100335304D01*
X183553381Y-100359589D01*
X183560410Y-100382758D01*
X183571822Y-100404108D01*
X183587178Y-100422820D01*
X183605892Y-100438178D01*
X183627242Y-100449590D01*
X183650411Y-100456619D01*
X183674594Y-100459000D01*
X183925406Y-100459000D01*
X183949589Y-100456619D01*
X183972758Y-100449590D01*
X183994108Y-100438178D01*
X184012822Y-100422820D01*
X184028178Y-100404108D01*
X184039590Y-100382758D01*
X184046619Y-100359589D01*
X184049010Y-100335304D01*
X184050175Y-100333678D01*
X184052165Y-100333874D01*
G37*
G36*
X212995165Y-99091526D02*
G01*
X212996000Y-99093152D01*
X212996000Y-99986848D01*
X212995000Y-99988580D01*
X212993000Y-99988580D01*
X212992010Y-99987044D01*
X212989628Y-99962857D01*
X212982628Y-99939782D01*
X212971263Y-99918518D01*
X212955968Y-99899881D01*
X212937331Y-99884586D01*
X212916067Y-99873221D01*
X212892992Y-99866221D01*
X212869001Y-99863858D01*
X212845010Y-99866221D01*
X212821935Y-99873221D01*
X212800671Y-99884586D01*
X212786627Y-99896112D01*
X212784653Y-99896438D01*
X212783385Y-99894892D01*
X212783944Y-99893152D01*
X212836399Y-99840697D01*
X212888022Y-99763438D01*
X212923580Y-99677594D01*
X212941708Y-99586457D01*
X212941708Y-99493543D01*
X212923580Y-99402406D01*
X212888022Y-99316562D01*
X212836399Y-99239303D01*
X212783944Y-99186848D01*
X212783426Y-99184916D01*
X212784840Y-99183502D01*
X212786627Y-99183888D01*
X212800671Y-99195414D01*
X212821935Y-99206779D01*
X212845010Y-99213779D01*
X212869001Y-99216142D01*
X212892992Y-99213779D01*
X212916067Y-99206779D01*
X212937331Y-99195414D01*
X212955968Y-99180119D01*
X212971263Y-99161482D01*
X212982628Y-99140218D01*
X212989628Y-99117143D01*
X212992010Y-99092956D01*
X212993175Y-99091330D01*
X212995165Y-99091526D01*
G37*
G36*
X184142058Y-99047010D02*
G01*
X184160366Y-99048813D01*
X184160751Y-99048889D01*
X184172458Y-99052441D01*
X184172820Y-99052591D01*
X184191935Y-99062807D01*
X184214298Y-99072070D01*
X184237948Y-99076774D01*
X184262054Y-99076774D01*
X184285704Y-99072069D01*
X184308065Y-99062807D01*
X184327180Y-99052591D01*
X184327542Y-99052441D01*
X184339249Y-99048889D01*
X184339634Y-99048813D01*
X184357942Y-99047010D01*
X184358138Y-99047000D01*
X184414500Y-99047000D01*
X184416232Y-99048000D01*
X184416232Y-99050000D01*
X184414696Y-99050990D01*
X184390411Y-99053381D01*
X184367242Y-99060410D01*
X184345892Y-99071822D01*
X184327179Y-99087179D01*
X184311822Y-99105892D01*
X184300410Y-99127242D01*
X184293381Y-99150411D01*
X184291000Y-99174594D01*
X184291000Y-99425406D01*
X184293381Y-99449589D01*
X184300410Y-99472758D01*
X184311822Y-99494108D01*
X184327179Y-99512821D01*
X184345892Y-99528178D01*
X184367242Y-99539590D01*
X184390411Y-99546619D01*
X184414696Y-99549010D01*
X184416322Y-99550175D01*
X184416126Y-99552165D01*
X184414500Y-99553000D01*
X184358138Y-99553000D01*
X184357942Y-99552990D01*
X184339634Y-99551187D01*
X184339249Y-99551111D01*
X184327542Y-99547559D01*
X184327180Y-99547409D01*
X184308065Y-99537193D01*
X184285702Y-99527930D01*
X184262052Y-99523226D01*
X184237946Y-99523226D01*
X184214296Y-99527931D01*
X184191935Y-99537193D01*
X184172820Y-99547409D01*
X184172458Y-99547559D01*
X184160751Y-99551111D01*
X184160366Y-99551187D01*
X184142058Y-99552990D01*
X184141862Y-99553000D01*
X184085500Y-99553000D01*
X184083768Y-99552000D01*
X184083768Y-99550000D01*
X184085304Y-99549010D01*
X184109589Y-99546619D01*
X184132758Y-99539590D01*
X184154108Y-99528178D01*
X184172821Y-99512821D01*
X184188178Y-99494108D01*
X184199590Y-99472758D01*
X184206619Y-99449589D01*
X184209000Y-99425406D01*
X184209000Y-99174594D01*
X184206619Y-99150411D01*
X184199590Y-99127242D01*
X184188178Y-99105892D01*
X184172821Y-99087179D01*
X184154108Y-99071822D01*
X184132758Y-99060410D01*
X184109589Y-99053381D01*
X184085304Y-99050990D01*
X184083678Y-99049825D01*
X184083874Y-99047835D01*
X184085500Y-99047000D01*
X184141862Y-99047000D01*
X184142058Y-99047010D01*
G37*
G36*
X190516958Y-98105290D02*
G01*
X190516572Y-98107077D01*
X190501099Y-98125931D01*
X190489687Y-98147281D01*
X190482658Y-98170450D01*
X190480286Y-98194539D01*
X190482658Y-98218628D01*
X190489687Y-98241797D01*
X190501099Y-98263147D01*
X190516522Y-98281940D01*
X190693860Y-98459278D01*
X190712653Y-98474701D01*
X190734003Y-98486113D01*
X190757172Y-98493142D01*
X190781261Y-98495514D01*
X190805350Y-98493142D01*
X190828519Y-98486113D01*
X190849869Y-98474701D01*
X190868723Y-98459228D01*
X190870697Y-98458902D01*
X190871965Y-98460448D01*
X190871406Y-98462188D01*
X190831564Y-98502030D01*
X190831419Y-98502162D01*
X190817195Y-98513836D01*
X190816869Y-98514054D01*
X190806076Y-98519822D01*
X190805714Y-98519972D01*
X190784976Y-98526264D01*
X190762612Y-98535529D01*
X190742565Y-98548924D01*
X190725519Y-98565972D01*
X190712125Y-98586020D01*
X190702864Y-98608376D01*
X190696572Y-98629114D01*
X190696422Y-98629476D01*
X190690654Y-98640269D01*
X190690436Y-98640595D01*
X190678762Y-98654819D01*
X190678630Y-98654964D01*
X190638788Y-98694806D01*
X190636856Y-98695324D01*
X190635442Y-98693910D01*
X190635828Y-98692123D01*
X190651301Y-98673269D01*
X190662713Y-98651919D01*
X190669742Y-98628750D01*
X190672114Y-98604661D01*
X190669742Y-98580572D01*
X190662713Y-98557403D01*
X190651301Y-98536053D01*
X190635878Y-98517260D01*
X190458540Y-98339922D01*
X190439747Y-98324499D01*
X190418397Y-98313087D01*
X190395228Y-98306058D01*
X190371139Y-98303686D01*
X190347050Y-98306058D01*
X190323881Y-98313087D01*
X190302531Y-98324499D01*
X190283677Y-98339972D01*
X190281703Y-98340298D01*
X190280435Y-98338752D01*
X190280994Y-98337012D01*
X190320836Y-98297170D01*
X190320981Y-98297038D01*
X190335205Y-98285364D01*
X190335531Y-98285146D01*
X190346324Y-98279378D01*
X190346686Y-98279228D01*
X190367424Y-98272936D01*
X190389788Y-98263671D01*
X190409835Y-98250276D01*
X190426881Y-98233228D01*
X190440275Y-98213180D01*
X190449536Y-98190824D01*
X190455828Y-98170086D01*
X190455978Y-98169724D01*
X190461746Y-98158931D01*
X190461964Y-98158605D01*
X190473638Y-98144381D01*
X190473770Y-98144236D01*
X190513612Y-98104394D01*
X190515544Y-98103876D01*
X190516958Y-98105290D01*
G37*
G36*
X184142058Y-98147010D02*
G01*
X184160366Y-98148813D01*
X184160751Y-98148889D01*
X184172458Y-98152441D01*
X184172820Y-98152591D01*
X184191935Y-98162807D01*
X184214298Y-98172070D01*
X184237948Y-98176774D01*
X184262054Y-98176774D01*
X184285704Y-98172069D01*
X184308065Y-98162807D01*
X184327180Y-98152591D01*
X184327542Y-98152441D01*
X184339249Y-98148889D01*
X184339634Y-98148813D01*
X184357942Y-98147010D01*
X184358138Y-98147000D01*
X184414500Y-98147000D01*
X184416232Y-98148000D01*
X184416232Y-98150000D01*
X184414696Y-98150990D01*
X184390411Y-98153381D01*
X184367242Y-98160410D01*
X184345892Y-98171822D01*
X184327179Y-98187179D01*
X184311822Y-98205892D01*
X184300410Y-98227242D01*
X184293381Y-98250411D01*
X184291000Y-98274594D01*
X184291000Y-98525406D01*
X184293381Y-98549589D01*
X184300410Y-98572758D01*
X184311822Y-98594108D01*
X184327179Y-98612821D01*
X184345892Y-98628178D01*
X184367242Y-98639590D01*
X184390411Y-98646619D01*
X184414696Y-98649010D01*
X184416322Y-98650175D01*
X184416126Y-98652165D01*
X184414500Y-98653000D01*
X184358138Y-98653000D01*
X184357942Y-98652990D01*
X184339634Y-98651187D01*
X184339249Y-98651111D01*
X184327542Y-98647559D01*
X184327180Y-98647409D01*
X184308065Y-98637193D01*
X184285702Y-98627930D01*
X184262052Y-98623226D01*
X184237946Y-98623226D01*
X184214296Y-98627931D01*
X184191935Y-98637193D01*
X184172820Y-98647409D01*
X184172458Y-98647559D01*
X184160751Y-98651111D01*
X184160366Y-98651187D01*
X184142058Y-98652990D01*
X184141862Y-98653000D01*
X184085500Y-98653000D01*
X184083768Y-98652000D01*
X184083768Y-98650000D01*
X184085304Y-98649010D01*
X184109589Y-98646619D01*
X184132758Y-98639590D01*
X184154108Y-98628178D01*
X184172821Y-98612821D01*
X184188178Y-98594108D01*
X184199590Y-98572758D01*
X184206619Y-98549589D01*
X184209000Y-98525406D01*
X184209000Y-98274594D01*
X184206619Y-98250411D01*
X184199590Y-98227242D01*
X184188178Y-98205892D01*
X184172821Y-98187179D01*
X184154108Y-98171822D01*
X184132758Y-98160410D01*
X184109589Y-98153381D01*
X184085304Y-98150990D01*
X184083678Y-98149825D01*
X184083874Y-98147835D01*
X184085500Y-98147000D01*
X184141862Y-98147000D01*
X184142058Y-98147010D01*
G37*
G36*
X189678758Y-97267090D02*
G01*
X189678372Y-97268877D01*
X189662899Y-97287731D01*
X189651487Y-97309081D01*
X189644458Y-97332250D01*
X189642086Y-97356339D01*
X189644458Y-97380428D01*
X189651487Y-97403597D01*
X189662899Y-97424947D01*
X189678322Y-97443740D01*
X189855660Y-97621078D01*
X189874453Y-97636501D01*
X189895803Y-97647913D01*
X189918972Y-97654942D01*
X189943061Y-97657314D01*
X189967150Y-97654942D01*
X189990319Y-97647913D01*
X190011669Y-97636501D01*
X190030523Y-97621028D01*
X190032497Y-97620702D01*
X190033765Y-97622248D01*
X190033206Y-97623988D01*
X189993364Y-97663830D01*
X189993219Y-97663962D01*
X189978995Y-97675636D01*
X189978669Y-97675854D01*
X189967876Y-97681622D01*
X189967514Y-97681772D01*
X189946776Y-97688064D01*
X189924412Y-97697329D01*
X189904365Y-97710724D01*
X189887319Y-97727772D01*
X189873925Y-97747820D01*
X189864664Y-97770176D01*
X189858372Y-97790914D01*
X189858222Y-97791276D01*
X189852454Y-97802069D01*
X189852236Y-97802395D01*
X189840562Y-97816619D01*
X189840430Y-97816764D01*
X189800588Y-97856606D01*
X189798656Y-97857124D01*
X189797242Y-97855710D01*
X189797628Y-97853923D01*
X189813101Y-97835069D01*
X189824513Y-97813719D01*
X189831542Y-97790550D01*
X189833914Y-97766461D01*
X189831542Y-97742372D01*
X189824513Y-97719203D01*
X189813101Y-97697853D01*
X189797678Y-97679060D01*
X189620340Y-97501722D01*
X189601547Y-97486299D01*
X189580197Y-97474887D01*
X189557028Y-97467858D01*
X189532939Y-97465486D01*
X189508850Y-97467858D01*
X189485681Y-97474887D01*
X189464331Y-97486299D01*
X189445477Y-97501772D01*
X189443503Y-97502098D01*
X189442235Y-97500552D01*
X189442794Y-97498812D01*
X189482636Y-97458970D01*
X189482781Y-97458838D01*
X189497005Y-97447164D01*
X189497331Y-97446946D01*
X189508124Y-97441178D01*
X189508486Y-97441028D01*
X189529224Y-97434736D01*
X189551588Y-97425471D01*
X189571635Y-97412076D01*
X189588681Y-97395028D01*
X189602075Y-97374980D01*
X189611336Y-97352624D01*
X189617628Y-97331886D01*
X189617778Y-97331524D01*
X189623546Y-97320731D01*
X189623764Y-97320405D01*
X189635438Y-97306181D01*
X189635570Y-97306036D01*
X189675412Y-97266194D01*
X189677344Y-97265676D01*
X189678758Y-97267090D01*
G37*
G36*
X184952165Y-97033874D02*
G01*
X184953000Y-97035500D01*
X184953000Y-97091862D01*
X184952990Y-97092058D01*
X184951187Y-97110366D01*
X184951111Y-97110751D01*
X184947559Y-97122458D01*
X184947409Y-97122820D01*
X184937193Y-97141935D01*
X184927930Y-97164298D01*
X184923226Y-97187948D01*
X184923226Y-97212054D01*
X184927931Y-97235704D01*
X184937193Y-97258065D01*
X184947409Y-97277180D01*
X184947559Y-97277542D01*
X184951111Y-97289249D01*
X184951187Y-97289634D01*
X184952990Y-97307942D01*
X184953000Y-97308138D01*
X184953000Y-97364500D01*
X184952000Y-97366232D01*
X184950000Y-97366232D01*
X184949010Y-97364696D01*
X184946619Y-97340411D01*
X184939590Y-97317242D01*
X184928178Y-97295892D01*
X184912821Y-97277179D01*
X184894108Y-97261822D01*
X184872758Y-97250410D01*
X184849589Y-97243381D01*
X184825406Y-97241000D01*
X184574594Y-97241000D01*
X184550411Y-97243381D01*
X184527242Y-97250410D01*
X184505892Y-97261822D01*
X184487179Y-97277179D01*
X184471822Y-97295892D01*
X184460410Y-97317242D01*
X184453381Y-97340411D01*
X184450990Y-97364696D01*
X184449825Y-97366322D01*
X184447835Y-97366126D01*
X184447000Y-97364500D01*
X184447000Y-97308138D01*
X184447010Y-97307942D01*
X184448813Y-97289634D01*
X184448889Y-97289249D01*
X184452441Y-97277542D01*
X184452591Y-97277180D01*
X184462807Y-97258065D01*
X184472070Y-97235702D01*
X184476774Y-97212052D01*
X184476774Y-97187946D01*
X184472069Y-97164296D01*
X184462807Y-97141935D01*
X184452591Y-97122820D01*
X184452441Y-97122458D01*
X184448889Y-97110751D01*
X184448813Y-97110366D01*
X184447010Y-97092058D01*
X184447000Y-97091862D01*
X184447000Y-97035500D01*
X184448000Y-97033768D01*
X184450000Y-97033768D01*
X184450990Y-97035304D01*
X184453381Y-97059589D01*
X184460410Y-97082758D01*
X184471822Y-97104108D01*
X184487178Y-97122820D01*
X184505892Y-97138178D01*
X184527242Y-97149590D01*
X184550411Y-97156619D01*
X184574594Y-97159000D01*
X184825406Y-97159000D01*
X184849589Y-97156619D01*
X184872758Y-97149590D01*
X184894108Y-97138178D01*
X184912822Y-97122820D01*
X184928178Y-97104108D01*
X184939590Y-97082758D01*
X184946619Y-97059589D01*
X184949010Y-97035304D01*
X184950175Y-97033678D01*
X184952165Y-97033874D01*
G37*
G36*
X184052165Y-97033874D02*
G01*
X184053000Y-97035500D01*
X184053000Y-97091862D01*
X184052990Y-97092058D01*
X184051187Y-97110366D01*
X184051111Y-97110751D01*
X184047559Y-97122458D01*
X184047409Y-97122820D01*
X184037193Y-97141935D01*
X184027930Y-97164298D01*
X184023226Y-97187948D01*
X184023226Y-97212054D01*
X184027931Y-97235704D01*
X184037193Y-97258065D01*
X184047409Y-97277180D01*
X184047559Y-97277542D01*
X184051111Y-97289249D01*
X184051187Y-97289634D01*
X184052990Y-97307942D01*
X184053000Y-97308138D01*
X184053000Y-97364500D01*
X184052000Y-97366232D01*
X184050000Y-97366232D01*
X184049010Y-97364696D01*
X184046619Y-97340411D01*
X184039590Y-97317242D01*
X184028178Y-97295892D01*
X184012821Y-97277179D01*
X183994108Y-97261822D01*
X183972758Y-97250410D01*
X183949589Y-97243381D01*
X183925406Y-97241000D01*
X183674594Y-97241000D01*
X183650411Y-97243381D01*
X183627242Y-97250410D01*
X183605892Y-97261822D01*
X183587179Y-97277179D01*
X183571822Y-97295892D01*
X183560410Y-97317242D01*
X183553381Y-97340411D01*
X183550990Y-97364696D01*
X183549825Y-97366322D01*
X183547835Y-97366126D01*
X183547000Y-97364500D01*
X183547000Y-97308138D01*
X183547010Y-97307942D01*
X183548813Y-97289634D01*
X183548889Y-97289249D01*
X183552441Y-97277542D01*
X183552591Y-97277180D01*
X183562807Y-97258065D01*
X183572070Y-97235702D01*
X183576774Y-97212052D01*
X183576774Y-97187946D01*
X183572069Y-97164296D01*
X183562807Y-97141935D01*
X183552591Y-97122820D01*
X183552441Y-97122458D01*
X183548889Y-97110751D01*
X183548813Y-97110366D01*
X183547010Y-97092058D01*
X183547000Y-97091862D01*
X183547000Y-97035500D01*
X183548000Y-97033768D01*
X183550000Y-97033768D01*
X183550990Y-97035304D01*
X183553381Y-97059589D01*
X183560410Y-97082758D01*
X183571822Y-97104108D01*
X183587178Y-97122820D01*
X183605892Y-97138178D01*
X183627242Y-97149590D01*
X183650411Y-97156619D01*
X183674594Y-97159000D01*
X183925406Y-97159000D01*
X183949589Y-97156619D01*
X183972758Y-97149590D01*
X183994108Y-97138178D01*
X184012822Y-97122820D01*
X184028178Y-97104108D01*
X184039590Y-97082758D01*
X184046619Y-97059589D01*
X184049010Y-97035304D01*
X184050175Y-97033678D01*
X184052165Y-97033874D01*
G37*
G36*
X191329758Y-96479690D02*
G01*
X191329372Y-96481477D01*
X191313899Y-96500331D01*
X191302487Y-96521681D01*
X191295458Y-96544850D01*
X191293086Y-96568939D01*
X191295458Y-96593028D01*
X191302487Y-96616197D01*
X191313899Y-96637547D01*
X191329322Y-96656340D01*
X191506660Y-96833678D01*
X191525453Y-96849101D01*
X191546803Y-96860513D01*
X191569972Y-96867542D01*
X191594061Y-96869914D01*
X191618150Y-96867542D01*
X191641319Y-96860513D01*
X191662669Y-96849101D01*
X191681523Y-96833628D01*
X191683497Y-96833302D01*
X191684765Y-96834848D01*
X191684206Y-96836588D01*
X191644364Y-96876430D01*
X191644219Y-96876562D01*
X191629995Y-96888236D01*
X191629669Y-96888454D01*
X191618876Y-96894222D01*
X191618514Y-96894372D01*
X191597776Y-96900664D01*
X191575412Y-96909929D01*
X191555365Y-96923324D01*
X191538319Y-96940372D01*
X191524925Y-96960420D01*
X191515664Y-96982776D01*
X191509372Y-97003514D01*
X191509222Y-97003876D01*
X191503454Y-97014669D01*
X191503236Y-97014995D01*
X191491562Y-97029219D01*
X191491430Y-97029364D01*
X191451588Y-97069206D01*
X191449656Y-97069724D01*
X191448242Y-97068310D01*
X191448628Y-97066523D01*
X191464101Y-97047669D01*
X191475513Y-97026319D01*
X191482542Y-97003150D01*
X191484914Y-96979061D01*
X191482542Y-96954972D01*
X191475513Y-96931803D01*
X191464101Y-96910453D01*
X191448678Y-96891660D01*
X191271340Y-96714322D01*
X191252547Y-96698899D01*
X191231197Y-96687487D01*
X191208028Y-96680458D01*
X191183939Y-96678086D01*
X191159850Y-96680458D01*
X191136681Y-96687487D01*
X191115331Y-96698899D01*
X191096477Y-96714372D01*
X191094503Y-96714698D01*
X191093235Y-96713152D01*
X191093794Y-96711412D01*
X191133636Y-96671570D01*
X191133781Y-96671438D01*
X191148005Y-96659764D01*
X191148331Y-96659546D01*
X191159124Y-96653778D01*
X191159486Y-96653628D01*
X191180224Y-96647336D01*
X191202588Y-96638071D01*
X191222635Y-96624676D01*
X191239681Y-96607628D01*
X191253075Y-96587580D01*
X191262336Y-96565224D01*
X191268628Y-96544486D01*
X191268778Y-96544124D01*
X191274546Y-96533331D01*
X191274764Y-96533005D01*
X191286438Y-96518781D01*
X191286570Y-96518636D01*
X191326412Y-96478794D01*
X191328344Y-96478276D01*
X191329758Y-96479690D01*
G37*
G36*
X213242165Y-94083874D02*
G01*
X213243000Y-94085500D01*
X213243000Y-94141862D01*
X213242990Y-94142058D01*
X213241187Y-94160366D01*
X213241111Y-94160751D01*
X213237559Y-94172458D01*
X213237409Y-94172820D01*
X213227193Y-94191935D01*
X213217930Y-94214298D01*
X213213226Y-94237948D01*
X213213226Y-94262054D01*
X213217931Y-94285704D01*
X213227193Y-94308065D01*
X213237409Y-94327180D01*
X213237559Y-94327542D01*
X213241111Y-94339249D01*
X213241187Y-94339634D01*
X213242990Y-94357942D01*
X213243000Y-94358138D01*
X213243000Y-94414500D01*
X213242000Y-94416232D01*
X213240000Y-94416232D01*
X213239010Y-94414696D01*
X213236619Y-94390411D01*
X213229590Y-94367242D01*
X213218178Y-94345892D01*
X213202821Y-94327179D01*
X213184108Y-94311822D01*
X213162758Y-94300410D01*
X213139589Y-94293381D01*
X213115406Y-94291000D01*
X212864594Y-94291000D01*
X212840411Y-94293381D01*
X212817242Y-94300410D01*
X212795892Y-94311822D01*
X212777179Y-94327179D01*
X212761822Y-94345892D01*
X212750410Y-94367242D01*
X212743381Y-94390411D01*
X212740990Y-94414696D01*
X212739825Y-94416322D01*
X212737835Y-94416126D01*
X212737000Y-94414500D01*
X212737000Y-94358138D01*
X212737010Y-94357942D01*
X212738813Y-94339634D01*
X212738889Y-94339249D01*
X212742441Y-94327542D01*
X212742591Y-94327180D01*
X212752807Y-94308065D01*
X212762070Y-94285702D01*
X212766774Y-94262052D01*
X212766774Y-94237946D01*
X212762069Y-94214296D01*
X212752807Y-94191935D01*
X212742591Y-94172820D01*
X212742441Y-94172458D01*
X212738889Y-94160751D01*
X212738813Y-94160366D01*
X212737010Y-94142058D01*
X212737000Y-94141862D01*
X212737000Y-94085500D01*
X212738000Y-94083768D01*
X212740000Y-94083768D01*
X212740990Y-94085304D01*
X212743381Y-94109589D01*
X212750410Y-94132758D01*
X212761822Y-94154108D01*
X212777178Y-94172820D01*
X212795892Y-94188178D01*
X212817242Y-94199590D01*
X212840411Y-94206619D01*
X212864594Y-94209000D01*
X213115406Y-94209000D01*
X213139589Y-94206619D01*
X213162758Y-94199590D01*
X213184108Y-94188178D01*
X213202822Y-94172820D01*
X213218178Y-94154108D01*
X213229590Y-94132758D01*
X213236619Y-94109589D01*
X213239010Y-94085304D01*
X213240175Y-94083678D01*
X213242165Y-94083874D01*
G37*
G36*
X219977044Y-93348299D02*
G01*
X220006562Y-93368022D01*
X220092406Y-93403580D01*
X220183543Y-93421708D01*
X220276457Y-93421708D01*
X220367594Y-93403580D01*
X220453438Y-93368022D01*
X220482956Y-93348299D01*
X220484952Y-93348168D01*
X220486063Y-93349831D01*
X220485336Y-93351508D01*
X220471292Y-93363033D01*
X220455997Y-93381670D01*
X220444631Y-93402933D01*
X220437631Y-93426008D01*
X220435268Y-93449999D01*
X220437631Y-93473990D01*
X220444631Y-93497065D01*
X220455996Y-93518329D01*
X220471291Y-93536966D01*
X220485336Y-93548492D01*
X220486040Y-93550364D01*
X220484772Y-93551910D01*
X220482956Y-93551701D01*
X220453438Y-93531978D01*
X220367594Y-93496420D01*
X220276457Y-93478292D01*
X220183543Y-93478292D01*
X220092406Y-93496420D01*
X220006562Y-93531978D01*
X219977044Y-93551701D01*
X219975048Y-93551832D01*
X219973937Y-93550169D01*
X219974664Y-93548492D01*
X219988708Y-93536967D01*
X220004003Y-93518330D01*
X220015369Y-93497067D01*
X220022369Y-93473992D01*
X220024732Y-93450001D01*
X220022369Y-93426010D01*
X220015369Y-93402935D01*
X220004004Y-93381671D01*
X219988709Y-93363034D01*
X219974664Y-93351508D01*
X219973960Y-93349636D01*
X219975228Y-93348090D01*
X219977044Y-93348299D01*
G37*
G36*
X206478580Y-92805000D02*
G01*
X206478580Y-92807000D01*
X206477044Y-92807990D01*
X206452857Y-92810372D01*
X206429782Y-92817372D01*
X206408518Y-92828737D01*
X206389881Y-92844032D01*
X206374586Y-92862669D01*
X206363221Y-92883933D01*
X206356221Y-92907008D01*
X206353858Y-92930999D01*
X206356221Y-92954990D01*
X206363221Y-92978065D01*
X206374586Y-92999329D01*
X206386112Y-93013373D01*
X206386438Y-93015347D01*
X206384892Y-93016615D01*
X206383152Y-93016056D01*
X206330697Y-92963601D01*
X206253438Y-92911978D01*
X206167594Y-92876420D01*
X206076457Y-92858292D01*
X205983543Y-92858292D01*
X205892406Y-92876420D01*
X205806562Y-92911978D01*
X205729303Y-92963601D01*
X205676848Y-93016056D01*
X205674916Y-93016574D01*
X205673502Y-93015160D01*
X205673888Y-93013373D01*
X205685414Y-92999329D01*
X205696779Y-92978065D01*
X205703779Y-92954990D01*
X205706142Y-92930999D01*
X205703779Y-92907008D01*
X205696779Y-92883933D01*
X205685414Y-92862669D01*
X205670119Y-92844032D01*
X205651482Y-92828737D01*
X205630218Y-92817372D01*
X205607143Y-92810372D01*
X205582956Y-92807990D01*
X205581330Y-92806825D01*
X205581526Y-92804835D01*
X205583152Y-92804000D01*
X206476848Y-92804000D01*
X206478580Y-92805000D01*
G37*
G36*
X219977044Y-92348299D02*
G01*
X220006562Y-92368022D01*
X220092406Y-92403580D01*
X220183543Y-92421708D01*
X220276457Y-92421708D01*
X220367594Y-92403580D01*
X220453438Y-92368022D01*
X220482956Y-92348299D01*
X220484952Y-92348168D01*
X220486063Y-92349831D01*
X220485336Y-92351508D01*
X220471292Y-92363033D01*
X220455997Y-92381670D01*
X220444631Y-92402933D01*
X220437631Y-92426008D01*
X220435268Y-92449999D01*
X220437631Y-92473990D01*
X220444631Y-92497065D01*
X220455996Y-92518329D01*
X220471291Y-92536966D01*
X220485336Y-92548492D01*
X220486040Y-92550364D01*
X220484772Y-92551910D01*
X220482956Y-92551701D01*
X220453438Y-92531978D01*
X220367594Y-92496420D01*
X220276457Y-92478292D01*
X220183543Y-92478292D01*
X220092406Y-92496420D01*
X220006562Y-92531978D01*
X219977044Y-92551701D01*
X219975048Y-92551832D01*
X219973937Y-92550169D01*
X219974664Y-92548492D01*
X219988708Y-92536967D01*
X220004003Y-92518330D01*
X220015369Y-92497067D01*
X220022369Y-92473992D01*
X220024732Y-92450001D01*
X220022369Y-92426010D01*
X220015369Y-92402935D01*
X220004004Y-92381671D01*
X219988709Y-92363034D01*
X219974664Y-92351508D01*
X219973960Y-92349636D01*
X219975228Y-92348090D01*
X219977044Y-92348299D01*
G37*
G36*
X219977044Y-91348299D02*
G01*
X220006562Y-91368022D01*
X220092406Y-91403580D01*
X220183543Y-91421708D01*
X220276457Y-91421708D01*
X220367594Y-91403580D01*
X220453438Y-91368022D01*
X220482956Y-91348299D01*
X220484952Y-91348168D01*
X220486063Y-91349831D01*
X220485336Y-91351508D01*
X220471292Y-91363033D01*
X220455997Y-91381670D01*
X220444631Y-91402933D01*
X220437631Y-91426008D01*
X220435268Y-91449999D01*
X220437631Y-91473990D01*
X220444631Y-91497065D01*
X220455996Y-91518329D01*
X220471291Y-91536966D01*
X220485336Y-91548492D01*
X220486040Y-91550364D01*
X220484772Y-91551910D01*
X220482956Y-91551701D01*
X220453438Y-91531978D01*
X220367594Y-91496420D01*
X220276457Y-91478292D01*
X220183543Y-91478292D01*
X220092406Y-91496420D01*
X220006562Y-91531978D01*
X219977044Y-91551701D01*
X219975048Y-91551832D01*
X219973937Y-91550169D01*
X219974664Y-91548492D01*
X219988708Y-91536967D01*
X220004003Y-91518330D01*
X220015369Y-91497067D01*
X220022369Y-91473992D01*
X220024732Y-91450001D01*
X220022369Y-91426010D01*
X220015369Y-91402935D01*
X220004004Y-91381671D01*
X219988709Y-91363034D01*
X219974664Y-91351508D01*
X219973960Y-91349636D01*
X219975228Y-91348090D01*
X219977044Y-91348299D01*
G37*
G36*
X219977044Y-90348299D02*
G01*
X220006562Y-90368022D01*
X220092406Y-90403580D01*
X220183543Y-90421708D01*
X220276457Y-90421708D01*
X220367594Y-90403580D01*
X220453438Y-90368022D01*
X220482956Y-90348299D01*
X220484952Y-90348168D01*
X220486063Y-90349831D01*
X220485336Y-90351508D01*
X220471292Y-90363033D01*
X220455997Y-90381670D01*
X220444631Y-90402933D01*
X220437631Y-90426008D01*
X220435268Y-90449999D01*
X220437631Y-90473990D01*
X220444631Y-90497065D01*
X220455996Y-90518329D01*
X220471291Y-90536966D01*
X220485336Y-90548492D01*
X220486040Y-90550364D01*
X220484772Y-90551910D01*
X220482956Y-90551701D01*
X220453438Y-90531978D01*
X220367594Y-90496420D01*
X220276457Y-90478292D01*
X220183543Y-90478292D01*
X220092406Y-90496420D01*
X220006562Y-90531978D01*
X219977044Y-90551701D01*
X219975048Y-90551832D01*
X219973937Y-90550169D01*
X219974664Y-90548492D01*
X219988708Y-90536967D01*
X220004003Y-90518330D01*
X220015369Y-90497067D01*
X220022369Y-90473992D01*
X220024732Y-90450001D01*
X220022369Y-90426010D01*
X220015369Y-90402935D01*
X220004004Y-90381671D01*
X219988709Y-90363034D01*
X219974664Y-90351508D01*
X219973960Y-90349636D01*
X219975228Y-90348090D01*
X219977044Y-90348299D01*
G37*
G36*
X219977044Y-89348299D02*
G01*
X220006562Y-89368022D01*
X220092406Y-89403580D01*
X220183543Y-89421708D01*
X220276457Y-89421708D01*
X220367594Y-89403580D01*
X220453438Y-89368022D01*
X220482956Y-89348299D01*
X220484952Y-89348168D01*
X220486063Y-89349831D01*
X220485336Y-89351508D01*
X220471292Y-89363033D01*
X220455997Y-89381670D01*
X220444631Y-89402933D01*
X220437631Y-89426008D01*
X220435268Y-89449999D01*
X220437631Y-89473990D01*
X220444631Y-89497065D01*
X220455996Y-89518329D01*
X220471291Y-89536966D01*
X220485336Y-89548492D01*
X220486040Y-89550364D01*
X220484772Y-89551910D01*
X220482956Y-89551701D01*
X220453438Y-89531978D01*
X220367594Y-89496420D01*
X220276457Y-89478292D01*
X220183543Y-89478292D01*
X220092406Y-89496420D01*
X220006562Y-89531978D01*
X219977044Y-89551701D01*
X219975048Y-89551832D01*
X219973937Y-89550169D01*
X219974664Y-89548492D01*
X219988708Y-89536967D01*
X220004003Y-89518330D01*
X220015369Y-89497067D01*
X220022369Y-89473992D01*
X220024732Y-89450001D01*
X220022369Y-89426010D01*
X220015369Y-89402935D01*
X220004004Y-89381671D01*
X219988709Y-89363034D01*
X219974664Y-89351508D01*
X219973960Y-89349636D01*
X219975228Y-89348090D01*
X219977044Y-89348299D01*
G37*
G36*
X219977044Y-88348299D02*
G01*
X220006562Y-88368022D01*
X220092406Y-88403580D01*
X220183543Y-88421708D01*
X220276457Y-88421708D01*
X220367594Y-88403580D01*
X220453438Y-88368022D01*
X220482956Y-88348299D01*
X220484952Y-88348168D01*
X220486063Y-88349831D01*
X220485336Y-88351508D01*
X220471292Y-88363033D01*
X220455997Y-88381670D01*
X220444631Y-88402933D01*
X220437631Y-88426008D01*
X220435268Y-88449999D01*
X220437631Y-88473990D01*
X220444631Y-88497065D01*
X220455996Y-88518329D01*
X220471291Y-88536966D01*
X220485336Y-88548492D01*
X220486040Y-88550364D01*
X220484772Y-88551910D01*
X220482956Y-88551701D01*
X220453438Y-88531978D01*
X220367594Y-88496420D01*
X220276457Y-88478292D01*
X220183543Y-88478292D01*
X220092406Y-88496420D01*
X220006562Y-88531978D01*
X219977044Y-88551701D01*
X219975048Y-88551832D01*
X219973937Y-88550169D01*
X219974664Y-88548492D01*
X219988708Y-88536967D01*
X220004003Y-88518330D01*
X220015369Y-88497067D01*
X220022369Y-88473992D01*
X220024732Y-88450001D01*
X220022369Y-88426010D01*
X220015369Y-88402935D01*
X220004004Y-88381671D01*
X219988709Y-88363034D01*
X219974664Y-88351508D01*
X219973960Y-88349636D01*
X219975228Y-88348090D01*
X219977044Y-88348299D01*
G37*
G36*
X220678580Y-87425000D02*
G01*
X220678580Y-87427000D01*
X220677044Y-87427990D01*
X220652857Y-87430372D01*
X220629782Y-87437372D01*
X220608518Y-87448737D01*
X220589881Y-87464032D01*
X220574586Y-87482669D01*
X220563221Y-87503933D01*
X220556221Y-87527008D01*
X220553858Y-87550999D01*
X220556221Y-87574990D01*
X220563221Y-87598065D01*
X220574586Y-87619329D01*
X220586112Y-87633373D01*
X220586438Y-87635347D01*
X220584892Y-87636615D01*
X220583152Y-87636056D01*
X220530697Y-87583601D01*
X220453438Y-87531978D01*
X220367594Y-87496420D01*
X220276457Y-87478292D01*
X220183543Y-87478292D01*
X220092406Y-87496420D01*
X220006562Y-87531978D01*
X219929303Y-87583601D01*
X219876848Y-87636056D01*
X219874916Y-87636574D01*
X219873502Y-87635160D01*
X219873888Y-87633373D01*
X219885414Y-87619329D01*
X219896779Y-87598065D01*
X219903779Y-87574990D01*
X219906142Y-87550999D01*
X219903779Y-87527008D01*
X219896779Y-87503933D01*
X219885414Y-87482669D01*
X219870119Y-87464032D01*
X219851482Y-87448737D01*
X219830218Y-87437372D01*
X219807143Y-87430372D01*
X219782956Y-87427990D01*
X219781330Y-87426825D01*
X219781526Y-87424835D01*
X219783152Y-87424000D01*
X220676848Y-87424000D01*
X220678580Y-87425000D01*
G37*
G36*
X216307990Y-84422956D02*
G01*
X216310372Y-84447143D01*
X216317372Y-84470218D01*
X216328737Y-84491482D01*
X216344032Y-84510119D01*
X216362669Y-84525414D01*
X216383933Y-84536779D01*
X216407008Y-84543779D01*
X216430999Y-84546142D01*
X216454990Y-84543779D01*
X216478065Y-84536779D01*
X216499329Y-84525414D01*
X216513373Y-84513888D01*
X216515347Y-84513562D01*
X216516615Y-84515108D01*
X216516056Y-84516848D01*
X216463601Y-84569303D01*
X216411978Y-84646562D01*
X216376420Y-84732406D01*
X216358292Y-84823543D01*
X216358292Y-84916457D01*
X216376420Y-85007594D01*
X216411978Y-85093438D01*
X216463601Y-85170697D01*
X216516056Y-85223152D01*
X216516574Y-85225084D01*
X216515160Y-85226498D01*
X216513373Y-85226112D01*
X216499329Y-85214586D01*
X216478065Y-85203221D01*
X216454990Y-85196221D01*
X216430999Y-85193858D01*
X216407008Y-85196221D01*
X216383933Y-85203221D01*
X216362669Y-85214586D01*
X216344032Y-85229881D01*
X216328737Y-85248518D01*
X216317372Y-85269782D01*
X216310372Y-85292857D01*
X216307990Y-85317044D01*
X216306825Y-85318670D01*
X216304835Y-85318474D01*
X216304000Y-85316848D01*
X216304000Y-84423152D01*
X216305000Y-84421420D01*
X216307000Y-84421420D01*
X216307990Y-84422956D01*
G37*
G36*
X217231508Y-84614664D02*
G01*
X217243033Y-84628708D01*
X217261670Y-84644003D01*
X217282933Y-84655369D01*
X217306008Y-84662369D01*
X217329999Y-84664732D01*
X217353990Y-84662369D01*
X217377065Y-84655369D01*
X217398329Y-84644004D01*
X217416966Y-84628709D01*
X217428492Y-84614664D01*
X217430364Y-84613960D01*
X217431910Y-84615228D01*
X217431701Y-84617044D01*
X217411978Y-84646562D01*
X217376420Y-84732406D01*
X217358292Y-84823543D01*
X217358292Y-84916457D01*
X217376420Y-85007594D01*
X217411978Y-85093438D01*
X217431701Y-85122956D01*
X217431832Y-85124952D01*
X217430169Y-85126063D01*
X217428492Y-85125336D01*
X217416967Y-85111292D01*
X217398330Y-85095997D01*
X217377067Y-85084631D01*
X217353992Y-85077631D01*
X217330001Y-85075268D01*
X217306010Y-85077631D01*
X217282935Y-85084631D01*
X217261671Y-85095996D01*
X217243034Y-85111291D01*
X217231508Y-85125336D01*
X217229636Y-85126040D01*
X217228090Y-85124772D01*
X217228299Y-85122956D01*
X217248022Y-85093438D01*
X217283580Y-85007594D01*
X217301708Y-84916457D01*
X217301708Y-84823543D01*
X217283580Y-84732406D01*
X217248022Y-84646562D01*
X217228299Y-84617044D01*
X217228168Y-84615048D01*
X217229831Y-84613937D01*
X217231508Y-84614664D01*
G37*
M02*
